<?xml version="1.0" encoding="utf-8"?>
<!-- Generator: Adobe Illustrator 22.1.0, SVG Export Plug-In . SVG Version: 6.00 Build 0)  -->
<svg version="1.1" id="Layer_1" xmlns="http://www.w3.org/2000/svg" xmlns:xlink="http://www.w3.org/1999/xlink" x="0px" y="0px"
	 viewBox="0 0 1000 1000" style="enable-background:new 0 0 1000 1000;" xml:space="preserve">
<style type="text/css">
	.st0{fill:#FDCE2B;}
	.st1{fill:#EDAB28;}
</style>
<g>
	<g>
		<circle class="st0" cx="500" cy="500" r="500"/>
	</g>
	<g>
		<circle class="st1" cx="500" cy="500" r="442.4"/>
	</g>
	<g>
		<path class="st0" d="M622.8,373.6c-17.5-29-67.4-51.2-113.8-51.2c-55.9,0-107.1,16.2-107.1,63.3c0,44.5,53.2,52.5,109.8,59.3
			c98.3,12.1,203.4,29.6,203.4,148.2c0,90.9-76.1,142.1-159.6,148.2v67.4h-85.5v-64c-75.4-6.7-145.5-41.1-177.2-115.2l79.5-33.7
			c18.2,43.1,78.1,70.7,134,70.7c60.6,0,116.5-20.9,116.5-73.4c0-44.5-55.9-60.6-118.6-68c-96.3-10.8-190.6-27.6-190.6-139.4
			c0-88.2,78.1-128.7,156.3-138.1V189h85.5v58.6c57.3,8.8,109.8,30.3,140.1,92.3L622.8,373.6z"/>
	</g>
</g>
</svg>
