<?xml version="1.0" encoding="utf-8"?>
<!-- Generator: Adobe Illustrator 22.1.0, SVG Export Plug-In . SVG Version: 6.00 Build 0)  -->
<svg version="1.1" id="Layer_1" xmlns="http://www.w3.org/2000/svg" xmlns:xlink="http://www.w3.org/1999/xlink" x="0px" y="0px"
	 viewBox="0 0 1000 1000" style="enable-background:new 0 0 1000 1000;" xml:space="preserve">
<style type="text/css">
	.st0{fill:#F699FF;}
	.st1{fill:#ED33FF;}
</style>
<g>
	<path class="st0" d="M100.9,352.2l-34.4-35.3l19.7-20.3c-0.1,1.2,0,2.1,0.6,2.6c2.6,2.7,12.4-3.1,21.9-12.8
		c9.5-9.7,15.1-19.8,12.5-22.5c-0.5-0.6-1.4-0.7-2.6-0.6l19.7-20.3l34.4,35.3l-12.5,12.8l3.1,3.2l12.5-12.8l34.4,35.3l-19.7,20.3
		c0.1-1.2,0-2.1-0.6-2.6c-2.6-2.7-12.4,3.1-21.9,12.8c-9.5,9.7-15.1,19.8-12.5,22.5c0.5,0.6,1.4,0.7,2.6,0.6l-19.7,20.3L104,355.4
		l6.2-6.4l-3.1-3.2L100.9,352.2z"/>
	<g>
		<path class="st0" d="M250.3,102.5c7.7-7.9,14.4-14.1,14.7-13.7s6.3-6.3,13.1-14.9c0,0,0,0,7.1-7.3C349.3,0.9,486.6,21,486.6,21
			c11,1.6,20.3,9.1,20.8,16.5s-8.2,13.8-19.3,14.1c0,0-76.2,1.9-109.7,36.4c-41.5,42.6-28.5,148.3-28.5,148.3
			c1.4,11,8.8,26.5,16.5,34.4l96.7,99.3c7.7,7.9,20,20.6,27.4,28.1c7.3,7.5,19.6,20.1,27.4,28.1l112.4,115.5
			c7.7,7.9,7.7,20.9,0,28.9l-47.9,49.2c-7.7,7.9-20.4,7.9-28.1,0L441.8,504.3c-7.7-7.9-20-20.6-27.4-28.1s-19.6-20.1-27.4-28.1
			L263.2,321c-7.7-7.9-20.4-7.9-28.1,0l-17.5,17.9c-7.7,7.9-20.4,7.9-28.1,0l-70.7-72.6c-7.7-7.9-7.7-20.9,0-28.9L250.3,102.5z"/>
	</g>
	<path class="st0" d="M159.8,398.3l-51.7,53c-7.8,8-20.4,8-28.1,0L9.4,378.8c-7.8-8-7.8-20.9,0-28.9l51.7-53c7.8-8,20.4-8,28.1,0
		l70.7,72.5C167.6,377.4,167.6,390.3,159.8,398.3z"/>
</g>
<path class="st1" d="M895.9,992.1l96.8-99.4c7.8-8,7.8-20.9,0-28.9L542.2,401.2c-7.8-8-20.4-8-28.1,0l-96.8,99.4
	c-7.8,8-7.8,20.9,0,28.9l450.5,462.6C875.5,1000.1,888.1,1000.1,895.9,992.1z"/>
</svg>
