<?xml version="1.0" encoding="UTF-8" standalone="no"?>
<!-- Created with Inkscape (http://www.inkscape.org/) -->

<svg
   xmlns:dc="http://purl.org/dc/elements/1.1/"
   xmlns:cc="http://creativecommons.org/ns#"
   xmlns:rdf="http://www.w3.org/1999/02/22-rdf-syntax-ns#"
   xmlns:svg="http://www.w3.org/2000/svg"
   xmlns="http://www.w3.org/2000/svg"
   xmlns:sodipodi="http://sodipodi.sourceforge.net/DTD/sodipodi-0.dtd"
   xmlns:inkscape="http://www.inkscape.org/namespaces/inkscape"
   width="250mm"
   height="279mm"
   viewBox="0 0 250 279"
   version="1.1"
   id="svg1715"
   inkscape:version="0.92.2 (5c3e80d, 2017-08-06)"
   sodipodi:docname="beach spartantron.svg">
  <defs
     id="defs1709" />
  <sodipodi:namedview
     id="base"
     pagecolor="#ffffff"
     bordercolor="#666666"
     borderopacity="1.0"
     inkscape:pageopacity="0.0"
     inkscape:pageshadow="2"
     inkscape:zoom="0.35"
     inkscape:cx="448.21605"
     inkscape:cy="560"
     inkscape:document-units="mm"
     inkscape:current-layer="layer1"
     showgrid="false"
     inkscape:snap-page="true"
     inkscape:snap-global="false"
     inkscape:window-width="958"
     inkscape:window-height="1048"
     inkscape:window-x="-7"
     inkscape:window-y="0"
     inkscape:window-maximized="0" />
  <metadata
     id="metadata1712">
    <rdf:RDF>
      <cc:Work
         rdf:about="">
        <dc:format>image/svg+xml</dc:format>
        <dc:type
           rdf:resource="http://purl.org/dc/dcmitype/StillImage" />
        <dc:title></dc:title>
      </cc:Work>
    </rdf:RDF>
  </metadata>
  <g
     inkscape:label="Layer 1"
     inkscape:groupmode="layer"
     id="layer1"
     transform="translate(0,-18)">
    <g
       transform="matrix(0.43959988,0,0,0.43959988,-518.96403,-180.2563)"
       style="display:inline"
       id="g2391">
      <g
         style="fill:#c6a661;fill-opacity:1"
         transform="translate(559.5039,137.21091)"
         id="g2574">
        <path
           inkscape:connector-curvature="0"
           style="fill:#c6a661;fill-opacity:1;stroke-width:0.78147608"
           d="m 742.53906,832.12305 c -10.91302,0 -19.88188,8.72097 -20.29687,19.53711 h -36.35938 c -12.26917,0 -22.27343,10.00231 -22.27343,22.27148 0,12.26918 10.00426,22.27344 22.27343,22.27344 h 75.28125 c 2.68979,12.04538 13.47522,21.09961 26.31055,21.09961 h 284.45699 c 12.8353,0 23.6188,-9.05431 26.3086,-21.09961 h 6.5137 c 12.2692,0 22.2715,-10.00426 22.2715,-22.27344 0,-12.26917 -10.0023,-22.27148 -22.2715,-22.27148 h -62.9297 c -0.415,-10.81614 -9.3858,-19.53711 -20.2988,-19.53711 z"
           id="path2190" />
        <g
           style="fill:#c6a661;fill-opacity:1"
           id="g2196"
           transform="matrix(0.78147611,0,0,0.78147611,511.22209,261.64583)">
          <path
             id="path2194"
             d="m 194,859 h -36 c -6.6,0 -12,-5.4 -12,-12 v -1 c 0,-6.6 5.4,-12 12,-12 h 36 c 6.6,0 12,5.4 12,12 v 1 c 0,6.6 -5.4,12 -12,12 z"
             class="st0"
             inkscape:connector-curvature="0"
             style="fill:#c6a661;fill-opacity:1" />
        </g>
        <path
           inkscape:connector-curvature="0"
           style="fill:#c6a661;fill-opacity:1;stroke-width:0.78147608"
           d="m 1116.8652,914.95898 c -4.6889,0 -8.5957,3.9088 -8.5957,8.59766 0,4.68885 3.9068,8.5957 8.5957,8.5957 h 15.6309 c 0,3.90738 3.1258,7.03321 7.0332,7.03321 h 35.9473 c 3.9074,0 7.0332,-3.12583 7.0332,-7.03321 0,-3.90738 -3.1258,-7.0332 -7.0332,-7.0332 h -18.127 c 0.096,-0.5085 0.1524,-1.02918 0.1524,-1.5625 0,-4.68886 -3.9068,-8.59766 -8.5958,-8.59766 z"
           id="path2198-4" />
        <g
           style="fill:#c6a661;fill-opacity:1"
           id="g2204"
           transform="matrix(0.78147611,0,0,0.78147611,511.22209,261.64583)">
          <path
             id="path2202"
             d="m 749.5,747 h -41 c -4.7,0 -8.5,-3.8 -8.5,-8.5 v 0 c 0,-4.7 3.8,-8.5 8.5,-8.5 h 41 c 4.7,0 8.5,3.8 8.5,8.5 v 0 c 0,4.7 -3.8,8.5 -8.5,8.5 z"
             class="st0"
             inkscape:connector-curvature="0"
             style="fill:#c6a661;fill-opacity:1" />
        </g>
      </g>
      <g
         transform="matrix(0.78147611,0,0,0.78147611,1069.3865,414.50995)"
         id="Layer_2-0">
        <path
           id="path2224"
           d="m 628,743 v 20 c 0,6.6 -5.4,12 -12,12 H 373 c -6.6,0 -12,-5.4 -12,-12 v -20 c 0,-6.6 5.4,-12 12,-12 h 243 c 6.6,0 12,5.4 12,12 z"
           class="st2"
           inkscape:connector-curvature="0"
           style="fill:#a9a3a7" />
        <path
           id="path2226"
           d="m 647,432 v 307 c 0,8.3 -6.7,15 -15,15 H 357 c -8.3,0 -15,-6.7 -15,-15 V 432 c 0,-5.8 3.2,-10.8 8,-13.3 0.1,-0.1 0.2,-0.1 0.3,-0.2 v 0 c 2,-1 4.3,-1.6 6.7,-1.6 h 275 c 2.7,0 5.3,0.7 7.5,2 3,1.7 5.3,4.4 6.5,7.6 0.7,1.8 1,3.6 1,5.5 z"
           class="st3"
           inkscape:connector-curvature="0"
           style="fill:#e4dad1" />
        <path
           id="path2228"
           d="M 598,421.3 V 620 c 0,5.9 -3.4,11 -8.3,13.4 -2,1 -4.3,1.6 -6.8,1.6 H 406 c -3.1,0 -6.1,-1 -8.5,-2.6 -4,-2.7 -6.6,-7.3 -6.6,-12.4 V 421.3 c 0,-8.3 6.7,-15 15,-15 H 583 c 8.3,0 15,6.7 15,15 z"
           class="st4"
           inkscape:connector-curvature="0"
           style="fill:#b4a19a" />
        <path
           id="path2230"
           d="m 584,436.7 v 167.7 c 0,8.3 -6.7,15 -15,15 H 420 c -3,0 -5.8,-0.9 -8.1,-2.4 -4.2,-2.7 -6.9,-7.4 -6.9,-12.7 V 436.7 c 0,-8.3 6.7,-15 15,-15 h 149 c 8.3,-0.1 15,6.7 15,15 z"
           class="st5"
           inkscape:connector-curvature="0"
           style="fill:#032842" />
        <path
           id="path2232"
           d="M 605,683 H 471 c -4.4,0 -8,-3.6 -8,-8 v 0 c 0,-4.4 3.6,-8 8,-8 h 134 c 4.4,0 8,3.6 8,8 v 0 c 0,4.4 -3.6,8 -8,8 z"
           class="st6"
           inkscape:connector-curvature="0"
           style="fill:#8c7b71" />
        <path
           id="path2234"
           d="m 605,690 h -37 c -4.4,0 -8,-3.6 -8,-8 v -13 c 0,-4.4 3.6,-8 8,-8 h 37 c 4.4,0 8,3.6 8,8 v 13 c 0,4.4 -3.6,8 -8,8 z"
           class="st6"
           inkscape:connector-curvature="0"
           style="fill:#8c7b71" />
      </g>
      <g
         transform="matrix(0.78147611,0,0,0.78147611,1069.3865,414.50995)"
         id="Layer_16">
        <path
           id="path2237"
           d="M 584,436.7 V 445 L 411.9,617.1 c -4.2,-2.7 -6.9,-7.4 -6.9,-12.7 V 566.5 L 549.8,421.7 H 569 c 8.3,-0.1 15,6.7 15,15 z"
           class="st7"
           inkscape:connector-curvature="0"
           style="opacity:0.13999999;fill:#ffffff" />
        <polygon
           id="polygon2239"
           points="584,498.5 463.1,619.4 487.6,619.4 584,523 "
           class="st7"
           style="opacity:0.13999999;fill:#ffffff" />
      </g>
      <g
         transform="matrix(0.78147611,0,0,0.78147611,1069.3865,414.50995)"
         id="Layer_3">
        <path
           id="path2242"
           d="m 432.5,523 v 0 c -6.3,0 -11.5,-5.2 -11.5,-11.5 v 0 c 0,-6.3 5.2,-11.5 11.5,-11.5 v 0 c 6.3,0 11.5,5.2 11.5,11.5 v 0 c 0,6.3 -5.2,11.5 -11.5,11.5 z"
           class="st8"
           inkscape:connector-curvature="0"
           style="fill:#5ce9f1" />
        <path
           id="path2244"
           d="m 556.5,523 v 0 c -6.3,0 -11.5,-5.2 -11.5,-11.5 v 0 c 0,-6.3 5.2,-11.5 11.5,-11.5 v 0 c 6.3,0 11.5,5.2 11.5,11.5 v 0 c 0,6.3 -5.2,11.5 -11.5,11.5 z"
           class="st8"
           inkscape:connector-curvature="0"
           style="fill:#5ce9f1" />
        <path
           id="path2246"
           d="m 535,549 v 10 c 0,8.4 -5.5,15.6 -13.1,18.1 -1.8,0.6 -3.8,0.9 -5.9,0.9 h -43 c -2.4,0 -4.8,-0.5 -6.9,-1.3 C 459.1,573.9 454,567 454,559 v -10 z"
           class="st9"
           inkscape:connector-curvature="0"
           style="fill:#9df2f7" />
        <path
           id="path2248"
           d="m 522,575.5 c 0,0.5 0,1 -0.1,1.6 -1.8,0.6 -3.8,0.9 -5.9,0.9 h -43 c -2.4,0 -4.8,-0.5 -6.9,-1.3 -0.1,-0.4 -0.1,-0.8 -0.1,-1.2 0,-9.1 12.5,-16.5 28,-16.5 15.5,0 28,7.4 28,16.5 z"
           class="st10"
           inkscape:connector-curvature="0"
           style="fill:#45afb5" />
      </g>
      <g
         transform="matrix(0.78147611,0,0,0.78147611,1069.3865,414.50995)"
         id="Layer_4">
        <g
           id="Layer_5">
          <path
             id="path2251"
             d="m 552.7,91 -25.7,174.6 -1.5,10.3 -0.1,0.4 -3.4,23.3 -3,20.4 -23,1.9 -1,0.1 -24,-2 -6,-40.8 -0.4,-2.5 -0.1,-0.4 L 454,204.4 437.3,91 c -0.8,-5.4 1.9,-10.7 6.7,-13.3 l 10,-5.4 9.8,-5.3 22.2,-12 2.8,-1.5 c 1.9,-1 4.1,-1.6 6.2,-1.6 0.3,0 0.7,0 1,0 1.8,0.1 3.6,0.6 5.2,1.5 l 22.4,12.2 3.4,1.8 19,10.3 c 4.8,2.6 7.5,7.9 6.7,13.3 z"
             class="st11"
             inkscape:connector-curvature="0"
             style="fill:#3387d0" />
        </g>
        <path
           id="path2254"
           d="m 639.5,419 c -1.9,5.1 -6.7,9 -12.8,9 H 363.3 c -6.3,0 -11.2,-4.1 -13,-9.4 v 0 c -0.1,-0.4 -0.3,-0.8 -0.3,-1.2 -0.4,-1.9 -0.5,-3.9 0,-6 0.2,-0.7 0.4,-1.5 0.7,-2.2 l 5.6,-13.6 10.8,-26.4 L 388,318 c 1.6,-3.9 4,-7.3 7.1,-9.9 2,-1.8 4.4,-3.3 6.9,-4.4 l 13,-5.7 39,-17 9.6,-4.2 0.9,-0.4 0.4,-0.2 21,-9.2 3.8,-1.7 c 1.7,-0.7 3.4,-1.1 5.2,-1.1 1.8,0 3.5,0.4 5.2,1.1 l 21.8,9.5 2.5,1.1 0.9,0.4 1.6,0.7 54,23.6 7.1,3.1 c 0.7,0.3 1.4,0.7 2.1,1.1 0.2,0.1 0.5,0.3 0.7,0.4 0.1,0 0.1,0.1 0.2,0.1 0.3,0.2 0.6,0.3 0.8,0.5 0,0 0,0 0,0 0,0 0,0 0,0 0.3,0.2 0.5,0.3 0.8,0.5 0.9,0.6 1.7,1.3 2.5,2 0.2,0.2 0.4,0.4 0.6,0.5 0.8,0.8 1.6,1.7 2.3,2.6 0.2,0.3 0.4,0.5 0.6,0.8 0.5,0.7 1,1.4 1.4,2.1 0.1,0.2 0.3,0.5 0.4,0.7 0,0.1 0.1,0.2 0.1,0.3 0.1,0.2 0.3,0.4 0.4,0.7 0.1,0.3 0.3,0.5 0.4,0.8 0.2,0.4 0.3,0.8 0.5,1.2 l 8.9,21.8 5,12.2 17.8,43.5 5.6,13.6 c 1.6,3.4 1.5,6.9 0.4,9.9 z"
           class="st12"
           inkscape:connector-curvature="0"
           style="fill:#9fd6fc" />
        <path
           id="path2256"
           d="m 676,422.5 v 49.1 c 0,8.1 -7.3,14.2 -15.2,12.8 L 647,482 l -1,-0.2 -30,-5.1 -5,-0.9 -13,-2.2 -6,-1 -8,-1.4 -3,-0.5 -54,-9.3 -5,-0.9 -24.8,-4.2 c -0.7,-0.1 -1.5,-0.2 -2.2,-0.2 -0.7,0 -1.5,0.1 -2.2,0.2 l -6.8,1.2 -32,5.5 -39,6.7 -10,1.7 -14,2.4 -24,4.1 -17,2.9 -8,1.4 -10,1.7 -2.8,0.5 c -7.9,1.4 -15.2,-4.8 -15.2,-12.8 v -49.1 c 0,-5.2 3.1,-9.9 7.8,-11.9 l 10.2,-4.5 10,-4.4 8,-3.5 6.2,-2.7 10.8,-4.7 28,-12.2 20,-8.7 39,-17 11,-4.8 21,-9.2 3.8,-1.7 c 1.7,-0.7 3.4,-1.1 5.2,-1.1 1.8,0 3.5,0.4 5.2,1.1 l 21.8,9.5 5,2.2 54,23.6 11,4.8 19,8.3 5,2.2 17.8,7.8 12.2,5.3 1,0.4 21.2,9.3 c 4.7,2.1 7.8,6.7 7.8,11.9 z"
           class="st11"
           inkscape:connector-curvature="0"
           style="fill:#3387d0" />
      </g>
      <g
         transform="matrix(0.78147611,0,0,0.78147611,1069.3865,414.50995)"
         id="tube">
        <g
           id="g2286">
          <path
             id="path2282"
             d="m 665,712.5 c 0,1.3 -1.5,2.5 -4.3,3.7 0,0 0,0 0,0 -9.1,3.8 -32.1,7.2 -63.7,9.5 -2.9,0.2 -5.9,0.4 -9,0.6 -0.2,0 -0.4,0 -0.6,0 -15.3,1 -32.4,1.7 -50.7,2.2 -7.1,0.2 -14.4,0.3 -21.8,0.4 -4.2,0 -8.4,0.1 -12.8,0.1 -0.7,0 -1.5,0 -2.2,0 -1.8,0 -3.7,0 -5.5,0 -13.9,0 -27.4,-0.2 -40.3,-0.5 -10.7,-0.3 -21,-0.6 -30.8,-1 h -0.8 c -12.8,-0.6 -24.8,-1.3 -35.6,-2.2 -14.6,-1.1 -27.2,-2.5 -37.2,-4.1 -3.2,-0.5 -6.1,-1 -8.8,-1.5 -6,-1.2 -10.5,-2.5 -13.4,-3.8 -2.4,-1.1 -3.6,-2.2 -3.6,-3.4 0,-1.6 2.3,-3.1 6.5,-4.5 v 6 h 331.3 v -4.7 c 2.2,1 3.3,2.1 3.3,3.2 z"
             class="st15"
             inkscape:connector-curvature="0"
             style="fill:#fc7afc" />
          <path
             id="path2284"
             d="m 710,658 c 0,2.3 -0.1,4.6 -0.4,6.8 -1.6,13.5 -7.8,25.7 -16.9,34.9 -4.4,4.4 -9.5,8.1 -15.1,10.9 -2.8,1.4 -5.7,2.6 -8.7,3.6 -0.6,0.2 -1.3,0.4 -1.9,0.6 -0.1,0 -0.1,0 -0.2,0 -0.6,0.2 -1.3,0.3 -1.9,0.5 -0.7,0.2 -1.4,0.3 -2,0.5 -0.6,0.2 -1.4,0.3 -2.1,0.4 0,0 0,0 0,0 -0.8,0.1 -1.6,0.3 -2.4,0.3 -0.4,0 -0.8,0.1 -1.2,0.1 -0.4,0 -0.8,0.1 -1.2,0.1 -0.4,0 -0.8,0.1 -1.2,0.1 -0.4,0 -0.8,0 -1.2,0.1 -0.3,0 -0.6,0 -1,0 -0.5,0 -1,0 -1.5,0 H 339 c -3.9,0 -7.7,-0.4 -11.4,-1.1 -7.3,-1.4 -14.1,-4.2 -20.1,-8.1 -9.4,-6 -17,-14.5 -21.8,-24.5 v 0 c -2.8,-5.7 -4.6,-12 -5.3,-18.5 -0.3,-2.2 -0.4,-4.5 -0.4,-6.7 0,-16.2 6.6,-31 17.3,-41.7 4.5,-4.5 9.7,-8.3 15.4,-11.1 6,-3 12.5,-5 19.4,-5.8 2.2,-0.3 4.5,-0.4 6.8,-0.4 h 3 v 19 c 2.5,0.9 5.8,1.8 9.7,2.7 8.1,1.8 19.1,3.3 32.3,4.7 12.5,1.3 27.1,2.3 43.1,3.1 12.4,0.6 25.6,1.1 39.4,1.3 8.8,0.2 17.8,0.3 27,0.3 2.2,0 4.3,0 6.5,0 4.2,0 8.3,0 12.4,-0.1 5.1,-0.1 10.1,-0.2 15,-0.3 18.8,-0.4 36.3,-1.2 52,-2.3 11.3,-0.8 21.6,-1.7 30.6,-2.7 17.9,-2.1 30.9,-4.6 37,-7.4 V 599 h 6 v 0 c 0.7,0 1.3,0.1 2,0.1 0.4,0 0.9,0.1 1.3,0.1 4.7,0.4 9.3,1.4 13.7,2.9 19.7,6.7 34.9,23.7 39,44.4 0.7,3.8 1.1,7.6 1.1,11.5 z"
             class="st15"
             inkscape:connector-curvature="0"
             style="fill:#fc7afc" />
        </g>
      </g>
      <g
         transform="matrix(0.78147611,0,0,0.78147611,1069.3865,414.50995)"
         id="poka_dots">
        <path
           id="path2289"
           d="m 537,724.5 c 0,1.3 -0.1,2.7 -0.2,4 -7.1,0.2 -14.4,0.3 -21.8,0.4 -4.2,0 -8.4,0.1 -12.8,0.1 -2.6,0 -5.1,0 -7.7,0 -13.9,0 -27.4,-0.2 -40.3,-0.5 -0.1,-1.3 -0.2,-2.7 -0.2,-4 0,-2.6 0.2,-5.1 0.7,-7.5 0.2,-1 0.4,-2 0.7,-3 4.6,-17.8 20.9,-31 40.2,-31 19.3,0 35.5,13.2 40.2,31 0.3,1 0.5,2 0.7,3 0.3,2.4 0.5,4.9 0.5,7.5 z"
           class="st16"
           inkscape:connector-curvature="0"
           style="fill:#fff8bb" />
        <path
           id="path2291"
           d="m 677.6,710.6 c -2.8,1.4 -5.7,2.6 -8.7,3.6 -0.6,0.2 -1.3,0.4 -1.9,0.6 -0.1,0 -0.1,0 -0.2,0 -0.6,0.2 -1.3,0.3 -1.9,0.5 -0.7,0.2 -1.4,0.3 -2,0.5 -0.6,0.2 -1.4,0.3 -2.1,0.4 0,0 0,0 0,0 -9.1,3.8 -32.1,7.2 -63.7,9.5 0,-0.4 0,-0.8 0,-1.2 0,-2.6 0.2,-5.1 0.7,-7.5 0.2,-1 0.4,-2 0.7,-3 4.6,-17.8 20.9,-31 40.2,-31 17.8,0 33.2,11.5 38.9,27.6 z"
           class="st16"
           inkscape:connector-curvature="0"
           style="fill:#fff8bb" />
        <path
           id="path2293"
           d="m 387,724.5 c 0,0.3 0,0.5 0,0.8 -14.6,-1.1 -27.2,-2.5 -37.2,-4.1 -3.2,-0.5 -6.1,-1 -8.8,-1.5 -6,-1.2 -10.5,-2.5 -13.4,-3.8 -7.3,-1.4 -14.1,-4.2 -20.1,-8.1 6.4,-14.6 21,-24.8 38,-24.8 19.3,0 35.5,13.2 40.2,31 0.3,1 0.5,2 0.7,3 0.4,2.4 0.6,4.9 0.6,7.5 z"
           class="st16"
           inkscape:connector-curvature="0"
           style="fill:#fff8bb" />
        <path
           id="path2295"
           d="m 466.5,629.8 c -3,20 -20.2,35.3 -41,35.3 -22.3,0 -40.5,-17.6 -41.5,-39.7 12.5,1.3 27.1,2.3 43.1,3.1 12.4,0.6 25.6,1 39.4,1.3 z"
           class="st16"
           inkscape:connector-curvature="0"
           style="fill:#fff8bb" />
        <path
           id="path2297"
           d="m 610,624.6 c -0.2,5.9 -1.5,11.5 -3.9,16.5 -2.3,4.9 -5.5,9.3 -9.5,12.9 -7.4,6.8 -17.2,10.9 -28.1,10.9 -20.8,0 -38.1,-15.4 -41,-35.4 18.8,-0.4 36.3,-1.2 52,-2.3 11.2,-0.6 21.5,-1.6 30.5,-2.6 z"
           class="st16"
           inkscape:connector-curvature="0"
           style="fill:#fff8bb" />
        <path
           id="path2299"
           d="m 317,623.5 c 0,21.3 -16,38.8 -36.6,41.2 -0.3,-2.2 -0.4,-4.5 -0.4,-6.7 0,-16.2 6.6,-31 17.3,-41.7 4.5,-4.5 9.7,-8.3 15.4,-11.1 2.8,5.5 4.3,11.7 4.3,18.3 z"
           class="st16"
           inkscape:connector-curvature="0"
           style="fill:#fff8bb" />
        <path
           id="path2301"
           d="m 710,658 c 0,2.3 -0.1,4.6 -0.4,6.8 -1.3,0.1 -2.7,0.2 -4.1,0.2 -22.9,0 -41.5,-18.6 -41.5,-41.5 0,-7.8 2.2,-15.1 5.9,-21.4 19.7,6.7 34.9,23.7 39,44.4 0.7,3.8 1.1,7.6 1.1,11.5 z"
           class="st16"
           inkscape:connector-curvature="0"
           style="fill:#fff8bb" />
      </g>
      <g
         transform="matrix(0.78147611,0,0,0.78147611,1069.3865,414.50995)"
         id="light__x2B__shadow">
        <path
           id="path2304"
           d="m 676,422.5 v 49.1 c 0,8.1 -7.3,14.2 -15.2,12.8 l -163.6,-28 c -0.7,-0.1 -1.5,-0.2 -2.2,-0.2 V 51.8 c 1.8,0.1 3.6,0.6 5.2,1.5 L 545,77.7 c 4.8,2.6 7.5,7.9 6.7,13.3 l -27.2,184.9 63.6,27.8 c 6.4,2.8 11.4,7.9 14,14.3 l 31.7,77.6 34.4,15 c 4.7,2.1 7.8,6.7 7.8,11.9 z"
           class="st17"
           inkscape:connector-curvature="0"
           style="opacity:0.13999999" />
        <path
           id="path2306"
           d="m 588.1,726.3 c -0.2,0 -0.4,0 -0.6,0 -15.3,1 -32.4,1.7 -50.7,2.2 -7.1,0.2 -14.4,0.3 -21.8,0.4 -4.2,0 -8.4,0.1 -12.8,0.1 -2.6,0 -5.1,0 -7.7,0 -13.9,0 -27.4,-0.2 -40.3,-0.5 -10.7,-0.3 -21,-0.6 -30.8,-1 h -0.8 c -12.8,-0.6 -24.8,-1.3 -35.6,-2.2 -14.6,-1.1 -27.2,-2.5 -37.2,-4.1 -2.8,-0.4 -5.4,-0.9 -7.8,-1.3 V 739 c 0,8.3 6.7,15 15,15 h 4 v 9 c 0,6.6 5.4,12 12,12 h 243 c 6.6,0 12,-5.4 12,-12 v -9 h 4 c 8.3,0 15,-6.7 15,-15 v -19.1 c -11.9,2.3 -29,4.3 -50,5.8 -2.9,0.2 -5.9,0.4 -8.9,0.6 z"
           class="st17"
           inkscape:connector-curvature="0"
           style="opacity:0.13999999" />
        <g
           id="g2310"
           class="st18"
           style="opacity:0.8">
          <path
             id="path2308"
             d="m 414.6,643.3 c 9,0.6 18.7,1.1 28.9,1.6 3.1,0.1 5.5,2.7 5.5,5.8 v 0.5 c 0,3.3 -2.7,5.9 -6,5.8 -10,-0.4 -19.5,-0.9 -28.4,-1.5 -29.5,-2 -52.2,-5 -63.6,-8.6 -2.4,-0.8 -4,-3 -4,-5.5 v 0 c 0,-3.8 3.6,-6.5 7.2,-5.6 12.1,3 33.4,5.7 60.4,7.5 z"
             class="st19"
             inkscape:connector-curvature="0"
             style="fill:#ffffff" />
        </g>
      </g>
    </g>
  </g>
</svg>
