<?xml version="1.0" encoding="UTF-8"?>
<svg width="1128px" height="505px" viewBox="0 0 1128 505" version="1.1" xmlns="http://www.w3.org/2000/svg" xmlns:xlink="http://www.w3.org/1999/xlink">
    <!-- Generator: Sketch 49.2 (51160) - http://www.bohemiancoding.com/sketch -->
    <title>Group</title>
    <desc>Created with Sketch.</desc>
    <defs>
        <path d="M150,0 L989.551931,3.19744231e-14 C995.02369,6.98484627e-14 1000.16096,2.6337671 1003.35501,7.07653782 L1124.64388,175.783738 C1130.12446,183.406966 1128.3875,194.029699 1120.76427,199.510276 C1117.87292,201.588956 1114.40182,202.7072 1110.84081,202.7072 L150,202.7072 C140.611159,202.7072 133,195.096041 133,185.7072 L133,17 C133,7.61115925 140.611159,1.72470207e-15 150,0 Z" id="path-1"></path>
        <path d="M17,197 L661.448091,197 C666.91985,197 672.057121,199.633767 675.251167,204.076538 L763.679709,327.076538 C769.160285,334.699766 767.423323,345.322499 759.800095,350.803076 C756.908748,352.881755 753.437643,354 749.876633,354 L17,354 C7.61115925,354 1.14980138e-15,346.388841 0,337 L0,214 C-1.14980138e-15,204.611159 7.61115925,197 17,197 Z" id="path-2"></path>
        <path d="M456,348 L873.083554,348 C879.635662,348 885.604583,351.765427 888.426306,357.678801 L947.118996,480.678801 C951.162383,489.15237 947.571011,499.299366 939.097442,503.342752 C936.811013,504.433783 934.309642,505 931.776244,505 L456,505 C446.611159,505 439,497.388841 439,488 L439,365 C439,355.611159 446.611159,348 456,348 Z" id="path-3"></path>
    </defs>
    <g id="Page-1" stroke="none" stroke-width="1" fill="none" fill-rule="evenodd">
        <g id="Group">
            <g id="Rectangle">
                <use fill="#4D00BB" fill-rule="evenodd" xlink:href="#path-1"></use>
                <path stroke="#773CD2" stroke-width="6" d="M150,3 C142.268014,3 136,9.2680135 136,17 L136,185.7072 C136,193.439187 142.268014,199.7072 150,199.7072 L1110.84081,199.7072 C1113.7734,199.7072 1116.63196,198.786293 1119.01307,197.074439 C1125.29102,192.561023 1126.72146,183.81289 1122.20805,177.534937 L1000.91917,8.82773702 C998.288779,5.16898467 994.058086,3 989.551931,3 L150,3 Z"></path>
            </g>
            <g id="Rectangle-Copy" transform="translate(383.438955, 275.500000) scale(-1, 1) translate(-383.438955, -275.500000) ">
                <use fill="#4D00BB" fill-rule="evenodd" xlink:href="#path-2"></use>
                <path stroke="#773CD2" stroke-width="6" d="M17,200 C9.2680135,200 3,206.268014 3,214 L3,337 C3,344.731986 9.2680135,351 17,351 L749.876633,351 C752.80923,351 755.667787,350.079093 758.048896,348.367239 C764.326848,343.853823 765.757288,335.10569 761.243872,328.827737 L672.81533,205.827737 C670.184939,202.168985 665.954246,200 661.448091,200 L17,200 Z"></path>
            </g>
            <text id="hackCWRU-6" font-family="HiraginoSansGB-W6, Hiragino Sans GB" font-size="99" font-weight="500" fill="#FFFFFF">
                <tspan x="279.441" y="139">hackCWRU 6</tspan>
            </text>
            <text id="Case-Western-Reserve" font-family="HiraginoSansGB-W6, Hiragino Sans GB" font-size="50" font-weight="500" fill="#FFFFFF">
                <tspan x="195.65" y="271">Case Western </tspan>
                <tspan x="129.2" y="321">Reserve University</tspan>
            </text>
            <g id="Rectangle-Copy-2">
                <use fill="#4D00BB" fill-rule="evenodd" xlink:href="#path-3"></use>
                <path stroke="#773CD2" stroke-width="6" d="M456,351 C448.268014,351 442,357.268014 442,365 L442,488 C442,495.731986 448.268014,502 456,502 L931.776244,502 C933.862572,502 935.922524,501.533703 937.805466,500.635208 C944.783699,497.30536 947.741299,488.94901 944.411452,481.970778 L885.718762,358.970778 C883.39499,354.100939 878.479408,351 873.083554,351 L456,351 Z"></path>
            </g>
            <text id="Feb.-15-17th-2019" font-family="HiraginoSansGB-W6, Hiragino Sans GB" font-size="35" font-weight="500" fill="#FFFFFF">
                <tspan x="516.085" y="440">Feb. 15-17th 2019</tspan>
            </text>
        </g>
    </g>
</svg>