<?xml version="1.0" encoding="UTF-8"?>
<svg width="508px" height="118px" viewBox="0 0 508 118" version="1.1" xmlns="http://www.w3.org/2000/svg" xmlns:xlink="http://www.w3.org/1999/xlink">
    <!-- Generator: Sketch 53 (72520) - https://sketchapp.com -->
    <title>Artboard</title>
    <desc>Created with Sketch.</desc>
    <g id="Artboard" stroke="none" stroke-width="1" fill="none" fill-rule="evenodd">
        <g id="top-back-waves" fill-rule="nonzero">
            <path d="M264.5736,0.563769938 C263.208567,0.559480426 261.992796,0.567523261 260.934082,0.582000365 C228.339913,1.09395364 154.939148,5.41625376 104.44267,9.06046243 L104.44267,30.5583714 L507.976402,30.5583714 L507.976402,13.2363561 C414.383251,6.57050786 297.110817,0.668299988 264.5736,0.563743129 L264.5736,0.563769938 Z" id="path5944-6" fill="#84CDFE"></path>
            <path d="M507.976402,2.24611661 C419.191338,3.71377319 317.632086,16.1571922 254.374307,16.1571922 C181.62421,16.1571922 117.274375,6.34493314 4.02421701,5.43341181 C2.837236,5.4240285 1.72339145,5.41813042 0.5593123,5.40981949 L0.5593123,26.8809458 L507.976402,26.8809458 L507.976402,2.24611661 Z" id="path5946-4" fill="#5BBDFE"></path>
            <path d="M398.651221,0 C396.028731,0 393.399089,0.0109918749 390.763566,0.0340211933 C279.715376,0.979295626 253.654645,19.4355651 184.198579,20.1945139 L176.025874,20.1945139 C130.213945,19.5908991 65.3571452,8.2323245 0,0.505277723 L0,118.75383 L508,118.75383 L508,5.88968786 C475.728386,2.57998071 437.988359,0.00493293898 398.651221,6.09576341e-14 L398.651221,0 Z" id="path5948-9" fill="#98D5FE"></path>
        </g>
    </g>
</svg>