<?xml version="1.0" encoding="UTF-8"?>
<svg width="591px" height="453px" viewBox="0 0 591 453" version="1.1" xmlns="http://www.w3.org/2000/svg" xmlns:xlink="http://www.w3.org/1999/xlink">
    <!-- Generator: Sketch 49.2 (51160) - http://www.bohemiancoding.com/sketch -->
    <title>g1887</title>
    <desc>Created with Sketch.</desc>
    <defs></defs>
    <g id="Page-1" stroke="none" stroke-width="1" fill="none" fill-rule="evenodd">
        <g id="g1887" transform="translate(-18.000000, 0.000000)" fill-rule="nonzero">
            <g id="tail" transform="translate(139.544402, 348.326634) rotate(14.723472) translate(-139.544402, -348.326634) translate(26.366796, 231.075797)">
                <path d="M78.6523265,117.186247 L78.6534903,117.232216 C78.6534903,150.941104 45.4898331,175.604512 22.0303556,175.603348 L22.0303556,175.604512 C13.4922836,175.591128 -0.0733181408,169.204304 0.0727362508,160.999655 C0.157692192,159.881262 0.129179581,159.78525 0.521373446,158.427119 C1.93129293,153.55379 4.78488152,149.253041 6.99373599,145.059942 C11.5144394,136.474155 15.8291538,127.734749 17.0441402,117.186247 C15.8291538,106.637744 11.5144394,97.8983385 6.99373599,89.3137152 C4.78488152,85.1206158 1.93129293,80.818703 0.521373446,75.9453742 C0.129179581,74.5872429 0.157692192,74.4923948 0.0727362508,73.3728385 C-0.0733181408,65.1687713 13.4922836,58.7813647 22.0303556,58.769145 C45.4909969,58.769145 78.6534903,83.4325529 78.6534903,117.139695 L78.6523265,117.186247 Z" id="path1645" fill="#FA00FF"></path>
                <path d="M86.9268024,67.6912644 C93.9676715,28.1797692 76.3352405,8.47988306 69.1157312,2.25075054 C68.7049168,1.93478427 68.3959332,1.1759997 68.5210396,0.87399879 C68.6461459,0.572579766 69.3682714,0.336914314 69.9216488,0.371245824 C133.500115,7.27886209 173.878626,45.4211701 173.878626,45.4211701 C173.878626,45.4211701 78.1583019,116.896465 86.9268024,67.6912644" id="path1647" fill="#FA00FF"></path>
                <path d="M86.9268024,166.86336 C93.9676715,206.374273 76.3352405,226.075323 69.1157312,232.303874 C68.7049168,232.619258 68.3959332,233.378043 68.5210396,233.679462 C68.6461459,233.982627 69.3682714,234.21771 69.9216488,234.182797 C133.500115,227.275181 173.878626,189.133454 173.878626,189.133454 C173.878626,189.133454 78.1583019,117.658741 86.9268024,166.86336" id="path1649" fill="#FA00FF"></path>
                <path d="M183.566513,52.2554682 C203.75926,69.2024328 222.199936,91.2217325 224.949366,116.705023 C227.698797,142.189478 224.487346,145.523708 211.138207,152.140961 C197.787905,158.758796 183.618301,157.536245 183.618301,157.536245 C183.618301,157.536245 186.988026,167.192128 192.474667,172.283666 C194.032386,173.730826 193.840945,174.479137 193.058303,175.35779 C175.769187,192.820891 156.687268,205.815077 133.564705,206.839204 C93.9921108,206.790907 43.2460653,146.801538 42.1422199,118.205136 C43.2460653,89.6087334 93.9921108,29.6193651 133.564705,29.5716501 C152.956771,29.979555 170.170823,41.0139352 183.566513,52.2554682" id="path1651" fill="#4E00FF"></path>
                <path d="M146.038681,175.779079 C129.294796,145.695947 127.987871,107.91092 145.894954,75.5741284" id="path1653" stroke="#FA00FF" stroke-width="5.81890006" fill-opacity="0" fill="#000000" stroke-linecap="round" stroke-linejoin="round"></path>
                <path d="M171.622057,120.930127 C171.622057,112.464209 178.484285,105.600816 186.951367,105.600816 C195.417867,105.600816 202.281259,112.464209 202.281259,120.930127 C202.281259,129.396626 195.417867,136.260601 186.951367,136.260601 C178.484285,136.260601 171.622057,129.396626 171.622057,120.930127" id="path1655" fill="#FFFFFF"></path>
                <path d="M177.708044,120.930127 C177.708044,115.825788 181.845864,111.687968 186.950785,111.687968 C192.055124,111.687968 196.194108,115.825788 196.194108,120.930127 C196.194108,126.034466 192.055124,130.172868 186.950785,130.172868 C181.845864,130.172868 177.708044,126.034466 177.708044,120.930127" id="path1657" fill="#000000"></path>
                <path d="M85.9742484,91.0332002 C88.6154472,91.0768419 91.0483293,92.0410337 93.3508681,93.2583475 C99.9896511,96.9440388 106.677895,100.539537 113.393487,104.083247 C111.36851,108.513176 110.626019,113.371958 110.527679,118.205136 C110.484619,123.914641 111.757213,128.584308 114.019601,133.757892 C107.090455,137.402269 99.2622886,141.728039 93.3508681,144.912723 C93.3508681,144.912723 93.3508681,144.912723 93.3508681,144.912723 C93.3508681,144.912723 93.3508681,144.912723 93.3508681,144.912723 C93.3508681,144.912723 93.3508681,144.912723 93.3508681,144.912723 C93.3508681,144.912723 93.3508681,144.912723 93.3508681,144.912723 C93.3508681,144.912723 93.3508681,144.912723 93.3508681,144.912723 C93.3508681,144.912723 93.3508681,144.912723 93.3508681,144.912723 C91.0599671,145.928703 88.9960033,146.369776 87.1432655,146.35872 C79.569967,146.313333 69.1692651,131.85162 69.1692651,119.895526 C69.1692651,105.813206 79.4093654,91.4114287 85.9742484,91.0332002 Z" id="path1659" fill="#FA00FF"></path>
            </g>
            <path d="M396.327472,270.706997 L396.328858,270.761743 C396.328858,310.906577 356.833354,340.278902 328.894822,340.277516 L328.894822,340.278902 C318.726599,340.262964 302.570954,332.65672 302.744894,322.885579 C302.846071,321.553655 302.812114,321.439312 303.279189,319.821877 C304.9583,314.018096 308.356717,308.896217 310.987302,303.902541 C316.371131,293.677493 321.509642,283.269495 322.956602,270.706997 C321.509642,258.144498 316.371131,247.736501 310.987302,237.512839 C308.356717,232.519162 304.9583,227.395897 303.279189,221.592117 C302.812114,219.974681 302.846071,219.861724 302.744894,218.528414 C302.570954,208.757966 318.726599,201.15103 328.894822,201.136477 C356.83474,201.136477 396.328858,230.508802 396.328858,270.651558 L396.327472,270.706997 Z" id="path1645-4" fill="#FA00FF" transform="translate(349.536180, 270.707690) rotate(-13.100026) translate(-349.536180, -270.707690) "></path>
            <path d="M383.532616,191.985271 C391.917779,144.929953 370.918836,121.468821 362.320925,114.050378 C361.831675,113.674085 361.463698,112.770427 361.612691,112.410766 C361.761683,112.051798 362.621682,111.771138 363.280714,111.812024 C438.998044,120.038493 487.085914,165.463208 487.085914,165.463208 C487.085914,165.463208 373.089969,250.585087 383.532616,191.985271" id="path1647-2" fill="#FA00FF" transform="translate(424.332553, 162.190257) rotate(-13.100026) translate(-424.332553, -162.190257) "></path>
            <path d="M423.807873,305.467623 C432.193036,352.522247 411.194093,375.984765 402.596182,383.402516 C402.106932,383.778116 401.738955,384.681773 401.887948,385.040741 C402.036941,385.401788 402.89694,385.681756 403.555972,385.640177 C479.273301,377.413708 527.361172,331.989686 527.361172,331.989686 C527.361172,331.989686 413.365227,246.8685 423.807873,305.467623" id="path1649-2" fill="#FA00FF" transform="translate(464.607810, 335.262506) rotate(-13.100026) translate(-464.607810, -335.262506) "></path>
            <path d="M518.614548,167.802928 C542.662641,187.98553 564.624145,214.208915 567.898517,244.557661 C571.172889,274.907794 567.348284,278.878619 551.450431,286.759286 C535.551191,294.640646 518.676224,293.184677 518.676224,293.184677 C518.676224,293.184677 522.689321,304.684131 529.223512,310.747782 C531.078642,312.471245 530.850649,313.362429 529.918579,314.408842 C509.3285,335.206125 486.603322,350.681255 459.06603,351.900915 C411.937949,351.843397 351.503099,280.400422 350.1885,246.344186 C351.503099,212.28795 411.937949,140.844975 459.06603,140.78815 C482.160571,141.273935 502.661255,154.41508 518.614548,167.802928" id="path1651-6" fill="#4E00FF" transform="translate(459.582553, 246.344533) rotate(-13.100026) translate(-459.582553, -246.344533) "></path>
            <path d="M475.767694,313.193225 C455.826945,277.366403 454.270492,232.367183 475.596526,193.856416" id="path1653-2" stroke="#FA00FF" stroke-width="6.92988682" fill-opacity="0" fill="#000000" stroke-linecap="round" stroke-linejoin="round" transform="translate(467.983992, 253.524821) rotate(-13.100026) translate(-467.983992, -253.524821) "></path>
            <path d="M503.484021,235.211545 C503.484021,225.129253 511.656437,216.955451 521.740115,216.955451 C531.8231,216.955451 539.996902,225.129253 539.996902,235.211545 C539.996902,245.29453 531.8231,253.469025 521.740115,253.469025 C511.656437,253.469025 503.484021,245.29453 503.484021,235.211545" id="path1655-6" fill="#FFFFFF" transform="translate(521.740461, 235.212238) rotate(-13.100026) translate(-521.740461, -235.212238) "></path>
            <path d="M510.731929,235.211711 C510.731929,229.132814 515.659772,224.204972 521.739361,224.204972 C527.818258,224.204972 532.747487,229.132814 532.747487,235.211711 C532.747487,241.290608 527.818258,246.219143 521.739361,246.219143 C515.659772,246.219143 510.731929,241.290608 510.731929,235.211711" id="path1657-6" fill="#000000" transform="translate(521.739708, 235.212058) rotate(-13.100026) translate(-521.739708, -235.212058) "></path>
            <path d="M403.835914,225.415109 C406.981389,225.467083 409.878775,226.615365 412.620931,228.065097 C420.527239,232.454488 428.492451,236.736465 436.490233,240.956766 C434.078633,246.232489 433.194379,252.018944 433.077264,257.774908 C433.025983,264.574513 434.541549,270.135747 437.235889,276.29711 C428.98378,280.637298 419.661003,285.788976 412.620931,289.581703 C412.620931,289.581703 412.620931,289.581703 412.620931,289.581703 C412.620931,289.581703 412.620931,289.581703 412.620931,289.581703 C412.620931,289.581703 412.620931,289.581703 412.620931,289.581703 C412.620931,289.581703 412.620931,289.581703 412.620931,289.581703 C412.620931,289.581703 412.620931,289.581703 412.620931,289.581703 C412.620931,289.581703 412.620931,289.581703 412.620931,289.581703 C409.892635,290.791661 407.434604,291.316946 405.228128,291.303779 C396.20888,291.249726 383.8224,274.026879 383.8224,259.78804 C383.8224,243.017021 396.017615,225.865551 403.835914,225.415109 Z" id="path1659-7" fill="#FA00FF" transform="translate(410.529145, 258.359565) rotate(-13.100026) translate(-410.529145, -258.359565) "></path>
            <path d="M271.77482,309.5486 C271.774833,316.50856 266.140823,322.155033 259.18088,322.1704 C252.220924,322.185765 246.562032,316.564205 246.53133,309.6043 C246.500633,302.644443 252.109638,296.973202 259.06941,296.9271 C266.029186,296.880999 271.712829,302.477443 271.77433,309.4371" id="path1718" fill-opacity="0.33177568" fill="#FFFFFF"></path>
            <path d="M239.93257,244.6663 C239.932527,251.626221 234.298534,257.272633 227.33863,257.288 C220.378713,257.303365 214.719837,251.681866 214.68908,244.722 C214.658328,237.762104 220.267349,232.090802 227.22716,232.0447 C234.186974,231.998599 239.870634,237.595104 239.93208,244.5548" id="path1718-4" fill-opacity="0.33177568" fill="#FFFFFF"></path>
            <path d="M265.20311,204.2742 C265.203067,211.234121 259.569074,216.880533 252.60917,216.8959 C245.649249,216.911271 239.990367,211.28977 239.95961,204.3299 C239.928858,197.37 245.537885,191.698696 252.4977,191.6526 C259.45751,191.606504 265.141164,197.203008 265.20261,204.1627" id="path1718-7" fill-opacity="0.33177568" fill="#FFFFFF"></path>
            <path d="M608.31846,217.166 C608.318473,224.12596 602.684463,229.772433 595.72452,229.7878 C588.764564,229.803165 583.105672,224.181605 583.07497,217.2217 C583.044273,210.261843 588.653278,204.590602 595.61305,204.5445 C602.572826,204.498399 608.256469,210.094843 608.31797,217.0545" id="path1718-3" fill-opacity="0.33177568" fill="#FFFFFF"></path>
            <path d="M600.38676,121.0955 C600.386717,128.055421 594.752724,133.701833 587.79282,133.7172 C580.832903,133.732565 575.174027,128.111066 575.14327,121.1512 C575.112518,114.191304 580.721539,108.520002 587.68135,108.4739 C594.641164,108.427799 600.324824,114.024304 600.38627,120.984" id="path1718-5" fill-opacity="0.33177568" fill="#FFFFFF"></path>
            <path d="M536.42289,69.4084 C536.422903,76.3683603 530.788893,82.0148329 523.82895,82.0302 C516.869033,82.0455655 511.210157,76.4240662 511.1794,69.4642 C511.148648,62.5043003 516.757675,56.8329962 523.71749,56.7869 C530.6773,56.7408044 536.360954,62.3373081 536.4224,69.297" id="path1718-33" fill-opacity="0.33177568" fill="#FFFFFF"></path>
            <path d="M557.26451,13.2292 C557.264523,20.1891603 551.630513,25.8356329 544.67057,25.851 C537.710653,25.8663655 532.051777,20.2448662 532.02102,13.285 C531.990268,6.32510415 537.599289,0.653801663 544.5591,0.6077 C551.518914,0.561598813 557.202574,6.15810422 557.26402,13.1178" id="path1718-2" fill-opacity="0.33177568" fill="#FFFFFF"></path>
        </g>
    </g>
</svg>