<?xml version="1.0" encoding="UTF-8" standalone="no"?>
<!-- Created with Inkscape (http://www.inkscape.org/) -->

<svg
   xmlns:dc="http://purl.org/dc/elements/1.1/"
   xmlns:cc="http://creativecommons.org/ns#"
   xmlns:rdf="http://www.w3.org/1999/02/22-rdf-syntax-ns#"
   xmlns:svg="http://www.w3.org/2000/svg"
   xmlns="http://www.w3.org/2000/svg"
   xmlns:sodipodi="http://sodipodi.sourceforge.net/DTD/sodipodi-0.dtd"
   xmlns:inkscape="http://www.inkscape.org/namespaces/inkscape"
   width="165mm"
   height="102mm"
   viewBox="0 0 165 102"
   version="1.1"
   id="svg8"
   inkscape:version="0.92.2 (5c3e80d, 2017-08-06)"
   sodipodi:docname="clown fish and bubbles.svg">
  <defs
     id="defs2" />
  <sodipodi:namedview
     id="base"
     pagecolor="#ffffff"
     bordercolor="#666666"
     borderopacity="1.0"
     inkscape:pageopacity="0.0"
     inkscape:pageshadow="2"
     inkscape:zoom="0.7"
     inkscape:cx="431.77597"
     inkscape:cy="637.47098"
     inkscape:document-units="mm"
     inkscape:current-layer="layer1"
     showgrid="false"
     inkscape:window-width="958"
     inkscape:window-height="1048"
     inkscape:window-x="-7"
     inkscape:window-y="0"
     inkscape:window-maximized="0" />
  <metadata
     id="metadata5">
    <rdf:RDF>
      <cc:Work
         rdf:about="">
        <dc:format>image/svg+xml</dc:format>
        <dc:type
           rdf:resource="http://purl.org/dc/dcmitype/StillImage" />
        <dc:title></dc:title>
      </cc:Work>
    </rdf:RDF>
  </metadata>
  <g
     inkscape:label="Layer 1"
     inkscape:groupmode="layer"
     id="layer1"
     transform="translate(0,-195)">
    <g
       style="display:inline"
       id="g1618"
       transform="matrix(0.33492994,0,0,0.33376041,-483.35196,-365.8273)"
       inkscape:export-xdpi="224.64999"
       inkscape:export-ydpi="224.64999">
      <g
         transform="matrix(0.35063223,0.00992962,-0.00992962,0.35063223,1479.1954,1797.3064)"
         id="Layer_1">
        <path
           style="fill:#ff9f00"
           inkscape:connector-curvature="0"
           d="m 427.296,316.723 c -37.011,0 -67.015,-15.512 -67.015,-66.722 0,-51.212 30.004,-66.724 67.015,-66.724 37.01,0 55.759,29.105 55.759,65.956 0,36.851 -18.749,67.49 -55.759,67.49"
           id="path1374" />
        <path
           style="fill:#ffeb00"
           inkscape:connector-curvature="0"
           d="m 427.296,183.277 c 37.01,0 55.759,29.106 55.759,65.956 0,36.848 -18.749,67.491 -55.759,67.491 l -4.064,-0.206 c 4.403,-5.544 9.073,-10.906 13.696,-16.269 15.354,-16.774 24.505,-27.531 24.526,-50.66 0.021,-23.13 -6.73,-38.072 -26.077,-55.291 -7.35,-7.046 -3.677,-3.424 -11.007,-10.873 z"
           id="path1376" />
        <path
           style="fill:#ffeb00"
           inkscape:connector-curvature="0"
           d="m 105.85,178.523 c 37.512,-30.446 174.938,-127.6 220.448,-10.33 z"
           id="path1378" />
        <path
           style="fill:#ffeb00"
           inkscape:connector-curvature="0"
           d="m 105.85,321.479 c 37.512,30.442 174.938,127.598 220.448,10.329 z"
           id="path1380" />
        <path
           style="fill:#e04200"
           inkscape:connector-curvature="0"
           d="m 215.132,147.689 c 53.623,0.241 124.603,12.268 166.622,48.337 5.451,17.737 6.337,36.441 6.943,54.856 -0.353,17.661 -1.483,35.61 -6.446,52.666 -44.975,37.132 -110.422,48.39 -167.119,48.764 -108.335,0 -196.159,-45.807 -196.159,-102.311 0,-56.506 87.824,-102.312 196.159,-102.312 z"
           id="path1382" />
        <path
           style="fill:#ffeb00"
           inkscape:connector-curvature="0"
           d="m 243.132,250.005 c 0.128,3.364 0.042,6.986 -0.236,10.93 -1.607,22.671 -11.358,27.707 -23.38,25.072 -10.629,-2.315 -23.079,-10.629 -33.237,-18.023 -4.071,-2.957 -7.779,-5.765 -10.864,-7.993 l 0.209,-0.541 c 2.36,-6.076 2.363,-12.815 0.007,-18.893 l -0.216,-0.56 c 3.085,-2.228 6.793,-5.035 10.864,-7.992 10.158,-7.394 22.565,-15.687 33.194,-18.002 12.044,-2.657 21.816,2.358 23.423,25.051 0.278,3.944 0.364,7.587 0.236,10.951"
           id="path1384" />
        <path
           style="fill:#ff9f00"
           inkscape:connector-curvature="0"
           d="m 276.706,250.472 c -0.544,36.811 -8.933,70.322 -28.981,100.425 20.093,-1.752 39.155,-5.091 56.685,-9.772 12.883,-28.239 16.559,-59.65 17.605,-90.653 -0.512,-31.476 -5.375,-63.058 -18.025,-91.706 -17.612,-4.676 -36.761,-7.999 -56.944,-9.722 20.73,29.348 28.889,65.243 29.66,101.428"
           id="path1386" />
        <path
           style="fill:#ff9f00"
           inkscape:connector-curvature="0"
           d="m 103.905,165.6 c 29.679,18.549 46.265,50.149 47.144,84.4 0.06,34.727 -18.354,65.242 -47.144,84.4 -38.499,-13.374 -84.742,-39.332 -86.96,-84.4 2.15,-45.051 48.509,-71.058 86.96,-84.4"
           id="path1388" />
        <path
           style="fill:#ffffff"
           inkscape:connector-curvature="0"
           d="m 77.25,269.96 c -11.026,0 -19.96,-8.937 -19.96,-19.96 0,-11.025 8.934,-19.96 19.96,-19.96 11.023,0 19.96,8.935 19.96,19.96 0,11.023 -8.937,19.96 -19.96,19.96"
           id="path1390" />
        <path
           style="fill:#000000"
           inkscape:connector-curvature="0"
           d="m 77.25,262.139 c -6.704,0 -12.139,-5.435 -12.139,-12.138 0,-6.706 5.435,-12.14 12.139,-12.14 6.704,0 12.14,5.434 12.14,12.14 0,6.703 -5.436,12.138 -12.14,12.138"
           id="path1392" />
      </g>
      <g
         transform="matrix(0.34988579,-0.02492966,0.02492966,0.34988579,1651.6228,1703.894)"
         id="Layer_1-2">
        <path
           style="fill:#ff9f00"
           inkscape:connector-curvature="0"
           d="m 427.296,316.723 c -37.011,0 -67.015,-15.512 -67.015,-66.722 0,-51.212 30.004,-66.724 67.015,-66.724 37.01,0 55.759,29.105 55.759,65.956 0,36.851 -18.749,67.49 -55.759,67.49"
           id="path1374-7" />
        <path
           style="fill:#ffeb00"
           inkscape:connector-curvature="0"
           d="m 427.296,183.277 c 37.01,0 55.759,29.106 55.759,65.956 0,36.848 -18.749,67.491 -55.759,67.491 l -4.064,-0.206 c 4.403,-5.544 9.073,-10.906 13.696,-16.269 15.354,-16.774 24.505,-27.531 24.526,-50.66 0.021,-23.13 -6.73,-38.072 -26.077,-55.291 -7.35,-7.046 -3.677,-3.424 -11.007,-10.873 z"
           id="path1376-2" />
        <path
           style="fill:#ffeb00"
           inkscape:connector-curvature="0"
           d="m 105.85,178.523 c 37.512,-30.446 174.938,-127.6 220.448,-10.33 z"
           id="path1378-6" />
        <path
           style="fill:#ffeb00"
           inkscape:connector-curvature="0"
           d="m 105.85,321.479 c 37.512,30.442 174.938,127.598 220.448,10.329 z"
           id="path1380-9" />
        <path
           style="fill:#e04200"
           inkscape:connector-curvature="0"
           d="m 215.132,147.689 c 53.623,0.241 124.603,12.268 166.622,48.337 5.451,17.737 6.337,36.441 6.943,54.856 -0.353,17.661 -1.483,35.61 -6.446,52.666 -44.975,37.132 -110.422,48.39 -167.119,48.764 -108.335,0 -196.159,-45.807 -196.159,-102.311 0,-56.506 87.824,-102.312 196.159,-102.312 z"
           id="path1382-9" />
        <path
           style="fill:#ffeb00"
           inkscape:connector-curvature="0"
           d="m 243.132,250.005 c 0.128,3.364 0.042,6.986 -0.236,10.93 -1.607,22.671 -11.358,27.707 -23.38,25.072 -10.629,-2.315 -23.079,-10.629 -33.237,-18.023 -4.071,-2.957 -7.779,-5.765 -10.864,-7.993 l 0.209,-0.541 c 2.36,-6.076 2.363,-12.815 0.007,-18.893 l -0.216,-0.56 c 3.085,-2.228 6.793,-5.035 10.864,-7.992 10.158,-7.394 22.565,-15.687 33.194,-18.002 12.044,-2.657 21.816,2.358 23.423,25.051 0.278,3.944 0.364,7.587 0.236,10.951"
           id="path1384-7" />
        <path
           style="fill:#ff9f00"
           inkscape:connector-curvature="0"
           d="m 276.706,250.472 c -0.544,36.811 -8.933,70.322 -28.981,100.425 20.093,-1.752 39.155,-5.091 56.685,-9.772 12.883,-28.239 16.559,-59.65 17.605,-90.653 -0.512,-31.476 -5.375,-63.058 -18.025,-91.706 -17.612,-4.676 -36.761,-7.999 -56.944,-9.722 20.73,29.348 28.889,65.243 29.66,101.428"
           id="path1386-0" />
        <path
           style="fill:#ff9f00"
           inkscape:connector-curvature="0"
           d="m 103.905,165.6 c 29.679,18.549 46.265,50.149 47.144,84.4 0.06,34.727 -18.354,65.242 -47.144,84.4 -38.499,-13.374 -84.742,-39.332 -86.96,-84.4 2.15,-45.051 48.509,-71.058 86.96,-84.4"
           id="path1388-9" />
        <path
           style="fill:#ffffff"
           inkscape:connector-curvature="0"
           d="m 77.25,269.96 c -11.026,0 -19.96,-8.937 -19.96,-19.96 0,-11.025 8.934,-19.96 19.96,-19.96 11.023,0 19.96,8.935 19.96,19.96 0,11.023 -8.937,19.96 -19.96,19.96"
           id="path1390-1" />
        <path
           style="fill:#000000"
           inkscape:connector-curvature="0"
           d="m 77.25,262.139 c -6.704,0 -12.139,-5.435 -12.139,-12.138 0,-6.706 5.435,-12.14 12.139,-12.14 6.704,0 12.14,5.434 12.14,12.14 0,6.703 -5.436,12.138 -12.14,12.138"
           id="path1392-1" />
      </g>
      <g
         transform="matrix(0.33568846,-0.10175861,0.10175861,0.33568846,1710.4377,1879.4792)"
         id="Layer_1-5">
        <path
           style="fill:#ff9f00"
           inkscape:connector-curvature="0"
           d="m 427.296,316.723 c -37.011,0 -67.015,-15.512 -67.015,-66.722 0,-51.212 30.004,-66.724 67.015,-66.724 37.01,0 55.759,29.105 55.759,65.956 0,36.851 -18.749,67.49 -55.759,67.49"
           id="path1374-5" />
        <path
           style="fill:#ffeb00"
           inkscape:connector-curvature="0"
           d="m 427.296,183.277 c 37.01,0 55.759,29.106 55.759,65.956 0,36.848 -18.749,67.491 -55.759,67.491 l -4.064,-0.206 c 4.403,-5.544 9.073,-10.906 13.696,-16.269 15.354,-16.774 24.505,-27.531 24.526,-50.66 0.021,-23.13 -6.73,-38.072 -26.077,-55.291 -7.35,-7.046 -3.677,-3.424 -11.007,-10.873 z"
           id="path1376-0" />
        <path
           style="fill:#ffeb00"
           inkscape:connector-curvature="0"
           d="m 105.85,178.523 c 37.512,-30.446 174.938,-127.6 220.448,-10.33 z"
           id="path1378-2" />
        <path
           style="fill:#ffeb00"
           inkscape:connector-curvature="0"
           d="m 105.85,321.479 c 37.512,30.442 174.938,127.598 220.448,10.329 z"
           id="path1380-2" />
        <path
           style="fill:#e04200"
           inkscape:connector-curvature="0"
           d="m 215.132,147.689 c 53.623,0.241 124.603,12.268 166.622,48.337 5.451,17.737 6.337,36.441 6.943,54.856 -0.353,17.661 -1.483,35.61 -6.446,52.666 -44.975,37.132 -110.422,48.39 -167.119,48.764 -108.335,0 -196.159,-45.807 -196.159,-102.311 0,-56.506 87.824,-102.312 196.159,-102.312 z"
           id="path1382-3" />
        <path
           style="fill:#ffeb00"
           inkscape:connector-curvature="0"
           d="m 243.132,250.005 c 0.128,3.364 0.042,6.986 -0.236,10.93 -1.607,22.671 -11.358,27.707 -23.38,25.072 -10.629,-2.315 -23.079,-10.629 -33.237,-18.023 -4.071,-2.957 -7.779,-5.765 -10.864,-7.993 l 0.209,-0.541 c 2.36,-6.076 2.363,-12.815 0.007,-18.893 l -0.216,-0.56 c 3.085,-2.228 6.793,-5.035 10.864,-7.992 10.158,-7.394 22.565,-15.687 33.194,-18.002 12.044,-2.657 21.816,2.358 23.423,25.051 0.278,3.944 0.364,7.587 0.236,10.951"
           id="path1384-5" />
        <path
           style="fill:#ff9f00"
           inkscape:connector-curvature="0"
           d="m 276.706,250.472 c -0.544,36.811 -8.933,70.322 -28.981,100.425 20.093,-1.752 39.155,-5.091 56.685,-9.772 12.883,-28.239 16.559,-59.65 17.605,-90.653 -0.512,-31.476 -5.375,-63.058 -18.025,-91.706 -17.612,-4.676 -36.761,-7.999 -56.944,-9.722 20.73,29.348 28.889,65.243 29.66,101.428"
           id="path1386-5" />
        <path
           style="fill:#ff9f00"
           inkscape:connector-curvature="0"
           d="m 103.905,165.6 c 29.679,18.549 46.265,50.149 47.144,84.4 0.06,34.727 -18.354,65.242 -47.144,84.4 -38.499,-13.374 -84.742,-39.332 -86.96,-84.4 2.15,-45.051 48.509,-71.058 86.96,-84.4"
           id="path1388-4" />
        <path
           style="fill:#ffffff"
           inkscape:connector-curvature="0"
           d="m 77.25,269.96 c -11.026,0 -19.96,-8.937 -19.96,-19.96 0,-11.025 8.934,-19.96 19.96,-19.96 11.023,0 19.96,8.935 19.96,19.96 0,11.023 -8.937,19.96 -19.96,19.96"
           id="path1390-0" />
        <path
           style="fill:#000000"
           inkscape:connector-curvature="0"
           d="m 77.25,262.139 c -6.704,0 -12.139,-5.435 -12.139,-12.138 0,-6.706 5.435,-12.14 12.139,-12.14 6.704,0 12.14,5.434 12.14,12.14 0,6.703 -5.436,12.138 -12.14,12.138"
           id="path1392-5" />
      </g>
      <path
         d="m 1485.9925,1850.1801 a 6.3985558,6.3985558 0 0 1 -6.3844,6.3985 6.3985558,6.3985558 0 0 1 -6.4126,-6.3703 6.3985558,6.3985558 0 0 1 6.3561,-6.4267 6.3985558,6.3985558 0 0 1 6.4407,6.3419"
         sodipodi:open="true"
         sodipodi:end="6.2743539"
         sodipodi:start="0"
         sodipodi:ry="6.3985558"
         sodipodi:rx="6.3985558"
         sodipodi:cy="1850.1801"
         sodipodi:cx="1479.594"
         sodipodi:type="arc"
         id="path1504"
         style="opacity:1;fill:#ffffff;fill-opacity:0.33177568;fill-rule:nonzero;stroke:none;stroke-width:10.75220013;stroke-linecap:round;stroke-linejoin:round;stroke-miterlimit:4;stroke-dasharray:none;stroke-dashoffset:0;stroke-opacity:0.62616817;paint-order:markers stroke fill" />
      <path
         d="m 1503.6606,1814.0344 a 6.3985558,6.3985558 0 0 1 -6.3844,6.3986 6.3985558,6.3985558 0 0 1 -6.4126,-6.3703 6.3985558,6.3985558 0 0 1 6.3561,-6.4267 6.3985558,6.3985558 0 0 1 6.4407,6.3419"
         sodipodi:open="true"
         sodipodi:end="6.2743539"
         sodipodi:start="0"
         sodipodi:ry="6.3985558"
         sodipodi:rx="6.3985558"
         sodipodi:cy="1814.0344"
         sodipodi:cx="1497.2621"
         sodipodi:type="arc"
         id="path1504-2"
         style="opacity:1;fill:#ffffff;fill-opacity:0.33177568;fill-rule:nonzero;stroke:none;stroke-width:10.75220013;stroke-linecap:round;stroke-linejoin:round;stroke-miterlimit:4;stroke-dasharray:none;stroke-dashoffset:0;stroke-opacity:0.62616817;paint-order:markers stroke fill" />
      <path
         d="m 1477.0145,1781.2528 a 6.3985558,6.3985558 0 0 1 -6.3844,6.3985 6.3985558,6.3985558 0 0 1 -6.4126,-6.3702 6.3985558,6.3985558 0 0 1 6.3561,-6.4267 6.3985558,6.3985558 0 0 1 6.4407,6.3419"
         sodipodi:open="true"
         sodipodi:end="6.2743539"
         sodipodi:start="0"
         sodipodi:ry="6.3985558"
         sodipodi:rx="6.3985558"
         sodipodi:cy="1781.2528"
         sodipodi:cx="1470.616"
         sodipodi:type="arc"
         id="path1504-20"
         style="opacity:1;fill:#ffffff;fill-opacity:0.33177568;fill-rule:nonzero;stroke:none;stroke-width:10.75220013;stroke-linecap:round;stroke-linejoin:round;stroke-miterlimit:4;stroke-dasharray:none;stroke-dashoffset:0;stroke-opacity:0.62616817;paint-order:markers stroke fill" />
      <path
         d="m 1513.8282,1747.244 a 6.3985558,6.3985558 0 0 1 -6.3844,6.3986 6.3985558,6.3985558 0 0 1 -6.4126,-6.3703 6.3985558,6.3985558 0 0 1 6.3561,-6.4267 6.3985558,6.3985558 0 0 1 6.4407,6.3419"
         sodipodi:open="true"
         sodipodi:end="6.2743539"
         sodipodi:start="0"
         sodipodi:ry="6.3985558"
         sodipodi:rx="6.3985558"
         sodipodi:cy="1747.244"
         sodipodi:cx="1507.4297"
         sodipodi:type="arc"
         id="path1504-1"
         style="opacity:1;fill:#ffffff;fill-opacity:0.33177568;fill-rule:nonzero;stroke:none;stroke-width:10.75220013;stroke-linecap:round;stroke-linejoin:round;stroke-miterlimit:4;stroke-dasharray:none;stroke-dashoffset:0;stroke-opacity:0.62616817;paint-order:markers stroke fill" />
      <path
         d="m 1662.4756,1758.8539 a 6.3985558,6.3985558 0 0 1 -6.3844,6.3985 6.3985558,6.3985558 0 0 1 -6.4127,-6.3703 6.3985558,6.3985558 0 0 1 6.3561,-6.4266 6.3985558,6.3985558 0 0 1 6.4407,6.3419"
         sodipodi:open="true"
         sodipodi:end="6.2743539"
         sodipodi:start="0"
         sodipodi:ry="6.3985558"
         sodipodi:rx="6.3985558"
         sodipodi:cy="1758.8539"
         sodipodi:cx="1656.077"
         sodipodi:type="arc"
         id="path1504-8"
         style="opacity:1;fill:#ffffff;fill-opacity:0.33177568;fill-rule:nonzero;stroke:none;stroke-width:10.75220013;stroke-linecap:round;stroke-linejoin:round;stroke-miterlimit:4;stroke-dasharray:none;stroke-dashoffset:0;stroke-opacity:0.62616817;paint-order:markers stroke fill" />
      <path
         d="m 1693.713,1718.6915 a 6.3985558,6.3985558 0 0 1 -6.3844,6.3986 6.3985558,6.3985558 0 0 1 -6.4126,-6.3703 6.3985558,6.3985558 0 0 1 6.3561,-6.4267 6.3985558,6.3985558 0 0 1 6.4407,6.3419"
         sodipodi:open="true"
         sodipodi:end="6.2743539"
         sodipodi:start="0"
         sodipodi:ry="6.3985558"
         sodipodi:rx="6.3985558"
         sodipodi:cy="1718.6915"
         sodipodi:cx="1687.3145"
         sodipodi:type="arc"
         id="path1504-4"
         style="opacity:1;fill:#ffffff;fill-opacity:0.33177568;fill-rule:nonzero;stroke:none;stroke-width:10.75220013;stroke-linecap:round;stroke-linejoin:round;stroke-miterlimit:4;stroke-dasharray:none;stroke-dashoffset:0;stroke-opacity:0.62616817;paint-order:markers stroke fill" />
      <path
         d="m 1678.838,1686.4625 a 6.3985558,6.3985558 0 0 1 -6.3844,6.3986 6.3985558,6.3985558 0 0 1 -6.4126,-6.3703 6.3985558,6.3985558 0 0 1 6.3561,-6.4267 6.3985558,6.3985558 0 0 1 6.4407,6.3419"
         sodipodi:open="true"
         sodipodi:end="6.2743539"
         sodipodi:start="0"
         sodipodi:ry="6.3985558"
         sodipodi:rx="6.3985558"
         sodipodi:cy="1686.4625"
         sodipodi:cx="1672.4395"
         sodipodi:type="arc"
         id="path1504-0"
         style="opacity:1;fill:#ffffff;fill-opacity:0.33177568;fill-rule:nonzero;stroke:none;stroke-width:10.75220013;stroke-linecap:round;stroke-linejoin:round;stroke-miterlimit:4;stroke-dasharray:none;stroke-dashoffset:0;stroke-opacity:0.62616817;paint-order:markers stroke fill" />
      <path
         d="m 1729.4128,1936.3615 a 6.3985558,6.3985558 0 0 1 -6.3844,6.3985 6.3985558,6.3985558 0 0 1 -6.4126,-6.3703 6.3985558,6.3985558 0 0 1 6.3561,-6.4267 6.3985558,6.3985558 0 0 1 6.4407,6.3419"
         sodipodi:open="true"
         sodipodi:end="6.2743539"
         sodipodi:start="0"
         sodipodi:ry="6.3985558"
         sodipodi:rx="6.3985558"
         sodipodi:cy="1936.3615"
         sodipodi:cx="1723.0143"
         sodipodi:type="arc"
         id="path1504-40"
         style="opacity:1;fill:#ffffff;fill-opacity:0.33177568;fill-rule:nonzero;stroke:none;stroke-width:10.75220013;stroke-linecap:round;stroke-linejoin:round;stroke-miterlimit:4;stroke-dasharray:none;stroke-dashoffset:0;stroke-opacity:0.62616817;paint-order:markers stroke fill" />
      <path
         d="m 1747.7587,1901.6533 a 6.3985558,6.3985558 0 0 1 -6.3845,6.3986 6.3985558,6.3985558 0 0 1 -6.4126,-6.3703 6.3985558,6.3985558 0 0 1 6.3561,-6.4267 6.3985558,6.3985558 0 0 1 6.4407,6.3419"
         sodipodi:open="true"
         sodipodi:end="6.2743539"
         sodipodi:start="0"
         sodipodi:ry="6.3985558"
         sodipodi:rx="6.3985558"
         sodipodi:cy="1901.6533"
         sodipodi:cx="1741.3601"
         sodipodi:type="arc"
         id="path1504-42"
         style="opacity:1;fill:#ffffff;fill-opacity:0.33177568;fill-rule:nonzero;stroke:none;stroke-width:10.75220013;stroke-linecap:round;stroke-linejoin:round;stroke-miterlimit:4;stroke-dasharray:none;stroke-dashoffset:0;stroke-opacity:0.62616817;paint-order:markers stroke fill" />
      <path
         d="m 1719.4962,1843.6411 a 6.3985558,6.3985558 0 0 1 -6.3844,6.3986 6.3985558,6.3985558 0 0 1 -6.4126,-6.3703 6.3985558,6.3985558 0 0 1 6.3561,-6.4267 6.3985558,6.3985558 0 0 1 6.4407,6.3419"
         sodipodi:open="true"
         sodipodi:end="6.2743539"
         sodipodi:start="0"
         sodipodi:ry="6.3985558"
         sodipodi:rx="6.3985558"
         sodipodi:cy="1843.6411"
         sodipodi:cx="1713.0977"
         sodipodi:type="arc"
         id="path1504-6"
         style="opacity:1;fill:#ffffff;fill-opacity:0.33177568;fill-rule:nonzero;stroke:none;stroke-width:10.75220013;stroke-linecap:round;stroke-linejoin:round;stroke-miterlimit:4;stroke-dasharray:none;stroke-dashoffset:0;stroke-opacity:0.62616817;paint-order:markers stroke fill" />
    </g>
  </g>
</svg>
