<?xml version="1.0" encoding="UTF-8"?>
<svg width="241px" height="275px" viewBox="0 0 241 275" version="1.1" xmlns="http://www.w3.org/2000/svg" xmlns:xlink="http://www.w3.org/1999/xlink">
    <!-- Generator: Sketch 49.2 (51160) - http://www.bohemiancoding.com/sketch -->
    <title>g2076</title>
    <desc>Created with Sketch.</desc>
    <defs></defs>
    <g id="Page-1" stroke="none" stroke-width="1" fill="none" fill-rule="evenodd" fill-opacity="0.19158882">
        <g id="g2076" fill="#000000" fill-rule="nonzero">
            <path d="M38.27934,0.8002 C38.04354,0.7592 37.72207,0.8252 37.65382,0.9482 C37.58552,1.0718 37.68192,1.412 37.84295,1.5674 C40.16638,4.0773 45.11749,10.9282 43.90395,22.6978 C39.15265,25.6994 34.631446,29.4763 30.855309,33.4307 C26.472722,27.8848 20.270198,24.148 14.909803,23.5446 C11.245647,23.1375 5.116251,25.2233 4.782727,28.7505 C4.765107,29.2351 4.748597,29.2742 4.851267,29.876 C5.220894,32.0351 6.237708,34.0182 6.982997,35.9241 C8.508188,39.8259 9.937339,43.7849 9.94925,48.3698 C8.918487,52.8374 6.644689,56.3783 4.290284,59.844 C3.139998,61.5365 1.708368,63.2447 0.868042,65.2677 C0.63417,65.8315 0.641234,65.8741 0.550769,66.3498 C0.091868,69.8633 5.604855,73.2586 9.267771,73.6767 C14.493667,74.2651 21.159753,72.1225 26.592941,67.9068 C29.440368,72.7804 33.124118,77.6771 37.24061,81.8133 C35.627854,93.0248 29.492603,98.3929 26.732793,100.28 C26.541291,100.3955 26.372024,100.7063 26.411144,100.8417 C26.450194,100.9778 26.748324,101.1137 26.987455,101.1255 C44.86816,101.1945 59.19855,95.1761 67.08567,90.9235 C72.56376,89.0889 77.71391,85.8209 82.66489,81.831 C83.04314,81.4918 83.16115,81.1795 82.56266,80.4833 C80.4543,78.0336 79.47534,73.728 79.47534,73.728 C79.47534,73.728 85.4963,74.9365 91.54432,72.7417 C97.59182,70.5469 99.13,69.272 99.18099,58.2043 C99.23189,47.1369 92.38344,36.7979 84.53744,28.551 C82.95432,26.8872 81.21625,25.216 79.3338,23.6625 C75.03561,19.2064 60.61044,5.8008 38.27934,0.8002 Z" id="path1645-6"></path>
            <path d="M175.51708,37.2388 C175.2789,37.2148 174.96306,37.3038 174.90396,37.4319 C174.84486,37.5601 174.96566,37.8924 175.13757,38.0357 C177.6372,40.3702 183.07291,46.8433 182.7176,58.67 C178.19689,62.0088 173.96202,66.1042 170.48313,70.3225 C165.70923,65.1096 159.25163,61.8332 153.86157,61.6208 C150.17752,61.481 144.21584,64.0066 144.13944,67.5487 C144.15704,68.0333 144.14344,68.0735 144.28955,68.6662 C144.81506,70.7928 145.97325,72.6968 146.85502,74.5435 C148.65963,78.3242 150.37261,82.1689 150.71756,86.7408 C150.01407,91.2715 148.00351,94.9682 145.9071,98.5958 C144.8828,100.3674 143.57905,102.1751 142.88791,104.2538 C142.69561,104.8331 142.70574,104.875 142.65008,105.3561 C142.44763,108.8936 148.19271,111.8795 151.87632,112.0304 C157.13115,112.2376 163.62398,109.6164 168.73655,105.0171 C171.9305,109.671 175.96024,114.2871 180.36634,118.1134 C179.57231,129.4124 173.84323,135.212 171.22781,137.2946 C171.0452,137.4237 170.89896,137.746 170.94781,137.8782 C170.99661,138.0111 171.30386,138.125 171.54322,138.1194 C189.38169,136.8892 203.23701,129.8457 210.79437,125.0314 C216.12471,122.8037 221.02384,119.1702 225.67189,114.8311 C226.0245,114.4653 226.11951,114.1453 225.47202,113.4944 C223.19128,111.2044 221.90212,106.9812 221.90212,106.9812 C221.90212,106.9812 227.99497,107.7492 233.86756,105.1208 C239.73964,102.4925 241.18114,101.1092 240.42797,90.067 C239.67478,79.0252 232.0933,69.211 223.66894,61.5559 C221.96913,60.0115 220.11425,58.471 218.12392,57.0583 C213.51336,52.9262 198.15245,40.604 175.51708,37.2388 Z" id="path1645-6-5"></path>
            <path d="M21.37877,183.2695 C21.157082,183.3595 20.919817,183.5866 20.927644,183.7275 C20.935544,183.8684 21.197949,184.1053 21.416975,184.1514 C24.719161,185.0422 32.554548,188.2131 37.7831,198.8273 C35.354227,203.8953 33.532441,209.4978 32.436066,214.8545 C25.775883,212.4867 18.535869,212.6187 13.674791,214.957 C10.354815,216.5599 6.271915,221.5849 7.864389,224.7498 C8.107028,225.1696 8.113847,225.2114 8.520698,225.6667 C9.981516,227.2989 11.896939,228.4381 13.541316,229.6563 C16.907267,232.1504 20.222262,234.744 22.66955,238.6211 C24.171351,242.9532 24.12765,247.1611 23.97573,251.3481 C23.90111,253.3932 23.596534,255.601 23.96014,257.7612 C24.06175,258.3631 24.090328,258.3953 24.266623,258.8464 C25.745578,262.0663 32.220033,262.0117 35.544821,260.4187 C40.283985,258.1391 44.791305,252.7808 47.152305,246.3219 C52.154815,248.9364 57.877915,251.1257 63.56338,252.441 C68.15706,262.7944 65.81395,270.6026 64.47949,273.6681 C64.37868,273.8677 64.40049,274.2209 64.50559,274.3149 C64.61095,274.4099 64.93576,274.3659 65.14465,274.2489 C80.32646,264.8023 89.26529,252.0871 93.68525,244.2925 C97.35003,239.8266 99.97509,234.3209 102.04768,228.3096 C102.18774,227.8211 102.12168,227.4939 101.24468,227.2223 C98.15672,226.2682 95.03875,223.1417 95.03875,223.1417 C95.03875,223.1417 100.78103,220.9647 104.73705,215.8907 C108.69268,210.8171 109.31781,208.9195 103.47769,199.5179 C97.63775,190.1167 86.34105,184.9998 75.31157,182.1853 C73.08622,181.6177 70.72568,181.126 68.30541,180.8108 C62.29604,179.3212 42.951705,175.6346 21.378759,183.2695 L21.37877,183.2695 Z" id="path1645-6-5-6"></path>
        </g>
    </g>
</svg>