<?xml version="1.0" encoding="UTF-8"?>
<svg width="296px" height="207px" viewBox="0 0 296 207" version="1.1" xmlns="http://www.w3.org/2000/svg" xmlns:xlink="http://www.w3.org/1999/xlink">
    <!-- Generator: Sketch 49.2 (51160) - http://www.bohemiancoding.com/sketch -->
    <title>g7336</title>
    <desc>Created with Sketch.</desc>
    <defs></defs>
    <g id="Page-1" stroke="none" stroke-width="1" fill="none" fill-rule="evenodd" fill-opacity="0.11214953">
        <g id="g7336" fill="#000000" fill-rule="nonzero">
            <path d="M30.9321128,86.5929138 C24.4364768,86.6452644 17.7214443,89.397834 14.3622623,94.5054658 C7.54663337,98.8469945 4.06823486,105.957274 0.685495135,113.038939 C0.604768163,113.208186 0.356816785,113.590524 0.510061207,113.876667 C0.663365117,114.16293 1.08145588,114.666626 1.49883276,114.992091 C1.91620965,115.317617 2.95560659,116.465522 2.8211013,117.092837 C2.68659601,117.720151 0.442064944,117.399504 1.07592337,117.970066 C1.7097818,118.540806 1.31447544,118.260969 1.96826278,118.569599 C2.62199063,118.878051 3.6551412,119.018327 5.53643064,119.229573 C6.75750788,119.366637 8.85260184,119.694006 11.618973,120.055642 C14.5591124,123.08912 21.0488589,128.260048 31.3155213,128.443454 C40.869145,128.614069 50.4078963,123.248254 55.8502149,119.5363 C55.9469445,119.520833 56.0231503,119.50953 56.1209507,119.493468 C56.2806794,119.467293 57.4712982,119.262411 58.3425189,119.528567 C59.2136801,119.794424 59.4308755,120.128159 59.7925704,120.452316 C62.4008785,122.742833 65.7441173,124.000198 68.9181091,125.269521 C76.1925195,127.762658 82.8511562,127.561822 83.7904326,124.821032 C84.8056174,121.053158 77.5924216,117.56887 75.0390221,116.426319 C77.6880804,115.284898 84.6785483,111.825 83.7904326,108.031606 C82.8498474,105.788503 79.6384963,105.913847 77.68463,105.844899 C76.9235834,105.906648 76.1587296,105.932705 75.4014904,106.030803 C73.1925934,106.317303 71.0243871,106.86627 68.9181091,107.583116 C66.2948097,108.553446 63.5927465,109.626514 61.2960433,111.254677 C60.4890711,111.826726 60.042128,111.942908 59.4660337,111.849569 C58.8901178,111.756231 58.6184897,111.486209 58.344839,110.662104 C57.8654147,109.218417 57.2629072,107.841121 56.5578401,106.531584 C55.5393239,102.709218 53.482779,98.5684656 50.6367516,95.5411744 C46.4337735,91.0704945 40.6072136,88.255818 36.2699087,87.1952429 C34.5613167,86.7774496 32.7555191,86.5786959 30.9321128,86.5933302 L30.9321128,86.5929138 Z" id="path1792-8"></path>
            <path d="M83.5255268,47.9493228 C76.4854448,47.9992938 69.0357195,51.3568696 65.8077114,57.2107946 C59.350327,62.0695231 56.436125,69.4291817 53.6147262,76.7527897 C53.5471464,76.9277477 53.3293561,77.3288245 53.5043736,77.6021778 C53.6795695,77.8756501 54.1364473,78.3453776 54.5779174,78.6374105 C55.0193874,78.929384 56.1434376,79.9930525 56.0581895,80.6289336 C55.9728818,81.2648147 53.7110394,81.1190659 54.3873732,81.6385859 C55.063707,82.1582249 54.6480553,81.9105115 55.3238536,82.1672673 C55.999652,82.4239636 57.0395249,82.4829769 58.9315819,82.5472254 C60.1597383,82.5888679 62.2749992,82.7528204 65.0617751,82.8980932 C68.2293421,85.6936736 75.100653,90.3437733 85.3497065,89.7277616 C94.8886958,89.1543443 103.982051,83.0602016 109.118713,78.9360468 C109.213242,78.9128459 109.28796,78.8967838 109.383619,78.8732856 C109.540849,78.8346175 110.712432,78.5377659 111.601678,78.7350324 C112.490924,78.9323584 112.733342,79.248663 113.11913,79.5436704 C115.897816,81.6243085 119.32892,82.6174227 122.592087,83.6358795 C130.038421,85.555361 136.661126,84.8369088 137.384278,82.0313342 C138.103206,78.1958215 130.639917,75.2834041 128.005374,74.3430568 C130.557584,72.9989557 137.258815,69.0057964 136.07825,65.29301 C134.965979,63.1302173 131.773605,63.5051783 129.820274,63.5884633 C129.066307,63.709286 128.306509,63.7942368 127.559205,63.9509911 C125.379279,64.4085232 123.260449,65.1254287 121.216397,66.0040856 C118.676561,67.1756677 116.065278,68.4546875 113.902248,70.2566183 C113.142212,70.8897628 112.706096,71.0402707 112.124529,70.9920844 C111.543021,70.9438981 111.25081,70.6955898 110.913862,69.8952803 C110.324086,68.4945454 109.617055,67.1701352 108.813117,65.9203841 C107.500605,62.1876094 105.127339,58.2180673 102.05317,55.4203453 C97.5150292,51.290301 91.4865626,48.9374995 87.0797742,48.217679 C85.9225289,48.0286815 84.7303635,47.9407563 83.5255268,47.9493228 Z" id="path1792-9-4"></path>
            <path d="M127.288529,113.007588 C121.371069,113.068386 115.385792,115.322495 112.003706,119.710604 C104.881886,123.531482 100.883313,130.36359 96.9814697,137.173924 C96.8883095,137.336687 96.6118032,137.699809 96.7432746,137.996601 C96.8748054,138.293453 97.2541686,138.827131 97.6460841,139.182877 C98.0380591,139.538564 98.9888765,140.761009 98.808029,141.376545 C98.6270031,141.992081 96.412871,141.503912 97.0024099,142.120161 C97.5919488,142.736708 97.2181776,142.428256 97.8470984,142.784776 C98.4760192,143.141176 99.4957847,143.358669 101.356074,143.709656 C102.563291,143.937321 104.628343,144.41966 107.359615,144.986593 C110.06501,148.230783 116.1513,153.872212 126.376379,154.820888 C135.891811,155.703709 145.805761,151.062711 151.509476,147.767004 C151.606205,147.758676 151.682351,147.753322 151.780211,147.744993 C151.941487,147.730716 153.144717,147.615901 153.99363,147.946007 C154.842542,148.276113 155.032848,148.624066 155.369319,148.97428 C157.799576,151.452961 161.040969,152.957148 164.11145,154.459609 C171.179611,157.488388 177.834499,157.785001 178.975623,155.121903 C180.26898,151.440171 173.334789,147.427142 170.873717,146.097378 C173.600527,145.156673 180.829666,142.227896 180.22698,138.37888 C179.456237,136.072123 176.245719,135.957011 174.302442,135.742552 C173.538897,135.748501 172.773626,135.715782 172.011211,135.757424 C169.787026,135.878366 167.584018,136.265106 165.430208,136.822878 C162.741828,137.59487 159.967782,138.462403 157.556027,139.914715 C156.708602,140.424716 156.254044,140.507347 155.686516,140.371295 C155.119167,140.235243 154.868479,139.945887 154.657054,139.103697 C154.286614,137.627946 153.788213,136.2099 153.182612,134.851105 C152.452024,130.963539 150.710356,126.681619 148.098121,123.450577 C144.2403,118.678821 138.63974,115.436536 134.393513,114.055432 C132.163319,113.33002 129.732408,112.982305 127.288529,113.00741 L127.288529,113.007588 Z" id="path1792-7-7"></path>
            <path d="M183.000431,68.3557568 C175.700856,68.3706292 167.869626,72.041773 164.722583,78.2620926 C158.442179,83.3471779 155.790742,90.8045179 153.231393,98.2235467 C153.170298,98.4008248 152.966666,98.8106465 153.151261,99.077575 C153.336035,99.3446819 153.809332,99.7971575 154.260855,100.073307 C154.712439,100.349456 155.874621,101.37285 155.811979,102.011349 C155.749278,102.649848 153.482854,102.585123 154.177213,103.080312 C154.871573,103.574728 154.447711,103.34153 155.132255,103.574133 C155.816679,103.806498 156.858515,103.832197 158.751583,103.826248 C159.980097,103.826248 162.098689,103.912508 164.887606,103.958731 C168.151784,106.639795 175.185441,111.043311 185.407903,110.063344 C194.921074,109.151314 203.792831,102.738011 208.779521,98.4338413 C208.87286,98.407666 208.946627,98.3886295 209.040977,98.3618593 C209.196779,98.3178372 210.356345,97.980176 211.252075,98.1457347 C212.147746,98.3112934 212.401349,98.6186151 212.797369,98.8997615 C215.648215,100.880279 219.112514,101.750905 222.409768,102.652703 C229.919637,104.306446 236.512657,103.353665 237.135688,100.524117 C237.717851,96.6655221 230.155928,94.0200927 227.489618,93.1739169 C229.992452,91.739987 236.546566,87.5111905 235.234827,83.8427237 C234.046409,81.7208001 230.870157,82.2086718 228.92105,82.3613213 C228.171842,82.5088548 227.415197,82.6208136 226.673961,82.8039812 C224.511644,83.3386709 222.419405,84.1294621 220.407834,85.0801605 C217.911247,86.3412146 215.34821,87.7129782 213.250558,89.5906388 C212.513426,90.2503751 212.082486,90.4162312 211.49955,90.3888662 C210.916793,90.3615011 210.616789,90.1240198 210.251644,89.3362031 C209.612431,87.9570628 208.857214,86.65859 208.009195,85.4379886 C206.564854,81.7542926 204.052443,77.8720807 200.880949,75.1854252 C196.198904,71.2192145 190.090781,69.0812288 185.661208,68.5184006 C184.788798,68.407572 183.898898,68.3539127 183.000431,68.3557568 Z" id="path1792-1-4"></path>
            <path d="M185.800651,0.274186156 C178.250925,0.207379679 170.014453,4.17335244 166.938321,10.7464435 C160.817111,16.0215377 158.396075,23.5579984 156.065285,31.0518053 C156.011149,31.230868 155.819177,31.6457464 156.011744,31.9069639 C156.204609,32.1682408 156.690577,32.6056061 157.150369,32.8678349 C157.610162,33.1300043 158.802447,34.1169911 158.759614,34.7570959 C158.716782,35.3972007 156.450418,35.4022573 157.15965,35.8759706 C157.868822,36.3498028 157.437405,36.1292165 158.128671,36.3407604 C158.819936,36.5521854 159.861713,36.5423696 161.753829,36.4813336 C162.981688,36.4414758 165.102006,36.4646766 167.890983,36.4254137 C171.23565,39.0052264 178.401135,43.1919045 188.589093,41.8990831 C198.069069,40.6961501 206.739634,34.0146101 211.592354,29.5597543 C211.685217,29.5306045 211.758745,29.5091884 211.852619,29.4795627 C212.006994,29.4307815 213.156387,29.0568913 214.056757,29.1949064 C214.957068,29.3329216 215.218524,29.6324502 215.622991,29.9013418 C218.533208,31.7935773 222.023623,32.5575388 225.346933,33.3579672 C232.903917,34.7808322 239.464754,33.6258475 240.000812,30.7785709 C240.464471,26.9039737 232.824916,24.4922183 230.133977,23.7281378 C232.591658,22.2181805 239.013408,17.7899759 237.589889,14.1633896 C236.336985,12.0788847 233.176676,12.6636645 231.233161,12.8759818 C230.488831,13.0464186 229.73641,13.1814593 229.001122,13.3872328 C226.856236,13.9879557 224.788507,14.8432332 222.807037,15.8550866 C220.350249,17.192049 217.83058,18.6418626 215.791465,20.5828793 C215.074976,21.2648646 214.649568,21.4440463 214.066038,21.434528 C213.482686,21.4250097 213.174828,21.1965114 212.785649,20.4202356 C212.103962,19.0603698 211.310434,17.784146 210.424698,16.5894225 C208.867982,12.952604 206.237603,9.14975086 202.986157,6.56220453 C198.184776,2.74138565 192.014844,0.792635353 187.570101,0.365799669 C186.986451,0.309879732 186.395604,0.279302235 185.800532,0.274007688 L185.800651,0.274186156 Z" id="path1792-0-4"></path>
            <path d="M203.819364,163.22375 C197.610228,163.137075 191.207038,165.481369 187.715433,170.145211 C180.647867,174.065734 176.745369,180.953166 172.939542,187.817695 C172.848702,187.981767 172.577431,188.348935 172.713007,188.643823 C172.848702,188.938831 173.236275,189.467155 173.633187,189.817309 C174.0301,190.167463 174.997634,191.376761 174.825353,191.994736 C174.653131,192.61277 172.432098,192.156012 173.030204,192.763873 C173.628368,193.372151 173.250314,193.069232 173.884172,193.416887 C174.518031,193.764364 175.54083,193.967044 177.405879,194.291796 C178.616367,194.502567 180.687725,194.955399 183.42685,195.483902 C186.177457,198.689721 192.341916,204.244891 202.579607,205.04984 C212.106222,205.798929 221.953545,201.019441 227.610441,197.643899 C227.707171,197.634381 227.783317,197.628432 227.881177,197.618319 C228.042274,197.601662 229.243422,197.469833 230.096915,197.787982 C230.950408,198.106131 231.146366,198.45218 231.487715,198.797634 C233.952535,201.24199 237.214155,202.699478 240.305397,204.158631 C247.415438,207.087824 254.074135,207.290683 255.17772,204.611821 C256.419262,200.9123 249.429746,196.997429 246.950292,195.702347 C249.663598,194.723451 256.851095,191.693899 256.194333,187.853686 C255.391287,185.557995 252.178806,185.488154 250.232673,185.301001 C249.469247,185.317063 248.704274,185.295052 247.942573,185.348592 C245.720291,185.500766 243.522459,185.917845 241.376621,186.505837 C238.699364,187.315546 235.937693,188.221985 233.54658,189.708027 C232.706413,190.229986 232.253402,190.319458 231.684089,190.191378 C231.114836,190.063297 230.860401,189.776856 230.637197,188.9377 C230.246412,187.468731 229.727308,186.059668 229.103503,184.710689 C228.31884,180.832641 226.516968,176.573862 223.858689,173.378692 C219.934181,168.661607 214.289122,165.497848 210.023919,164.176471 C208.063806,163.569205 205.953126,163.253495 203.819364,163.223691 L203.819364,163.22375 Z" id="path1792-5-9"></path>
            <path d="M241.704288,116.551365 C234.405665,116.433814 226.509413,119.961054 223.249816,126.123133 C216.878096,131.093166 214.091083,138.501844 211.397288,145.873103 C211.333159,146.049251 211.122329,146.454492 211.302046,146.724752 C211.481942,146.99513 211.946612,147.457124 212.39302,147.741424 C212.839487,148.025783 213.982396,149.068987 213.908153,149.706177 C213.83391,150.343426 211.569569,150.237238 212.254767,150.744919 C212.940024,151.250638 212.520446,151.012383 213.200587,151.25736 C213.880728,151.502277 214.921196,151.543028 216.814086,151.574557 C218.04254,151.594783 220.159823,151.721674 222.94773,151.818522 C226.16271,154.55854 233.114688,159.090077 243.353033,158.296133 C252.880184,157.557276 261.865864,151.305784 266.930306,147.093109 C267.024835,147.068124 267.099613,147.050872 267.195212,147.025708 C267.351788,146.98466 268.517302,146.668475 269.40982,146.850274 C270.302338,147.032133 270.550349,147.342786 270.941194,147.631071 C273.755573,149.663106 277.203572,150.597802 280.483871,151.559447 C287.962449,153.34942 294.571471,152.515796 295.245842,149.698086 C295.898083,145.850675 288.386191,143.068064 285.735705,142.173583 C288.264178,140.785341 294.89426,136.67701 293.649387,132.985283 C292.499697,130.842062 289.315116,131.271694 287.363511,131.388828 C286.611804,131.522738 285.85272,131.621193 285.108271,131.790857 C282.936615,132.286165 280.82998,133.03924 278.801454,133.953174 C276.28238,135.168659 273.695429,136.493128 271.563987,138.332359 C270.815076,138.978532 270.380209,139.137309 269.797869,139.099235 C269.215647,139.061162 268.92058,138.817673 268.569772,138.023312 C267.955783,136.633047 267.224838,135.321189 266.399305,134.085597 C265.022247,130.376142 262.58039,126.448004 259.458154,123.704061 C254.848983,119.653375 248.781372,117.404918 244.362745,116.76166 C243.492476,116.635007 242.602635,116.565821 241.704288,116.551365 Z" id="path1792-77-5"></path>
        </g>
    </g>
</svg>