<?xml version="1.0" encoding="UTF-8"?>
<svg width="92px" height="316px" viewBox="0 0 92 316" version="1.1" xmlns="http://www.w3.org/2000/svg" xmlns:xlink="http://www.w3.org/1999/xlink">
    <!-- Generator: Sketch 49.2 (51160) - http://www.bohemiancoding.com/sketch -->
    <title>g2720</title>
    <desc>Created with Sketch.</desc>
    <defs></defs>
    <g id="Page-1" stroke="none" stroke-width="1" fill="none" fill-rule="evenodd" fill-opacity="0.33177568">
        <g id="g2720" fill="#FFFFFF" fill-rule="nonzero">
            <path d="M91.5847,294.5945 C91.5847163,306.077869 82.2890407,315.394078 70.8057,315.4194 C59.3223583,315.444755 49.9856595,306.169658 49.935,294.6864 C49.8843046,283.203179 59.138719,273.846051 70.6218,273.77 C82.1049232,273.693909 91.482513,282.927672 91.5839,294.4106" id="path2187-81"></path>
            <path d="M42.0016,126.0117 C42.0016163,137.495069 32.7059407,146.811278 21.2226,146.8366 C9.73929719,146.861956 0.40261446,137.586919 0.3519,126.1037 C0.301204572,114.620479 9.55561895,105.263351 21.0387,105.1873 C32.5217455,105.111264 41.8992581,114.344951 42.0007,125.8278" id="path2187-1"></path>
            <path d="M83.6513,20.8955 C83.6513165,32.3788297 74.3557017,41.695023 62.8724,41.7204 C51.3890972,41.7457556 42.0524145,32.4707188 42.0017,20.9875 C41.9509493,9.50424006 51.2053797,0.147051159 62.6885,0.071 C74.1715842,-0.00503606911 83.5491129,9.22871162 83.6505,20.7116" id="path2187-80"></path>
        </g>
    </g>
</svg>