<?xml version="1.0" encoding="utf-8"?>
<!-- Generator: Adobe Illustrator 22.1.0, SVG Export Plug-In . SVG Version: 6.00 Build 0)  -->
<svg version="1.1" id="Layer_1" xmlns="http://www.w3.org/2000/svg" xmlns:xlink="http://www.w3.org/1999/xlink" x="0px" y="0px"
	 viewBox="0 0 1000 1000" style="enable-background:new 0 0 1000 1000;" xml:space="preserve">
<style type="text/css">
	.st0{fill:#5CE9F1;}
	.st1{fill:#45AFB5;}
	.st2{fill:none;stroke:#FFFFFF;stroke-width:25.7273;stroke-miterlimit:10;}
	.st3{fill:#FFFFFF;}
</style>
<g>
	<path class="st0" d="M954.7,966.5H134.9V100.4h819.8c25.6,0,46.3,20.7,46.3,46.3v773.5C1001,945.8,980.2,966.5,954.7,966.5z"/>
	<circle class="st1" cx="67.9" cy="100.4" r="67"/>
	<rect x="1" y="100.4" class="st1" width="133.9" height="792.7"/>
	<circle class="st0" cx="67.9" cy="899.6" r="67"/>
	<rect x="67.9" y="893.2" class="st0" width="203.4" height="73.3"/>
	<path class="st2" d="M869.1,893.2H266.8c-34,0-61.7-27.8-61.7-61.7V229.1c0-34,27.8-61.7,61.7-61.7h602.3c34,0,61.7,27.8,61.7,61.7
		v602.3C930.8,865.4,903,893.2,869.1,893.2z"/>
	<g>
		<path class="st3" d="M555,280.2c7.3-6,18.5-6,25.8,0l118.1,96.9l95.7,78.5c12.6,10.3,4.3,29-12.9,29H567.9H354.1
			c-17.2,0-25.5-18.6-12.9-29l95.7-78.5L555,280.2z"/>
		<path class="st3" d="M750.2,468.2v241.1c0,34-27.8,61.7-61.7,61.7h-15c-15.3,0-28.1-10.9-31.2-25.3V594.1
			c0-23.9-19.6-43.4-43.4-43.4h-61.9c-23.9,0-43.4,19.6-43.4,43.4v145c0,4.4-0.9,8.6-2.5,12.5c-1.6,3.8-4,7.3-6.8,10.1
			c-5.8,5.8-13.7,9.3-22.5,9.3h-14.3c-33.4,0-60.9-26.9-61.7-60.2c-0.1-0.5-0.1-1.1-0.1-1.6V468.2c0-34,27.8-61.7,61.7-61.7h241.1
			C722.4,406.4,750.2,434.2,750.2,468.2z"/>
		<path class="st3" d="M493.5,635.2v103.9c0,17.6-14.3,31.9-31.9,31.9h-44.1c-17.6,0-31.9-14.3-31.9-31.9V635.2
			c0-17.6,14.3-31.9,31.9-31.9h44.1C479.3,603.3,493.5,617.6,493.5,635.2z"/>
		<path class="st3" d="M750.2,635.2v103.9c0,17.6-14.2,31.9-31.7,31.9h-44.6c-15.2,0-28-10.9-31-25.3c-0.5-2.2-0.7-4.4-0.7-6.6
			V635.2c0-2.3,0.3-4.5,0.7-6.6c3-14.5,15.7-25.3,31-25.3h44.6C736,603.3,750.2,617.6,750.2,635.2z"/>
	</g>
</g>
</svg>
