<?xml version="1.0" encoding="UTF-8"?>
<svg width="365px" height="73px" viewBox="0 0 365 73" version="1.1" xmlns="http://www.w3.org/2000/svg" xmlns:xlink="http://www.w3.org/1999/xlink">
    <!-- Generator: Sketch 53 (72520) - https://sketchapp.com -->
    <title>cloud2</title>
    <desc>Created with Sketch.</desc>
    <g id="Page-1" stroke="none" stroke-width="1" fill="none" fill-rule="evenodd">
        <g id="cloud2" fill="#BA4CB4" fill-rule="nonzero">
            <g id="g2954-8-3" transform="translate(182.721310, 36.374381) scale(-1, 1) translate(-182.721310, -36.374381) translate(0.446601, 0.201521)">
                <path d="M133.612011,35.3441098 C130.694939,35.3441098 128.346632,37.6924154 128.346632,40.6094877 L120.053994,40.6094877 C117.136921,40.6094877 114.788292,42.9577933 114.788292,45.8748656 L110.410901,45.8748656 C107.493829,45.8748656 105.145522,48.2234964 105.145522,51.1405687 L95.9623047,51.1405687 C93.0452307,51.1405687 90.6969251,53.4888743 90.6969251,56.4059466 L80.4199269,56.4059466 C77.5028529,56.4059466 75.1545473,58.7542522 75.1545473,61.6713246 L75.1545473,61.6716564 C75.1545473,64.5887288 77.5028529,66.9370343 80.4199269,66.9370343 L142.12535,66.9370343 C145.042423,66.9370343 147.390728,64.5887288 147.390728,61.6716564 L171.103564,61.6716564 C171.103564,64.5887288 173.452195,66.9370343 176.369267,66.9370343 L197.343926,66.9370343 C197.343926,69.8541083 199.692232,72.2024122 202.609304,72.2024122 L225.810414,72.2024122 C228.727489,72.2024122 231.076115,69.8541083 231.076115,66.9370343 L238.074366,66.9370343 C240.991441,66.9370343 243.339745,64.5887288 243.339745,61.6716564 L243.339745,61.6713246 L245.972598,61.6713246 C248.889674,61.6713246 251.237973,59.3230207 251.237973,56.4059466 C251.237973,53.4888743 248.889674,51.1405687 245.972598,51.1405687 L222.771485,51.1405687 C219.854413,51.1405687 217.505784,53.4888743 217.505784,56.4059466 L199.791725,56.4059466 C199.791725,53.4888743 197.443094,51.1405687 194.526022,51.1405687 L185.285441,51.1405687 C185.285441,48.2234964 182.937135,45.8748656 180.020063,45.8748656 L171.721914,45.8748656 C171.721914,42.9577933 169.373285,40.6094877 166.456213,40.6094877 L162.078822,40.6094877 C162.078822,37.6924154 159.730517,35.3441098 156.813444,35.3441098 L133.612011,35.3441098 Z" id="rect2599-9-4"></path>
                <path d="M297.117118,21.8541502 C294.200042,21.8541502 291.851428,24.2024558 291.851428,27.1195281 L280.250858,27.1195281 C277.333788,27.1195281 274.985489,29.4678337 274.985489,32.3849077 L255.237165,32.3849077 C252.320089,32.3849077 249.97179,34.7332133 249.97179,37.6502856 L249.97179,37.6506175 C249.971773,40.5676915 252.320089,42.9159954 255.237165,42.9159954 L266.837718,42.9159954 C266.837718,45.8330694 269.186349,48.1813733 272.103424,48.1813733 L295.304526,48.1813733 C298.221601,48.1813733 300.5699,45.8330694 300.5699,42.9159954 L301.639704,42.9159954 L319.803906,42.9159954 C320.164274,45.4771201 322.352831,47.4353346 325.016465,47.4353346 L330.67463,47.4353346 C330.67463,50.3524086 333.022929,52.7010377 335.940005,52.7010377 L359.141111,52.7010377 C362.058187,52.7010361 364.406818,50.3524086 364.406818,47.4353346 C364.406818,44.5182622 362.058187,42.1699567 359.141111,42.1699567 L353.482946,42.1699567 C353.482946,39.2528843 351.134647,36.9042536 348.217571,36.9042536 L328.983566,36.9042536 C328.623048,34.3433063 326.434839,32.384916 323.771339,32.384916 C323.771339,29.467842 321.42304,27.1195364 318.505964,27.1195364 L317.43616,27.1195364 C317.43616,24.2024641 315.087861,21.8541585 312.170785,21.8541585 L297.117118,21.8541502 Z" id="rect2599-7-5-4-4-9-5-2-34-4-4"></path>
                <path d="M67.4344228,0.144556538 C70.3514984,0.144556538 72.7001126,2.4928621 72.7001126,5.4099361 L84.3006824,5.4099361 C87.2177581,5.4099361 89.566057,7.75824166 89.566057,10.6753162 L109.314382,10.6753162 C112.231457,10.6753162 114.579756,13.0236217 114.579756,15.9406941 L114.579756,15.9410259 C114.579773,18.8580983 112.231457,21.2064038 109.314382,21.2064038 L97.7138284,21.2064038 C97.7138284,24.1234762 95.3651976,26.4717817 92.4481213,26.4717817 L69.2470149,26.4717817 C66.3299392,26.4717817 63.9816403,24.1234762 63.9816403,21.2064038 L62.9118363,21.2064038 L44.747633,21.2064038 C44.3872651,23.7675269 42.1987091,25.725743 39.5350741,25.725743 L33.8769087,25.725743 C33.8769087,28.642817 31.5286098,30.9914429 28.6115342,30.9914429 L5.41042941,30.9914429 C2.49335375,30.9914329 0.144722966,28.6428038 0.144722966,25.7257298 C0.144722966,22.8086574 2.49335375,20.4603519 5.41042941,20.4603519 L11.0685948,20.4603519 C11.0685948,17.5432795 13.4168937,15.1946487 16.3339694,15.1946487 L35.5679734,15.1946487 C35.9284907,12.6337015 38.1166998,10.6753112 40.780202,10.6753112 C40.780202,7.75823668 43.128501,5.40993112 46.045575,5.40993112 L47.115379,5.40993112 C47.115379,2.49285878 49.4636779,0.144553219 52.3807536,0.144553219 L67.4344228,0.144556538 Z" id="rect2599-7-5-4-4-9-5-2-34-4-4-1"></path>
            </g>
        </g>
    </g>
</svg>