<?xml version="1.0" encoding="UTF-8"?>
<svg width="305px" height="48px" viewBox="0 0 305 48" version="1.1" xmlns="http://www.w3.org/2000/svg" xmlns:xlink="http://www.w3.org/1999/xlink">
    <!-- Generator: Sketch 53 (72520) - https://sketchapp.com -->
    <title>cloud1</title>
    <desc>Created with Sketch.</desc>
    <g id="Page-1" stroke="none" stroke-width="1" fill="none" fill-rule="evenodd">
        <g id="cloud1" fill="#C65EA3" fill-rule="nonzero">
            <path d="M58.967637,10.93591 C56.050563,10.93591 53.702257,13.28421 53.702257,16.20129 L45.40962,16.20129 C42.492549,16.20129 40.143919,18.54959 40.143919,21.46666 L35.766528,21.46666 C32.849455,21.46666 30.501148,23.81529 30.501148,26.73237 L21.31793,26.73237 C18.400856,26.73237 16.05255,29.08068 16.05255,31.99774 L5.7755503,31.99774 C2.8584763,31.99774 0.5101723,34.34605 0.5101723,37.26314 L0.5101723,37.2634 C0.5101723,40.18046 2.8584763,42.52877 5.7755503,42.52877 L67.480976,42.52877 C70.39805,42.52877 72.746354,40.18046 72.746354,37.2634 L96.45919,37.2634 C96.45919,40.18046 98.80782,42.52877 101.72489,42.52877 L122.69955,42.52877 C122.69955,45.44585 125.04786,47.79416 127.96493,47.79416 L151.16604,47.79416 C154.08311,47.79416 156.43174,45.44585 156.43174,42.52877 L163.42999,42.52877 C166.34707,42.52877 168.69537,40.18046 168.69537,37.2634 L168.69537,37.26314 L171.32822,37.26314 C174.2453,37.26314 176.5936,34.91483 176.5936,31.99774 C176.5936,29.08068 174.2453,26.73237 171.32822,26.73237 L148.12711,26.73237 C145.21004,26.73237 142.86141,29.08068 142.86141,31.99774 L125.14735,31.99774 C125.14735,29.08068 122.79872,26.73237 119.88165,26.73237 L110.64106,26.73237 C110.64106,23.81529 108.29276,21.46666 105.37569,21.46666 L97.07753,21.46666 C97.07753,18.54959 94.728914,16.20129 91.811834,16.20129 L87.434454,16.20129 C87.434454,13.28421 85.086144,10.93591 82.16907,10.93591 L58.967637,10.93591 Z" id="rect2599-9-4-2"></path>
            <path d="M237.16441,0.31305 C234.24733,0.31305 231.89872,2.66136 231.89872,5.57843 L220.29815,5.57843 C217.38108,5.57843 215.03278,7.92674 215.03278,10.84381 L195.28446,10.84381 C192.36738,10.84381 190.01908,13.19212 190.01908,16.10919 L190.01908,16.10945 C190.01906,19.02653 192.36738,21.37483 195.28446,21.37483 L206.88501,21.37483 C206.88501,24.29191 209.23364,26.64022 212.15071,26.64022 L235.35182,26.64022 C238.26889,26.64022 240.61719,24.29191 240.61719,21.37483 L241.68699,21.37483 L259.8512,21.37483 C260.21157,23.93596 262.40012,25.89417 265.06376,25.89417 L270.72193,25.89417 C270.72193,28.81126 273.07021,31.15989 275.9873,31.15989 L299.1884,31.15989 C302.10548,31.15986 304.45411,28.81123 304.45411,25.89415 C304.45411,22.97708 302.10548,20.62878 299.1884,20.62878 L293.53023,20.62878 C293.53023,17.71171 291.18192,15.36308 288.26486,15.36308 L269.03085,15.36308 C268.67033,12.80213 266.48212,10.84374 263.81863,10.84374 C263.81863,7.92666 261.47033,5.57836 258.55325,5.57836 L257.48345,5.57836 C257.48345,2.66129 255.13515,0.31298 252.21808,0.31298 L237.16441,0.31305 Z" id="rect2599-7-5-4-4-9-5-2-34-4-4-9"></path>
        </g>
    </g>
</svg>