<?xml version="1.0" encoding="UTF-8"?>
<svg width="603px" height="285px" viewBox="0 0 603 285" version="1.1" xmlns="http://www.w3.org/2000/svg" xmlns:xlink="http://www.w3.org/1999/xlink">
    <!-- Generator: Sketch 53 (72520) - https://sketchapp.com -->
    <title>Artboard</title>
    <desc>Created with Sketch.</desc>
    <g id="Artboard" stroke="none" stroke-width="1" fill="none" fill-rule="evenodd">
        <g id="final">
            <path d="M604.61633,0.3318257 C594.76427,0.9928267 584.94367,2.0944967 577.60971,5.179169 C564.51558,10.656037 553.34151,28.566025 538.64211,30.4546 C518.05664,33.130081 489.72801,23.372443 470.87374,32.532033 C456.58352,39.456808 454.66347,51.197451 444.71696,59.884897 C439.17715,64.732239 345.5353,105.0848 336.9108,106.31237 C330.01751,107.28814 315.66434,107.79176 309.14875,106.31237 C296.62119,103.44803 290.57775,92.462816 279.27778,88.087615 C260.26613,80.690693 236.31269,83.838326 218.43418,76.882073 C205.90663,72.003254 210.8484,57.492701 183.21226,50.347592 C146.54242,40.841763 89.69631,57.587129 57.275775,42.88772 C51.106434,40.086333 23.029608,33.696654 0.2408045,30.328695 L0.2408045,225.73327 L604.58486,247.10565 L604.58486,0.3318257 L604.61633,0.3318257 Z" id="path5984" fill="#4C1889" fill-rule="nonzero"></path>
            <path d="M595.26446,32.71941 C594.142187,32.7139051 593.125428,33.3801188 592.6824,34.41126 C591.18447,37.766534 589.62019,39.396878 587.5466,40.566347 C585.85832,41.518503 583.67782,42.132415 580.90892,42.667638 C579.71815,41.81973 578.46967,41.049128 577.1533,40.375757 C573.06258,38.283216 568.37703,37.153092 563.14328,37.238582 C560.00306,37.289892 556.665,37.778588 553.14035,38.759546 C552.177629,39.0268714 551.430785,39.7877012 551.181364,40.7552155 C550.931944,41.7227298 551.217875,42.7498041 551.931367,43.4492491 C552.64486,44.1486941 553.677416,44.4141491 554.63978,44.145542 C562.96311,41.829016 569.3245,42.649854 574.60754,45.352342 C574.89605,45.499902 575.18012,45.656245 575.46268,45.815861 C574.57984,46.822943 573.78833,47.877524 573.1001,48.989329 C571.2109,47.628799 569.27835,46.473588 567.18049,45.692317 C565.73504,45.153978 564.20234,44.81457 562.61398,44.725869 C561.02559,44.637209 559.38121,44.799079 557.71363,45.263202 C556.739048,45.5201229 555.978231,46.2817855 555.722392,47.2566521 C555.466554,48.2315187 555.755313,49.268626 556.478141,49.9710055 C557.20097,50.673385 558.245935,50.9322694 559.21306,50.648567 C561.44467,50.02751 563.23841,50.189329 565.22921,50.930752 C566.93258,51.565156 568.7545,52.694524 570.73142,54.192731 C570.17266,55.991473 569.81591,57.909667 569.66661,59.959275 C569.265546,60.6516623 569.18042,61.4827251 569.432785,62.2420434 C569.68515,63.0013616 570.250809,63.6161315 570.98654,63.930697 C571.508106,64.2323567 572.11318,64.357423 572.7116,64.28726 C574.90288,64.687638 575.99407,65.345302 576.86866,66.175237 C577.86187,67.117667 578.64263,68.546469 579.7415,70.486602 C580.2285,71.3656101 581.149836,71.9155785 582.15467,71.9270831 C583.159504,71.9385877 584.09319,71.4098578 584.600187,70.5422302 C585.107184,69.6746026 585.109465,68.6016067 584.60616,67.731832 C583.57487,65.910962 582.58721,63.895286 580.71651,62.120214 C579.37005,60.84253 577.59605,59.829152 575.34156,59.180993 C575.80857,54.986656 577.27987,51.985931 580.01997,49.106137 C582.91991,51.694241 585.44918,54.973625 587.65542,58.728521 C590.7275,63.956916 593.11123,70.019054 595.03207,76.1511 C593.40292,78.00461 592.28252,78.645714 590.86946,78.984587 C589.2545,79.371843 586.83537,79.22623 583.03789,78.883824 C582.033894,78.7764629 581.050035,79.218885 580.464099,80.0412064 C579.878163,80.8635278 579.781232,81.9379217 580.210527,82.8518359 C580.639823,83.76575 581.528611,84.3771199 582.53561,84.451188 C586.33493,84.793809 589.23785,85.124342 592.17276,84.420378 C593.8094,84.027935 595.32464,83.269258 596.77185,82.147581 C598.00493,86.737062 599.01621,91.227276 599.88998,95.29077 C595.99883,95.29877 592.38608,94.07604 588.75158,92.015886 C585.0568,89.921546 581.42391,86.965143 577.79759,83.804388 C577.572009,83.5114025 577.290542,83.266083 576.96949,83.082637 C576.41336,82.593534 575.85723,82.100804 575.30098,81.606598 C570.84247,77.645118 566.38307,73.59488 561.50186,70.749112 C559.38666,69.515967 557.15056,68.514298 554.81806,67.891037 C555.42994,66.063305 556.28905,65.150304 557.37737,64.39116 C558.87979,63.343127 561.20454,62.703373 564.04395,61.733494 C565.336815,61.3115799 566.138434,60.0204302 565.943107,58.6745627 C565.747781,57.3286951 564.612195,56.318693 563.25273,56.281713 C562.907104,56.2723372 562.562737,56.3271629 562.23711,56.443407 C559.68445,57.31533 556.83481,57.953858 554.17931,59.806203 C552.00576,61.322414 550.26988,63.792041 549.29436,67.198811 C547.95923,67.224301 546.60195,67.38877 545.22458,67.727518 C541.8869,68.548386 538.23664,69.864754 534.54356,71.158555 C536.35529,68.134695 538.03143,65.050178 539.63509,61.992953 C540.112943,61.1126922 540.083318,60.0440428 539.55743,59.191608 C539.031543,58.3391731 538.089775,57.8332466 537.08869,57.865378 C536.067752,57.8980268 535.145912,58.4849379 534.68434,59.396163 C532.06411,64.391506 529.31639,69.336175 526.179,73.830353 C524.33121,74.320753 522.52167,74.707439 520.79051,74.908667 C518.68984,75.152828 516.75843,75.144109 515.00183,74.818297 C517.97096,71.103973 519.99932,66.806584 519.31568,61.162388 C519.159798,59.7036781 517.902797,58.6136386 516.43671,58.665817 C515.647686,58.6939092 514.907337,59.0543523 514.398572,59.6580955 C513.889807,60.2618387 513.660078,61.0525729 513.76614,61.83494 C514.32714,66.466482 512.80473,69.127328 509.76523,72.421286 C507.60967,70.638125 505.72213,67.727956 504.3657,62.854237 C504.108414,61.8800653 503.346778,61.1197346 502.372167,60.86412 C501.397555,60.6085054 500.360797,60.8971654 499.658518,61.619669 C498.95624,62.3421726 498.697124,63.3867067 498.9803,64.35367 C500.53072,69.924307 502.97092,73.97272 506.09198,76.626953 C505.17615,77.514616 504.33853,77.889403 503.33167,78.156479 C501.76113,78.573072 499.49258,78.516813 496.38228,78.635386 C495.377918,78.6645419 494.466472,79.2304899 493.994945,80.1177639 C493.523418,81.0050379 493.564361,82.0771175 494.102188,82.9258436 C494.640014,83.7745696 495.59197,84.2693529 496.59563,84.221821 C499.44586,84.113206 502.01451,84.289391 504.76529,83.559696 C506.96308,82.976754 509.08827,81.65399 510.98125,79.487452 C514.30932,80.721825 517.9071,80.87209 521.43603,80.461861 C522.0839,80.386551 522.73288,80.29142 523.38239,80.182757 C522.86064,81.919496 522.35176,83.259784 521.77599,84.292522 C520.81944,86.008193 519.74226,87.075527 517.45724,88.369668 C516.570833,88.8528163 516.013799,89.7763642 515.999962,90.7857988 C515.986124,91.7952335 516.517633,92.7337034 517.390463,93.2409677 C518.263293,93.748232 519.34182,93.7454693 520.21204,93.23374 C523.09631,91.600176 525.22199,89.591246 526.6585,87.014712 C527.94326,84.7104 528.72882,82.089343 529.57928,78.740516 C534.92275,77.20404 540.02649,75.113324 544.22927,73.813135 C544.09015,74.153109 543.97831,74.494847 543.88747,74.835483 C539.07689,77.387357 536.74542,79.286222 531.88529,79.471499 C530.880442,79.499961 529.968257,80.0657728 529.4963,80.9533457 C529.024343,81.8409186 529.065303,82.913554 529.603572,83.7625509 C530.14184,84.6115477 531.094518,85.1061486 532.09861,85.057898 C537.28422,84.860225 540.60519,83.062777 544.17516,81.06498 C544.85344,83.695887 545.6925,85.821382 545.25225,88.621736 C545.083163,89.6146373 545.461291,90.621731 546.242069,91.257992 C547.022848,91.8942531 548.085541,92.0612922 549.023866,91.6952483 C549.962192,91.3292043 550.631051,90.486681 550.77473,89.489786 C551.58419,84.34087 549.69852,80.546434 549.27651,78.31694 C549.22431,78.041151 549.18661,77.79743 549.16397,77.573696 C549.327377,77.1300757 549.375604,76.6522591 549.30414,76.184933 C549.34854,76.057517 549.39884,75.928496 549.46337,75.792708 C549.78811,75.109357 550.52964,74.159373 552.09215,72.969665 C554.26668,73.354526 556.42325,74.258869 558.68616,75.578133 C562.57452,77.845085 566.59083,81.353899 570.76824,85.062216 C569.38444,86.269548 568.34658,87.744838 567.57881,89.204516 C566.76892,90.744336 566.17685,92.262716 565.63552,93.70157 C563.85976,92.924796 562.11434,92.531556 560.44317,92.588846 C557.82036,92.678746 555.58465,93.61526 553.38746,94.59914 C552.461325,94.9978588 551.821692,95.8644462 551.713578,96.8669504 C551.605464,97.8694547 552.045625,98.8524916 552.865455,99.4395028 C553.685285,100.026514 554.757713,100.126515 555.67194,99.7012 C557.73256,98.77862 559.28945,98.22199 560.63436,98.17588 C561.97928,98.12968 563.32653,98.45259 565.45539,99.96434 C566.138206,100.449147 567.002407,100.602294 567.810238,100.381649 C568.61807,100.161003 569.284428,99.589809 569.62599,98.82521 C570.75218,96.30245 571.5147,93.73056 572.5265,91.806856 C572.91907,91.060486 573.32357,90.464826 573.76219,89.942256 C574.9936,94.72125 576.12461,97.98951 575.2192,103.74872 C575.05027,104.741544 575.428445,105.74849 576.209169,106.384656 C576.989893,107.020823 578.052463,107.187856 578.990717,106.821909 C579.928971,106.455961 580.597851,105.61361 580.74168,104.61684 C581.48093,99.9146 581.0632,96.41615 580.32301,93.12001 C582.14618,94.48907 584.03025,95.76508 585.99488,96.87872 C591.24841,99.85668 597.21326,101.65084 603.75992,100.58285 C604.05942,100.532236 604.348668,100.433147 604.61629,100.28948 L604.61629,90.608686 C603.76898,86.787143 602.78373,82.659473 601.58606,78.436202 C602.65213,77.722296 603.6562,77.000766 604.61629,76.022609 L604.61629,65.538942 C603.841519,65.8711612 603.258048,66.535278 603.02834,67.346372 C602.23211,70.023616 601.54354,71.149238 600.70511,72.029062 C600.46435,72.281722 600.18251,72.527142 599.86226,72.779708 C598.88569,69.817478 597.78754,66.861983 596.54313,63.98603 C597.053627,63.8284168 597.508263,63.5278086 597.8532,63.119804 C599.90483,60.763679 601.05548,59.92638 602.26539,59.722603 C602.41669,59.697113 602.582,59.681623 602.76338,59.677083 C603.2511,59.665123 603.86539,59.742873 604.61629,59.923007 L604.61629,54.206258 C603.49227,54.040945 602.41143,54.029614 601.33709,54.210658 C598.43094,54.700081 596.26614,56.527278 594.13076,58.898888 C593.60092,57.880316 593.05106,56.877042 592.47517,55.896966 C590.61643,52.73354 588.49421,49.779242 586.05761,47.189974 C587.53963,46.746095 588.95171,46.191736 590.29274,45.435424 C593.39427,43.686163 595.934,40.841812 597.78741,36.690283 C598.187613,35.8267836 598.120983,34.8189938 597.610578,34.0156998 C597.100174,33.2124058 596.216131,32.7239907 595.26441,32.71949 L595.26446,32.71941 Z" id="path6743" fill="#3D146F" fill-rule="nonzero"></path>
            <path d="M24.319645,62.752792 C23.7791664,62.7760085 23.2818059,63.0544359 22.9794631,63.5030392 C22.6771202,63.9516424 22.6057041,64.5171413 22.787026,65.026826 C23.167513,66.145743 23.387872,67.061041 24.103866,67.984492 C24.453755,68.435767 24.883791,68.801301 25.396115,69.118738 C24.575849,70.350403 24.055649,71.612193 23.650167,72.793843 C23.038828,74.575367 22.626803,76.174486 21.827368,77.635771 C21.7220747,77.7683551 21.6371247,77.9158883 21.575316,78.073511 C19.734422,81.163664 17.085932,83.809144 14.249096,86.387647 C14.1651535,86.4502183 14.0871551,86.5203913 14.01609,86.597276 C13.324735,87.222772 12.626407,87.847269 11.924024,88.471716 C10.993405,86.567285 9.804918,85.215374 8.503448,84.260546 C9.540089,82.628972 11.328019,81.457901 13.282062,80.113925 C14.422916,79.32923 15.599329,78.490096 16.583375,77.354846 C17.312906,76.513171 17.918214,75.477098 18.242644,74.274202 C19.256182,74.00146 20.071511,73.614586 20.727545,73.050815 C21.684396,72.228592 22.116442,71.266709 22.590305,70.348893 C22.8781455,69.8103099 22.8558367,69.1588873 22.5318249,68.6412579 C22.207813,68.1236284 21.6316223,67.81891 21.021402,67.842471 C20.3989419,67.8663841 19.8391109,68.2279782 19.561328,68.785531 C19.068335,69.740394 18.80585,70.208383 18.506379,70.465701 C18.256896,70.680117 17.837163,70.907031 16.869855,71.099539 C16.027414,70.931707 15.204257,70.836743 14.404631,70.795856 C11.750846,70.660005 9.341357,71.077316 7.233327,71.078638 C6.61813206,71.0694412 6.04573587,71.3925291 5.73570232,71.9239692 C5.42566878,72.4554093 5.42613161,73.1126938 5.7369133,73.6436968 C6.04769498,74.1746998 6.62054562,74.4969812 7.235727,74.486918 C9.854749,74.483818 12.268461,74.118395 14.581007,74.261297 C14.419261,74.554247 14.251925,74.840523 14.007427,75.122613 C13.376792,75.850156 12.439153,76.556797 11.350394,77.305648 C9.426498,78.62894 6.970874,80.102088 5.457207,82.701493 C3.7669945,82.099517 2.1230715,81.767092 0.5667075,81.226049 C0.9565455,80.242349 1.1148525,79.230167 1.1421315,78.273924 C1.1842415,76.797433 0.9816945,75.401493 0.8931485,74.016002 C0.868556938,73.5368314 0.643131826,73.0902209 0.2722325,72.785848 L0.2722325,84.743772 C2.0861215,85.326048 3.7332325,85.645434 5.040388,86.191557 C6.83962,86.943204 8.178896,87.899233 9.266323,90.868106 C6.904979,93.05291 4.650122,95.40314 2.9815255,98.12732 C2.1195025,97.4656 1.2050395,96.84963 0.2722325,96.25228 L0.2722325,100.35517 C0.6782615,100.64067 1.0711445,100.92679 1.4310745,101.21542 C0.7994635,102.83267 0.3895565,104.58086 0.2722325,106.49116 L0.2722325,107.10495 C0.406862085,107.972902 1.17905493,108.596405 2.05588954,108.545155 C2.93272415,108.493904 3.62702045,107.784686 3.6596165,106.90696 C3.7351565,105.3067 4.056949,103.84715 4.578695,102.48485 C6.56387,102.77601 8.476714,103.33409 10.557347,103.64854 C13.098031,104.03287 15.966453,103.92616 18.948963,102.21133 C19.4848808,101.911858 19.8183291,101.347306 19.8218902,100.733402 C19.8254513,100.119498 19.4985749,99.5511156 18.9661674,99.2454467 C18.4337599,98.9397777 17.7781014,98.9440611 17.249733,99.25666 C15.251709,100.40554 13.645201,100.57425 11.829301,100.37784 C12.758944,98.95984 13.825898,98.02487 15.686373,96.74039 C16.3228595,96.3144229 16.5970464,95.5162093 16.3566641,94.7890371 C16.1162819,94.0618649 15.4203716,93.5843376 14.655407,93.62165 C14.3297787,93.6374006 14.0154991,93.7462125 13.749843,93.93518 C11.28388,95.63771 9.621089,97.28055 8.266098,99.7203 C7.617903,99.57929 6.950555,99.43953 6.242271,99.31205 C7.640518,97.20818 9.507811,95.28404 11.623967,93.32904 C11.756601,93.20651 11.89723,93.08388 12.031566,92.961396 C12.2975609,92.8254006 12.5231371,92.6218776 12.685685,92.371226 C13.711477,91.451476 14.76714,90.521896 15.833926,89.571566 C17.715173,89.911476 19.968603,90.587896 22.375689,91.137386 C22.13018,92.205186 21.741782,93.24453 21.411117,94.4479 C20.913545,96.25877 20.716336,98.54633 21.939205,101.02278 C22.2039716,101.57699 22.7464563,101.945872 23.3591922,101.988353 C23.9719282,102.030833 24.5601268,101.74034 24.8988384,101.227969 C25.23755,100.715597 25.2743769,100.06061 24.995235,99.5135 C24.150973,97.80394 24.295671,96.81406 24.697678,95.35101 C24.971596,94.35413 25.436334,93.17941 25.737876,91.761966 C25.830316,91.774166 25.922522,91.788366 26.015137,91.799466 C30.115504,92.295116 34.685606,91.581036 37.908485,87.480067 C38.3307694,86.9581086 38.4072764,86.2368653 38.1038925,85.6379305 C37.8005085,85.0389957 37.1737666,84.6739756 36.503123,84.705628 C34.21856,82.324988 31.413309,81.481202 29.365023,80.423755 C29.1132115,80.2892134 28.8316363,80.2200845 28.546148,80.222715 C27.7585106,80.2302693 27.0786512,80.776574 26.9017058,81.5441155 C26.7247604,82.3116571 27.0968284,83.1004682 27.801663,83.45209 C30.114552,84.646228 32.20676,85.326782 33.811651,86.842543 C31.701919,88.579156 29.282937,88.761336 26.423961,88.415765 C26.113354,88.378175 25.799333,88.330225 25.483968,88.278051 C25.1786378,87.9896347 24.777562,87.8241182 24.35769,87.813257 C24.1332354,87.8077059 23.9098959,87.8465582 23.700502,87.927582 C22.112088,87.571769 20.492208,87.122484 18.891148,86.736144 C20.848105,84.81395 22.693174,82.721944 24.198467,80.316119 C27.211015,79.996542 30.286793,79.051719 33.177806,78.293517 C33.2593373,78.3068183 33.3417278,78.3141744 33.424326,78.315527 C34.41576,79.747287 35.672795,80.570325 36.630359,81.220316 C37.92657,82.100172 38.811351,82.67669 39.578178,84.931679 C39.7684283,85.515576 40.2580901,85.9519743 40.8599495,86.0740244 C41.4618089,86.1960744 42.0827906,85.9849016 42.4854726,85.5212444 C42.8881547,85.0575871 43.010264,84.4131482 42.805114,83.834318 C41.785307,80.835428 39.94182,79.348682 38.54475,78.400361 C37.999318,78.030137 37.544775,77.742508 37.152296,77.428406 C39.443474,77.078422 41.396338,77.119876 42.777442,77.832939 C43.3198776,78.1260278 43.9783121,78.1033079 44.499255,77.7735263 C45.0201978,77.4437447 45.3224168,76.8583253 45.2895606,76.2426485 C45.2567044,75.6269718 44.8938964,75.0770422 44.340814,74.804577 C42.69281,73.953743 40.915944,73.698564 39.088208,73.768693 C38.163656,73.804133 37.22634,73.923809 36.286085,74.090822 C36.845901,72.381 37.178028,70.903033 37.786738,69.389056 C38.0106855,68.8538422 37.9469868,68.2414654 37.6176807,67.7638004 C37.2883747,67.2861354 36.7386965,67.0087967 36.158828,67.02774 C35.4749141,67.0500813 34.8706716,67.4792865 34.624365,68.117699 C33.604832,70.653552 33.32618,72.592898 32.308526,74.993938 C30.135885,75.555318 27.985586,76.166964 26.001589,76.570805 C26.33198,75.627682 26.589873,74.72809 26.87395,73.900233 C27.446162,72.232747 28.06659,70.857675 29.49164,69.516314 C30.0099477,69.0417205 30.1838117,68.2976522 29.9294834,67.6425193 C29.675155,66.9873865 29.0447861,66.5555285 28.342019,66.554967 C28.214531,66.5555071 28.087506,66.57035 27.963328,66.599217 C27.204436,66.286127 26.940844,66.080524 26.797717,65.895946 C26.625681,65.674039 26.414934,65.108631 26.01389,63.929279 C25.777542,63.2009986 25.0845389,62.7197184 24.319574,62.752602 L24.319645,62.752792 Z" id="path6862" fill="#3D146F" fill-rule="nonzero"></path>
            <path d="M38.040051,92.633196 C44.953545,90.937096 49.997688,87.278269 49.306535,84.461051 C48.61537,81.643772 42.450621,80.734889 35.537127,82.43099 C28.623705,84.127055 23.579538,87.785823 24.270703,90.603136 C24.961856,93.42036 31.126629,94.3293 38.040051,92.633196 Z" id="path3476" fill="#BB00CF" fill-rule="nonzero"></path>
            <path d="M35.592351,85.974457 C38.358986,85.295735 40.051625,82.502655 39.372868,79.735961 C38.694123,76.969357 35.901018,75.276784 33.134384,75.955537 C30.367689,76.634292 28.67511,79.427305 29.353855,82.19394 C30.032612,84.960646 32.825657,86.653214 35.592351,85.974457 Z" id="path3478" fill="#CFBE77" fill-rule="nonzero"></path>
            <path d="M23.720749,56.740481 C26.513259,55.273815 29.611379,54.714292 32.774977,55.777308 C33.133372,55.897768 33.414499,56.068495 33.579231,56.248666 C33.743213,56.427986 33.942694,56.6735 33.998869,57.279323 C34.031469,57.739538 34.004769,58.200665 33.833008,58.633306 C33.425278,59.660282 32.442398,60.147125 31.729141,60.92141 C31.510947,61.158206 31.313452,61.414107 31.126177,61.675989 C31.02006,61.824243 30.943006,61.991287 30.851438,62.148888 C29.973771,63.859434 31.136622,65.597017 29.598447,68.158713 C28.497245,69.992834 26.767916,70.024404 25.561001,71.991891 C24.685642,73.41896 25.667713,75.350627 24.537994,77.552264 C23.759485,79.069612 21.95202,79.3239 20.888244,80.817986 C19.351104,82.97691 21.112148,83.77405 20.177747,85.862498 C19.762498,86.708176 19.412954,87.153903 18.98105,87.594004 C18.559033,88.143493 18.686147,89.058596 19.452831,89.194286 C20.152169,89.246186 20.854053,89.243386 21.630588,88.967626 C22.017368,88.827626 22.253585,88.766236 22.612242,88.487586 C23.66844,87.667001 23.958561,86.504614 25.447508,86.263602 L25.906131,86.197932 C27.731857,86.022292 29.108727,87.220999 30.765058,86.814649 C33.168324,86.225092 33.983618,84.217694 35.635178,83.943669 C37.912247,83.565919 39.069459,84.851435 41.17649,84.48125 C44.119479,83.96425 44.670039,81.947157 46.537188,81.489021 C47.184324,81.36563 47.256679,81.324528 48.039447,81.347881 C48.828628,81.371441 49.613168,81.657702 50.40637,81.59283 C51.160123,81.53133 51.759268,81.165007 52.270748,80.67744 C52.396982,80.556975 52.609442,80.412813 52.830622,80.460316 C53.051957,80.507906 53.179203,80.667768 53.232333,81.003464 C54.255411,87.469041 49.350981,93.42532 37.934803,96.04125 C29.697926,97.92856 22.781542,97.69197 19.18968,92.684586 C17.964027,92.879206 13.620971,93.07905 13.863589,86.056161 C10.595038,81.542461 10.532593,73.865944 14.182582,66.752027 C16.210466,62.965561 19.639381,58.884097 23.720749,56.740502 L23.720749,56.740481 Z" id="path3474" fill="#007ECF" fill-rule="nonzero"></path>
            <path d="M18.279654,83.109806 C18.279654,83.109806 16.538346,84.355766 16.230678,86.493288" id="path3484" stroke="#539ECF" stroke-width="1.54296589" fill="#007ECF" fill-rule="nonzero" stroke-linecap="round"></path>
            <path d="M22.721904,72.821164 C22.721904,72.821164 16.984371,74.627933 15.446137,83.295416" id="path3490" stroke="#539ECF" stroke-width="1.54296589" fill="#007ECF" fill-rule="nonzero" stroke-linecap="round"></path>
            <path d="M27.763954,62.328807 C27.763954,62.328807 15.302737,65.942218 14.120209,79.481125" id="path3496" stroke="#539ECF" stroke-width="1.54296589" fill="#007ECF" fill-rule="nonzero" stroke-linecap="round"></path>
            <path d="M41.372854,85.905147 C41.223802,86.091745 41.045152,86.303289 40.837165,86.535366 C40.240696,87.20093 39.530211,87.895105 38.708089,88.582276 C34.70588,91.927436 29.735698,93.84271 23.85066,93.30818" id="path3500" stroke="#539ECF" stroke-width="1.54296589" stroke-linecap="round"></path>
            <path d="M50.021184,83.963692 C49.889656,84.2388 49.724389,84.550881 49.523124,84.893502 C48.945452,85.876727 48.195815,86.903481 47.256024,87.921396 C43.34229,92.160146 37.518531,94.91181 29.390353,95.13683" id="path3502" stroke="#539ECF" stroke-width="1.54296589" stroke-linecap="round"></path>
            <path d="M31.217328,88.131679 C31.217328,88.131679 27.359519,91.724636 21.235135,91.412516" id="path3504" stroke="#539ECF" stroke-width="1.54296589" fill="#007ECF" fill-rule="nonzero" stroke-linecap="round"></path>
            <path d="M32.507864,76.744176 C32.312642,76.843606 32.408644,76.797496 32.220075,76.883238 L32.102775,77.063564 C31.992376,77.341689 32.128355,77.65664 32.406553,77.766965 C32.684647,77.877353 32.999608,77.741475 33.109936,77.463187 C33.220336,77.185095 33.084356,76.870111 32.806158,76.759787 C32.688977,76.736497 32.624213,76.709677 32.5079,76.744047 L32.507864,76.744176 Z M31.208572,77.565579 C31.450833,77.543859 31.612079,77.507439 31.794738,77.688526 C32.004843,77.901588 32.0025,78.244587 31.789938,78.454715 C31.111252,79.124312 30.745232,80.058059 30.788345,81.010496 C30.801905,81.309432 30.570567,81.562721 30.271654,81.576224 C29.972754,81.589784 29.719393,81.35847 29.705926,81.059534 C29.648826,79.800333 30.131727,78.56847 31.02894,77.683332 L31.208572,77.565579 Z" id="path3510" fill="#CFCDC4" fill-rule="nonzero"></path>
            <path d="M604.61633,284.81421 L604.61633,97.84526 C586.13978,97.71935 565.30249,93.62744 548.96631,98.1915 C530.08056,103.47951 538.83096,111.69481 491.67954,115.78673 C465.14505,118.11596 442.35625,119.34354 416.07358,122.68002 C390.42043,125.92208 363.88595,135.49086 338.67347,138.98473 C302.53873,144.02092 252.42853,137.31649 220.63751,124.97779 C205.71777,119.18616 200.17796,115.12572 183.1493,112.60762 C160.2346,109.17672 136.47003,112.19844 118.05642,105.77728 C100.42972,99.63941 83.18073,88.717146 57.716447,90.920476 C31.748532,93.21825 17.741598,100.64665 0.2722825,107.25666 L0.2722825,284.81421 L604.61633,284.81421 Z" id="path5986" fill="#881DAC" fill-rule="nonzero"></path>
            <g id="g5904" transform="translate(548.125278, 155.148515) rotate(-25.105791) translate(-548.125278, -155.148515) translate(509.625278, 128.148515)">
                <polygon id="path3420" fill="#734C29" fill-rule="nonzero" points="3.52919417 16.452448 48.5839747 21.7034942 45.1950444 50.7813047 0.140268212 45.5302585"></polygon>
                <path d="M51.2303832,3.97607927 L64.9972518,5.60124705 C64.9972518,5.60124705 77.7406732,7.94757075 76.029561,24.9020534 C74.3422833,41.6199374 72.6406306,53.9800823 72.6406306,53.9800823 L45.1950444,50.7813047 L41.6292222,50.3657826 L51.2303832,3.97607927 Z" id="path6181" fill="#FFD500" fill-rule="nonzero"></path>
                <path d="M64.380457,5.50905444 C71.9594758,6.39231205 77.1748903,15.0750205 76.029561,24.9020534 L48.5839747,21.7034942 C49.7293259,11.8762429 56.8017004,4.62579684 64.380457,5.50905444 Z" id="path3404" fill="#593B20" fill-rule="nonzero"></path>
                <path d="M64.380457,5.50905444 C71.9594758,6.39231205 77.1748903,15.0750205 76.029561,24.9020534 L48.5839747,21.7034942 C49.7293259,11.8762429 56.8017004,4.62579684 64.380457,5.50905444 Z M63.7892446,10.5818325 C59.6393539,10.2381856 56.5025114,13.8258326 54.9911425,17.3086158 L70.8045559,19.1515941 C70.1582682,15.3994424 67.8893251,11.2184421 63.7892446,10.5818325 Z" id="path3406" fill="#B8941E" fill-rule="nonzero"></path>
                <polygon id="path3412" fill="#593B20" fill-rule="nonzero" points="76.029561 24.9020534 72.6406306 53.9800823 45.1950444 50.7813047 48.5839747 21.7034942"></polygon>
                <path d="M76.029561,24.9020534 L72.6406306,53.9800823 L45.1950444,50.7813047 L48.5839747,21.7034942 L76.029561,24.9020534 Z M70.3655487,29.3838812 L53.0655404,27.3676594 L50.8590567,46.2996953 L68.159065,48.3159171 L70.3655487,29.3838812 Z" id="path3414" fill="#B8941E" fill-rule="nonzero"></path>
                <path d="M48.5839747,21.7034942 L45.1950444,50.7813047 L0.140268212,45.5302585 L3.52919417,16.452448 L48.5839747,21.7034942 Z M42.9199624,26.1851036 L8.01076856,22.1166132 L5.80428051,41.0486491 L40.7134787,45.1173579 L42.9199624,26.1851036 Z" id="path3422" fill="#DCB329" fill-rule="nonzero"></path>
                <path d="M64.9995894,5.58136666 L64.9971862,5.60102859 L64.3804352,5.50839905 C55.1684275,4.71558632 49.6814381,13.6536814 48.5839529,21.7028388 L30.975012,19.6505702 L3.52916359,16.4517926 C4.45327869,8.42120481 10.3051302,-0.495480647 19.3259037,0.257352823 L19.3825584,0.266091459 L19.3829954,0.261722141 L64.9995894,5.58136666 Z" id="path3428" fill="#734C29" fill-rule="nonzero"></path>
                <path d="M64.9995894,5.58136666 L64.9974047,5.60102859 L64.38061,5.50883598 C55.1686023,4.71580478 49.6816129,13.6541184 48.5841277,21.7032758 L30.9751868,19.6510071 L3.52933618,16.4522295 C4.45345128,8.42164174 10.3053006,-0.495043715 19.3260763,0.257789755 L19.3827288,0.26652839 L19.3831658,0.262159073 L64.9995894,5.58136666 Z M48.2018123,8.76507013 L18.8597586,5.34542349 C16.2033794,5.10664027 13.9746428,6.49236943 12.2593513,8.3962997 C11.343776,9.50217405 10.5258178,10.7258015 9.98836771,12.0636867 L31.5657438,14.5784476 L44.6324947,16.1013733 C45.4689569,13.50578 46.6096766,10.9888345 48.201288,8.76507013 L48.2018123,8.76507013 Z" id="path3430" fill="#DCB329" fill-rule="nonzero"></path>
                <path d="M3.52327593,16.4249213 L48.5832538,21.7157283" id="path6176" stroke="#AD8C1C" stroke-width="0.873863575"></path>
                <path d="M25.2812228,25.7296022 C21.4542465,25.2837133 18.7133952,21.8197181 19.1594174,17.9926325 C19.6054679,14.165547 23.0694741,11.4246739 26.8964504,11.8705628 C30.7236888,12.3166702 33.4645401,15.7806654 33.0184764,19.6079694 C32.5724564,23.4348364 29.1084612,26.1757095 25.2812228,25.7296022 Z" id="path3436" fill="#DCB329" fill-rule="nonzero"></path>
                <path d="M26.4748549,15.7638435 C27.4936924,15.8826889 28.2220796,16.8153198 28.1018578,17.8469158 C28.0213531,18.5125814 27.6200749,19.0222623 27.0442425,19.3248376 L27.4637626,21.948176 L24.090387,21.5551559 L25.1020152,19.0985069 C24.580275,18.6893203 24.369368,18.069751 24.4126242,17.4167565 C24.5526827,16.3622216 25.4528277,15.6976483 26.4748549,15.7638435 Z" id="path3442" fill="#453A00" fill-rule="nonzero"></path>
                <path d="M48.5639633,21.6965033 L76.0327943,24.9051119" id="path6178" stroke="#9C801A" stroke-width="0.873863575"></path>
            </g>
            <path d="M218.00004,155.27463 C216.992969,155.32313 216.115719,155.977034 215.781562,156.928287 C215.447405,157.879541 215.722991,158.938414 216.47849,159.60607 C222.21257,164.81948 230.62672,165.90101 239.0547,167.21578 C239.60617,171.37661 238.75156,174.51574 236.97555,177.22932 C234.99635,180.25324 231.71009,182.76095 227.6298,184.82831 C227.596,184.84721 227.561,184.86161 227.52713,184.87861 C225.9289,182.13766 223.673,180.22076 221.32165,178.82195 C222.58748,175.26324 222.69012,171.71146 222.16143,167.74639 C222.007986,166.454936 220.882144,165.501916 219.58308,165.56383 C218.884077,165.597157 218.231764,165.92452 217.787298,166.465044 C217.342832,167.005568 217.147667,167.708839 217.25002,168.40111 C217.68989,171.69981 217.65809,174.09264 216.85902,176.58178 C214.30262,175.4244 211.87114,174.39607 209.95515,172.95887 C209.492868,172.601937 208.919357,172.41978 208.33584,172.44455 C207.283488,172.489435 206.374542,173.194756 206.069733,174.202998 C205.764924,175.21124 206.130886,176.301988 206.98212,176.92236 C210.70011,179.71083 214.86327,180.95006 218.05722,182.66363 C220.16345,183.79394 221.8362,184.96233 223.02517,186.86319 C216.07172,189.57549 208.00834,191.36398 201.3539,193.11312 C198.85599,191.8295 196.97104,190.2963 195.45702,188.56007 C196.59265,187.6652 197.63382,186.75239 198.56899,185.65764 C200.11909,183.84304 201.24629,181.54496 201.84571,178.54779 C202.004427,177.80861 201.816975,177.037413 201.336673,176.453556 C200.856371,175.8697 200.135782,175.537081 199.37987,175.55031 C198.202071,175.571031 197.201695,176.418145 196.98718,177.57643 C196.51417,179.94156 195.83626,181.22736 194.80106,182.4392 C194.23716,183.09957 193.51184,183.74861 192.64137,184.45147 C191.63366,182.61924 190.78122,180.64946 189.90625,178.56919 C189.75039,178.19871 189.58886,177.8166 189.43103,177.44014 C189.72491,176.65953 190.19578,176.11216 190.84869,175.57297 C191.89824,174.70612 193.56316,173.99506 195.54492,173.38758 C199.50845,172.17227 204.70935,171.61578 208.11699,167.86726 C208.784149,167.153791 208.96986,166.114927 208.591206,165.214505 C208.212552,164.314082 207.340207,163.720162 206.36366,163.69792 C205.633876,163.681256 204.933879,163.987251 204.45049,164.53424 C203.59499,165.47507 201.99216,166.18707 200.02784,166.84995 C199.25561,165.10554 198.88774,163.544 198.25422,161.84586 C197.46888,159.74042 195.96839,157.44863 193.09998,155.90409 C192.737334,155.702163 192.32977,155.594576 191.91471,155.59121 C190.769548,155.581993 189.767276,156.358785 189.490512,157.470038 C189.213748,158.58129 189.734614,159.737428 190.75033,160.26639 C192.67448,161.30257 193.02883,162.01646 193.61147,163.57831 C194.04061,164.72846 194.43682,166.35703 195.25107,168.30384 C194.86619,168.41781 194.48169,168.53079 194.09284,168.65008 C191.87274,169.33059 189.60795,170.17101 187.69308,171.75269 C187.49472,171.91669 187.30335,172.09233 187.11643,172.27457 C184.98081,167.99601 182.08509,163.79141 176.99238,160.65732 C176.570967,160.389717 176.078549,160.255649 175.57964,160.27268 C174.481087,160.310343 173.538671,161.067278 173.264909,162.13184 C172.991147,163.196401 173.45149,164.314069 174.39559,164.87702 C178.75193,167.55817 181.09389,171.10964 183.01651,175.15433 C180.09568,174.7848 177.71334,174.36554 175.82863,173.69038 C173.17056,172.73917 171.40892,171.44423 169.68829,168.6482 C169.256449,167.923453 168.485511,167.468244 167.64233,167.44014 C166.724101,167.409582 165.864346,167.889624 165.408583,168.687344 C164.952821,169.485065 164.975882,170.469487 165.4685,171.24499 C167.69078,174.85594 170.67111,177.1068 174.15829,178.35547 C177.17454,179.43511 180.55437,179.88617 184.49935,180.32022 C184.778066,180.780582 185.199092,181.137683 185.69877,181.33753 C186.66253,183.59407 187.73513,185.91418 189.11504,188.14363 C188.995843,189.351822 189.769642,190.468419 190.94276,190.78104 C192.85327,193.22234 195.28663,195.45495 198.55731,197.23681 C199.156672,198.139023 200.272607,198.54734 201.31271,198.245 C207.9754,196.43984 216.89143,194.62398 224.92297,191.45117 C225.378163,192.046899 226.078622,192.404481 226.828104,192.423734 C227.577586,192.442987 228.29548,192.121842 228.78066,191.55027 C234.22293,192.21284 238.31427,191.16563 241.72957,189.62832 C244.33526,188.45584 246.55467,187.11778 249.00784,186.0073 C248.33847,187.71488 247.67075,189.12691 246.83278,190.2673 C245.65485,191.86975 244.15982,193.09291 241.31214,194.15744 C240.473811,194.46066 239.863004,195.190867 239.712666,196.06958 C239.562328,196.948293 239.895638,197.840028 240.58548,198.404702 C241.275322,198.969375 242.215334,199.119923 243.04702,198.79893 C246.59762,197.4719 249.10447,195.5424 250.82509,193.20151 C252.54571,190.8603 253.4994,188.25439 254.5008,185.45048 C254.552463,185.310432 254.591365,185.166001 254.61703,185.01895 C259.54658,185.39131 262.81548,183.44293 264.91506,181.90941 C266.16724,180.99471 267.06259,180.36487 267.87702,180.1291 C268.69146,179.89304 269.59985,179.8455 271.48081,180.65161 C272.296964,181.014682 273.245368,180.910332 273.963058,180.378497 C274.680748,179.846662 275.056605,178.969684 274.946786,178.083192 C274.836966,177.196701 274.258472,176.437949 273.4327,176.09732 C270.82134,174.97802 268.45084,174.80427 266.49809,175.36989 C264.54535,175.93584 263.18596,177.03625 261.99244,177.90783 C259.73947,179.5531 258.24595,180.84142 253.58176,179.8795 C253.550939,179.864052 253.519799,179.849249 253.48836,179.8351 C251.18703,177.2125 251.10332,175.83573 250.56574,171.80362 C250.411838,170.512545 249.286128,169.560052 247.98739,169.62201 C247.288583,169.65537 246.636448,169.982602 246.192017,170.522903 C245.747586,171.063204 245.552285,171.766211 245.65434,172.45833 C246.08131,175.66072 246.52357,178.2893 248.15768,180.96321 C244.82212,182.31291 242.22954,183.96982 239.69659,185.10989 C237.95197,185.89491 236.23474,186.50208 234.17349,186.73973 C236.93687,184.87665 239.34346,182.65947 241.12163,179.94275 C243.51931,176.27922 244.63377,171.71581 243.94711,166.47249 C246.01315,166.06298 247.66786,166.48249 249.51141,167.24837 C251.99981,168.28174 254.60266,170.16843 257.8895,171.34219 C258.726083,171.652155 259.664713,171.488425 260.346944,170.913525 C261.029175,170.338625 261.349651,169.441335 261.185989,168.564315 C261.022327,167.687295 260.3998,166.965981 259.55614,166.67583 C257.17809,165.82659 254.6157,164.00318 251.41166,162.67268 C248.38827,161.41677 244.58277,160.83131 240.38636,162.40072 C231.73571,161.01797 223.98688,159.73563 219.81123,155.93959 C219.322286,155.482063 218.668972,155.241923 218.00011,155.27387 L218.00004,155.27463 Z M277.46617,169.95357 C276.274689,169.931024 275.235937,170.759871 274.993434,171.926631 C274.750932,173.093391 275.373383,174.267507 276.47517,174.7216 C279.53078,176.03102 280.78392,177.34326 281.2335,178.35742 C281.68307,179.37128 281.60268,180.49498 280.87447,182.1862 C280.10192,183.98003 278.56212,186.11695 276.80776,188.40213 C276.65144,187.98475 276.4716,187.57839 276.24278,187.19532 C274.74773,184.69171 272.19889,183.54502 269.54425,182.59664 C268.70688,182.283535 267.765773,182.445805 267.081612,183.021258 C266.39745,183.596712 266.076341,184.496102 266.24135,185.374735 C266.406359,186.253367 267.031895,186.974975 267.87822,187.263 C270.20989,188.09554 271.48983,188.89945 271.98919,189.73546 C272.48854,190.57178 272.72962,192.06911 271.65844,195.41032 C271.286269,196.574157 271.818128,197.835552 272.911245,198.38156 C274.004361,198.927568 275.332325,198.595149 276.03929,197.59854 C279.01364,193.39835 283.34902,188.96838 285.42561,184.1459 C286.46391,181.73482 286.91463,178.94602 285.76313,176.34893 C284.61162,173.75182 282.13154,171.75496 278.42707,170.16731 C278.124289,170.032513 277.797542,169.959832 277.46617,169.95357 Z" id="path6917" fill="#741993" fill-rule="nonzero"></path>
            <path d="M604.61633,284.81421 L604.61633,150.03288 C569.70917,153.24346 538.83096,159.822 506.977,172.53841 C490.57787,179.08546 477.64113,194.54031 458.44062,196.99546 C432.97633,200.2375 411.88723,186.98601 387.17838,185.85287 C358.09432,184.49939 331.0877,181.47767 301.81478,182.86261 C274.39896,184.15315 250.66586,192.17959 222.58905,189.72444 C169.74042,185.09744 127.53077,158.84624 75.18576,158.84624 C51.45267,158.84624 24.792282,161.144 0.2722825,166.18021 L0.2722825,284.84567 L604.61633,284.84567 L604.61633,284.81421 Z" id="path5988" fill="#C621C6" fill-rule="nonzero"></path>
            <g id="Layer_1-6" transform="translate(223.305711, 241.027430) rotate(5.489154) translate(-223.305711, -241.027430) translate(166.305711, 209.527430)" fill-rule="nonzero">
                <path d="M83.796886,52.3196782 C87.2166366,51.9887495 88.3751189,50.9407315 90.9673159,54.1124017 C92.2912625,55.7118127 93.3116645,57.7802327 93.614977,58.7180186 C94.1666021,60.3450457 96.3726383,60.3450457 96.9521115,58.5801703 C97.2828081,57.5597684 98.3860583,51.713053 95.7936292,49.4791687 C93.6975932,47.6588291 90.8020836,46.2246503 86.0583864,48.4309186 C81.3149212,50.6374189 83.796886,52.3196782 83.796886,52.3196782" id="path3544" fill="#820000"></path>
                <path d="M78.1432511,57.5597684 C78.1432511,57.5597684 80.5702158,59.9038849 80.708064,61.8344566 C80.8459123,63.7647963 83.1350287,62.1101531 83.8245021,60.3176617 C84.5139754,58.5249382 84.6518237,55.4913483 82.4455554,54.2500179 C80.2392871,53.0091515 77.8675546,56.5943664 78.1432511,57.5597684" id="path3546" fill="#820000"></path>
                <path d="M69.1051398,13.2812383 L73.7372124,14.1760916 L69.1139584,27.5851993 C69.1139584,27.5851993 63.3962727,32.8888761 66.2242505,26.6611055 C69.0522283,20.4331028 69.1051398,13.2812383 69.1051398,13.2812383" id="path3548" fill="#FF0000"></path>
                <path d="M84.7070558,39.2196848 C85.8100739,36.3239432 89.1195923,31.9114066 89.1195923,31.9114066 C89.1195923,31.9114066 87.933726,24.0512713 89.6159853,21.4864584 C89.6159853,21.4864584 95.2698523,21.3486101 97.8898974,25.2095216 C97.8898974,25.2095216 97.2554241,30.3117635 95.4629327,33.0696569 C95.4629327,33.0696569 94.5527629,40.6538636 91.2982445,42.3087388 C88.0439582,43.9631499 86.0857704,42.3087388 86.0857704,42.3087388 L84.7070558,39.2196848 Z" id="path3550" fill="#820000"></path>
                <path d="M67.7853704,13.3875254 C67.9849487,10.5969105 69.7649085,8.45028362 71.7609233,8.59323736 C73.7567061,8.73619111 75.2129314,11.1139575 75.0133531,13.9048044 C74.8135427,16.6951873 73.033583,18.84135 71.0378002,18.6986283 C69.0417853,18.5556745 67.5857921,16.1779082 67.7853704,13.3875254" id="path3552" fill="#000000"></path>
                <path d="M90.7742355,22.2587799 C90.7742355,22.2587799 84.0725825,16.5222968 84.7068237,11.0893583 C85.341297,5.6561877 87.8508778,3.80846413 89.3400567,3.0087586 C90.2778426,2.51236565 91.9601018,2.23643707 92.8702716,4.88409823 C93.587361,6.95251824 95.159388,10.1239564 94.8834595,12.0545281 C94.607763,13.9850999 95.7107811,13.2956265 96.2624061,12.8268496 C96.8137992,12.3578407 103.515684,8.35908098 105.915033,2.45713352 C108.314382,-3.44481394 112.451222,3.80846413 113.306159,7.25583082 C114.133481,10.6481974 113.913016,15.8054394 109.638096,19.7491991 C105.776953,23.2791819 100.813023,24.8512089 97.4208884,24.7962089 C94.0285218,24.7409768 90.7742355,22.2587799 90.7742355,22.2587799" id="path3554" fill="#FF0000"></path>
                <path d="M29.9351175,52.3196782 C26.5153669,51.9887495 25.3571167,50.9407315 22.7646876,54.1124017 C21.440741,55.7118127 20.4203391,57.7802327 20.1170265,58.7180186 C19.5654014,60.3450457 17.3591331,60.3450457 16.779892,58.5801703 C16.4491954,57.5597684 15.3459453,51.713053 17.9383743,49.4791687 C20.0344104,47.6588291 22.930152,46.2246503 27.6736171,48.4309186 C32.4173144,50.6374189 29.9351175,52.3196782 29.9351175,52.3196782" id="path3556" fill="#820000"></path>
                <path d="M35.5887525,57.5597684 C35.5887525,57.5597684 33.1617878,59.9038849 33.0239395,61.8344566 C32.8860913,63.7647963 30.5969748,62.1101531 29.9075015,60.3176617 C29.2180281,58.5249382 29.0801799,55.4913483 31.2864481,54.2500179 C33.4929485,53.0091515 35.864449,56.5943664 35.5887525,57.5597684" id="path3558" fill="#820000"></path>
                <path d="M29.0525638,39.2196848 C27.9495457,36.3239432 24.6400273,31.9114066 24.6400273,31.9114066 C24.6400273,31.9114066 25.8258936,24.0512713 24.1436343,21.4864584 C24.1436343,21.4864584 18.4897673,21.3486101 15.8699543,25.2095216 C15.8699543,25.2095216 16.5041955,30.3117635 18.2966869,33.0696569 C18.2966869,33.0696569 19.2068567,40.6538636 22.461143,42.3087388 C25.7156614,43.9631499 27.6736171,42.3087388 27.6736171,42.3087388 L29.0525638,39.2196848 Z" id="path3560" fill="#820000"></path>
                <path d="M73.5100181,60.3176617 L56.8521937,60.3176617 L40.1946015,60.3176617 C31.9761535,60.3176617 25.2468845,53.5883927 25.2468845,45.3699447 C25.2468845,31.9114066 36.2508418,20.8798332 49.736996,20.8798332 L63.9952396,20.8798332 C77.4537777,20.8798332 88.4853511,31.8837906 88.4853511,45.3699447 C88.4853511,53.5883927 81.7560821,60.3176617 73.5100181,60.3176617" id="path3562" fill="#FF0000"></path>
                <path d="M22.9853841,22.2587799 C22.9853841,22.2587799 29.6870371,16.5222968 29.0527959,11.0893583 C28.4183226,5.6561877 25.9087418,3.80846413 24.4195629,3.0087586 C23.481777,2.51236565 21.7995178,2.23643707 20.889348,4.88409823 C20.1722586,6.95251824 18.6002316,10.1239564 18.8761601,12.0545281 C19.1518566,13.9850999 18.0488385,13.2956265 17.4972135,12.8268496 C16.9455884,12.3578407 10.2439354,8.35908098 7.84458674,2.45713352 C5.41762203,-3.44481394 1.30839807,3.80846413 0.453460418,7.25583082 C-0.374093241,10.6481974 -0.153396794,15.8054394 4.12129148,19.7491991 C7.982435,23.2791819 12.9465966,24.8512089 16.3387312,24.7962089 C19.7310978,24.7409768 22.9853841,22.2587799 22.9853841,22.2587799" id="path3564" fill="#FF0000"></path>
                <path d="M44.617581,13.2812383 L39.9855084,14.1760916 L44.6087625,27.5851993 C44.6087625,27.5851993 50.326216,32.8888761 47.4982382,26.6611055 C44.6704925,20.4331028 44.617581,13.2812383 44.617581,13.2812383" id="path3566" fill="#FF0000"></path>
                <path d="M40.2127027,60.3176617 L56.8705271,60.3176617 L73.5281194,60.3176617 C81.7465673,60.3176617 88.4758363,53.5883927 88.4758363,45.3699447 C88.4758363,31.9114066 77.471879,20.8798332 63.9857248,20.8798332 L49.7274812,20.8798332 C36.2689431,20.8798332 25.2373697,31.8837906 25.2373697,45.3699447 C25.2373697,53.5883927 31.9666388,60.3176617 40.2127027,60.3176617" id="path3568" fill="#FF0000"></path>
                <path d="M45.9466331,13.3875254 C45.7468228,10.5969105 43.9670951,8.45028362 41.9710802,8.59323736 C39.9752974,8.73619111 38.5190722,11.1139575 38.7188825,13.9048044 C38.9184608,16.6951873 40.6984206,18.84135 42.6942034,18.6986283 C44.6902182,18.5556745 46.1462114,16.1779082 45.9466331,13.3875254" id="path3570" fill="#000000"></path>
            </g>
            <g id="g3666" transform="translate(434.127931, 146.352072) rotate(-0.643320) translate(-434.127931, -146.352072) translate(403.127931, 125.352072)" fill-rule="nonzero">
                <path d="M49.7037361,30.7219797 C51.5232426,30.2005275 52.0459766,29.5168584 53.7676267,30.9757119 C54.6448986,31.7097057 55.4046535,32.7281548 55.6628022,33.2058437 C56.1244373,34.0320745 57.3195391,33.8113444 57.4568727,32.7972568 C57.5339245,32.2113762 57.5465902,28.93358 55.9186462,27.9827878 C54.6009975,27.2063601 52.888882,26.7191275 50.5397807,28.3889983 C48.19083,30.058972 49.7037361,30.7219797 49.7037361,30.7219797" id="path3544-0" fill="#690000"></path>
                <path d="M47.1652428,34.1264436 C47.1652428,34.1264436 48.7145777,35.1535091 48.9824244,36.1855861 C49.2502492,37.2175382 50.3247967,36.092104 50.5189596,35.0520515 C50.7130986,34.0118723 50.4842424,32.3546597 49.1648105,31.9029358 C47.8454264,31.4514615 46.9192915,33.6310316 47.1652428,34.1264436" id="path3546-3" fill="#690000"></path>
                <path d="M37.8385014,11.0432863 L40.4374234,11.0645885 L39.2745082,18.7914462 C39.2745082,18.7914462 36.7076792,22.2367646 37.6165721,18.579966 C38.5254411,14.9230389 37.8385014,11.0432863 37.8385014,11.0432863" id="path3548-8" fill="#850000"></path>
                <path d="M48.88605,23.5341082 C49.1938587,21.8550003 50.5452495,19.1334029 50.5452495,19.1334029 C50.5452495,19.1334029 49.1163478,14.993902 49.771066,13.4361142 C49.771066,13.4361142 52.8202042,12.7957218 54.6259065,14.625178 C54.6259065,14.625178 54.792707,17.452756 54.0975898,19.126173 C54.0975898,19.126173 54.3633743,23.325917 52.7658522,24.5480728 C51.1684091,25.7699531 49.9420425,25.0696223 49.9420425,25.0696223 L48.88605,23.5341082 Z" id="path3550-4" fill="#690000"></path>
                <path d="M37.1341637,11.2329206 C36.9630605,9.70116013 37.7125499,8.36014502 38.8081774,8.23787362 C39.9036765,8.11562242 40.9304885,9.25804888 41.1016156,10.7899342 C41.2725719,12.32159 40.5230365,13.6623536 39.4275577,13.7847297 C38.331932,13.9070047 37.3052448,12.7645544 37.1341637,11.2329206" id="path3552-1" fill="#000000"></path>
                <path d="M50.4758151,13.7386194 C50.4758151,13.7386194 46.2712725,11.3014864 46.071257,8.29478192 C45.8713461,5.28792685 47.0460088,4.03583405 47.7727415,3.45359689 C48.2311096,3.09084848 49.1148493,2.77304237 49.872845,4.1163181 C50.468284,5.16511554 51.6372447,6.72592058 51.6809309,7.79939929 C51.7247456,8.87285228 52.2533084,8.38897104 52.5052409,8.07982174 C52.7570246,7.77056959 55.9876014,4.93369935 56.6968901,1.4962977 C57.406177,-1.94110248 60.3730223,1.57437055 61.1811132,3.35640709 C61.968741,5.11140993 62.3653307,7.92735986 60.444036,10.4915958 C58.7055002,12.7902695 56.1736308,14.1385825 54.3304696,14.4481983 C52.4871597,14.7577094 50.4758151,13.7386194 50.4758151,13.7386194" id="path3554-2" fill="#A70000"></path>
                <path d="M20.5246106,36.111287 C18.6388797,36.2741834 17.9065459,35.8223198 16.8194723,37.7999388 C16.262269,38.7988761 15.9164376,40.0215221 15.8459546,40.5599097 C15.7099138,41.4965304 14.5146895,41.7172863 14.0243,40.8191382 C13.7430475,40.2994342 12.5603616,37.2424178 13.741268,35.7728379 C14.6946368,34.5769593 16.1198762,33.5102642 18.9103607,34.230867 C21.700994,34.9515745 20.5246106,36.111287 20.5246106,36.111287" id="path3556-8" fill="#690000"></path>
                <path d="M24.1117305,38.384365 C24.1117305,38.384365 23.031492,39.8971076 23.1499822,40.9567693 C23.2684505,42.016306 21.8627829,41.3489626 21.3099135,40.4468845 C20.7570203,39.5446798 20.3788075,37.9150537 21.4498273,37.0218199 C22.5210196,36.1288118 24.1644904,37.8337819 24.1117305,38.384365" id="path3558-6" fill="#690000"></path>
                <path d="M18.7357334,29.1027899 C17.8484421,27.6444139 15.6140297,25.5851081 15.6140297,25.5851081 C15.6140297,25.5851081 15.4699914,21.2082943 14.3020138,19.9871541 C14.3020138,19.9871541 11.2252891,20.4781918 10.1923453,22.8319392 C10.1923453,22.8319392 11.0464601,25.5325704 12.2934753,26.8472809 C12.2934753,26.8472809 13.5454138,30.8648868 15.4739764,31.4357823 C17.4026204,32.0064042 18.2977861,30.9142328 18.2977861,30.9142328 L18.7357334,29.1027899 Z" id="path3560-4" fill="#690000"></path>
                <path d="M13.75182,20.5214446 C13.75182,20.5214446 16.808397,16.743201 15.9211939,13.8634177 C15.0338407,10.9835315 13.4894182,10.2336473 12.6026521,9.94941798 C12.0449475,9.77433529 11.105989,9.79317679 10.8778324,11.3185943 C10.6963186,12.510892 10.1620153,14.3862839 10.5046661,15.4045438 C10.847192,16.4228294 10.1806548,16.1596784 9.83491144,15.9609171 C9.48914609,15.7620309 5.45847784,14.2662934 3.56811371,11.3090414 C1.66279024,8.35455317 0.162404709,12.6951108 0.0441862497,14.648234 C-0.0646996086,16.5688217 0.570885067,19.3406281 3.28126385,21.0494069 C5.72620707,22.5754047 8.57279005,22.9303319 10.4049457,22.5611249 C12.2372024,22.1917691 13.75182,20.5214446 13.75182,20.5214446" id="path3564-8" fill="#A70000"></path>
                <path d="M24.5725906,13.4934651 L22.1527437,14.4417213 L25.9990389,21.2433898 C25.9990389,21.2433898 29.6270941,23.5445317 27.4719224,20.4536556 C25.3168555,17.362629 24.5725906,13.4934651 24.5725906,13.4934651" id="path3566-7" fill="#850000"></path>
                <path d="M25.3032257,13.4180642 C24.9157574,11.9262657 23.7368178,10.9414265 22.6697995,11.2185875 C21.6029043,11.4957265 21.0519246,12.9295662 21.4394149,14.4214896 C21.8267362,15.9131853 23.0057548,16.897749 24.0726702,16.6207368 C25.1396903,16.3435758 25.690547,14.909758 25.3032257,13.4180642" id="path3570-7" fill="#000000"></path>
                <path d="M44.9311811,36.0841009 L35.906956,37.7508499 L26.8828557,39.4175768 C22.430586,40.2398999 18.1117475,37.2676977 17.2894263,32.815428 C15.9427881,25.5243855 20.8002859,18.4470949 28.1062877,17.0976966 L35.8305616,15.6710445 C43.1216022,14.3244082 50.1988928,19.1819041 51.5482911,26.4879059 C52.3706142,30.9401756 49.398412,35.2590141 44.9311811,36.0841009" id="path3562-7" fill="#A70000"></path>
            </g>
            <g id="g2462" transform="translate(422.683584, 76.095099)">
                <g id="g5816" transform="translate(54.247192, 0.234395)">
                    <path d="M19.9750184,0.191690375 C2.90462853,21.551475 25.3068751,25.5256666 33.3969644,41.7060339 C43.1355279,61.1832239 0.232105882,79.3182665 12.1715519,103.197096 C19.270328,117.394774 38.7507916,116.714257 44.9460734,129.104569 C52.4833137,144.179176 56.8611882,159.695079 72.4142654,167.809972" id="path5461" stroke="#358E69" stroke-width="7.21524912" stroke-linecap="round"></path>
                    <path d="M21.7015852,8.63236211 C21.7015852,8.63236211 13.6988111,17.1183597 24.0019956,25.0670576 C24.0019956,25.0670576 32.0174547,16.6717116 21.7015852,8.63236211 Z" id="path5467" fill="#1EC75A" fill-rule="nonzero"></path>
                    <path d="M31.1737652,16.8980259 C31.1737652,16.8980259 22.2509088,24.410463 31.5746782,33.488214 C31.5746782,33.488214 40.4998954,26.0673729 31.1737652,16.8980259 Z" id="path5467-4" fill="#1EC75A" fill-rule="nonzero"></path>
                    <path d="M41.7543814,26.3774139 C41.7543814,26.3774139 31.0979389,31.1199408 37.5380745,42.4274696 C37.5380745,42.4274696 48.1713505,37.773391 41.7543814,26.3774139 Z" id="path5467-9" fill="#1EC75A" fill-rule="nonzero"></path>
                    <path d="M49.3846341,42.2562388 C49.3846341,42.2562388 37.8676623,40.4092123 37.0868939,53.3985172 C37.0868939,53.3985172 48.5361917,55.3062929 49.3846341,42.2562388 Z" id="path5467-2" fill="#1EC75A" fill-rule="nonzero"></path>
                    <path d="M46.9345541,58.1561527 C46.9345541,58.1561527 36.8937242,52.2203611 31.4110017,64.0217523 C31.4110017,64.0217523 41.3666255,69.9893349 46.9345541,58.1561527 Z" id="path5467-2-4" fill="#1EC75A" fill-rule="nonzero"></path>
                    <path d="M40.0445285,69.6925138 C40.0445285,69.6925138 30.7632519,62.6279838 23.9435442,73.7104574 C23.9435442,73.7104574 33.1364984,80.7970208 40.0445285,69.6925138 Z" id="path5467-2-2" fill="#1EC75A" fill-rule="nonzero"></path>
                    <path d="M31.8921792,79.3377817 C31.8921792,79.3377817 22.0612958,73.0604728 16.1762125,84.6663964 C16.1762125,84.6663964 25.9208509,90.9726635 31.8921792,79.3377817 Z" id="path5467-2-3" fill="#1EC75A" fill-rule="nonzero"></path>
                    <path d="M21.7697313,87.1250065 C21.7697313,87.1250065 10.4359199,89.8813819 14.7453335,102.159953 C14.7453335,102.159953 26.0402403,99.4857306 21.7697313,87.1250065 Z" id="path5467-2-8" fill="#1EC75A" fill-rule="nonzero"></path>
                    <path d="M21.9547172,98.6619971 C21.9547172,98.6619971 16.75078,109.101096 28.9133611,113.727476 C28.9133611,113.727476 34.1550699,103.371159 21.9547172,98.6619971 Z" id="path5467-2-6" fill="#1EC75A" fill-rule="nonzero"></path>
                    <path d="M33.4300774,105.335592 C33.4300774,105.335592 28.9995431,116.125651 41.4665311,119.854958 C41.4665311,119.854958 45.9407544,109.144533 33.4300774,105.335592 Z" id="path5467-2-6-5" fill="#1EC75A" fill-rule="nonzero"></path>
                    <path d="M48.4933525,128.36047 C48.4933525,128.36047 38.8975024,121.729368 47.3168647,111.807109 C47.3168647,111.807109 56.9059789,118.347875 48.4933525,128.36047 Z" id="path5467-2-6-0" fill="#1EC75A" fill-rule="nonzero"></path>
                    <path d="M53.8398143,126.495817 C53.8398143,126.495817 45.4649594,134.614487 55.4012882,143.017072 C55.4012882,143.017072 63.7843584,134.98874 53.8398143,126.495817 Z" id="path5467-2-6-0-4" fill="#1EC75A" fill-rule="nonzero"></path>
                    <path d="M32.5966177,129.279577 C32.5966177,129.279577 33.1890008,140.928623 46.0561464,138.986853 C46.0561464,138.986853 45.5371344,127.391317 32.5966177,129.279577 Z" id="path5467-2-6-0-9" fill="#1EC75A" fill-rule="nonzero"></path>
                    <path d="M23.1753033,121.537049 C23.1753033,121.537049 27.2481415,132.466862 38.9332909,126.740702 C38.9332909,126.740702 34.9465403,115.839532 23.1753033,121.537049 Z" id="path5467-2-6-0-9-9" fill="#1EC75A" fill-rule="nonzero"></path>
                    <path d="M10.3780665,113.51564 C10.3780665,113.51564 13.9391952,124.62298 25.8775396,119.445137 C25.8775396,119.445137 22.4010505,108.370847 10.3780665,113.51564 Z" id="path5467-2-6-0-9-9-4" fill="#1EC75A" fill-rule="nonzero"></path>
                    <path d="M1.05533578,98.9647987 C1.05533578,98.9647987 -0.0105445444,110.580165 13.0018639,110.483218 C13.0018639,110.483218 14.1328371,98.9314338 1.05533578,98.9647987 Z" id="path5467-2-6-0-9-9-8" fill="#1EC75A" fill-rule="nonzero"></path>
                    <path d="M2.00273949,77.4120646 C2.00273949,77.4120646 -4.73472078,86.9336309 6.57828486,93.3635996 C6.57828486,93.3635996 13.3402966,83.9298521 2.00273949,77.4120646 Z" id="path5467-2-6-0-9-9-8-2" fill="#1EC75A" fill-rule="nonzero"></path>
                    <path d="M11.7284292,62.0296203 C11.7284292,62.0296203 2.90887783,69.6629262 12.3552473,78.6125689 C12.3552473,78.6125689 21.177663,71.0702294 11.7284292,62.0296203 Z" id="path5467-2-6-0-9-9-8-2-0" fill="#1EC75A" fill-rule="nonzero"></path>
                    <path d="M23.3961722,49.626718 C23.3961722,49.626718 13.366957,55.5823396 21.0839897,66.0598396 C21.0839897,66.0598396 31.0999219,60.19424 23.3961722,49.626718 Z" id="path5467-2-6-0-9-9-8-2-0-7" fill="#1EC75A" fill-rule="nonzero"></path>
                    <path d="M21.2839583,36.8939445 C21.2839583,36.8939445 18.2253165,48.150167 31.0583733,50.3050312 C31.0583733,50.3050312 34.1701156,39.1227779 21.2839583,36.8939445 Z" id="path5467-2-6-0-9-9-8-2-0-7-6" fill="#1EC75A" fill-rule="nonzero"></path>
                    <path d="M8.37013346,30.320444 C8.37013346,30.320444 12.8730002,41.0809155 24.3219517,34.895832 C24.3219517,34.895832 19.9064001,24.1614858 8.37013346,30.320444 Z" id="path5467-2-6-0-9-9-8-2-0-7-9" fill="#1EC75A" fill-rule="nonzero"></path>
                    <path d="M0.361599183,16.5155894 C0.361599183,16.5155894 1.85055181,28.0850006 14.5295953,25.1564501 C14.5295953,25.1564501 13.1178854,13.6355124 0.361599183,16.5155894 Z" id="path5467-2-6-0-9-9-8-2-0-7-9-6" fill="#1EC75A" fill-rule="nonzero"></path>
                </g>
                <g id="g5919" transform="translate(132.905111, 79.313023) rotate(6.830135) translate(-132.905111, -79.313023) translate(117.905111, 30.813023)">
                    <path d="M11.5049478,0.144161234 C35.8426062,32.9987583 -8.0236114,59.2316963 26.8405555,96.803954" id="path5463" stroke="#358E69" stroke-width="7.21524912" stroke-linecap="round"></path>
                    <path d="M20.1871998,67.6305046 C20.1871998,67.6305046 11.664375,75.5946259 21.4448964,84.1775702 C21.4448964,84.1775702 29.9736072,76.3047301 20.1871998,67.6305046 Z" id="path5467-2-6-0-9-9-8-2-0-7-9-2" fill="#1EC75A" fill-rule="nonzero"></path>
                    <path d="M24.2161915,51.3705023 C24.2161915,51.3705023 12.7356063,53.4350297 16.2932097,65.9518761 C16.2932097,65.9518761 27.7292245,63.9669836 24.2161915,51.3705023 Z" id="path5467-2-6-0-9-9-8-2-0-7-9-2-7" fill="#1EC75A" fill-rule="nonzero"></path>
                    <path d="M28.4260773,36.5445581 C28.4260773,36.5445581 16.7613875,36.5728867 18.0788575,49.5187544 C18.0788575,49.5187544 29.6857569,49.5609326 28.4260773,36.5445581 Z" id="path5467-2-6-0-9-9-8-2-0-7-9-2-7-5" fill="#1EC75A" fill-rule="nonzero"></path>
                    <path d="M28.476093,19.6160002 C28.476093,19.6160002 17.1752687,22.5067792 21.6304174,34.7330998 C21.6304174,34.7330998 32.8925574,31.9247886 28.476093,19.6160002 Z" id="path5467-2-6-0-9-9-8-2-0-7-9-2-7-4" fill="#1EC75A" fill-rule="nonzero"></path>
                    <path d="M27.2636593,1.92729091 C27.2636593,1.92729091 16.5302888,6.49449508 22.7838962,17.9058955 C22.7838962,17.9058955 33.4915505,13.4261953 27.2636593,1.92729091 Z" id="path5467-2-6-0-9-9-8-2-0-7-9-2-7-3" fill="#1EC75A" fill-rule="nonzero"></path>
                    <path d="M6.84407033,12.330507 C6.84407033,12.330507 3.12219239,23.3855962 15.8046038,26.2984085 C15.8046038,26.2984085 19.5747978,15.3207509 6.84407033,12.330507 Z" id="path5467-2-6-0-9-9-8-2-0-7-9-2-7-8" fill="#1EC75A" fill-rule="nonzero"></path>
                    <path d="M6.91149246,26.429035 C6.91149246,26.429035 0.875637854,36.410784 12.6217252,42.0110388 C12.6217252,42.0110388 18.68786,32.1152199 6.91149246,26.429035 Z" id="path5467-2-6-0-9-9-8-2-0-7-9-2-7-55" fill="#1EC75A" fill-rule="nonzero"></path>
                    <path d="M5.42159555,42.2316873 C5.42159555,42.2316873 -1.55983714,51.576357 9.58344854,58.2965368 C9.58344854,58.2965368 16.5866313,49.0403154 5.42159555,42.2316873 Z" id="path5467-2-6-0-9-9-8-2-0-7-9-2-7-55-5" fill="#1EC75A" fill-rule="nonzero"></path>
                    <path d="M0.53890491,60.7859936 C0.53890491,60.7859936 -2.53012409,72.039698 10.3010756,74.2062084 C10.3010756,74.2062084 13.4227644,63.0271027 0.53890491,60.7859936 Z" id="path5467-2-6-0-9-9-8-2-0-7-9-2-7-55-6" fill="#1EC75A" fill-rule="nonzero"></path>
                    <path d="M4.54951451,79.7872626 C4.54951451,79.7872626 4.34523364,91.4498435 17.3149288,90.3912972 C17.3149288,90.3912972 17.5885519,78.7872621 4.54951451,79.7872626 Z" id="path5467-2-6-0-9-9-8-2-0-7-9-2-7-55-60" fill="#1EC75A" fill-rule="nonzero"></path>
                </g>
                <g id="g6108" transform="translate(48.033778, 132.007443) rotate(-8.816819) translate(-48.033778, -132.007443) translate(9.533778, 87.507443)">
                    <g id="g6092" transform="translate(0.176654, 11.686461)">
                        <path d="M7.4486347,0.239534278 C15.2357335,1.45231427 21.491135,4.34875898 26.4405238,8.41423168 C33.1598538,13.9345368 14.4945308,31.7356163 25.1965823,40.5269335 C41.3592915,53.8048756 63.6974839,56.9515566 75.4409903,76.3755517" id="path5465" stroke="#358E69" stroke-width="7.21524912" stroke-linecap="round"></path>
                        <path d="M60.8977343,46.7815795 C60.8977343,46.7815795 55.4358491,57.0884783 67.4797648,62.0157707 C67.4797648,62.0157707 72.976746,51.7929136 60.8977343,46.7815795 Z" id="path5467-2-6-0-9-9-8-2-0-7-9-2-7-55-3" fill="#1EC75A" fill-rule="nonzero"></path>
                        <path d="M45.5707825,39.3786798 C45.5707825,39.3786798 41.8182153,50.4233819 54.4926317,53.3717624 C54.4926317,53.3717624 58.2932318,42.4044919 45.5707825,39.3786798 Z" id="path5467-2-6-0-9-9-8-2-0-7-9-2-7-55-3-9" fill="#1EC75A" fill-rule="nonzero"></path>
                        <path d="M31.4779517,32.5769765 C31.4779517,32.5769765 28.0309874,43.720514 40.7817967,46.3188786 C40.7817967,46.3188786 44.2789027,35.2511989 31.4779517,32.5769765 Z" id="path5467-2-6-0-9-9-8-2-0-7-9-2-7-55-3-1" fill="#1EC75A" fill-rule="nonzero"></path>
                        <path d="M31.5644799,19.6462174 C31.5644799,19.6462174 20.445368,23.1712429 25.5842439,35.1262382 C25.5842439,35.1262382 36.6696132,31.6855691 31.5644799,19.6462174 Z" id="path5467-2-6-0-9-9-8-2-0-7-9-2-7-55-3-1-1" fill="#1EC75A" fill-rule="nonzero"></path>
                        <path d="M40.5547585,6.03273846 C40.5547585,6.03273846 28.8933737,5.76235745 29.8789266,18.7378128 C29.8789266,18.7378128 41.4810102,19.076812 40.5547585,6.03273846 Z" id="path5467-2-6-0-9-9-8-2-0-7-9-2-7-55-3-1-1-4" fill="#1EC75A" fill-rule="nonzero"></path>
                        <path d="M0.203084778,6.82625477 C0.203084778,6.82625477 7.51602536,15.9137635 16.7979944,6.79351947 C16.7979944,6.79351947 9.57532767,-2.29304496 0.203084778,6.82625477 Z" id="path5467-2-6-0-9-9-8-2-0-7-9-2-7-55-3-1-1-4-8-2" fill="#1EC75A" fill-rule="nonzero"></path>
                        <path d="M20.4983111,5.31224705 C20.4983111,5.31224705 11.7884859,12.9011714 21.1732249,21.7334077 C21.1732249,21.7334077 29.8856311,14.2338759 20.4983111,5.31224705 Z" id="path5467-2-6-0-9-9-8-2-0-7-9-2-7-55-3-1-1-4-8-2-1" fill="#1EC75A" fill-rule="nonzero"></path>
                        <path d="M8.68530517,20.1844614 C8.68530517,20.1844614 5.62905553,31.4416281 18.4627733,33.5933447 C18.4627733,33.5933447 21.571305,22.4098324 8.68530517,20.1844614 Z" id="path5467-2-6-0-9-9-8-2-0-7-9-2-7-55-3-1-1-4-8-2-2" fill="#1EC75A" fill-rule="nonzero"></path>
                        <path d="M9.41036063,43.0337022 C9.41036063,43.0337022 15.3196178,53.0909942 25.8326859,45.4221202 C25.8326859,45.4221202 20.012664,35.3793072 9.41036063,43.0337022 Z" id="path5467-2-6-0-9-9-8-2-0-7-9-2-7-55-3-1-1-4-8-2-2-7" fill="#1EC75A" fill-rule="nonzero"></path>
                        <path d="M27.1170744,56.6462369 C27.1170744,56.6462369 34.9881833,65.2553066 43.6771083,55.5681753 C43.6771083,55.5681753 35.8963047,46.9550137 27.1170744,56.6462369 Z" id="path5467-2-6-0-9-9-8-2-0-7-9-2-7-55-3-1-1-4-8-2-2-7-9" fill="#1EC75A" fill-rule="nonzero"></path>
                        <path d="M41.8525244,65.2584542 C41.8525244,65.2584542 49.7236333,73.8675239 58.4125583,64.1803926 C58.4125583,64.1803926 50.6317547,55.567231 41.8525244,65.2584542 Z" id="path5467-2-6-0-9-9-8-2-0-7-9-2-7-55-3-1-1-4-8-2-2-7-9-9" fill="#1EC75A" fill-rule="nonzero"></path>
                    </g>
                    <path d="M24.1325276,0.0676739418 C24.1325276,0.0676739418 16.216565,8.63488021 26.6001399,16.4781327 C26.6001399,16.4781327 34.5283783,8.00031897 24.1325276,0.0676739418 Z" id="path5467-2-6-0-9-9-8-2-0-7-9-2-7-55-3-1-1-4-8" fill="#1EC75A" fill-rule="nonzero"></path>
                </g>
                <path d="M113.574533,148.244334 C95.8535285,148.444208 75.7463729,156.362688 55.2875015,176.821623 C38.4664666,193.642532 -1.53597815,167.102071 0.486717285,207.768129 L0.104564109,208.750189 L173.929931,208.750189 C180.889393,185.935257 153.197468,147.797686 113.574533,148.244334 Z" id="path6120" fill="#481A47" fill-rule="nonzero"></path>
                <path d="M181.932737,58.70321 C158.521456,73.7960728 166.430053,96.8436141 154.501151,110.055141 C145.784874,119.708593 130.754145,125.128174 122.113158,134.697899 C111.531283,146.417452 134.182412,180.419988 127.089082,188.275831 C121.859208,194.067776 112.789641,201.692269 105.173899,208.750189 L181.932737,208.750189 L181.932737,58.70321 Z" id="path6130" fill="#301C33" fill-rule="nonzero"></path>
            </g>
            <g id="g2407" transform="translate(0.272283, 76.724624)">
                <g id="g6438" transform="translate(67.443488, 68.411067)">
                    <path d="M43.5522672,0.170916048 C51.8409118,36.140403 16.6848782,37.4967147 0.0744885504,64.272618" id="path6294" stroke="#358E69" stroke-width="7.21524912" stroke-linecap="round"></path>
                    <path d="M6.96423092,59.9984577 C6.96423092,59.9984577 15.519706,67.9276404 23.3785801,57.5559006 C23.3785801,57.5559006 14.912762,49.6150717 6.96423092,59.9984577 Z" id="path5467-2-6-0-9-9-8-2-0-7-9-2-7-55-3-1-1-4-8-2-2-7-9-4" fill="#1EC75A" fill-rule="nonzero"></path>
                    <path d="M17.2410698,50.5562117 C17.2410698,50.5562117 25.7965449,58.4853943 33.655419,48.1136545 C33.655419,48.1136545 25.1896009,40.1728257 17.2410698,50.5562117 Z" id="path5467-2-6-0-9-9-8-2-0-7-9-2-7-55-3-1-1-4-8-2-2-7-9-4-8" fill="#1EC75A" fill-rule="nonzero"></path>
                    <path d="M29.7268712,41.5505412 C29.7268712,41.5505412 38.9967722,48.6311241 45.8350257,37.559982 C45.8350257,37.559982 36.6532676,30.4589395 29.7268712,41.5505412 Z" id="path5467-2-6-0-9-9-8-2-0-7-9-2-7-55-3-1-1-4-8-2-2-7-9-4-8-5" fill="#1EC75A" fill-rule="nonzero"></path>
                    <path d="M41.4740476,29.9713724 C41.4740476,29.9713724 52.2138613,34.523468 56.0832778,22.0994765 C56.0832778,22.0994765 45.4237727,17.5055175 41.4740476,29.9713724 Z" id="path5467-2-6-0-9-9-8-2-0-7-9-2-7-55-3-1-1-4-8-2-2-7-9-4-8-7" fill="#1EC75A" fill-rule="nonzero"></path>
                    <path d="M47.8774567,16.699096 C47.8774567,16.699096 59.540387,16.4951299 58.028463,3.57066603 C58.028463,3.57066603 46.4219193,3.70381057 47.8774567,16.699096 Z" id="path5467-2-6-0-9-9-8-2-0-7-9-2-7-55-3-1-1-4-8-2-2-7-9-4-8-7-7" fill="#1EC75A" fill-rule="nonzero"></path>
                    <path d="M39.7135557,20.264411 C39.7135557,20.264411 45.2902095,10.018891 33.3023814,4.95750969 C33.3023814,4.95750969 27.6918906,15.1189881 39.7135557,20.264411 Z" id="path5467-2-6-0-9-9-8-2-0-7-9-2-7-55-3-1-1-4-8-2-2-7-9-4-8-7-7-5" fill="#1EC75A" fill-rule="nonzero"></path>
                    <path d="M31.0505514,31.5615526 C31.0505514,31.5615526 40.0290579,24.1145862 30.7729624,14.9685316 C30.7729624,14.9685316 21.7942293,22.3248465 31.0505514,31.5615526 Z" id="path5467-2-6-0-9-9-8-2-0-7-9-2-7-55-3-1-1-4-8-2-2-7-9-4-8-7-7-5-9" fill="#1EC75A" fill-rule="nonzero"></path>
                    <path d="M19.3445522,40.42558 C19.3445522,40.42558 30.2378472,36.2534028 24.4059493,24.6207243 C24.4059493,24.6207243 13.5415872,28.7069713 19.3445522,40.42558 Z" id="path5467-2-6-0-9-9-8-2-0-7-9-2-7-55-3-1-1-4-8-2-2-7-9-4-8-7-7-5-9-9" fill="#1EC75A" fill-rule="nonzero"></path>
                    <path d="M7.30492987,50.3679837 C7.30492987,50.3679837 18.1982249,46.1958065 12.3663269,34.563128 C12.3663269,34.563128 1.50196491,38.6493751 7.30492987,50.3679837 Z" id="path5467-2-6-0-9-9-8-2-0-7-9-2-7-55-3-1-1-4-8-2-2-7-9-4-8-7-7-5-9-9-4" fill="#1EC75A" fill-rule="nonzero"></path>
                </g>
                <g id="g6704" transform="translate(38.224373, 0.188095)">
                    <path d="M0.186158423,128.046023 C30.5722666,118.577022 13.9742976,52.2288597 23.9890715,42.2140606 C33.6407826,32.5621827 46.3899426,16.6852149 51.7693788,4.13311517" id="path6292" stroke="#358E69" stroke-width="7.21524912" stroke-linecap="round"></path>
                    <path d="M12.8715554,123.342212 C12.8715554,123.342212 23.6860559,127.714578 27.3479653,115.227319 C27.3479653,115.227319 16.6130903,110.81246 12.8715554,123.342212 Z" id="path5467-2-6-0-9-9-8-2-0-7-9-2-7-55-3-1-1-4-8-2-2-7-9-4-8-7-7-5-9-9-4-0" fill="#1EC75A" fill-rule="nonzero"></path>
                    <path d="M18.9743694,112.074028 C18.9743694,112.074028 30.6263617,112.623289 29.9521435,99.6276885 C29.9521435,99.6276885 18.3612341,99.0116983 18.9743694,112.074028 Z" id="path5467-2-6-0-9-9-8-2-0-7-9-2-7-55-3-1-1-4-8-2-2-7-9-4-8-7-7-5-9-9-4-0-7" fill="#1EC75A" fill-rule="nonzero"></path>
                    <path d="M22.6143273,95.9440228 C22.6143273,95.9440228 34.270166,95.4835252 32.474663,82.5949443 C32.474663,82.5949443 20.8739046,82.983676 22.6143273,95.9440228 Z" id="path5467-2-6-0-9-9-8-2-0-7-9-2-7-55-3-1-1-4-8-2-2-7-9-4-8-7-7-5-9-9-4-0-7-6" fill="#1EC75A" fill-rule="nonzero"></path>
                    <path d="M23.493182,81.5968323 C23.493182,81.5968323 35.0515702,80.0236493 32.0318236,67.3657893 C32.0318236,67.3657893 20.5213989,68.8621703 23.493182,81.5968323 Z" id="path5467-2-6-0-9-9-8-2-0-7-9-2-7-55-3-1-1-4-8-2-2-7-9-4-8-7-7-5-9-9-4-0-7-6-5" fill="#1EC75A" fill-rule="nonzero"></path>
                    <path d="M23.7143656,65.592732 C23.7143656,65.592732 35.2727538,64.0195489 32.2530072,51.361689 C32.2530072,51.361689 20.7425825,52.85807 23.7143656,65.592732 Z" id="path5467-2-6-0-9-9-8-2-0-7-9-2-7-55-3-1-1-4-8-2-2-7-9-4-8-7-7-5-9-9-4-0-7-6-5-8" fill="#1EC75A" fill-rule="nonzero"></path>
                    <path d="M24.778691,49.389387 C24.778691,49.389387 36.1931289,51.7938579 37.6049143,38.8574331 C37.6049143,38.8574331 26.2614114,36.3972492 24.778691,49.389387 Z" id="path5467-2-6-0-9-9-8-2-0-7-9-2-7-55-3-1-1-4-8-2-2-7-9-4-8-7-7-5-9-9-4-0-7-6-5-8-3" fill="#1EC75A" fill-rule="nonzero"></path>
                    <path d="M34.6956556,35.8306767 C34.6956556,35.8306767 44.4955884,42.1580329 50.4398534,30.5816969 C50.4398534,30.5816969 40.7260712,24.2279007 34.6956556,35.8306767 Z" id="path5467-2-6-0-9-9-8-2-0-7-9-2-7-55-3-1-1-4-8-2-2-7-9-4-8-7-7-5-9-9-4-0-7-6-5-8-3-5" fill="#1EC75A" fill-rule="nonzero"></path>
                    <path d="M43.0485905,25.1136424 C43.0485905,25.1136424 53.2600973,30.7529277 58.3949379,18.7953199 C58.3949379,18.7953199 48.2675608,13.1239603 43.0485905,25.1136424 Z" id="path5467-2-6-0-9-9-8-2-0-7-9-2-7-55-3-1-1-4-8-2-2-7-9-4-8-7-7-5-9-9-4-0-7-6-5-8-3-5-7" fill="#1EC75A" fill-rule="nonzero"></path>
                    <path d="M50.3846692,14.563747 C50.3846692,14.563747 61.4640046,18.2140795 64.295177,5.51227863 C64.295177,5.51227863 53.2925776,1.81488921 50.3846692,14.563747 Z" id="path5467-2-6-0-9-9-8-2-0-7-9-2-7-55-3-1-1-4-8-2-2-7-9-4-8-7-7-5-9-9-4-0-7-6-5-8-3-5-7-6" fill="#1EC75A" fill-rule="nonzero"></path>
                    <path d="M40.9347744,16.5890235 C40.9347744,16.5890235 49.7942629,9.00047688 40.393534,0.00173119386 C40.393534,0.00173119386 31.5335136,7.50025576 40.9347744,16.5890235 Z" id="path5467-2-6-0-9-9-8-2-0-7-9-2-7-55-3-1-1-4-8-2-2-7-9-4-8-7-7-5-9-9-4-0-7-6-5-8-3-5-7-6-1" fill="#1EC75A" fill-rule="nonzero"></path>
                    <path d="M32.3506938,27.5952301 C32.3506938,27.5952301 41.5957317,20.4812509 32.6795545,11.0021776 C32.6795545,11.0021776 23.4387061,18.0260089 32.3506938,27.5952301 Z" id="path5467-2-6-0-9-9-8-2-0-7-9-2-7-55-3-1-1-4-8-2-2-7-9-4-8-7-7-5-9-9-4-0-7-6-5-8-3-5-7-6-1-1" fill="#1EC75A" fill-rule="nonzero"></path>
                    <path d="M23.7054673,37.4828652 C23.7054673,37.4828652 33.517232,31.1734505 25.4317635,20.9766871 C25.4317635,20.9766871 15.6317614,27.1967408 23.7054673,37.4828652 Z" id="path5467-2-6-0-9-9-8-2-0-7-9-2-7-55-3-1-1-4-8-2-2-7-9-4-8-7-7-5-9-9-4-0-7-6-5-8-3-5-7-6-1-1-7" fill="#1EC75A" fill-rule="nonzero"></path>
                    <path d="M16.9880322,56.8775874 C16.9880322,56.8775874 22.2238864,46.453597 10.0748117,41.7900755 C10.0748117,41.7900755 4.80359711,52.1312833 16.9880322,56.8775874 Z" id="path5467-2-6-0-9-9-8-2-0-7-9-2-7-55-3-1-1-4-8-2-2-7-9-4-8-7-7-5-9-9-4-0-7-6-5-8-3-5-7-6-1-1-7-4" fill="#1EC75A" fill-rule="nonzero"></path>
                    <path d="M16.4442579,74.2978043 C16.4442579,74.2978043 21.6801121,63.8738139 9.53103743,59.2102924 C9.53103743,59.2102924 4.25982283,69.5515002 16.4442579,74.2978043 Z" id="path5467-2-6-0-9-9-8-2-0-7-9-2-7-55-3-1-1-4-8-2-2-7-9-4-8-7-7-5-9-9-4-0-7-6-5-8-3-5-7-6-1-1-7-4-1" fill="#1EC75A" fill-rule="nonzero"></path>
                    <path d="M15.6717552,89.8584042 C15.6717552,89.8584042 20.9076094,79.4344138 8.75853467,74.7708923 C8.75853467,74.7708923 3.48732006,85.1121002 15.6717552,89.8584042 Z" id="path5467-2-6-0-9-9-8-2-0-7-9-2-7-55-3-1-1-4-8-2-2-7-9-4-8-7-7-5-9-9-4-0-7-6-5-8-3-5-7-6-1-1-7-4-1-6" fill="#1EC75A" fill-rule="nonzero"></path>
                    <path d="M13.9234886,103.951581 C13.9234886,103.951581 20.1536115,94.089442 8.51881153,88.2603549 C8.51881153,88.2603549 2.26159389,98.036564 13.9234886,103.951581 Z" id="path5467-2-6-0-9-9-8-2-0-7-9-2-7-55-3-1-1-4-8-2-2-7-9-4-8-7-7-5-9-9-4-0-7-6-5-8-3-5-7-6-1-1-7-4-1-6-6" fill="#1EC75A" fill-rule="nonzero"></path>
                    <path d="M9.48355866,116.722441 C9.48355866,116.722441 17.0368393,107.832918 6.33587365,100.427815 C6.33587365,100.427815 -1.23216338,109.22826 9.48355866,116.722441 Z" id="path5467-2-6-0-9-9-8-2-0-7-9-2-7-55-3-1-1-4-8-2-2-7-9-4-8-7-7-5-9-9-4-0-7-6-5-8-3-5-7-6-1-1-7-4-1-6-6-8" fill="#1EC75A" fill-rule="nonzero"></path>
                </g>
                <g id="g2372" transform="translate(0.000000, 58.231066)" fill-rule="nonzero">
                    <path d="M28.9752139,74.8498977 C22.2812144,74.8782264 14.6618535,76.636175 5.62499131,80.6764667 C3.63533273,82.6660806 1.76232929,84.6421597 -1.11826111e-15,86.6040745 L-1.11826111e-15,149.889597 L164.395425,149.889597 C152.239164,129.389429 136.601784,112.094488 120.933161,96.4259242 C110.515038,86.0079143 79.1511087,108.079377 67.4976811,96.4259242 C55.4922546,84.4205669 44.8294192,74.7831681 28.9752139,74.8498977 Z" id="path6142" fill="#322244"></path>
                    <path d="M0,0.110166882 L0,149.858436 C6.15170893,149.974898 13.8981162,149.867879 15.7494216,148.016446 C24.4557104,139.310429 76.4971098,147.200266 76.4971098,133.392264 C76.4971098,119.636512 92.6527588,67.5823459 75.3721108,67.5823459 C62.1253648,67.5823459 40.7243274,54.8709763 32.6238415,46.7705628 C12.2578868,26.4047983 30.723747,6.03305322 0,0.110166882 Z" id="path6187" fill="#4B2E47"></path>
                </g>
            </g>
            <g id="g7824" transform="translate(386.951930, 250.894374) rotate(-10.469701) translate(-386.951930, -250.894374) translate(342.451930, 208.894374)">
                <g id="g7788" transform="translate(44.391717, 41.882858) rotate(53.511739) translate(-44.391717, -41.882858) translate(18.891717, 6.382858)" fill-rule="nonzero">
                    <path d="M41.5653988,5.22248238 L35.0562043,16.0553493 L34.9750585,16.0062464 C32.3933133,14.4547819 24.8852829,14.1796795 22.5781995,18.0194675 L17.0692259,27.188185 L0.8226953,54.2272299 C-0.7284858,56.8085973 0.1066736,60.1592444 2.6885131,61.7107088 L15.2237102,69.2423465 C17.8054554,70.7934962 21.1561024,69.958746 22.7072836,67.3764342 L38.9538456,40.3377041 L44.4627878,31.1696161 C46.7465788,27.3685439 43.0789344,20.9634413 40.4999906,19.3295091 L47.0104127,8.4944388 L41.5653988,5.22248238 Z" id="polyline7718" fill="#4B7B4E"></path>
                    <path d="M49.1012243,7.5249697 C48.558348,8.4281275 47.6506089,8.879161 47.0737005,8.5326233 L41.3397393,5.08720721 C40.7626128,4.74045134 40.7349072,3.7273439 41.2774563,2.82429519 L41.9036675,1.78184603 C42.4464348,0.87868824 43.3540648,0.4277638 43.9310823,0.77462875 L49.6650435,4.21971761 C50.24217,4.56625532 50.2699847,5.57947184 49.7274355,6.4828478 L49.1012243,7.5249697 Z" id="path7722" stroke="#52300F" stroke-width="0.5" fill="#52300F"></path>
                    <path d="M41.2446696,25.5512788 C41.2446696,27.4079384 37.7708796,28.9142063 33.4795545,28.9183055 C29.1882294,28.9224047 25.6991003,27.4227881 25.680151,25.5661467 C25.6612018,23.7095053 29.1195848,22.1966155 33.4108261,22.1843179 C37.7020676,22.1720202 41.2064682,23.6649564 41.2443663,25.5215436" id="path7772" fill="#AA8F49" transform="translate(33.462372, 25.551278) rotate(31.864056) translate(-33.462372, -25.551278) "></path>
                    <path d="M40.071901,29.659598 C40.071901,29.659598 27.7466942,44.0600858 17.4461229,63.5687522 L26.7118237,21.9893952 C26.7118237,21.9893952 27.3187905,25.9070886 31.6779143,28.1694193 C36.037037,30.4317488 38.7517614,31.2588112 40.071901,29.659598 Z" id="path7776" fill="#BCA464"></path>
                    <path d="M26.734154,21.6789914 C26.734154,21.6789914 21.7380356,42.4214325 4.2582968,57.2480057 C4.2582968,57.2480057 6.4432591,63.4128593 17.6802393,64.8174813 C17.6802393,64.8174813 28.9172184,45.7770433 38.3594026,36.9591363 C38.3594026,36.9591363 25.6703268,26.6630611 26.734154,21.6789914 Z" id="path7774" fill="#C7B27D"></path>
                </g>
                <path d="M29.1012622,34.2596083 C29.3771519,34.2596083 52.6625908,32.0524936 52.6625908,32.0524936" id="path7790" stroke="#629F66" stroke-width="1.44790763" stroke-linecap="round" stroke-linejoin="round"></path>
                <path d="M56.3708519,31.7297663 C56.3708519,31.7297663 57.9510541,31.4370373 58.6338687,31.8468583 C59.3166505,32.256364 61.735727,33.7587255 63.393959,36.7241034" id="path7792" stroke="#629F66" stroke-width="1.44790763" stroke-linecap="round" stroke-linejoin="round"></path>
                <path d="M67.726412,40.0532805 L77.161983,39.1705332" id="path7794" stroke="#629F66" stroke-width="1.44790763" stroke-linecap="round" stroke-linejoin="round"></path>
            </g>
        </g>
    </g>
</svg>