<?xml version="1.0" encoding="UTF-8"?>
<svg width="512px" height="396px" viewBox="0 0 512 396" version="1.1" xmlns="http://www.w3.org/2000/svg" xmlns:xlink="http://www.w3.org/1999/xlink">
    <!-- Generator: Sketch 49.2 (51160) - http://www.bohemiancoding.com/sketch -->
    <title>g2153</title>
    <desc>Created with Sketch.</desc>
    <defs></defs>
    <g id="Page-1" stroke="none" stroke-width="1" fill="none" fill-rule="evenodd">
        <g id="g2153" fill-rule="nonzero">
            <g id="Layer_1-9" transform="translate(16.100476, 194.309327)">
                <path d="M20.630541,19.5277095 C24.9998272,4.14378125 44.9597715,-2.62769404 60.2773747,1.11772913 C60.2773747,1.11772913 60.2773747,1.11772913 60.2773747,1.11772913 C67.5684297,2.90054484 77.3631001,7.63288384 84.428242,15.1480153 C92.2060204,23.4212924 96.49388,36.6448627 95.4383943,44.4657013 C91.9313329,70.4512199 20.630541,19.5277095 20.630541,19.5277095 Z" id="path1792" fill="#8D44FF"></path>
                <path d="M15.7316752,52.7148974 C15.7316752,52.7148974 27.4956875,70.0202095 51.9483846,70.456934 C76.4010816,70.8936586 100.907247,49.706804 100.907247,49.706804 L15.7316752,52.7148974 Z" id="path1794" fill="#8D44FF"></path>
                <path d="M47.8129705,7.11983454 C47.8129705,7.11983454 47.8129705,7.11983454 47.8129705,7.11983454 C69.1800249,7.20166937 90.5446305,19.9642299 97.3854919,40.5649757 C97.8454812,41.9502496 98.3015931,42.4045247 99.2697338,42.5614599 C100.238079,42.718395 100.989286,42.5235016 102.345785,41.5618913 C106.206511,38.8250161 110.748855,37.0215886 115.158548,35.390402 C118.699078,34.185328 122.343891,33.2618801 126.05707,32.7802586 C127.329898,32.6153645 128.615582,32.5725083 129.89494,32.4686332 C133.179354,32.5845489 138.576984,32.3741456 140.158171,36.1442621 C141.650994,42.5208486 129.899226,48.3366318 125.446268,50.2553627 C129.738414,52.1759303 141.864662,58.032733 140.158171,64.3664633 C138.579228,68.9737032 127.386631,69.3112464 115.158548,65.1203234 C109.823162,62.9866995 104.202272,60.872667 99.8176803,57.0223483 C99.8176803,57.0223483 99.8176803,57.0223483 99.8176803,57.0223483 C99.8176803,57.0223483 99.8176803,57.0223483 99.8176803,57.0223483 C99.2097352,56.477463 98.845458,55.9168638 97.3810022,55.4699354 C95.9165465,55.023007 93.9147562,55.3670806 93.6461911,55.4109572 C74.727243,58.5008854 68.2347408,58.7067989 56.6825603,58.7712872 C31.9608899,58.9088351 14.528642,55.6317684 8.6142896,54.9679062 C5.45191412,54.6128125 3.71624017,54.3768996 2.61728611,53.8583402 C1.51833206,53.3395767 2.18280642,53.810178 1.11732097,52.8510167 C0.0518355301,51.8918553 3.82399276,52.4310264 4.05010996,51.3765611 C4.27622715,50.3220958 2.52973713,48.3925488 1.82812078,47.8454187 C1.12650443,47.2982886 0.42325547,46.4517776 0.165506358,45.9705643 C-0.0920386774,45.4895551 0.325910793,44.8456925 0.461621925,44.5612093 C6.23128376,32.4823064 12.1537992,20.3436089 23.9476067,13.0784716 C31.1958056,8.6134733 39.4327571,7.28044305 47.8129705,7.11983454 Z" id="path1796" fill="#FF3976"></path>
                <path d="M28.1291422,18.5144677 C29.0562635,18.6603827 28.6793335,18.5220185 29.2940131,18.8218075 C33.4798342,21.4133799 36.9760795,26.3234699 38.5919603,31.9647674 C40.3972245,38.2678862 39.7645861,44.9350782 36.3885421,50.8526958 C35.8246777,51.8412442 34.5661355,52.1855219 33.5773829,51.6216575 C32.5888345,51.057589 32.2447609,49.7990468 32.8086253,48.8104983 C35.6148866,43.891429 36.1391601,38.3691083 34.6298075,33.0996389 C33.2853489,28.4060745 30.4003139,24.3541279 27.1244717,22.3260118 C26.1569431,21.7270461 25.8581746,20.4568715 26.4571403,19.4891389 C26.8887629,18.7995631 27.3909961,18.6881371 28.1291422,18.5144677 Z" id="path1798" fill="#8D44FF"></path>
                <path d="M20.2838143,45.3032329 C17.0630728,45.3032329 14.451909,42.6920691 14.451909,39.4713276 C14.451909,36.250382 17.0630728,33.6394223 20.2838143,33.6394223 C23.5047599,33.6394223 26.1157196,36.250382 26.1157196,39.4713276 C26.1157196,42.6920691 23.5047599,45.3032329 20.2838143,45.3032329 Z" id="path1800" fill="#E6E6E6"></path>
                <path d="M20.2838143,43.0247144 C18.3212069,43.0247144 16.7304275,41.433731 16.7304275,39.4713276 C16.7304275,37.5087202 18.3212069,35.9179408 20.2838143,35.9179408 C22.2464218,35.9179408 23.8372011,37.5087202 23.8372011,39.4713276 C23.8372011,41.433731 22.2464218,43.0247144 20.2838143,43.0247144 Z" id="path1802" fill="#212121"></path>
                <path d="M41.5078109,29.192791 C41.3500595,28.9191239 49.4319124,35.576112 60.0961544,36.1685472 C64.275241,36.4007867 63.4185262,39.7766266 62.9320069,42.0506554 C62.4456916,44.3244801 59.8326911,47.2578813 55.3781008,47.1529858 C48.4521393,46.9901325 45.2467036,44.7716126 42.2669769,40.6755853 C42.2669769,40.6755853 45.6073075,36.3101766 41.5078109,29.192791 Z" id="path1804" fill="#8D44FF"></path>
            </g>
            <g id="Layer_1-9-4" transform="translate(174.343361, 163.219331) rotate(-4.463148) translate(-174.343361, -163.219331) translate(104.140909, 127.914028)">
                <path d="M20.6305414,19.5277099 C24.9998277,4.14378134 44.9597725,-2.62769409 60.277376,1.11772915 C60.277376,1.11772915 60.277376,1.11772915 60.277376,1.11772915 C67.5684312,2.9005449 77.3631018,7.63288401 84.4282439,15.1480156 C92.2060225,23.421293 96.4938821,36.6448635 95.4383964,44.4657023 C91.931335,70.4512214 20.6305414,19.5277099 20.6305414,19.5277099 Z" id="path1792-9" fill="#8D44FF"></path>
                <path d="M15.7316756,52.7148985 C15.7316756,52.7148985 27.4956882,70.020211 51.9483857,70.4569356 C76.4010833,70.8936602 100.907249,49.7068051 100.907249,49.7068051 L15.7316756,52.7148985 Z" id="path1794-5" fill="#8D44FF"></path>
                <path d="M47.8129715,7.1198347 C47.8129715,7.1198347 47.8129715,7.1198347 47.8129715,7.1198347 C69.1800265,7.20166953 90.5446325,19.9642304 97.3854941,40.5649766 C97.8454834,41.9502505 98.3015952,42.4045257 99.269736,42.5614608 C100.238081,42.7183959 100.989288,42.5235025 102.345787,41.5618922 C106.206514,38.8250169 110.748857,37.0215894 115.158551,35.3904028 C118.699081,34.1853288 122.343894,33.2618808 126.057073,32.7802593 C127.329901,32.6153652 128.615585,32.5725091 129.894943,32.4686339 C133.179357,32.5845496 138.576987,32.3741463 140.158174,36.1442629 C141.650997,42.5208495 129.899229,48.3366328 125.446271,50.2553638 C129.738416,52.1759315 141.864665,58.0327343 140.158174,64.3664648 C138.579232,68.9737047 127.386634,69.3112479 115.158551,65.1203248 C109.823164,62.9867009 104.202275,60.8726683 99.8176825,57.0223496 C99.8176825,57.0223496 99.8176825,57.0223496 99.8176825,57.0223496 C99.8176825,57.0223496 99.8176825,57.0223496 99.8176825,57.0223496 C99.2097374,56.4774642 98.8454602,55.916865 97.3810044,55.4699366 C95.9165486,55.0230082 93.9147583,55.3670819 93.6461931,55.4109584 C74.7272446,58.5008867 68.2347423,58.7068002 56.6825615,58.7712885 C31.9608906,58.9088364 14.5286423,55.6317696 8.61428979,54.9679075 C5.45191424,54.6128137 3.71624025,54.3769008 2.61728617,53.8583414 C1.5183321,53.3395779 2.18280646,53.8101792 1.117321,52.8510178 C0.0518355312,51.8918564 3.82399285,52.4310276 4.05011005,51.3765623 C4.27622725,50.322097 2.52973718,48.3925499 1.82812082,47.8454198 C1.12650446,47.2982896 0.423255479,46.4517787 0.165506361,45.9705653 C-0.0920386794,45.4895561 0.325910801,44.8456935 0.461621935,44.5612103 C6.2312839,32.4823071 12.1537995,20.3436093 23.9476073,13.0784719 C31.1958063,8.61347349 39.4327579,7.28044321 47.8129715,7.1198347 Z" id="path1796-3" fill="#FF3976"></path>
                <path d="M28.1291428,18.5144681 C29.0562642,18.6603831 28.6793341,18.5220189 29.2940137,18.8218079 C33.4798349,21.4133804 36.9760803,26.3234705 38.5919611,31.9647681 C40.3972253,38.267887 39.764587,44.9350792 36.3885429,50.8526969 C35.8246784,51.8412454 34.5661362,52.1855231 33.5773837,51.6216586 C32.5888352,51.0575901 32.2447616,49.7990479 32.808626,48.8104994 C35.6148874,43.8914299 36.1391609,38.3691092 34.6298082,33.0996397 C33.2853496,28.4060752 30.4003146,24.3541284 27.1244723,22.3260123 C26.1569437,21.7270466 25.8581751,20.456872 26.4571408,19.4891393 C26.8887635,18.7995635 27.3909967,18.6881375 28.1291428,18.5144681 Z" id="path1798-5" fill="#8D44FF"></path>
                <path d="M20.2838148,45.3032339 C17.0630732,45.3032339 14.4519094,42.69207 14.4519094,39.4713285 C14.4519094,36.2503828 17.0630732,33.6394231 20.2838148,33.6394231 C23.5047604,33.6394231 26.1157202,36.2503828 26.1157202,39.4713285 C26.1157202,42.69207 23.5047604,45.3032339 20.2838148,45.3032339 Z" id="path1800-8" fill="#E6E6E6"></path>
                <path d="M20.2838148,43.0247154 C18.3212073,43.0247154 16.7304279,41.4337319 16.7304279,39.4713285 C16.7304279,37.508721 18.3212073,35.9179416 20.2838148,35.9179416 C22.2464223,35.9179416 23.8372017,37.508721 23.8372017,39.4713285 C23.8372017,41.4337319 22.2464223,43.0247154 20.2838148,43.0247154 Z" id="path1802-2" fill="#212121"></path>
                <path d="M41.5078118,29.1927916 C41.3500604,28.9191245 49.4319135,35.5761128 60.0961557,36.168548 C64.2752424,36.4007875 63.4185276,39.7766275 62.9320083,42.0506563 C62.445693,44.3244811 59.8326925,47.2578824 55.378102,47.1529869 C48.4521404,46.9901335 45.2467046,44.7716136 42.2669779,40.6755862 C42.2669779,40.6755862 45.6073085,36.3101774 41.5078118,29.1927916 Z" id="path1804-1" fill="#8D44FF"></path>
            </g>
            <g id="Layer_1-9-3" transform="translate(248.668628, 275.413086) rotate(4.277382) translate(-248.668628, -275.413086) translate(178.466176, 240.107783)">
                <path d="M20.6305414,19.5277099 C24.9998278,4.14378135 44.9597725,-2.6276941 60.2773761,1.11772915 C60.2773761,1.11772915 60.2773761,1.11772915 60.2773761,1.11772915 C67.5684313,2.9005449 77.3631019,7.63288401 84.4282439,15.1480157 C92.2060226,23.421293 96.4938822,36.6448635 95.4383965,44.4657024 C91.9313351,70.4512215 20.6305414,19.5277099 20.6305414,19.5277099 Z" id="path1792-7" fill="#8D44FF"></path>
                <path d="M15.7316756,52.7148986 C15.7316756,52.7148986 27.4956882,70.0202111 51.9483858,70.4569357 C76.4010834,70.8936602 100.907249,49.7068052 100.907249,49.7068052 L15.7316756,52.7148986 Z" id="path1794-4" fill="#8D44FF"></path>
                <path d="M47.8129716,7.1198347 C47.8129716,7.1198347 47.8129716,7.1198347 47.8129716,7.1198347 C69.1800265,7.20166954 90.5446326,19.9642304 97.3854941,40.5649766 C97.8454835,41.9502505 98.3015953,42.4045257 99.2697361,42.5614608 C100.238081,42.718396 100.989288,42.5235025 102.345787,41.5618922 C106.206514,38.825017 110.748857,37.0215895 115.158551,35.3904028 C118.699081,34.1853288 122.343894,33.2618808 126.057073,32.7802594 C127.329901,32.6153652 128.615585,32.5725091 129.894943,32.4686339 C133.179357,32.5845496 138.576987,32.3741463 140.158175,36.1442629 C141.650997,42.5208495 129.899229,48.3366329 125.446271,50.2553639 C129.738416,52.1759315 141.864666,58.0327343 140.158175,64.3664648 C138.579232,68.9737048 127.386634,69.311248 115.158551,65.1203249 C109.823165,62.9867009 104.202275,60.8726684 99.8176826,57.0223496 C99.8176826,57.0223496 99.8176826,57.0223496 99.8176826,57.0223496 C99.8176826,57.0223496 99.8176826,57.0223496 99.8176826,57.0223496 C99.2097375,56.4774643 98.8454602,55.9168651 97.3810044,55.4699367 C95.9165487,55.0230083 93.9147584,55.3670819 93.6461932,55.4109584 C74.7272447,58.5008867 68.2347424,58.7068003 56.6825616,58.7712886 C31.9608906,58.9088364 14.5286423,55.6317696 8.6142898,54.9679075 C5.45191424,54.6128137 3.71624025,54.3769008 2.61728617,53.8583414 C1.5183321,53.339578 2.18280647,53.8101793 1.117321,52.8510179 C0.0518355312,51.8918565 3.82399285,52.4310276 4.05011005,51.3765623 C4.27622725,50.322097 2.52973719,48.39255 1.82812082,47.8454198 C1.12650446,47.2982896 0.42325548,46.4517787 0.165506362,45.9705654 C-0.0920386795,45.4895561 0.325910801,44.8456935 0.461621936,44.5612103 C6.2312839,32.4823071 12.1537995,20.3436093 23.9476073,13.0784719 C31.1958064,8.61347349 39.432758,7.28044322 47.8129716,7.1198347 Z" id="path1796-2" fill="#FF3976"></path>
                <path d="M28.1291429,18.5144681 C29.0562642,18.6603831 28.6793342,18.522019 29.2940138,18.8218079 C33.479835,21.4133804 36.9760803,26.3234705 38.5919612,31.9647681 C40.3972254,38.2678871 39.764587,44.9350792 36.3885429,50.8526969 C35.8246785,51.8412454 34.5661363,52.1855231 33.5773837,51.6216587 C32.5888352,51.0575901 32.2447616,49.7990479 32.8086261,48.8104994 C35.6148874,43.89143 36.139161,38.3691092 34.6298083,33.0996397 C33.2853497,28.4060752 30.4003146,24.3541285 27.1244723,22.3260123 C26.1569437,21.7270466 25.8581752,20.456872 26.4571409,19.4891394 C26.8887635,18.7995635 27.3909967,18.6881376 28.1291429,18.5144681 Z" id="path1798-1" fill="#8D44FF"></path>
                <path d="M20.2838148,45.3032339 C17.0630732,45.3032339 14.4519094,42.6920701 14.4519094,39.4713285 C14.4519094,36.2503829 17.0630732,33.6394231 20.2838148,33.6394231 C23.5047604,33.6394231 26.1157202,36.2503829 26.1157202,39.4713285 C26.1157202,42.6920701 23.5047604,45.3032339 20.2838148,45.3032339 Z" id="path1800-4" fill="#E6E6E6"></path>
                <path d="M20.2838148,43.0247154 C18.3212073,43.0247154 16.7304279,41.4337319 16.7304279,39.4713285 C16.7304279,37.508721 18.3212073,35.9179416 20.2838148,35.9179416 C22.2464223,35.9179416 23.8372017,37.508721 23.8372017,39.4713285 C23.8372017,41.4337319 22.2464223,43.0247154 20.2838148,43.0247154 Z" id="path1802-3" fill="#212121"></path>
                <path d="M41.5078118,29.1927916 C41.3500604,28.9191245 49.4319136,35.5761128 60.0961558,36.168548 C64.2752424,36.4007876 63.4185276,39.7766275 62.9320083,42.0506564 C62.4456931,44.3244811 59.8326925,47.2578824 55.3781021,47.1529869 C48.4521404,46.9901335 45.2467046,44.7716136 42.2669779,40.6755863 C42.2669779,40.6755863 45.6073085,36.3101774 41.5078118,29.1927916 Z" id="path1804-2" fill="#8D44FF"></path>
            </g>
            <g id="Layer_1-9-8" transform="translate(341.232325, 196.877269) rotate(-6.499299) translate(-341.232325, -196.877269) translate(271.029874, 161.571966)">
                <path d="M20.6305413,19.5277098 C24.9998276,4.14378132 44.9597722,-2.62769408 60.2773756,1.11772914 C60.2773756,1.11772914 60.2773756,1.11772914 60.2773756,1.11772914 C67.5684308,2.90054488 77.3631013,7.63288396 84.4282433,15.1480155 C92.2060219,23.4212928 96.4938815,36.6448632 95.4383958,44.465702 C91.9313344,70.451221 20.6305413,19.5277098 20.6305413,19.5277098 Z" id="path1792-1" fill="#8D44FF"></path>
                <path d="M15.7316755,52.7148982 C15.7316755,52.7148982 27.495688,70.0202106 51.9483854,70.4569351 C76.4010828,70.8936597 100.907248,49.7068048 100.907248,49.7068048 L15.7316755,52.7148982 Z" id="path1794-2" fill="#8D44FF"></path>
                <path d="M47.8129712,7.11983465 C47.8129712,7.11983465 47.8129712,7.11983465 47.8129712,7.11983465 C69.180026,7.20166948 90.5446319,19.9642302 97.3854934,40.5649763 C97.8454827,41.9502502 98.3015946,42.4045254 99.2697354,42.5614605 C100.23808,42.7183957 100.989287,42.5235022 102.345786,41.5618919 C106.206513,38.8250167 110.748857,37.0215892 115.15855,35.3904026 C118.69908,34.1853285 122.343893,33.2618806 126.057072,32.7802591 C127.3299,32.615365 128.615584,32.5725088 129.894942,32.4686337 C133.179356,32.5845494 138.576986,32.3741461 140.158174,36.1442626 C141.650996,42.5208492 129.899228,48.3366325 125.44627,50.2553635 C129.738416,52.1759311 141.864665,58.0327339 140.158174,64.3664643 C138.579231,68.9737043 127.386633,69.3112475 115.15855,65.1203244 C109.823164,62.9867005 104.202274,60.8726679 99.8176818,57.0223492 C99.8176818,57.0223492 99.8176818,57.0223492 99.8176818,57.0223492 C99.8176818,57.0223492 99.8176818,57.0223492 99.8176818,57.0223492 C99.2097368,56.4774639 98.8454595,55.9168646 97.3810037,55.4699363 C95.9165479,55.0230079 93.9147577,55.3670815 93.6461925,55.410958 C74.7272441,58.5008863 68.2347418,58.7067999 56.6825612,58.7712882 C31.9608904,58.908836 14.5286422,55.6317692 8.61428974,54.9679071 C5.4519142,54.6128133 3.71624022,54.3769004 2.61728615,53.858341 C1.51833209,53.3395776 2.18280645,53.8101789 1.11732099,52.8510175 C0.0518355309,51.8918561 3.82399282,52.4310272 4.05011002,51.3765619 C4.27622722,50.3220966 2.52973717,48.3925496 1.82812081,47.8454194 C1.12650445,47.2982893 0.423255476,46.4517783 0.16550636,45.970565 C-0.0920386788,45.4895558 0.325910798,44.8456932 0.461621932,44.56121 C6.23128386,32.4823069 12.1537994,20.3436092 23.9476071,13.0784718 C31.1958061,8.61347343 39.4327577,7.28044316 47.8129712,7.11983465 Z" id="path1796-8" fill="#FF3976"></path>
                <path d="M28.1291426,18.514468 C29.056264,18.660383 28.6793339,18.5220188 29.2940136,18.8218078 C33.4798347,21.4133802 36.97608,26.3234703 38.5919609,31.9647679 C40.3972251,38.2678868 39.7645867,44.9350789 36.3885427,50.8526965 C35.8246782,51.841245 34.566136,52.1855227 33.5773835,51.6216583 C32.588835,51.0575897 32.2447613,49.7990475 32.8086258,48.8104991 C35.6148872,43.8914296 36.1391607,38.3691089 34.629808,33.0996395 C33.2853494,28.406075 30.4003144,24.3541283 27.1244721,22.3260121 C26.1569435,21.7270464 25.858175,20.4568718 26.4571407,19.4891392 C26.8887633,18.7995634 27.3909965,18.6881374 28.1291426,18.514468 Z" id="path1798-4" fill="#8D44FF"></path>
                <path d="M20.2838146,45.3032336 C17.0630731,45.3032336 14.4519093,42.6920697 14.4519093,39.4713282 C14.4519093,36.2503826 17.0630731,33.6394228 20.2838146,33.6394228 C23.5047602,33.6394228 26.11572,36.2503826 26.11572,39.4713282 C26.11572,42.6920697 23.5047602,45.3032336 20.2838146,45.3032336 Z" id="path1800-1" fill="#E6E6E6"></path>
                <path d="M20.2838146,43.0247151 C18.3212072,43.0247151 16.7304278,41.4337316 16.7304278,39.4713282 C16.7304278,37.5087207 18.3212072,35.9179413 20.2838146,35.9179413 C22.2464221,35.9179413 23.8372015,37.5087207 23.8372015,39.4713282 C23.8372015,41.4337316 22.2464221,43.0247151 20.2838146,43.0247151 Z" id="path1802-6" fill="#212121"></path>
                <path d="M41.5078115,29.1927914 C41.3500601,28.9191243 49.4319132,35.5761126 60.0961553,36.1685478 C64.275242,36.4007873 63.4185272,39.7766272 62.9320079,42.0506561 C62.4456926,44.3244808 59.8326921,47.2578821 55.3781017,47.1529865 C48.4521401,46.9901332 45.2467043,44.7716133 42.2669776,40.675586 C42.2669776,40.675586 45.6073082,36.3101771 41.5078115,29.1927914 Z" id="path1804-5" fill="#8D44FF"></path>
            </g>
            <g id="Layer_1-9-7" transform="translate(345.440267, 81.878592) rotate(-8.255062) translate(-345.440267, -81.878592) translate(275.237817, 46.573290)">
                <path d="M20.630541,19.5277095 C24.9998272,4.14378126 44.9597716,-2.62769404 60.2773749,1.11772913 C60.2773749,1.11772913 60.2773749,1.11772913 60.2773749,1.11772913 C67.5684299,2.90054485 77.3631003,7.63288386 84.4282422,15.1480154 C92.2060207,23.4212925 96.4938802,36.6448628 95.4383946,44.4657015 C91.9313332,70.4512201 20.630541,19.5277095 20.630541,19.5277095 Z" id="path1792-0" fill="#8D44FF"></path>
                <path d="M15.7316753,52.7148975 C15.7316753,52.7148975 27.4956876,70.0202097 51.9483847,70.4569342 C76.4010818,70.8936588 100.907247,49.7068042 100.907247,49.7068042 L15.7316753,52.7148975 Z" id="path1794-9" fill="#8D44FF"></path>
                <path d="M47.8129706,7.11983456 C47.8129706,7.11983456 47.8129706,7.11983456 47.8129706,7.11983456 C69.1800251,7.20166939 90.5446307,19.96423 97.3854922,40.5649758 C97.8454815,41.9502497 98.3015933,42.4045249 99.2697341,42.56146 C100.238079,42.7183951 100.989286,42.5235017 102.345785,41.5618914 C106.206512,38.8250162 110.748855,37.0215887 115.158549,35.3904021 C118.699079,34.1853281 122.343892,33.2618802 126.057071,32.7802587 C127.329898,32.6153646 128.615583,32.5725084 129.894941,32.4686333 C133.179354,32.584549 138.576984,32.3741457 140.158172,36.1442622 C141.650994,42.5208487 129.899226,48.3366319 125.446269,50.2553628 C129.738414,52.1759305 141.864663,58.0327331 140.158172,64.3664635 C138.579229,68.9737034 127.386632,69.3112466 115.158549,65.1203235 C109.823162,62.9866997 104.202273,60.8726671 99.8176806,57.0223485 C99.8176806,57.0223485 99.8176806,57.0223485 99.8176806,57.0223485 C99.8176806,57.0223485 99.8176806,57.0223485 99.8176806,57.0223485 C99.2097355,56.4774632 98.8454582,55.9168639 97.3810025,55.4699355 C95.9165467,55.0230072 93.9147565,55.3670808 93.6461913,55.4109573 C74.7272432,58.5008855 68.234741,58.7067991 56.6825604,58.7712874 C31.96089,58.9088352 14.528642,55.6317685 8.61428963,54.9679064 C5.45191413,54.6128126 3.71624018,54.3768997 2.61728612,53.8583403 C1.51833207,53.3395769 2.18280642,53.8101782 1.11732098,52.8510168 C0.0518355302,51.8918554 3.82399278,52.4310266 4.05010997,51.3765613 C4.27622716,50.322096 2.52973714,48.392549 1.82812079,47.8454188 C1.12650444,47.2982887 0.423255471,46.4517778 0.165506358,45.9705644 C-0.0920386776,45.4895552 0.325910794,44.8456926 0.461621926,44.5612094 C6.23128378,32.4823064 12.1537992,20.3436089 23.9476068,13.0784716 C31.1958057,8.61347332 39.4327572,7.28044307 47.8129706,7.11983456 Z" id="path1796-9" fill="#FF3976"></path>
                <path d="M28.1291423,18.5144677 C29.0562636,18.6603827 28.6793336,18.5220186 29.2940132,18.8218075 C33.4798343,21.41338 36.9760796,26.32347 38.5919604,31.9647674 C40.3972246,38.2678863 39.7645862,44.9350783 36.3885422,50.8526959 C35.8246778,51.8412444 34.5661356,52.1855221 33.577383,51.6216576 C32.5888346,51.0575891 32.2447609,49.7990469 32.8086254,48.8104985 C35.6148867,43.8914291 36.1391602,38.3691084 34.6298076,33.099639 C33.285349,28.4060746 30.400314,24.354128 27.1244718,22.3260118 C26.1569432,21.7270462 25.8581746,20.4568716 26.4571403,19.489139 C26.8887629,18.7995632 27.3909962,18.6881372 28.1291423,18.5144677 Z" id="path1798-7" fill="#8D44FF"></path>
                <path d="M20.2838144,45.303233 C17.0630729,45.303233 14.4519091,42.6920692 14.4519091,39.4713277 C14.4519091,36.2503821 17.0630729,33.6394224 20.2838144,33.6394224 C23.5047599,33.6394224 26.1157197,36.2503821 26.1157197,39.4713277 C26.1157197,42.6920692 23.5047599,45.303233 20.2838144,45.303233 Z" id="path1800-46" fill="#E6E6E6"></path>
                <path d="M20.2838144,43.0247145 C18.3212069,43.0247145 16.7304276,41.4337311 16.7304276,39.4713277 C16.7304276,37.5087203 18.3212069,35.9179409 20.2838144,35.9179409 C22.2464218,35.9179409 23.8372012,37.5087203 23.8372012,39.4713277 C23.8372012,41.4337311 22.2464218,43.0247145 20.2838144,43.0247145 Z" id="path1802-0" fill="#212121"></path>
                <path d="M41.507811,29.192791 C41.3500596,28.9191239 49.4319126,35.5761121 60.0961546,36.1685473 C64.2752411,36.4007868 63.4185264,39.7766267 62.932007,42.0506555 C62.4456918,44.3244802 59.8326913,47.2578815 55.3781009,47.1529859 C48.4521394,46.9901326 45.2467037,44.7716127 42.266977,40.6755854 C42.266977,40.6755854 45.6073076,36.3101767 41.507811,29.192791 Z" id="path1804-4" fill="#8D44FF"></path>
            </g>
            <g id="Layer_1-9-6" transform="translate(376.289440, 359.558494) rotate(3.472498) translate(-376.289440, -359.558494) translate(306.086991, 324.253193)">
                <path d="M20.6305407,19.5277092 C24.9998269,4.14378121 44.959771,-2.62769401 60.2773741,1.11772911 C60.2773741,1.11772911 60.2773741,1.11772911 60.2773741,1.11772911 C67.568429,2.90054481 77.3630993,7.63288376 84.4282411,15.1480152 C92.2060195,23.4212922 96.493879,36.6448623 95.4383933,44.4657009 C91.931332,70.4512191 20.6305407,19.5277092 20.6305407,19.5277092 Z" id="path1792-5" fill="#8D44FF"></path>
                <path d="M15.7316751,52.7148968 C15.7316751,52.7148968 27.4956873,70.0202088 51.948384,70.4569333 C76.4010808,70.8936578 100.907246,49.7068035 100.907246,49.7068035 L15.7316751,52.7148968 Z" id="path1794-3" fill="#8D44FF"></path>
                <path d="M47.81297,7.11983446 C47.81297,7.11983446 47.81297,7.11983446 47.81297,7.11983446 C69.1800242,7.2016693 90.5446295,19.9642297 97.3854909,40.5649752 C97.8454802,41.9502491 98.301592,42.4045243 99.2697328,42.5614594 C100.238078,42.7183945 100.989285,42.5235011 102.345784,41.5618908 C106.20651,38.8250157 110.748854,37.0215882 115.158547,35.3904017 C118.699077,34.1853276 122.34389,33.2618797 126.057069,32.7802583 C127.329897,32.6153641 128.615581,32.572508 129.894939,32.4686329 C133.179353,32.5845485 138.576982,32.3741453 140.15817,36.1442617 C141.650992,42.5208481 129.899225,48.3366313 125.446267,50.2553622 C129.738412,52.1759298 141.864661,58.0327324 140.15817,64.3664627 C138.579227,68.9737025 127.38663,69.3112457 115.158547,65.1203227 C109.823161,62.9866988 104.202271,60.8726663 99.8176792,57.0223477 C99.8176792,57.0223477 99.8176792,57.0223477 99.8176792,57.0223477 C99.8176792,57.0223477 99.8176792,57.0223477 99.8176792,57.0223477 C99.2097342,56.4774624 98.8454569,55.9168632 97.3810012,55.4699348 C95.9165454,55.0230064 93.9147553,55.3670801 93.6461901,55.4109566 C74.7272422,58.5008847 68.2347401,58.7067983 56.6825597,58.7712866 C31.9608896,58.9088344 14.5286418,55.6317678 8.61428951,54.9679057 C5.45191406,54.6128119 3.71624013,54.376899 2.61728609,53.8583396 C1.51833205,53.3395762 2.18280639,53.8101775 1.11732096,52.8510161 C0.0518355295,51.8918547 3.82399272,52.4310259 4.05010992,51.3765606 C4.27622711,50.3220953 2.5297371,48.3925483 1.82812076,47.8454182 C1.12650442,47.2982881 0.423255465,46.4517771 0.165506356,45.9705638 C-0.0920386764,45.4895546 0.32591079,44.845692 0.46162192,44.5612088 C6.23128369,32.482306 12.1537991,20.3436086 23.9476065,13.0784714 C31.1958053,8.61347321 39.4327567,7.28044297 47.81297,7.11983446 Z" id="path1796-83" fill="#FF3976"></path>
                <path d="M28.1291419,18.5144675 C29.0562632,18.6603825 28.6793332,18.5220183 29.2940128,18.8218073 C33.4798338,21.4133797 36.9760791,26.3234696 38.5919599,31.964767 C40.397224,38.2678858 39.7645857,44.9350777 36.3885417,50.8526952 C35.8246773,51.8412437 34.5661351,52.1855214 33.5773826,51.6216569 C32.5888341,51.0575884 32.2447605,49.7990463 32.808625,48.8104978 C35.6148862,43.8914285 36.1391598,38.3691079 34.6298071,33.0996386 C33.2853486,28.4060743 30.4003136,24.3541276 27.1244714,22.3260115 C26.1569429,21.7270459 25.8581743,20.4568713 26.45714,19.4891387 C26.8887626,18.7995629 27.3909958,18.6881369 28.1291419,18.5144675 Z" id="path1798-2" fill="#8D44FF"></path>
                <path d="M20.2838141,45.3032324 C17.0630727,45.3032324 14.4519089,42.6920686 14.4519089,39.4713272 C14.4519089,36.2503817 17.0630727,33.639422 20.2838141,33.639422 C23.5047596,33.639422 26.1157193,36.2503817 26.1157193,39.4713272 C26.1157193,42.6920686 23.5047596,45.3032324 20.2838141,45.3032324 Z" id="path1800-2" fill="#E6E6E6"></path>
                <path d="M20.2838141,43.024714 C18.3212067,43.024714 16.7304273,41.4337305 16.7304273,39.4713272 C16.7304273,37.5087198 18.3212067,35.9179404 20.2838141,35.9179404 C22.2464215,35.9179404 23.8372009,37.5087198 23.8372009,39.4713272 C23.8372009,41.4337305 22.2464215,43.024714 20.2838141,43.024714 Z" id="path1802-8" fill="#212121"></path>
                <path d="M41.5078105,29.1927907 C41.350059,28.9191235 49.4319119,35.5761116 60.0961538,36.1685468 C64.2752403,36.4007863 63.4185255,39.7766262 62.9320062,42.050655 C62.445691,44.3244797 59.8326905,47.2578808 55.3781002,47.1529853 C48.4521388,46.990132 45.2467031,44.7716121 42.2669765,40.6755849 C42.2669765,40.6755849 45.607307,36.3101762 41.5078105,29.1927907 Z" id="path1804-9" fill="#8D44FF"></path>
            </g>
            <g id="Layer_1-9-0" transform="translate(439.307636, 278.217951) rotate(-5.457597) translate(-439.307636, -278.217951) translate(369.105186, 242.912649)">
                <path d="M20.6305409,19.5277094 C24.9998271,4.14378124 44.9597713,-2.62769403 60.2773745,1.11772912 C60.2773745,1.11772912 60.2773745,1.11772912 60.2773745,1.11772912 C67.5684295,2.90054483 77.3630998,7.63288381 84.4282417,15.1480153 C92.2060201,23.4212924 96.4938796,36.6448625 95.438394,44.4657012 C91.9313326,70.4512196 20.6305409,19.5277094 20.6305409,19.5277094 Z" id="path1792-77" fill="#8D44FF"></path>
                <path d="M15.7316752,52.7148972 C15.7316752,52.7148972 27.4956874,70.0202092 51.9483844,70.4569338 C76.4010813,70.8936583 100.907246,49.7068038 100.907246,49.7068038 L15.7316752,52.7148972 Z" id="path1794-7" fill="#8D44FF"></path>
                <path d="M47.8129703,7.11983451 C47.8129703,7.11983451 47.8129703,7.11983451 47.8129703,7.11983451 C69.1800247,7.20166935 90.5446302,19.9642298 97.3854916,40.5649755 C97.8454809,41.9502494 98.3015927,42.4045246 99.2697335,42.5614597 C100.238078,42.7183948 100.989285,42.5235014 102.345784,41.5618911 C106.206511,38.825016 110.748854,37.0215885 115.158548,35.3904019 C118.699078,34.1853279 122.343891,33.26188 126.05707,32.7802585 C127.329898,32.6153644 128.615582,32.5725082 129.89494,32.4686331 C133.179353,32.5845488 138.576983,32.3741455 140.158171,36.1442619 C141.650993,42.5208484 129.899226,48.3366316 125.446268,50.2553625 C129.738413,52.1759301 141.864662,58.0327328 140.158171,64.3664631 C138.579228,68.973703 127.386631,69.3112461 115.158548,65.1203231 C109.823162,62.9866993 104.202272,60.8726668 99.8176799,57.0223481 C99.8176799,57.0223481 99.8176799,57.0223481 99.8176799,57.0223481 C99.8176799,57.0223481 99.8176799,57.0223481 99.8176799,57.0223481 C99.2097349,56.4774628 98.8454576,55.9168636 97.3810019,55.4699352 C95.9165461,55.0230068 93.9147559,55.3670804 93.6461907,55.410957 C74.7272427,58.5008852 68.2347405,58.7067987 56.6825601,58.771287 C31.9608898,58.9088349 14.5286419,55.6317682 8.61428957,54.967906 C5.4519141,54.6128123 3.71624015,54.3768994 2.6172861,53.85834 C1.51833206,53.3395766 2.18280641,53.8101779 1.11732097,52.8510165 C0.0518355299,51.8918551 3.82399275,52.4310262 4.05010994,51.376561 C4.27622714,50.3220957 2.52973712,48.3925487 1.82812077,47.8454185 C1.12650443,47.2982884 0.423255468,46.4517775 0.165506357,45.9705642 C-0.0920386771,45.4895549 0.325910792,44.8456923 0.461621924,44.5612092 C6.23128374,32.4823062 12.1537991,20.3436088 23.9476066,13.0784715 C31.1958055,8.61347327 39.4327569,7.28044302 47.8129703,7.11983451 Z" id="path1796-7" fill="#FF3976"></path>
                <path d="M28.1291421,18.5144676 C29.0562634,18.6603826 28.6793334,18.5220185 29.294013,18.8218074 C33.4798341,21.4133798 36.9760793,26.3234698 38.5919601,31.9647672 C40.3972243,38.267886 39.764586,44.935078 36.388542,50.8526956 C35.8246775,51.841244 34.5661354,52.1855217 33.5773828,51.6216573 C32.5888344,51.0575888 32.2447607,49.7990466 32.8086252,48.8104981 C35.6148865,43.8914288 36.13916,38.3691082 34.6298073,33.0996388 C33.2853488,28.4060744 30.4003138,24.3541278 27.1244716,22.3260117 C26.1569431,21.727046 25.8581745,20.4568715 26.4571402,19.4891388 C26.8887628,18.799563 27.390996,18.6881371 28.1291421,18.5144676 Z" id="path1798-72" fill="#8D44FF"></path>
                <path d="M20.2838143,45.3032327 C17.0630728,45.3032327 14.451909,42.6920689 14.451909,39.4713275 C14.451909,36.2503819 17.0630728,33.6394222 20.2838143,33.6394222 C23.5047598,33.6394222 26.1157195,36.2503819 26.1157195,39.4713275 C26.1157195,42.6920689 23.5047598,45.3032327 20.2838143,45.3032327 Z" id="path1800-5" fill="#E6E6E6"></path>
                <path d="M20.2838143,43.0247143 C18.3212068,43.0247143 16.7304275,41.4337308 16.7304275,39.4713275 C16.7304275,37.50872 18.3212068,35.9179407 20.2838143,35.9179407 C22.2464217,35.9179407 23.8372011,37.50872 23.8372011,39.4713275 C23.8372011,41.4337308 22.2464217,43.0247143 20.2838143,43.0247143 Z" id="path1802-05" fill="#212121"></path>
                <path d="M41.5078107,29.1927909 C41.3500593,28.9191237 49.4319123,35.5761119 60.0961542,36.1685471 C64.2752407,36.4007866 63.418526,39.7766265 62.9320067,42.0506553 C62.4456914,44.32448 59.8326909,47.2578812 55.3781006,47.1529857 C48.4521391,46.9901323 45.2467034,44.7716124 42.2669768,40.6755852 C42.2669768,40.6755852 45.6073073,36.3101764 41.5078107,29.1927909 Z" id="path1804-0" fill="#8D44FF"></path>
            </g>
            <path d="M12.0113,210.8818 C12.0113089,214.168435 9.35082704,216.834822 6.0642,216.8421 C2.77758921,216.849357 0.10534861,214.194787 0.0908,210.9082 C0.0762796587,207.621607 2.72494717,204.943503 6.0115,204.9217 C9.29808185,204.8999 11.9820579,207.542674 12.0111,210.8292" id="path1959" fill-opacity="0.33177568" fill="#FFFFFF"></path>
            <path d="M27.4378,186.3394 C27.4377537,189.625996 24.777288,192.292322 21.4907,192.2996 C18.2040892,192.306857 15.5318486,189.652287 15.5173,186.3657 C15.5027799,183.079068 18.151508,180.400948 21.4381,180.3792 C24.7246429,180.357455 27.4085579,183.000213 27.4376,186.2867" id="path1959-1" fill-opacity="0.33177568" fill="#FFFFFF"></path>
            <path d="M19.7246,162.8481 C19.7246088,166.134774 17.0640661,168.801177 13.7774,168.8084 C10.4907892,168.815657 7.81854861,166.161087 7.804,162.8745 C7.78947985,159.587868 10.438208,156.909748 13.7248,156.888 C17.0113429,156.866255 19.6952579,159.509013 19.7243,162.7955" id="path1959-0" fill-opacity="0.33177568" fill="#FFFFFF"></path>
            <path d="M94.0529,152.3301 C94.0529089,155.616735 91.392427,158.283122 88.1058,158.2904 C84.8191503,158.297656 82.1468936,155.643026 82.1324,152.3564 C82.1178799,149.069768 84.766608,146.391648 88.0532,146.3699 C91.3397429,146.348155 94.0236579,148.990913 94.0527,152.2774" id="path1959-7" fill-opacity="0.33177568" fill="#FFFFFF"></path>
            <path d="M111.9339,115.166 C111.933909,118.452635 109.273427,121.119022 105.9868,121.1263 C102.70015,121.133556 100.027894,118.478926 100.0134,115.1923 C99.9988799,111.905668 102.647608,109.227548 105.9342,109.2058 C109.220782,109.184056 111.904713,111.826874 111.9337,115.1134" id="path1959-6" fill-opacity="0.33177568" fill="#FFFFFF"></path>
            <path d="M271.8102,186.3389 C271.810209,189.625574 269.149666,192.291977 265.863,192.2992 C262.57635,192.306456 259.904094,189.651826 259.8896,186.3652 C259.87508,183.078568 262.523808,180.400448 265.8104,180.3787 C269.096943,180.356955 271.780858,182.999713 271.8099,186.2862" id="path1959-73" fill-opacity="0.33177568" fill="#FFFFFF"></path>
            <path d="M256.0329,151.6289 C256.032909,154.915535 253.372427,157.581922 250.0858,157.5892 C246.79915,157.596456 244.126894,154.941826 244.1124,151.6552 C244.09788,148.368568 246.746608,145.690448 250.0332,145.6687 C253.319782,145.646956 256.003713,148.289774 256.0327,151.5763" id="path1959-02" fill-opacity="0.33177568" fill="#FFFFFF"></path>
            <path d="M263.7462,134.0986 C263.746209,137.385274 261.085666,140.051677 257.799,140.0589 C254.512389,140.066157 251.840149,137.411587 251.8256,134.125 C251.81108,130.838368 254.459808,128.160248 257.7464,128.1385 C261.032982,128.1167 263.716958,130.759474 263.746,134.046" id="path1959-2" fill-opacity="0.33177568" fill="#FFFFFF"></path>
            <path d="M277.0692,71.6909 C277.069209,74.977574 274.408666,77.6439771 271.122,77.6512 C267.83535,77.6584565 265.163094,75.0038257 265.1486,71.7172 C265.134135,68.4306071 267.782847,65.7525484 271.0694,65.7308 C274.355982,65.7089999 277.039958,68.3517742 277.069,71.6383" id="path1959-25" fill-opacity="0.33177568" fill="#FFFFFF"></path>
            <path d="M285.4837,25.0603 C285.483709,28.3469351 282.823227,31.0133221 279.5366,31.0206 C276.24995,31.0278565 273.577694,28.3732257 273.5632,25.0866 C273.54868,21.7999681 276.197408,19.1218484 279.484,19.1001 C282.770582,19.0783555 285.454513,21.7211743 285.4835,25.0077" id="path1959-3" fill-opacity="0.33177568" fill="#FFFFFF"></path>
            <path d="M266.5465,6.6748 C266.546509,9.96147405 263.885966,12.6278771 260.5993,12.6351 C257.31265,12.6423565 254.640394,9.9877257 254.6259,6.7011 C254.61138,3.41446815 257.260108,0.736348428 260.5467,0.7146 C263.833282,0.692855507 266.517213,3.33567428 266.5462,6.6222" id="path1959-28" fill-opacity="0.33177568" fill="#FFFFFF"></path>
            <path d="M172.5887,277.8467 C172.588709,281.133335 169.928227,283.799722 166.6416,283.807 C163.35495,283.814256 160.682694,281.159626 160.6682,277.873 C160.65368,274.586407 163.302347,271.908303 166.5889,271.8865 C169.875482,271.8647 172.559458,274.507474 172.5885,277.794" id="path1959-8" fill-opacity="0.33177568" fill="#FFFFFF"></path>
            <path d="M196.0793,246.2925 C196.079309,249.579135 193.418827,252.245522 190.1322,252.2528 C186.84555,252.260056 184.173294,249.605426 184.1588,246.3188 C184.14428,243.032207 186.792947,240.354103 190.0795,240.3323 C193.366082,240.3105 196.050058,242.953274 196.0791,246.2398" id="path1959-14" fill-opacity="0.33177568" fill="#FFFFFF"></path>
            <path d="M181.7044,223.1523 C181.704409,226.438935 179.043927,229.105322 175.7573,229.1126 C172.470689,229.119857 169.798449,226.465287 169.7839,223.1787 C169.76938,219.892068 172.418108,217.213948 175.7047,217.1922 C178.991243,217.170455 181.675158,219.813213 181.7042,223.0997" id="path1959-22" fill-opacity="0.33177568" fill="#FFFFFF"></path>
            <path d="M307.2213,334.9956 C307.221309,338.282274 304.560766,340.948677 301.2741,340.9559 C297.98745,340.963156 295.315194,338.308526 295.3007,335.0219 C295.28618,331.735268 297.934908,329.057148 301.2215,329.0354 C304.508121,329.0136 307.192113,331.656435 307.2211,334.943" id="path1959-5" fill-opacity="0.33177568" fill="#FFFFFF"></path>
            <path d="M336.6722,309.752 C336.672154,313.038596 334.011688,315.704922 330.7251,315.7122 C327.438489,315.719457 324.766249,313.064887 324.7517,309.7783 C324.73718,306.491707 327.385847,303.813603 330.6724,303.7918 C333.958982,303.77 336.642958,306.412774 336.672,309.6993" id="path1959-83" fill-opacity="0.33177568" fill="#FFFFFF"></path>
            <path d="M354.9037,261.3687 C354.903654,264.655335 352.243127,267.321677 348.9565,267.3289 C345.669889,267.336157 342.997649,264.681587 342.9831,261.395 C342.96858,258.108368 345.617308,255.430248 348.9039,255.4085 C352.190443,255.386755 354.874358,258.029513 354.9034,261.316" id="path1959-4" fill-opacity="0.33177568" fill="#FFFFFF"></path>
            <path d="M380.8485,230.5151 C380.848509,233.801774 378.187966,236.468177 374.9013,236.4754 C371.614689,236.482657 368.942449,233.828087 368.9279,230.5415 C368.91338,227.254868 371.562108,224.576748 374.8487,224.555 C378.135243,224.533255 380.819158,227.176013 380.8482,230.4625" id="path1959-72" fill-opacity="0.33177568" fill="#FFFFFF"></path>
            <path d="M382.9521,182.833 C382.952109,186.119635 380.291627,188.786022 377.005,188.7933 C373.71835,188.800556 371.046094,186.145926 371.0316,182.8593 C371.01708,179.572707 373.665747,176.894603 376.9523,176.8728 C380.238921,176.851 382.922913,179.493835 382.9519,182.7804" id="path1959-9" fill-opacity="0.33177568" fill="#FFFFFF"></path>
        </g>
    </g>
</svg>