<?xml version="1.0" encoding="UTF-8" standalone="no"?>
<!-- Created with Inkscape (http://www.inkscape.org/) -->

<svg
   xmlns:dc="http://purl.org/dc/elements/1.1/"
   xmlns:cc="http://creativecommons.org/ns#"
   xmlns:rdf="http://www.w3.org/1999/02/22-rdf-syntax-ns#"
   xmlns:svg="http://www.w3.org/2000/svg"
   xmlns="http://www.w3.org/2000/svg"
   xmlns:sodipodi="http://sodipodi.sourceforge.net/DTD/sodipodi-0.dtd"
   xmlns:inkscape="http://www.inkscape.org/namespaces/inkscape"
   width="145mm"
   height="230mm"
   viewBox="0 0 145 230"
   version="1.1"
   id="svg8"
   inkscape:version="0.92.2 (5c3e80d, 2017-08-06)"
   sodipodi:docname="manta ray and bubbles.svg">
  <defs
     id="defs2" />
  <sodipodi:namedview
     id="base"
     pagecolor="#ffffff"
     bordercolor="#666666"
     borderopacity="1.0"
     inkscape:pageopacity="0.0"
     inkscape:pageshadow="2"
     inkscape:zoom="0.7"
     inkscape:cx="431.77597"
     inkscape:cy="523.18527"
     inkscape:document-units="mm"
     inkscape:current-layer="layer1"
     showgrid="false"
     inkscape:window-width="958"
     inkscape:window-height="1048"
     inkscape:window-x="-7"
     inkscape:window-y="0"
     inkscape:window-maximized="0" />
  <metadata
     id="metadata5">
    <rdf:RDF>
      <cc:Work
         rdf:about="">
        <dc:format>image/svg+xml</dc:format>
        <dc:type
           rdf:resource="http://purl.org/dc/dcmitype/StillImage" />
        <dc:title></dc:title>
      </cc:Work>
    </rdf:RDF>
  </metadata>
  <g
     inkscape:label="Layer 1"
     inkscape:groupmode="layer"
     id="layer1"
     transform="translate(0,-67)">
    <g
       transform="matrix(0.26458333,0,0,0.26458333,20.439713,-2153.3171)"
       style="display:inline"
       id="g5207"
       inkscape:export-xdpi="224.64999"
       inkscape:export-ydpi="224.64999">
      <g
         id="g5378">
        <path
           style="opacity:1;fill:#ffffff;fill-opacity:0.33177568;fill-rule:nonzero;stroke:none;stroke-width:9.53880692;stroke-linecap:round;stroke-linejoin:round;stroke-miterlimit:4;stroke-dasharray:none;stroke-dashoffset:0;stroke-opacity:0.62616817;paint-order:markers stroke fill"
           id="path2187-81-5-84-39"
           sodipodi:type="arc"
           sodipodi:cx="288.47449"
           sodipodi:cy="8624.75"
           sodipodi:rx="9.9166288"
           sodipodi:ry="9.9166288"
           sodipodi:start="0"
           sodipodi:end="6.2743539"
           sodipodi:open="true"
           d="m 298.39112,8624.75 a 9.9166288,9.9166288 0 0 1 -9.89474,9.9166 9.9166288,9.9166288 0 0 1 -9.93842,-9.8728 9.9166288,9.9166288 0 0 1 9.85084,-9.9602 9.9166288,9.9166288 0 0 1 9.98193,9.8288" />
        <path
           style="opacity:1;fill:#ffffff;fill-opacity:0.33177568;fill-rule:nonzero;stroke:none;stroke-width:9.53880692;stroke-linecap:round;stroke-linejoin:round;stroke-miterlimit:4;stroke-dasharray:none;stroke-dashoffset:0;stroke-opacity:0.62616817;paint-order:markers stroke fill"
           id="path2187-81-5-84-39-4"
           sodipodi:type="arc"
           sodipodi:cx="268.74066"
           sodipodi:cy="8523.4824"
           sodipodi:rx="9.9166288"
           sodipodi:ry="9.9166288"
           sodipodi:start="0"
           sodipodi:end="6.2743539"
           sodipodi:open="true"
           d="m 278.65729,8523.4824 a 9.9166288,9.9166288 0 0 1 -9.89473,9.9166 9.9166288,9.9166288 0 0 1 -9.93843,-9.8728 9.9166288,9.9166288 0 0 1 9.85085,-9.9602 9.9166288,9.9166288 0 0 1 9.98192,9.8288" />
        <path
           style="opacity:1;fill:#ffffff;fill-opacity:0.33177568;fill-rule:nonzero;stroke:none;stroke-width:9.53880692;stroke-linecap:round;stroke-linejoin:round;stroke-miterlimit:4;stroke-dasharray:none;stroke-dashoffset:0;stroke-opacity:0.62616817;paint-order:markers stroke fill"
           id="path2187-81-5-84-39-9"
           sodipodi:type="arc"
           sodipodi:cx="314.35715"
           sodipodi:cy="8408.4502"
           sodipodi:rx="9.9166288"
           sodipodi:ry="9.9166288"
           sodipodi:start="0"
           sodipodi:end="6.2743539"
           sodipodi:open="true"
           d="m 324.27378,8408.4502 a 9.9166288,9.9166288 0 0 1 -9.89474,9.9166 9.9166288,9.9166288 0 0 1 -9.93842,-9.8728 9.9166288,9.9166288 0 0 1 9.85084,-9.9602 9.9166288,9.9166288 0 0 1 9.98193,9.8288" />
        <g
           transform="matrix(1.9076038,0.91818852,-0.91818852,1.9076038,-333.12751,7524.5791)"
           id="g3353">
          <g
             id="g3169"
             transform="translate(202.6728,-21.775861)">
            <g
               id="g3167">
              <g
                 id="g3165"
                 style="fill:#545285;fill-opacity:1"
                 transform="translate(26.979879,0.87555603)">
                <path
                   style="fill:#545285;fill-opacity:1"
                   d="m 261.54859,568.47135 v 67.3223 h 0.002 c 7e-5,19.3127 15.75173,35.0644 35.06445,35.0645 19.30273,0 35.04887,-15.7368 35.0625,-35.0391 v -29.0195 l 11.79102,4.2636 c -6.513,-7.469 -12.66163,-19.5184 -16.26563,-29.2304 -3.601,9.712 -9.74871,21.7614 -16.26171,29.2304 l 11.7871,-4.2636 v 29.0195 c -0.0144,14.4643 -11.64837,26.0898 -26.11328,26.0898 -14.47586,0 -26.11518,-11.6393 -26.11523,-26.1152 v -67.3223 z"
                   id="path3163"
                   inkscape:connector-curvature="0" />
              </g>
            </g>
          </g>
          <g
             id="Layer_2"
             transform="translate(202.6728,-21.775861)"
             style="stroke:none">
            <path
               id="path3178"
               d="M 431.001,491.1 C 447.668,465.601 370.688,396 293,396 c -77.688,0 -158.666,62.988 -131.333,95.1 23.261,27.327 91.302,95.1 131.333,95.1 37.334,-0.001 116.099,-61.592 138.001,-95.1 z"
               stroke-miterlimit="10"
               inkscape:connector-curvature="0"
               style="fill:#545285;stroke:none;stroke-width:0.25;stroke-miterlimit:10" />
          </g>
          <path
             style="fill:#545285"
             d="m 444.77467,345.05046 c -1.6015,0.1362 -3.95975,2.383 -7.58594,7.6641 -12.66085,18.4395 -5.49439,30.2704 -0.25,35.6113 a 58.84774,10.110321 0 0 0 -0.0137,0.0547 58.84774,10.110321 0 0 0 58.97851,10.0645 58.84774,10.110321 0 0 0 58.7168,-10.1094 v -0.0176 c 5.22953,-5.4105 12.14969,-17.1972 -0.39453,-35.4668 -16.06106,-23.3921 -7.25317,12.7333 -18.02734,28.1523 a 58.84774,10.110321 0 0 0 -40.81446,-2.7793 58.84774,10.110321 0 0 0 -40.07812,2.7793 c -8.45939,-11.8907 -5.01881,-36.4218 -10.53125,-35.9531 z"
             id="path3181"
             inkscape:connector-curvature="0" />
          <path
             style="fill:#ffffff;stroke:#000000;stroke-miterlimit:10"
             inkscape:connector-curvature="0"
             stroke-miterlimit="10"
             d="M 496.2768,385.32814"
             id="path3183" />
          <path
             style="fill:#ffffff;stroke:#000000;stroke-miterlimit:10"
             inkscape:connector-curvature="0"
             stroke-miterlimit="10"
             d="M 496.2768,385.19214"
             id="path3187" />
          <path
             style="fill:#ffffff;stroke:#000000;stroke-miterlimit:10"
             inkscape:connector-curvature="0"
             stroke-miterlimit="10"
             d="M 496.2768,554.56014"
             id="path3189" />
          <g
             id="g3195"
             transform="translate(202.6728,-21.775861)"
             style="fill:#020202;fill-opacity:1;stroke:none">
            <path
               style="fill:#020202;fill-opacity:1;stroke:none;stroke-miterlimit:10"
               inkscape:connector-curvature="0"
               stroke-miterlimit="10"
               d="m 231.075,489.777 c -1.482,-8.597 49.104,-15.82 42.985,-10.667"
               id="path3191" />
            <path
               style="fill:#020202;fill-opacity:1;stroke:none;stroke-miterlimit:10"
               inkscape:connector-curvature="0"
               stroke-miterlimit="10"
               d="m 231.075,462.347 c -1.482,-8.597 49.104,-15.82 42.985,-10.667"
               id="path3193" />
          </g>
          <g
             id="g3201"
             transform="translate(202.6728,-21.775861)"
             style="fill:#020202;fill-opacity:1;stroke:none">
            <path
               style="fill:#020202;fill-opacity:1;stroke:none;stroke-miterlimit:10"
               inkscape:connector-curvature="0"
               stroke-miterlimit="10"
               d="m 356.132,489.777 c 1.481,-8.597 -49.104,-15.82 -42.985,-10.667"
               id="path3197" />
            <path
               style="fill:#020202;fill-opacity:1;stroke:none;stroke-miterlimit:10"
               inkscape:connector-curvature="0"
               stroke-miterlimit="10"
               d="m 356.132,462.347 c 1.481,-8.597 -49.104,-15.82 -42.985,-10.667"
               id="path3199" />
          </g>
          <ellipse
             style="fill:#020202;fill-opacity:1;stroke:none;stroke-miterlimit:10"
             stroke-miterlimit="10"
             cx="455.4808"
             cy="394.56015"
             rx="3.4289999"
             ry="4"
             id="ellipse3203" />
          <ellipse
             style="fill:#020202;fill-opacity:1;stroke:none;stroke-miterlimit:10"
             stroke-miterlimit="10"
             cx="537.0708"
             cy="394.56015"
             rx="3.4289999"
             ry="4"
             id="ellipse3205" />
        </g>
      </g>
    </g>
  </g>
</svg>
