<?xml version="1.0" encoding="UTF-8"?>
<svg width="505px" height="145px" viewBox="0 0 505 145" version="1.1" xmlns="http://www.w3.org/2000/svg" xmlns:xlink="http://www.w3.org/1999/xlink">
    <!-- Generator: Sketch 53 (72520) - https://sketchapp.com -->
    <title>Artboard</title>
    <desc>Created with Sketch.</desc>
    <g id="Artboard" stroke="none" stroke-width="1" fill="none" fill-rule="evenodd">
        <g id="transition_to_section_2" transform="translate(-4.000000, 0.000000)" fill-rule="nonzero">
            <path d="M505.88257,14.72924 C465.7982,12.5332 417.24715,-5.37909 375.86632,2.53195 C340.96778,9.19945 318.7957,24.01611 277.75882,21.97882 C241.29923,20.1532 210.02548,8.4057 171.55507,12.18924 C147.79549,14.54403 125.70278,23.3282 101.75799,26.45028 C70.351952,30.52486 36.405912,24.9157 4.6029919,27.90549 C3.3065319,28.03778 2.0365319,28.17007 0.7929919,28.30236 L0.7929919,91.43195 L508.79299,75.10715 L508.79299,14.86153 C507.81403,14.80863 506.86153,14.78213 505.88257,14.72924 L505.88257,14.72924 Z" id="path5954" fill="#90CBF7"></path>
            <path d="M457.33153,61.26945 C430.47632,59.12632 402.1659,65.07945 375.60174,61.87799 C355.33465,59.44382 336.41695,51.61215 316.33507,49.89236 C283.81778,47.08778 258.0209,58.80882 227.43507,61.26945 C193.03923,64.02111 173.77757,50.55382 144.1707,44.97111 C109.03403,38.35653 68.976112,56.2159 35.347572,59.09986 C24.235072,60.05236 12.117162,59.78778 0.7929919,58.2532 L0.7929919,121.77965 L508.79299,121.99132 L508.79299,71.95861 C491.54215,68.01632 476.83132,62.83049 457.33153,61.26945 L457.33153,61.26945 Z" id="path5956" fill="#81B7E9"></path>
            <path d="M425.55507,88.04528 C383.48632,92.5432 354.6732,104.81986 307.15403,101.3009 C264.90007,98.17882 230.68944,86.40486 184.9959,88.20403 C156.76486,89.31528 129.27465,96.24736 100.6732,98.02007 C67.785492,100.05736 34.051112,95.4007 0.7665319,95.13611 L0.7665319,149.74611 L508.76653,147.92049 L508.76653,94.05132 C481.17049,89.18299 452.86007,85.13486 425.55507,88.04528 L425.55507,88.04528 Z" id="path5958" fill="#6C9DD6"></path>
        </g>
    </g>
</svg>