<?xml version="1.0" encoding="UTF-8" standalone="no"?>
<!-- Created with Inkscape (http://www.inkscape.org/) -->

<svg
   xmlns:dc="http://purl.org/dc/elements/1.1/"
   xmlns:cc="http://creativecommons.org/ns#"
   xmlns:rdf="http://www.w3.org/1999/02/22-rdf-syntax-ns#"
   xmlns:svg="http://www.w3.org/2000/svg"
   xmlns="http://www.w3.org/2000/svg"
   xmlns:sodipodi="http://sodipodi.sourceforge.net/DTD/sodipodi-0.dtd"
   xmlns:inkscape="http://www.inkscape.org/namespaces/inkscape"
   width="171mm"
   height="125mm"
   viewBox="0 0 171 125"
   version="1.1"
   id="svg8"
   inkscape:version="0.92.2 (5c3e80d, 2017-08-06)"
   sodipodi:docname="bluefish and bubbles.svg">
  <defs
     id="defs2" />
  <sodipodi:namedview
     id="base"
     pagecolor="#ffffff"
     bordercolor="#666666"
     borderopacity="1.0"
     inkscape:pageopacity="0.0"
     inkscape:pageshadow="2"
     inkscape:zoom="0.7"
     inkscape:cx="431.77597"
     inkscape:cy="637.47098"
     inkscape:document-units="mm"
     inkscape:current-layer="layer1"
     showgrid="false"
     inkscape:window-width="958"
     inkscape:window-height="1048"
     inkscape:window-x="-7"
     inkscape:window-y="0"
     inkscape:window-maximized="0" />
  <metadata
     id="metadata5">
    <rdf:RDF>
      <cc:Work
         rdf:about="">
        <dc:format>image/svg+xml</dc:format>
        <dc:type
           rdf:resource="http://purl.org/dc/dcmitype/StillImage" />
        <dc:title></dc:title>
      </cc:Work>
    </rdf:RDF>
  </metadata>
  <g
     inkscape:label="Layer 1"
     inkscape:groupmode="layer"
     id="layer1"
     transform="translate(0,-172)">
    <g
       style="display:inline"
       id="g4858"
       transform="matrix(0.26458333,0,0,0.26458333,1.2901495,-1146.8063)"
       inkscape:export-xdpi="224.64999"
       inkscape:export-ydpi="224.64999">
      <g
         id="g4875">
        <g
           id="g2715"
           transform="matrix(0.75675679,0,0,0.75675679,516.11195,1138.7157)">
          <path
             d="m 127.92451,5355.1196 a 20.824921,20.824921 0 0 1 -20.77895,20.8249 20.824921,20.824921 0 0 1 -20.870691,-20.7329 20.824921,20.824921 0 0 1 20.686781,-20.9164 20.824921,20.824921 0 0 1 20.96205,20.6405"
             sodipodi:open="true"
             sodipodi:end="6.2743539"
             sodipodi:start="0"
             sodipodi:ry="20.824921"
             sodipodi:rx="20.824921"
             sodipodi:cy="5355.1196"
             sodipodi:cx="107.09959"
             sodipodi:type="arc"
             id="path2187-3"
             style="opacity:1;fill:#ffffff;fill-opacity:0.33177568;fill-rule:nonzero;stroke:none;stroke-width:20.03149605;stroke-linecap:round;stroke-linejoin:round;stroke-miterlimit:4;stroke-dasharray:none;stroke-dashoffset:0;stroke-opacity:0.62616817;paint-order:markers stroke fill" />
          <path
             d="m 159.65773,5236.1196 a 20.824921,20.824921 0 0 1 -20.77894,20.8249 20.824921,20.824921 0 0 1 -20.8707,-20.7329 20.824921,20.824921 0 0 1 20.68679,-20.9164 20.824921,20.824921 0 0 1 20.96204,20.6405"
             sodipodi:open="true"
             sodipodi:end="6.2743539"
             sodipodi:start="0"
             sodipodi:ry="20.824921"
             sodipodi:rx="20.824921"
             sodipodi:cy="5236.1196"
             sodipodi:cx="138.83281"
             sodipodi:type="arc"
             id="path2187-9"
             style="opacity:1;fill:#ffffff;fill-opacity:0.33177568;fill-rule:nonzero;stroke:none;stroke-width:20.03149605;stroke-linecap:round;stroke-linejoin:round;stroke-miterlimit:4;stroke-dasharray:none;stroke-dashoffset:0;stroke-opacity:0.62616817;paint-order:markers stroke fill" />
          <path
             d="m 133.87449,5109.187 a 20.824921,20.824921 0 0 1 -20.77894,20.8249 20.824921,20.824921 0 0 1 -20.870699,-20.7329 20.824921,20.824921 0 0 1 20.686779,-20.9165 20.824921,20.824921 0 0 1 20.96205,20.6406"
             sodipodi:open="true"
             sodipodi:end="6.2743539"
             sodipodi:start="0"
             sodipodi:ry="20.824921"
             sodipodi:rx="20.824921"
             sodipodi:cy="5109.187"
             sodipodi:cx="113.04957"
             sodipodi:type="arc"
             id="path2187-7"
             style="opacity:1;fill:#ffffff;fill-opacity:0.33177568;fill-rule:nonzero;stroke:none;stroke-width:20.03149605;stroke-linecap:round;stroke-linejoin:round;stroke-miterlimit:4;stroke-dasharray:none;stroke-dashoffset:0;stroke-opacity:0.62616817;paint-order:markers stroke fill" />
        </g>
        <g
           id="g4841"
           transform="matrix(1.6803707,-0.2661483,0.2661483,1.6803707,-20.923931,5198.6748)">
          <path
             id="path4805"
             transform="translate(-297.01,-175.7)"
             d="m 570.6,205.2 c -11.4,-16.1 -48.6,-33.7 -86.2,-28.6 -37.6,5.1 -11.8,25.1 -5.5,24.7 6.3,-0.4 14.5,3.9 15.3,6.3 0.8,2.4 76.4,-2.4 76.4,-2.4 z"
             class="cls-1"
             inkscape:connector-curvature="0"
             style="fill:#ff4400" />
          <path
             id="path4807"
             transform="translate(-297.01,-175.7)"
             d="m 466.5,219.1 c -9.4,-9.4 -27.8,-7.4 -35.7,0 -7.9,7.4 -29,21.6 -47,25.1 -18,3.5 -26.6,12.1 -10.2,25.5 16.4,13.4 92.9,-50.6 92.9,-50.6 z"
             class="cls-1"
             inkscape:connector-curvature="0"
             style="fill:#ff4400" />
          <path
             id="path4809"
             transform="translate(-297.01,-175.7)"
             d="m 361,304.4 c -11.4,11.8 -20.8,26.6 -41.1,23.5 -20.3,-3.1 -4.3,-24.7 -4.3,-34.9 0,-10.2 -20.8,-31 -18.4,-43.5 2.4,-12.5 21.9,-14.5 39.6,-3.5 17.7,11 39.2,32.9 39.2,32.9 z"
             class="cls-1"
             inkscape:connector-curvature="0"
             style="fill:#ff4400" />
          <path
             id="path4811"
             transform="translate(-297.01,-175.7)"
             d="m 464.5,323 c 4.2,10.6 -26.2,13.9 -37.2,10 -11,-3.9 -15.3,-10.2 -22.3,-12.1 -7,-1.9 -31.7,3.9 -35.7,0 -4,-3.9 -2.7,-17.2 0,-19.6 2.7,-2.4 90.8,10.9 95.2,21.7 z"
             class="cls-1"
             inkscape:connector-curvature="0"
             style="fill:#ff4400" />
          <path
             id="path4813"
             transform="translate(-297.01,-175.7)"
             d="m 534.2,328.3 c -10.6,14.9 -38,37.4 -49.8,26.7 -11.8,-10.7 14.5,-24 14.9,-29.1 0.4,-5.1 34.9,2.4 34.9,2.4 z"
             class="cls-1"
             inkscape:connector-curvature="0"
             style="fill:#ff4400" />
          <path
             id="path4815"
             transform="translate(-297.01,-175.7)"
             d="m 630.6,267.3 c -7.4,-32.6 -36.4,-64.8 -79.2,-71.8 -42.8,-7 -83.9,16.1 -98.3,27 -14.4,10.9 -58.8,46.2 -86.6,46.6 -27.8,0.4 -29.8,39.6 0,39.6 29.8,0 50.2,3.9 60,8.6 9.8,4.7 74.8,14.9 98,13.7 23.2,-1.2 70.1,2.7 79.9,-10.2 9.8,-12.9 -7.1,-20.4 -7.1,-20.4 l 26.6,-21.2 c 0,0.1 11,-1.1 6.7,-11.9 z"
             class="cls-2"
             inkscape:connector-curvature="0"
             style="fill:#2550ff" />
          <path
             id="path4817"
             transform="translate(-297.01,-175.7)"
             d="m 531.2,283.6 c -3.1,10.2 -21.4,29 -44,22.4 -22.6,-6.6 -5,-27.4 11.5,-26.3 -25.5,-7.4 -17.6,-35.5 1.2,-36.5 18.8,-1 31,16 31.3,40.4 z"
             class="cls-1"
             inkscape:connector-curvature="0"
             style="fill:#ff4400" />
          <path
             id="path4819"
             transform="translate(-297.01,-175.7)"
             d="m 617.2,305.2 c 0,-7.1 22.6,-4.8 19.3,-25.3 -3.3,-20.5 -43.3,7.5 -43.3,19.3 0,11.8 18.1,30.1 26.4,22.8 8.3,-7.3 -2.4,-9.7 -2.4,-16.8 z"
             class="cls-1"
             inkscape:connector-curvature="0"
             style="fill:#ff4400" />
          <circle
             id="circle4821"
             r="14.2"
             cy="85.800003"
             cx="271.19"
             class="cls-3"
             style="fill:#fff1f2" />
          <circle
             id="circle4823"
             r="9.3999996"
             cy="85.800003"
             cx="271.19"
             class="cls-4"
             style="fill:#231617" />
        </g>
      </g>
    </g>
  </g>
</svg>
