<?xml version="1.0" encoding="UTF-8" standalone="no"?>
<!-- Created with Inkscape (http://www.inkscape.org/) -->

<svg
   xmlns:dc="http://purl.org/dc/elements/1.1/"
   xmlns:cc="http://creativecommons.org/ns#"
   xmlns:rdf="http://www.w3.org/1999/02/22-rdf-syntax-ns#"
   xmlns:svg="http://www.w3.org/2000/svg"
   xmlns="http://www.w3.org/2000/svg"
   xmlns:sodipodi="http://sodipodi.sourceforge.net/DTD/sodipodi-0.dtd"
   xmlns:inkscape="http://www.inkscape.org/namespaces/inkscape"
   width="139mm"
   height="108mm"
   viewBox="0 0 139 108"
   version="1.1"
   id="svg8"
   inkscape:version="0.92.2 (5c3e80d, 2017-08-06)"
   sodipodi:docname="domefish and bubbles.svg">
  <defs
     id="defs2" />
  <sodipodi:namedview
     id="base"
     pagecolor="#ffffff"
     bordercolor="#666666"
     borderopacity="1.0"
     inkscape:pageopacity="0.0"
     inkscape:pageshadow="2"
     inkscape:zoom="0.7"
     inkscape:cx="431.77597"
     inkscape:cy="637.47098"
     inkscape:document-units="mm"
     inkscape:current-layer="layer1"
     showgrid="false"
     inkscape:window-width="958"
     inkscape:window-height="1048"
     inkscape:window-x="-7"
     inkscape:window-y="0"
     inkscape:window-maximized="0" />
  <metadata
     id="metadata5">
    <rdf:RDF>
      <cc:Work
         rdf:about="">
        <dc:format>image/svg+xml</dc:format>
        <dc:type
           rdf:resource="http://purl.org/dc/dcmitype/StillImage" />
        <dc:title></dc:title>
      </cc:Work>
    </rdf:RDF>
  </metadata>
  <g
     inkscape:label="Layer 1"
     inkscape:groupmode="layer"
     id="layer1"
     transform="translate(0,-189)">
    <g
       style="display:inline"
       id="g2153"
       transform="matrix(0.26458333,0,0,0.26458333,-384.19535,-878.0295)"
       inkscape:export-xdpi="224.64999"
       inkscape:export-ydpi="224.64999">
      <g
         id="Layer_1-9"
         transform="matrix(0.20407689,0,0,0.20407689,1466.9374,4160.9028)">
        <path
           id="path1792"
           d="m 141.092,440.688 c 21.41,-75.383 119.216,-108.564 194.274,-90.211 0,0 0,0 0,0 35.727,8.736 83.722,31.925 118.342,68.75 38.112,40.54 59.123,105.337 53.951,143.66 C 490.474,690.219 141.092,440.688 141.092,440.688 Z"
           inkscape:connector-curvature="0"
           style="fill:#8d44ff" />
        <path
           id="path1794"
           d="m 117.087,603.309 c 0,0 57.645,84.798 177.466,86.938 119.821,2.14 239.904,-101.678 239.904,-101.678 z"
           inkscape:connector-curvature="0"
           style="fill:#8d44ff" />
        <path
           id="path1796"
           d="m 274.289,379.888 c 0,0 0,0 0,0 104.701,0.401 209.39,62.939 242.911,163.885 2.254,6.788 4.489,9.014 9.233,9.783 4.745,0.769 8.426,-0.186 15.073,-4.898 18.918,-13.411 41.176,-22.248 62.784,-30.241 17.349,-5.905 35.209,-10.43 53.404,-12.79 6.237,-0.808 12.537,-1.018 18.806,-1.527 16.094,0.568 42.543,-0.463 50.291,18.011 7.315,31.246 -50.27,59.744 -72.09,69.146 21.032,9.411 80.452,38.11 72.09,69.146 -7.737,22.576 -62.582,24.23 -122.501,3.694 -26.144,-10.455 -53.687,-20.814 -75.172,-39.681 0,0 0,0 0,0 0,0 0,0 0,0 -2.979,-2.67 -4.764,-5.417 -11.94,-7.607 -7.176,-2.19 -16.985,-0.504 -18.301,-0.289 -92.705,15.141 -124.519,16.15 -181.126,16.466 -121.139,0.674 -206.559,-15.384 -235.54,-18.637 -15.496,-1.74 -24.001,-2.896 -29.386,-5.437 -5.385,-2.542 -2.129,-0.236 -7.35,-4.936 -5.221,-4.7 13.263,-2.058 14.371,-7.225 1.108,-5.167 -7.45,-14.622 -10.888,-17.303 -3.438,-2.681 -6.884,-6.829 -8.147,-9.187 -1.262,-2.357 0.786,-5.512 1.451,-6.906 28.272,-59.188 57.293,-118.669 115.084,-154.269 35.517,-21.879 75.879,-28.411 116.943,-29.198 z"
           inkscape:connector-curvature="0"
           style="fill:#ff3976" />
        <path
           id="path1798"
           d="m 177.836,435.723 c 4.543,0.715 2.696,0.037 5.708,1.506 20.511,12.699 37.643,36.759 45.561,64.402 8.846,30.886 5.746,63.556 -10.797,92.553 -2.763,4.844 -8.93,6.531 -13.775,3.768 -4.844,-2.764 -6.53,-8.931 -3.767,-13.775 13.751,-24.104 16.32,-51.164 8.924,-76.985 -6.588,-22.999 -20.725,-42.854 -36.777,-52.792 -4.741,-2.935 -6.205,-9.159 -3.27,-13.901 2.115,-3.379 4.576,-3.925 8.193,-4.776 z"
           inkscape:connector-curvature="0"
           style="fill:#8d44ff" />
        <path
           id="path1800"
           d="m 139.393,566.991 c -15.782,0 -28.577,-12.795 -28.577,-28.577 0,-15.783 12.795,-28.577 28.577,-28.577 15.783,0 28.577,12.794 28.577,28.577 0,15.782 -12.794,28.577 -28.577,28.577 z"
           inkscape:connector-curvature="0"
           style="fill:#e6e6e6" />
        <path
           id="path1802"
           d="m 139.393,555.826 c -9.617,0 -17.412,-7.796 -17.412,-17.412 0,-9.617 7.795,-17.412 17.412,-17.412 9.617,0 17.412,7.795 17.412,17.412 0,9.616 -7.795,17.412 -17.412,17.412 z"
           inkscape:connector-curvature="0"
           style="fill:#212121" />
        <path
           id="path1804"
           d="m 243.393,488.048 c -0.773,-1.341 38.829,31.279 91.085,34.182 20.478,1.138 16.28,17.68 13.896,28.823 -2.383,11.142 -15.187,25.516 -37.015,25.002 -33.938,-0.798 -49.645,-11.669 -64.246,-31.74 0,0 16.368,-21.391 -3.72,-56.267 z"
           inkscape:connector-curvature="0"
           style="fill:#8d44ff" />
      </g>
      <g
         id="Layer_1-9-4"
         transform="matrix(0.20345805,-0.01588083,0.01588083,0.20345805,1546.9892,4100.9263)">
        <path
           id="path1792-9"
           d="m 141.092,440.688 c 21.41,-75.383 119.216,-108.564 194.274,-90.211 0,0 0,0 0,0 35.727,8.736 83.722,31.925 118.342,68.75 38.112,40.54 59.123,105.337 53.951,143.66 C 490.474,690.219 141.092,440.688 141.092,440.688 Z"
           inkscape:connector-curvature="0"
           style="fill:#8d44ff" />
        <path
           id="path1794-5"
           d="m 117.087,603.309 c 0,0 57.645,84.798 177.466,86.938 119.821,2.14 239.904,-101.678 239.904,-101.678 z"
           inkscape:connector-curvature="0"
           style="fill:#8d44ff" />
        <path
           id="path1796-3"
           d="m 274.289,379.888 c 0,0 0,0 0,0 104.701,0.401 209.39,62.939 242.911,163.885 2.254,6.788 4.489,9.014 9.233,9.783 4.745,0.769 8.426,-0.186 15.073,-4.898 18.918,-13.411 41.176,-22.248 62.784,-30.241 17.349,-5.905 35.209,-10.43 53.404,-12.79 6.237,-0.808 12.537,-1.018 18.806,-1.527 16.094,0.568 42.543,-0.463 50.291,18.011 7.315,31.246 -50.27,59.744 -72.09,69.146 21.032,9.411 80.452,38.11 72.09,69.146 -7.737,22.576 -62.582,24.23 -122.501,3.694 -26.144,-10.455 -53.687,-20.814 -75.172,-39.681 0,0 0,0 0,0 0,0 0,0 0,0 -2.979,-2.67 -4.764,-5.417 -11.94,-7.607 -7.176,-2.19 -16.985,-0.504 -18.301,-0.289 -92.705,15.141 -124.519,16.15 -181.126,16.466 -121.139,0.674 -206.559,-15.384 -235.54,-18.637 -15.496,-1.74 -24.001,-2.896 -29.386,-5.437 -5.385,-2.542 -2.129,-0.236 -7.35,-4.936 -5.221,-4.7 13.263,-2.058 14.371,-7.225 1.108,-5.167 -7.45,-14.622 -10.888,-17.303 -3.438,-2.681 -6.884,-6.829 -8.147,-9.187 -1.262,-2.357 0.786,-5.512 1.451,-6.906 28.272,-59.188 57.293,-118.669 115.084,-154.269 35.517,-21.879 75.879,-28.411 116.943,-29.198 z"
           inkscape:connector-curvature="0"
           style="fill:#ff3976" />
        <path
           id="path1798-5"
           d="m 177.836,435.723 c 4.543,0.715 2.696,0.037 5.708,1.506 20.511,12.699 37.643,36.759 45.561,64.402 8.846,30.886 5.746,63.556 -10.797,92.553 -2.763,4.844 -8.93,6.531 -13.775,3.768 -4.844,-2.764 -6.53,-8.931 -3.767,-13.775 13.751,-24.104 16.32,-51.164 8.924,-76.985 -6.588,-22.999 -20.725,-42.854 -36.777,-52.792 -4.741,-2.935 -6.205,-9.159 -3.27,-13.901 2.115,-3.379 4.576,-3.925 8.193,-4.776 z"
           inkscape:connector-curvature="0"
           style="fill:#8d44ff" />
        <path
           id="path1800-8"
           d="m 139.393,566.991 c -15.782,0 -28.577,-12.795 -28.577,-28.577 0,-15.783 12.795,-28.577 28.577,-28.577 15.783,0 28.577,12.794 28.577,28.577 0,15.782 -12.794,28.577 -28.577,28.577 z"
           inkscape:connector-curvature="0"
           style="fill:#e6e6e6" />
        <path
           id="path1802-2"
           d="m 139.393,555.826 c -9.617,0 -17.412,-7.796 -17.412,-17.412 0,-9.617 7.795,-17.412 17.412,-17.412 9.617,0 17.412,7.795 17.412,17.412 0,9.616 -7.795,17.412 -17.412,17.412 z"
           inkscape:connector-curvature="0"
           style="fill:#212121" />
        <path
           id="path1804-1"
           d="m 243.393,488.048 c -0.773,-1.341 38.829,31.279 91.085,34.182 20.478,1.138 16.28,17.68 13.896,28.823 -2.383,11.142 -15.187,25.516 -37.015,25.002 -33.938,-0.798 -49.645,-11.669 -64.246,-31.74 0,0 16.368,-21.391 -3.72,-56.267 z"
           inkscape:connector-curvature="0"
           style="fill:#8d44ff" />
      </g>
      <g
         id="Layer_1-9-3"
         transform="matrix(0.20350847,0.01522109,-0.01522109,0.20350847,1637.4059,4201.1508)">
        <path
           id="path1792-7"
           d="m 141.092,440.688 c 21.41,-75.383 119.216,-108.564 194.274,-90.211 0,0 0,0 0,0 35.727,8.736 83.722,31.925 118.342,68.75 38.112,40.54 59.123,105.337 53.951,143.66 C 490.474,690.219 141.092,440.688 141.092,440.688 Z"
           inkscape:connector-curvature="0"
           style="fill:#8d44ff" />
        <path
           id="path1794-4"
           d="m 117.087,603.309 c 0,0 57.645,84.798 177.466,86.938 119.821,2.14 239.904,-101.678 239.904,-101.678 z"
           inkscape:connector-curvature="0"
           style="fill:#8d44ff" />
        <path
           id="path1796-2"
           d="m 274.289,379.888 c 0,0 0,0 0,0 104.701,0.401 209.39,62.939 242.911,163.885 2.254,6.788 4.489,9.014 9.233,9.783 4.745,0.769 8.426,-0.186 15.073,-4.898 18.918,-13.411 41.176,-22.248 62.784,-30.241 17.349,-5.905 35.209,-10.43 53.404,-12.79 6.237,-0.808 12.537,-1.018 18.806,-1.527 16.094,0.568 42.543,-0.463 50.291,18.011 7.315,31.246 -50.27,59.744 -72.09,69.146 21.032,9.411 80.452,38.11 72.09,69.146 -7.737,22.576 -62.582,24.23 -122.501,3.694 -26.144,-10.455 -53.687,-20.814 -75.172,-39.681 0,0 0,0 0,0 0,0 0,0 0,0 -2.979,-2.67 -4.764,-5.417 -11.94,-7.607 -7.176,-2.19 -16.985,-0.504 -18.301,-0.289 -92.705,15.141 -124.519,16.15 -181.126,16.466 -121.139,0.674 -206.559,-15.384 -235.54,-18.637 -15.496,-1.74 -24.001,-2.896 -29.386,-5.437 -5.385,-2.542 -2.129,-0.236 -7.35,-4.936 -5.221,-4.7 13.263,-2.058 14.371,-7.225 1.108,-5.167 -7.45,-14.622 -10.888,-17.303 -3.438,-2.681 -6.884,-6.829 -8.147,-9.187 -1.262,-2.357 0.786,-5.512 1.451,-6.906 28.272,-59.188 57.293,-118.669 115.084,-154.269 35.517,-21.879 75.879,-28.411 116.943,-29.198 z"
           inkscape:connector-curvature="0"
           style="fill:#ff3976" />
        <path
           id="path1798-1"
           d="m 177.836,435.723 c 4.543,0.715 2.696,0.037 5.708,1.506 20.511,12.699 37.643,36.759 45.561,64.402 8.846,30.886 5.746,63.556 -10.797,92.553 -2.763,4.844 -8.93,6.531 -13.775,3.768 -4.844,-2.764 -6.53,-8.931 -3.767,-13.775 13.751,-24.104 16.32,-51.164 8.924,-76.985 -6.588,-22.999 -20.725,-42.854 -36.777,-52.792 -4.741,-2.935 -6.205,-9.159 -3.27,-13.901 2.115,-3.379 4.576,-3.925 8.193,-4.776 z"
           inkscape:connector-curvature="0"
           style="fill:#8d44ff" />
        <path
           id="path1800-4"
           d="m 139.393,566.991 c -15.782,0 -28.577,-12.795 -28.577,-28.577 0,-15.783 12.795,-28.577 28.577,-28.577 15.783,0 28.577,12.794 28.577,28.577 0,15.782 -12.794,28.577 -28.577,28.577 z"
           inkscape:connector-curvature="0"
           style="fill:#e6e6e6" />
        <path
           id="path1802-3"
           d="m 139.393,555.826 c -9.617,0 -17.412,-7.796 -17.412,-17.412 0,-9.617 7.795,-17.412 17.412,-17.412 9.617,0 17.412,7.795 17.412,17.412 0,9.616 -7.795,17.412 -17.412,17.412 z"
           inkscape:connector-curvature="0"
           style="fill:#212121" />
        <path
           id="path1804-2"
           d="m 243.393,488.048 c -0.773,-1.341 38.829,31.279 91.085,34.182 20.478,1.138 16.28,17.68 13.896,28.823 -2.383,11.142 -15.187,25.516 -37.015,25.002 -33.938,-0.798 -49.645,-11.669 -64.246,-31.74 0,0 16.368,-21.391 -3.72,-56.267 z"
           inkscape:connector-curvature="0"
           style="fill:#8d44ff" />
      </g>
      <g
         id="Layer_1-9-8"
         transform="matrix(0.20276534,-0.02309968,0.02309968,0.20276534,1710.4048,4137.7151)">
        <path
           id="path1792-1"
           d="m 141.092,440.688 c 21.41,-75.383 119.216,-108.564 194.274,-90.211 0,0 0,0 0,0 35.727,8.736 83.722,31.925 118.342,68.75 38.112,40.54 59.123,105.337 53.951,143.66 C 490.474,690.219 141.092,440.688 141.092,440.688 Z"
           inkscape:connector-curvature="0"
           style="fill:#8d44ff" />
        <path
           id="path1794-2"
           d="m 117.087,603.309 c 0,0 57.645,84.798 177.466,86.938 119.821,2.14 239.904,-101.678 239.904,-101.678 z"
           inkscape:connector-curvature="0"
           style="fill:#8d44ff" />
        <path
           id="path1796-8"
           d="m 274.289,379.888 c 0,0 0,0 0,0 104.701,0.401 209.39,62.939 242.911,163.885 2.254,6.788 4.489,9.014 9.233,9.783 4.745,0.769 8.426,-0.186 15.073,-4.898 18.918,-13.411 41.176,-22.248 62.784,-30.241 17.349,-5.905 35.209,-10.43 53.404,-12.79 6.237,-0.808 12.537,-1.018 18.806,-1.527 16.094,0.568 42.543,-0.463 50.291,18.011 7.315,31.246 -50.27,59.744 -72.09,69.146 21.032,9.411 80.452,38.11 72.09,69.146 -7.737,22.576 -62.582,24.23 -122.501,3.694 -26.144,-10.455 -53.687,-20.814 -75.172,-39.681 0,0 0,0 0,0 0,0 0,0 0,0 -2.979,-2.67 -4.764,-5.417 -11.94,-7.607 -7.176,-2.19 -16.985,-0.504 -18.301,-0.289 -92.705,15.141 -124.519,16.15 -181.126,16.466 -121.139,0.674 -206.559,-15.384 -235.54,-18.637 -15.496,-1.74 -24.001,-2.896 -29.386,-5.437 -5.385,-2.542 -2.129,-0.236 -7.35,-4.936 -5.221,-4.7 13.263,-2.058 14.371,-7.225 1.108,-5.167 -7.45,-14.622 -10.888,-17.303 -3.438,-2.681 -6.884,-6.829 -8.147,-9.187 -1.262,-2.357 0.786,-5.512 1.451,-6.906 28.272,-59.188 57.293,-118.669 115.084,-154.269 35.517,-21.879 75.879,-28.411 116.943,-29.198 z"
           inkscape:connector-curvature="0"
           style="fill:#ff3976" />
        <path
           id="path1798-4"
           d="m 177.836,435.723 c 4.543,0.715 2.696,0.037 5.708,1.506 20.511,12.699 37.643,36.759 45.561,64.402 8.846,30.886 5.746,63.556 -10.797,92.553 -2.763,4.844 -8.93,6.531 -13.775,3.768 -4.844,-2.764 -6.53,-8.931 -3.767,-13.775 13.751,-24.104 16.32,-51.164 8.924,-76.985 -6.588,-22.999 -20.725,-42.854 -36.777,-52.792 -4.741,-2.935 -6.205,-9.159 -3.27,-13.901 2.115,-3.379 4.576,-3.925 8.193,-4.776 z"
           inkscape:connector-curvature="0"
           style="fill:#8d44ff" />
        <path
           id="path1800-1"
           d="m 139.393,566.991 c -15.782,0 -28.577,-12.795 -28.577,-28.577 0,-15.783 12.795,-28.577 28.577,-28.577 15.783,0 28.577,12.794 28.577,28.577 0,15.782 -12.794,28.577 -28.577,28.577 z"
           inkscape:connector-curvature="0"
           style="fill:#e6e6e6" />
        <path
           id="path1802-6"
           d="m 139.393,555.826 c -9.617,0 -17.412,-7.796 -17.412,-17.412 0,-9.617 7.795,-17.412 17.412,-17.412 9.617,0 17.412,7.795 17.412,17.412 0,9.616 -7.795,17.412 -17.412,17.412 z"
           inkscape:connector-curvature="0"
           style="fill:#212121" />
        <path
           id="path1804-5"
           d="m 243.393,488.048 c -0.773,-1.341 38.829,31.279 91.085,34.182 20.478,1.138 16.28,17.68 13.896,28.823 -2.383,11.142 -15.187,25.516 -37.015,25.002 -33.938,-0.798 -49.645,-11.669 -64.246,-31.74 0,0 16.368,-21.391 -3.72,-56.267 z"
           inkscape:connector-curvature="0"
           style="fill:#8d44ff" />
      </g>
      <g
         id="Layer_1-9-7"
         transform="matrix(0.20196239,-0.02930137,0.02930137,0.20196239,1711.7086,4025.5138)">
        <path
           id="path1792-0"
           d="m 141.092,440.688 c 21.41,-75.383 119.216,-108.564 194.274,-90.211 0,0 0,0 0,0 35.727,8.736 83.722,31.925 118.342,68.75 38.112,40.54 59.123,105.337 53.951,143.66 C 490.474,690.219 141.092,440.688 141.092,440.688 Z"
           inkscape:connector-curvature="0"
           style="fill:#8d44ff" />
        <path
           id="path1794-9"
           d="m 117.087,603.309 c 0,0 57.645,84.798 177.466,86.938 119.821,2.14 239.904,-101.678 239.904,-101.678 z"
           inkscape:connector-curvature="0"
           style="fill:#8d44ff" />
        <path
           id="path1796-9"
           d="m 274.289,379.888 c 0,0 0,0 0,0 104.701,0.401 209.39,62.939 242.911,163.885 2.254,6.788 4.489,9.014 9.233,9.783 4.745,0.769 8.426,-0.186 15.073,-4.898 18.918,-13.411 41.176,-22.248 62.784,-30.241 17.349,-5.905 35.209,-10.43 53.404,-12.79 6.237,-0.808 12.537,-1.018 18.806,-1.527 16.094,0.568 42.543,-0.463 50.291,18.011 7.315,31.246 -50.27,59.744 -72.09,69.146 21.032,9.411 80.452,38.11 72.09,69.146 -7.737,22.576 -62.582,24.23 -122.501,3.694 -26.144,-10.455 -53.687,-20.814 -75.172,-39.681 0,0 0,0 0,0 0,0 0,0 0,0 -2.979,-2.67 -4.764,-5.417 -11.94,-7.607 -7.176,-2.19 -16.985,-0.504 -18.301,-0.289 -92.705,15.141 -124.519,16.15 -181.126,16.466 -121.139,0.674 -206.559,-15.384 -235.54,-18.637 -15.496,-1.74 -24.001,-2.896 -29.386,-5.437 -5.385,-2.542 -2.129,-0.236 -7.35,-4.936 -5.221,-4.7 13.263,-2.058 14.371,-7.225 1.108,-5.167 -7.45,-14.622 -10.888,-17.303 -3.438,-2.681 -6.884,-6.829 -8.147,-9.187 -1.262,-2.357 0.786,-5.512 1.451,-6.906 28.272,-59.188 57.293,-118.669 115.084,-154.269 35.517,-21.879 75.879,-28.411 116.943,-29.198 z"
           inkscape:connector-curvature="0"
           style="fill:#ff3976" />
        <path
           id="path1798-7"
           d="m 177.836,435.723 c 4.543,0.715 2.696,0.037 5.708,1.506 20.511,12.699 37.643,36.759 45.561,64.402 8.846,30.886 5.746,63.556 -10.797,92.553 -2.763,4.844 -8.93,6.531 -13.775,3.768 -4.844,-2.764 -6.53,-8.931 -3.767,-13.775 13.751,-24.104 16.32,-51.164 8.924,-76.985 -6.588,-22.999 -20.725,-42.854 -36.777,-52.792 -4.741,-2.935 -6.205,-9.159 -3.27,-13.901 2.115,-3.379 4.576,-3.925 8.193,-4.776 z"
           inkscape:connector-curvature="0"
           style="fill:#8d44ff" />
        <path
           id="path1800-46"
           d="m 139.393,566.991 c -15.782,0 -28.577,-12.795 -28.577,-28.577 0,-15.783 12.795,-28.577 28.577,-28.577 15.783,0 28.577,12.794 28.577,28.577 0,15.782 -12.794,28.577 -28.577,28.577 z"
           inkscape:connector-curvature="0"
           style="fill:#e6e6e6" />
        <path
           id="path1802-0"
           d="m 139.393,555.826 c -9.617,0 -17.412,-7.796 -17.412,-17.412 0,-9.617 7.795,-17.412 17.412,-17.412 9.617,0 17.412,7.795 17.412,17.412 0,9.616 -7.795,17.412 -17.412,17.412 z"
           inkscape:connector-curvature="0"
           style="fill:#212121" />
        <path
           id="path1804-4"
           d="m 243.393,488.048 c -0.773,-1.341 38.829,31.279 91.085,34.182 20.478,1.138 16.28,17.68 13.896,28.823 -2.383,11.142 -15.187,25.516 -37.015,25.002 -33.938,-0.798 -49.645,-11.669 -64.246,-31.74 0,0 16.368,-21.391 -3.72,-56.267 z"
           inkscape:connector-curvature="0"
           style="fill:#8d44ff" />
      </g>
      <g
         id="Layer_1-9-6"
         transform="matrix(0.2037022,0.01236082,-0.01236082,0.2037022,1763.4707,4286.2942)">
        <path
           id="path1792-5"
           d="m 141.092,440.688 c 21.41,-75.383 119.216,-108.564 194.274,-90.211 0,0 0,0 0,0 35.727,8.736 83.722,31.925 118.342,68.75 38.112,40.54 59.123,105.337 53.951,143.66 C 490.474,690.219 141.092,440.688 141.092,440.688 Z"
           inkscape:connector-curvature="0"
           style="fill:#8d44ff" />
        <path
           id="path1794-3"
           d="m 117.087,603.309 c 0,0 57.645,84.798 177.466,86.938 119.821,2.14 239.904,-101.678 239.904,-101.678 z"
           inkscape:connector-curvature="0"
           style="fill:#8d44ff" />
        <path
           id="path1796-83"
           d="m 274.289,379.888 c 0,0 0,0 0,0 104.701,0.401 209.39,62.939 242.911,163.885 2.254,6.788 4.489,9.014 9.233,9.783 4.745,0.769 8.426,-0.186 15.073,-4.898 18.918,-13.411 41.176,-22.248 62.784,-30.241 17.349,-5.905 35.209,-10.43 53.404,-12.79 6.237,-0.808 12.537,-1.018 18.806,-1.527 16.094,0.568 42.543,-0.463 50.291,18.011 7.315,31.246 -50.27,59.744 -72.09,69.146 21.032,9.411 80.452,38.11 72.09,69.146 -7.737,22.576 -62.582,24.23 -122.501,3.694 -26.144,-10.455 -53.687,-20.814 -75.172,-39.681 0,0 0,0 0,0 0,0 0,0 0,0 -2.979,-2.67 -4.764,-5.417 -11.94,-7.607 -7.176,-2.19 -16.985,-0.504 -18.301,-0.289 -92.705,15.141 -124.519,16.15 -181.126,16.466 -121.139,0.674 -206.559,-15.384 -235.54,-18.637 -15.496,-1.74 -24.001,-2.896 -29.386,-5.437 -5.385,-2.542 -2.129,-0.236 -7.35,-4.936 -5.221,-4.7 13.263,-2.058 14.371,-7.225 1.108,-5.167 -7.45,-14.622 -10.888,-17.303 -3.438,-2.681 -6.884,-6.829 -8.147,-9.187 -1.262,-2.357 0.786,-5.512 1.451,-6.906 28.272,-59.188 57.293,-118.669 115.084,-154.269 35.517,-21.879 75.879,-28.411 116.943,-29.198 z"
           inkscape:connector-curvature="0"
           style="fill:#ff3976" />
        <path
           id="path1798-2"
           d="m 177.836,435.723 c 4.543,0.715 2.696,0.037 5.708,1.506 20.511,12.699 37.643,36.759 45.561,64.402 8.846,30.886 5.746,63.556 -10.797,92.553 -2.763,4.844 -8.93,6.531 -13.775,3.768 -4.844,-2.764 -6.53,-8.931 -3.767,-13.775 13.751,-24.104 16.32,-51.164 8.924,-76.985 -6.588,-22.999 -20.725,-42.854 -36.777,-52.792 -4.741,-2.935 -6.205,-9.159 -3.27,-13.901 2.115,-3.379 4.576,-3.925 8.193,-4.776 z"
           inkscape:connector-curvature="0"
           style="fill:#8d44ff" />
        <path
           id="path1800-2"
           d="m 139.393,566.991 c -15.782,0 -28.577,-12.795 -28.577,-28.577 0,-15.783 12.795,-28.577 28.577,-28.577 15.783,0 28.577,12.794 28.577,28.577 0,15.782 -12.794,28.577 -28.577,28.577 z"
           inkscape:connector-curvature="0"
           style="fill:#e6e6e6" />
        <path
           id="path1802-8"
           d="m 139.393,555.826 c -9.617,0 -17.412,-7.796 -17.412,-17.412 0,-9.617 7.795,-17.412 17.412,-17.412 9.617,0 17.412,7.795 17.412,17.412 0,9.616 -7.795,17.412 -17.412,17.412 z"
           inkscape:connector-curvature="0"
           style="fill:#212121" />
        <path
           id="path1804-9"
           d="m 243.393,488.048 c -0.773,-1.341 38.829,31.279 91.085,34.182 20.478,1.138 16.28,17.68 13.896,28.823 -2.383,11.142 -15.187,25.516 -37.015,25.002 -33.938,-0.798 -49.645,-11.669 -64.246,-31.74 0,0 16.368,-21.391 -3.72,-56.267 z"
           inkscape:connector-curvature="0"
           style="fill:#8d44ff" />
      </g>
      <g
         id="Layer_1-9-0"
         transform="matrix(0.20315178,-0.01940956,0.01940956,0.20315178,1810.2432,4217.4386)">
        <path
           id="path1792-77"
           d="m 141.092,440.688 c 21.41,-75.383 119.216,-108.564 194.274,-90.211 0,0 0,0 0,0 35.727,8.736 83.722,31.925 118.342,68.75 38.112,40.54 59.123,105.337 53.951,143.66 C 490.474,690.219 141.092,440.688 141.092,440.688 Z"
           inkscape:connector-curvature="0"
           style="fill:#8d44ff" />
        <path
           id="path1794-7"
           d="m 117.087,603.309 c 0,0 57.645,84.798 177.466,86.938 119.821,2.14 239.904,-101.678 239.904,-101.678 z"
           inkscape:connector-curvature="0"
           style="fill:#8d44ff" />
        <path
           id="path1796-7"
           d="m 274.289,379.888 c 0,0 0,0 0,0 104.701,0.401 209.39,62.939 242.911,163.885 2.254,6.788 4.489,9.014 9.233,9.783 4.745,0.769 8.426,-0.186 15.073,-4.898 18.918,-13.411 41.176,-22.248 62.784,-30.241 17.349,-5.905 35.209,-10.43 53.404,-12.79 6.237,-0.808 12.537,-1.018 18.806,-1.527 16.094,0.568 42.543,-0.463 50.291,18.011 7.315,31.246 -50.27,59.744 -72.09,69.146 21.032,9.411 80.452,38.11 72.09,69.146 -7.737,22.576 -62.582,24.23 -122.501,3.694 -26.144,-10.455 -53.687,-20.814 -75.172,-39.681 0,0 0,0 0,0 0,0 0,0 0,0 -2.979,-2.67 -4.764,-5.417 -11.94,-7.607 -7.176,-2.19 -16.985,-0.504 -18.301,-0.289 -92.705,15.141 -124.519,16.15 -181.126,16.466 -121.139,0.674 -206.559,-15.384 -235.54,-18.637 -15.496,-1.74 -24.001,-2.896 -29.386,-5.437 -5.385,-2.542 -2.129,-0.236 -7.35,-4.936 -5.221,-4.7 13.263,-2.058 14.371,-7.225 1.108,-5.167 -7.45,-14.622 -10.888,-17.303 -3.438,-2.681 -6.884,-6.829 -8.147,-9.187 -1.262,-2.357 0.786,-5.512 1.451,-6.906 28.272,-59.188 57.293,-118.669 115.084,-154.269 35.517,-21.879 75.879,-28.411 116.943,-29.198 z"
           inkscape:connector-curvature="0"
           style="fill:#ff3976" />
        <path
           id="path1798-72"
           d="m 177.836,435.723 c 4.543,0.715 2.696,0.037 5.708,1.506 20.511,12.699 37.643,36.759 45.561,64.402 8.846,30.886 5.746,63.556 -10.797,92.553 -2.763,4.844 -8.93,6.531 -13.775,3.768 -4.844,-2.764 -6.53,-8.931 -3.767,-13.775 13.751,-24.104 16.32,-51.164 8.924,-76.985 -6.588,-22.999 -20.725,-42.854 -36.777,-52.792 -4.741,-2.935 -6.205,-9.159 -3.27,-13.901 2.115,-3.379 4.576,-3.925 8.193,-4.776 z"
           inkscape:connector-curvature="0"
           style="fill:#8d44ff" />
        <path
           id="path1800-5"
           d="m 139.393,566.991 c -15.782,0 -28.577,-12.795 -28.577,-28.577 0,-15.783 12.795,-28.577 28.577,-28.577 15.783,0 28.577,12.794 28.577,28.577 0,15.782 -12.794,28.577 -28.577,28.577 z"
           inkscape:connector-curvature="0"
           style="fill:#e6e6e6" />
        <path
           id="path1802-05"
           d="m 139.393,555.826 c -9.617,0 -17.412,-7.796 -17.412,-17.412 0,-9.617 7.795,-17.412 17.412,-17.412 9.617,0 17.412,7.795 17.412,17.412 0,9.616 -7.795,17.412 -17.412,17.412 z"
           inkscape:connector-curvature="0"
           style="fill:#212121" />
        <path
           id="path1804-0"
           d="m 243.393,488.048 c -0.773,-1.341 38.829,31.279 91.085,34.182 20.478,1.138 16.28,17.68 13.896,28.823 -2.383,11.142 -15.187,25.516 -37.015,25.002 -33.938,-0.798 -49.645,-11.669 -64.246,-31.74 0,0 16.368,-21.391 -3.72,-56.267 z"
           inkscape:connector-curvature="0"
           style="fill:#8d44ff" />
      </g>
      <path
         style="opacity:1;fill:#ffffff;fill-opacity:0.33177568;fill-rule:nonzero;stroke:none;stroke-width:20.03149605;stroke-linecap:round;stroke-linejoin:round;stroke-miterlimit:4;stroke-dasharray:none;stroke-dashoffset:0;stroke-opacity:0.62616817;paint-order:markers stroke fill"
         id="path1959"
         sodipodi:type="arc"
         sodipodi:cx="1465.051"
         sodipodi:cy="4247.8818"
         sodipodi:rx="5.9602985"
         sodipodi:ry="5.9602985"
         sodipodi:start="0"
         sodipodi:end="6.2743539"
         sodipodi:open="true"
         d="m 1471.0113,4247.8818 a 5.9602985,5.9602985 0 0 1 -5.9471,5.9603 5.9602985,5.9602985 0 0 1 -5.9734,-5.9339 5.9602985,5.9602985 0 0 1 5.9207,-5.9865 5.9602985,5.9602985 0 0 1 5.9996,5.9075" />
      <path
         style="opacity:1;fill:#ffffff;fill-opacity:0.33177568;fill-rule:nonzero;stroke:none;stroke-width:20.03149605;stroke-linecap:round;stroke-linejoin:round;stroke-miterlimit:4;stroke-dasharray:none;stroke-dashoffset:0;stroke-opacity:0.62616817;paint-order:markers stroke fill"
         id="path1959-1"
         sodipodi:type="arc"
         sodipodi:cx="1480.4775"
         sodipodi:cy="4223.3394"
         sodipodi:rx="5.9602985"
         sodipodi:ry="5.9602985"
         sodipodi:start="0"
         sodipodi:end="6.2743539"
         sodipodi:open="true"
         d="m 1486.4378,4223.3394 a 5.9602985,5.9602985 0 0 1 -5.9471,5.9602 5.9602985,5.9602985 0 0 1 -5.9734,-5.9339 5.9602985,5.9602985 0 0 1 5.9208,-5.9865 5.9602985,5.9602985 0 0 1 5.9995,5.9075" />
      <path
         style="opacity:1;fill:#ffffff;fill-opacity:0.33177568;fill-rule:nonzero;stroke:none;stroke-width:20.03149605;stroke-linecap:round;stroke-linejoin:round;stroke-miterlimit:4;stroke-dasharray:none;stroke-dashoffset:0;stroke-opacity:0.62616817;paint-order:markers stroke fill"
         id="path1959-0"
         sodipodi:type="arc"
         sodipodi:cx="1472.7643"
         sodipodi:cy="4199.8481"
         sodipodi:rx="5.9602985"
         sodipodi:ry="5.9602985"
         sodipodi:start="0"
         sodipodi:end="6.2743539"
         sodipodi:open="true"
         d="m 1478.7246,4199.8481 a 5.9602985,5.9602985 0 0 1 -5.9472,5.9603 5.9602985,5.9602985 0 0 1 -5.9734,-5.9339 5.9602985,5.9602985 0 0 1 5.9208,-5.9865 5.9602985,5.9602985 0 0 1 5.9995,5.9075" />
      <path
         style="opacity:1;fill:#ffffff;fill-opacity:0.33177568;fill-rule:nonzero;stroke:none;stroke-width:20.03149605;stroke-linecap:round;stroke-linejoin:round;stroke-miterlimit:4;stroke-dasharray:none;stroke-dashoffset:0;stroke-opacity:0.62616817;paint-order:markers stroke fill"
         id="path1959-7"
         sodipodi:type="arc"
         sodipodi:cx="1547.0927"
         sodipodi:cy="4189.3301"
         sodipodi:rx="5.9602985"
         sodipodi:ry="5.9602985"
         sodipodi:start="0"
         sodipodi:end="6.2743539"
         sodipodi:open="true"
         d="m 1553.0529,4189.3301 a 5.9602985,5.9602985 0 0 1 -5.9471,5.9603 5.9602985,5.9602985 0 0 1 -5.9734,-5.934 5.9602985,5.9602985 0 0 1 5.9208,-5.9865 5.9602985,5.9602985 0 0 1 5.9995,5.9075" />
      <path
         style="opacity:1;fill:#ffffff;fill-opacity:0.33177568;fill-rule:nonzero;stroke:none;stroke-width:20.03149605;stroke-linecap:round;stroke-linejoin:round;stroke-miterlimit:4;stroke-dasharray:none;stroke-dashoffset:0;stroke-opacity:0.62616817;paint-order:markers stroke fill"
         id="path1959-6"
         sodipodi:type="arc"
         sodipodi:cx="1564.9736"
         sodipodi:cy="4152.166"
         sodipodi:rx="5.9602985"
         sodipodi:ry="5.9602985"
         sodipodi:start="0"
         sodipodi:end="6.2743539"
         sodipodi:open="true"
         d="m 1570.9339,4152.166 a 5.9602985,5.9602985 0 0 1 -5.9471,5.9603 5.9602985,5.9602985 0 0 1 -5.9734,-5.934 5.9602985,5.9602985 0 0 1 5.9208,-5.9865 5.9602985,5.9602985 0 0 1 5.9995,5.9076" />
      <path
         style="opacity:1;fill:#ffffff;fill-opacity:0.33177568;fill-rule:nonzero;stroke:none;stroke-width:20.03149605;stroke-linecap:round;stroke-linejoin:round;stroke-miterlimit:4;stroke-dasharray:none;stroke-dashoffset:0;stroke-opacity:0.62616817;paint-order:markers stroke fill"
         id="path1959-73"
         sodipodi:type="arc"
         sodipodi:cx="1724.8499"
         sodipodi:cy="4223.3389"
         sodipodi:rx="5.9602985"
         sodipodi:ry="5.9602985"
         sodipodi:start="0"
         sodipodi:end="6.2743539"
         sodipodi:open="true"
         d="m 1730.8102,4223.3389 a 5.9602985,5.9602985 0 0 1 -5.9472,5.9603 5.9602985,5.9602985 0 0 1 -5.9734,-5.934 5.9602985,5.9602985 0 0 1 5.9208,-5.9865 5.9602985,5.9602985 0 0 1 5.9995,5.9075" />
      <path
         style="opacity:1;fill:#ffffff;fill-opacity:0.33177568;fill-rule:nonzero;stroke:none;stroke-width:20.03149605;stroke-linecap:round;stroke-linejoin:round;stroke-miterlimit:4;stroke-dasharray:none;stroke-dashoffset:0;stroke-opacity:0.62616817;paint-order:markers stroke fill"
         id="path1959-02"
         sodipodi:type="arc"
         sodipodi:cx="1709.0726"
         sodipodi:cy="4188.6289"
         sodipodi:rx="5.9602985"
         sodipodi:ry="5.9602985"
         sodipodi:start="0"
         sodipodi:end="6.2743539"
         sodipodi:open="true"
         d="m 1715.0329,4188.6289 a 5.9602985,5.9602985 0 0 1 -5.9471,5.9603 5.9602985,5.9602985 0 0 1 -5.9734,-5.934 5.9602985,5.9602985 0 0 1 5.9208,-5.9865 5.9602985,5.9602985 0 0 1 5.9995,5.9076" />
      <path
         style="opacity:1;fill:#ffffff;fill-opacity:0.33177568;fill-rule:nonzero;stroke:none;stroke-width:20.03149605;stroke-linecap:round;stroke-linejoin:round;stroke-miterlimit:4;stroke-dasharray:none;stroke-dashoffset:0;stroke-opacity:0.62616817;paint-order:markers stroke fill"
         id="path1959-2"
         sodipodi:type="arc"
         sodipodi:cx="1716.7859"
         sodipodi:cy="4171.0986"
         sodipodi:rx="5.9602985"
         sodipodi:ry="5.9602985"
         sodipodi:start="0"
         sodipodi:end="6.2743539"
         sodipodi:open="true"
         d="m 1722.7462,4171.0986 a 5.9602985,5.9602985 0 0 1 -5.9472,5.9603 5.9602985,5.9602985 0 0 1 -5.9734,-5.9339 5.9602985,5.9602985 0 0 1 5.9208,-5.9865 5.9602985,5.9602985 0 0 1 5.9996,5.9075" />
      <path
         style="opacity:1;fill:#ffffff;fill-opacity:0.33177568;fill-rule:nonzero;stroke:none;stroke-width:20.03149605;stroke-linecap:round;stroke-linejoin:round;stroke-miterlimit:4;stroke-dasharray:none;stroke-dashoffset:0;stroke-opacity:0.62616817;paint-order:markers stroke fill"
         id="path1959-25"
         sodipodi:type="arc"
         sodipodi:cx="1730.1089"
         sodipodi:cy="4108.6909"
         sodipodi:rx="5.9602985"
         sodipodi:ry="5.9602985"
         sodipodi:start="0"
         sodipodi:end="6.2743539"
         sodipodi:open="true"
         d="m 1736.0692,4108.6909 a 5.9602985,5.9602985 0 0 1 -5.9472,5.9603 5.9602985,5.9602985 0 0 1 -5.9734,-5.934 5.9602985,5.9602985 0 0 1 5.9208,-5.9864 5.9602985,5.9602985 0 0 1 5.9996,5.9075" />
      <path
         style="opacity:1;fill:#ffffff;fill-opacity:0.33177568;fill-rule:nonzero;stroke:none;stroke-width:20.03149605;stroke-linecap:round;stroke-linejoin:round;stroke-miterlimit:4;stroke-dasharray:none;stroke-dashoffset:0;stroke-opacity:0.62616817;paint-order:markers stroke fill"
         id="path1959-3"
         sodipodi:type="arc"
         sodipodi:cx="1738.5234"
         sodipodi:cy="4062.0603"
         sodipodi:rx="5.9602985"
         sodipodi:ry="5.9602985"
         sodipodi:start="0"
         sodipodi:end="6.2743539"
         sodipodi:open="true"
         d="m 1744.4837,4062.0603 a 5.9602985,5.9602985 0 0 1 -5.9471,5.9603 5.9602985,5.9602985 0 0 1 -5.9734,-5.934 5.9602985,5.9602985 0 0 1 5.9208,-5.9865 5.9602985,5.9602985 0 0 1 5.9995,5.9076" />
      <path
         style="opacity:1;fill:#ffffff;fill-opacity:0.33177568;fill-rule:nonzero;stroke:none;stroke-width:20.03149605;stroke-linecap:round;stroke-linejoin:round;stroke-miterlimit:4;stroke-dasharray:none;stroke-dashoffset:0;stroke-opacity:0.62616817;paint-order:markers stroke fill"
         id="path1959-28"
         sodipodi:type="arc"
         sodipodi:cx="1719.5862"
         sodipodi:cy="4043.6748"
         sodipodi:rx="5.9602985"
         sodipodi:ry="5.9602985"
         sodipodi:start="0"
         sodipodi:end="6.2743539"
         sodipodi:open="true"
         d="m 1725.5465,4043.6748 a 5.9602985,5.9602985 0 0 1 -5.9472,5.9603 5.9602985,5.9602985 0 0 1 -5.9734,-5.934 5.9602985,5.9602985 0 0 1 5.9208,-5.9865 5.9602985,5.9602985 0 0 1 5.9995,5.9076" />
      <path
         style="opacity:1;fill:#ffffff;fill-opacity:0.33177568;fill-rule:nonzero;stroke:none;stroke-width:20.03149605;stroke-linecap:round;stroke-linejoin:round;stroke-miterlimit:4;stroke-dasharray:none;stroke-dashoffset:0;stroke-opacity:0.62616817;paint-order:markers stroke fill"
         id="path1959-8"
         sodipodi:type="arc"
         sodipodi:cx="1625.6284"
         sodipodi:cy="4314.8467"
         sodipodi:rx="5.9602985"
         sodipodi:ry="5.9602985"
         sodipodi:start="0"
         sodipodi:end="6.2743539"
         sodipodi:open="true"
         d="m 1631.5887,4314.8467 a 5.9602985,5.9602985 0 0 1 -5.9471,5.9603 5.9602985,5.9602985 0 0 1 -5.9734,-5.934 5.9602985,5.9602985 0 0 1 5.9207,-5.9865 5.9602985,5.9602985 0 0 1 5.9996,5.9075" />
      <path
         style="opacity:1;fill:#ffffff;fill-opacity:0.33177568;fill-rule:nonzero;stroke:none;stroke-width:20.03149605;stroke-linecap:round;stroke-linejoin:round;stroke-miterlimit:4;stroke-dasharray:none;stroke-dashoffset:0;stroke-opacity:0.62616817;paint-order:markers stroke fill"
         id="path1959-14"
         sodipodi:type="arc"
         sodipodi:cx="1649.119"
         sodipodi:cy="4283.2925"
         sodipodi:rx="5.9602985"
         sodipodi:ry="5.9602985"
         sodipodi:start="0"
         sodipodi:end="6.2743539"
         sodipodi:open="true"
         d="m 1655.0793,4283.2925 a 5.9602985,5.9602985 0 0 1 -5.9471,5.9603 5.9602985,5.9602985 0 0 1 -5.9734,-5.934 5.9602985,5.9602985 0 0 1 5.9207,-5.9865 5.9602985,5.9602985 0 0 1 5.9996,5.9075" />
      <path
         style="opacity:1;fill:#ffffff;fill-opacity:0.33177568;fill-rule:nonzero;stroke:none;stroke-width:20.03149605;stroke-linecap:round;stroke-linejoin:round;stroke-miterlimit:4;stroke-dasharray:none;stroke-dashoffset:0;stroke-opacity:0.62616817;paint-order:markers stroke fill"
         id="path1959-22"
         sodipodi:type="arc"
         sodipodi:cx="1634.7441"
         sodipodi:cy="4260.1523"
         sodipodi:rx="5.9602985"
         sodipodi:ry="5.9602985"
         sodipodi:start="0"
         sodipodi:end="6.2743539"
         sodipodi:open="true"
         d="m 1640.7044,4260.1523 a 5.9602985,5.9602985 0 0 1 -5.9471,5.9603 5.9602985,5.9602985 0 0 1 -5.9734,-5.9339 5.9602985,5.9602985 0 0 1 5.9208,-5.9865 5.9602985,5.9602985 0 0 1 5.9995,5.9075" />
      <path
         style="opacity:1;fill:#ffffff;fill-opacity:0.33177568;fill-rule:nonzero;stroke:none;stroke-width:20.03149605;stroke-linecap:round;stroke-linejoin:round;stroke-miterlimit:4;stroke-dasharray:none;stroke-dashoffset:0;stroke-opacity:0.62616817;paint-order:markers stroke fill"
         id="path1959-5"
         sodipodi:type="arc"
         sodipodi:cx="1760.261"
         sodipodi:cy="4371.9956"
         sodipodi:rx="5.9602985"
         sodipodi:ry="5.9602985"
         sodipodi:start="0"
         sodipodi:end="6.2743539"
         sodipodi:open="true"
         d="m 1766.2213,4371.9956 a 5.9602985,5.9602985 0 0 1 -5.9472,5.9603 5.9602985,5.9602985 0 0 1 -5.9734,-5.934 5.9602985,5.9602985 0 0 1 5.9208,-5.9865 5.9602985,5.9602985 0 0 1 5.9996,5.9076" />
      <path
         style="opacity:1;fill:#ffffff;fill-opacity:0.33177568;fill-rule:nonzero;stroke:none;stroke-width:20.03149605;stroke-linecap:round;stroke-linejoin:round;stroke-miterlimit:4;stroke-dasharray:none;stroke-dashoffset:0;stroke-opacity:0.62616817;paint-order:markers stroke fill"
         id="path1959-83"
         sodipodi:type="arc"
         sodipodi:cx="1789.7119"
         sodipodi:cy="4346.752"
         sodipodi:rx="5.9602985"
         sodipodi:ry="5.9602985"
         sodipodi:start="0"
         sodipodi:end="6.2743539"
         sodipodi:open="true"
         d="m 1795.6722,4346.752 a 5.9602985,5.9602985 0 0 1 -5.9471,5.9602 5.9602985,5.9602985 0 0 1 -5.9734,-5.9339 5.9602985,5.9602985 0 0 1 5.9207,-5.9865 5.9602985,5.9602985 0 0 1 5.9996,5.9075" />
      <path
         style="opacity:1;fill:#ffffff;fill-opacity:0.33177568;fill-rule:nonzero;stroke:none;stroke-width:20.03149605;stroke-linecap:round;stroke-linejoin:round;stroke-miterlimit:4;stroke-dasharray:none;stroke-dashoffset:0;stroke-opacity:0.62616817;paint-order:markers stroke fill"
         id="path1959-4"
         sodipodi:type="arc"
         sodipodi:cx="1807.9434"
         sodipodi:cy="4298.3687"
         sodipodi:rx="5.9602985"
         sodipodi:ry="5.9602985"
         sodipodi:start="0"
         sodipodi:end="6.2743539"
         sodipodi:open="true"
         d="m 1813.9037,4298.3687 a 5.9602985,5.9602985 0 0 1 -5.9472,5.9602 5.9602985,5.9602985 0 0 1 -5.9734,-5.9339 5.9602985,5.9602985 0 0 1 5.9208,-5.9865 5.9602985,5.9602985 0 0 1 5.9995,5.9075" />
      <path
         style="opacity:1;fill:#ffffff;fill-opacity:0.33177568;fill-rule:nonzero;stroke:none;stroke-width:20.03149605;stroke-linecap:round;stroke-linejoin:round;stroke-miterlimit:4;stroke-dasharray:none;stroke-dashoffset:0;stroke-opacity:0.62616817;paint-order:markers stroke fill"
         id="path1959-72"
         sodipodi:type="arc"
         sodipodi:cx="1833.8882"
         sodipodi:cy="4267.5151"
         sodipodi:rx="5.9602985"
         sodipodi:ry="5.9602985"
         sodipodi:start="0"
         sodipodi:end="6.2743539"
         sodipodi:open="true"
         d="m 1839.8485,4267.5151 a 5.9602985,5.9602985 0 0 1 -5.9472,5.9603 5.9602985,5.9602985 0 0 1 -5.9734,-5.9339 5.9602985,5.9602985 0 0 1 5.9208,-5.9865 5.9602985,5.9602985 0 0 1 5.9995,5.9075" />
      <path
         style="opacity:1;fill:#ffffff;fill-opacity:0.33177568;fill-rule:nonzero;stroke:none;stroke-width:20.03149605;stroke-linecap:round;stroke-linejoin:round;stroke-miterlimit:4;stroke-dasharray:none;stroke-dashoffset:0;stroke-opacity:0.62616817;paint-order:markers stroke fill"
         id="path1959-9"
         sodipodi:type="arc"
         sodipodi:cx="1835.9918"
         sodipodi:cy="4219.833"
         sodipodi:rx="5.9602985"
         sodipodi:ry="5.9602985"
         sodipodi:start="0"
         sodipodi:end="6.2743539"
         sodipodi:open="true"
         d="m 1841.9521,4219.833 a 5.9602985,5.9602985 0 0 1 -5.9471,5.9603 5.9602985,5.9602985 0 0 1 -5.9734,-5.934 5.9602985,5.9602985 0 0 1 5.9207,-5.9865 5.9602985,5.9602985 0 0 1 5.9996,5.9076" />
    </g>
  </g>
</svg>
