<?xml version="1.0" encoding="UTF-8" standalone="no"?>
<!-- Created with Inkscape (http://www.inkscape.org/) -->

<svg
   xmlns:dc="http://purl.org/dc/elements/1.1/"
   xmlns:cc="http://creativecommons.org/ns#"
   xmlns:rdf="http://www.w3.org/1999/02/22-rdf-syntax-ns#"
   xmlns:svg="http://www.w3.org/2000/svg"
   xmlns="http://www.w3.org/2000/svg"
   xmlns:sodipodi="http://sodipodi.sourceforge.net/DTD/sodipodi-0.dtd"
   xmlns:inkscape="http://www.inkscape.org/namespaces/inkscape"
   width="139mm"
   height="176mm"
   viewBox="0 0 139 176"
   version="1.1"
   id="svg8"
   inkscape:version="0.92.2 (5c3e80d, 2017-08-06)"
   sodipodi:docname="left rock and seaweed.svg">
  <defs
     id="defs2" />
  <sodipodi:namedview
     id="base"
     pagecolor="#ffffff"
     bordercolor="#666666"
     borderopacity="1.0"
     inkscape:pageopacity="0.0"
     inkscape:pageshadow="2"
     inkscape:zoom="0.7"
     inkscape:cx="431.77597"
     inkscape:cy="523.18527"
     inkscape:document-units="mm"
     inkscape:current-layer="layer1"
     showgrid="false"
     inkscape:window-width="958"
     inkscape:window-height="1048"
     inkscape:window-x="-7"
     inkscape:window-y="0"
     inkscape:window-maximized="0"
     inkscape:snap-page="true" />
  <metadata
     id="metadata5">
    <rdf:RDF>
      <cc:Work
         rdf:about="">
        <dc:format>image/svg+xml</dc:format>
        <dc:type
           rdf:resource="http://purl.org/dc/dcmitype/StillImage" />
        <dc:title></dc:title>
      </cc:Work>
    </rdf:RDF>
  </metadata>
  <g
     inkscape:label="Layer 1"
     inkscape:groupmode="layer"
     id="layer1"
     transform="translate(0,-121)">
    <g
       transform="matrix(0.26458333,0,0,0.26458333,0,-2505.2285)"
       style="display:inline"
       id="g2407">
      <g
         inkscape:export-ydpi="224.64999"
         inkscape:export-xdpi="224.64999"
         transform="translate(39.267848,-33.658155)"
         id="g6438">
        <path
           style="fill:none;stroke:#358e69;stroke-width:22.9228344;stroke-linecap:round;stroke-linejoin:miter;stroke-miterlimit:4;stroke-dasharray:none;stroke-opacity:1"
           d="m 313.36548,10181.543 c 26.33301,114.275 -85.35765,118.584 -138.12883,203.651"
           id="path6294"
           inkscape:connector-curvature="0" />
        <path
           style="display:inline;fill:#1ec75a;fill-opacity:1;stroke:none;stroke-width:0.78706986px;stroke-linecap:butt;stroke-linejoin:miter;stroke-opacity:1"
           d="m 197.12535,10371.615 c 0,0 27.18073,25.191 52.14836,-7.76 0,0 -26.89589,-25.228 -52.14836,7.76 z"
           id="path5467-2-6-0-9-9-8-2-0-7-9-2-7-55-3-1-1-4-8-2-2-7-9-4"
           inkscape:connector-curvature="0"
           inkscape:transform-center-x="6.4715716"
           inkscape:transform-center-y="-10.648593" />
        <path
           style="display:inline;fill:#1ec75a;fill-opacity:1;stroke:none;stroke-width:0.78706986px;stroke-linecap:butt;stroke-linejoin:miter;stroke-opacity:1"
           d="m 229.77485,10341.617 c 0,0 27.18073,25.191 52.14836,-7.76 0,0 -26.89589,-25.228 -52.14836,7.76 z"
           id="path5467-2-6-0-9-9-8-2-0-7-9-2-7-55-3-1-1-4-8-2-2-7-9-4-8"
           inkscape:connector-curvature="0"
           inkscape:transform-center-x="6.4715716"
           inkscape:transform-center-y="-10.648593" />
        <path
           style="display:inline;fill:#1ec75a;fill-opacity:1;stroke:none;stroke-width:0.78706986px;stroke-linecap:butt;stroke-linejoin:miter;stroke-opacity:1"
           d="m 269.44222,10313.006 c 0,0 29.45046,22.495 51.17558,-12.678 0,0 -29.17043,-22.56 -51.17558,12.678 z"
           id="path5467-2-6-0-9-9-8-2-0-7-9-2-7-55-3-1-1-4-8-2-2-7-9-4-8-5"
           inkscape:connector-curvature="0"
           inkscape:transform-center-x="7.4529416"
           inkscape:transform-center-y="-9.9910482" />
        <path
           style="display:inline;fill:#1ec75a;fill-opacity:1;stroke:none;stroke-width:0.78706986px;stroke-linecap:butt;stroke-linejoin:miter;stroke-opacity:1"
           d="m 306.76298,10276.219 c 0,0 34.12037,14.462 46.4135,-25.009 0,0 -33.86523,-14.595 -46.4135,25.009 z"
           id="path5467-2-6-0-9-9-8-2-0-7-9-2-7-55-3-1-1-4-8-2-2-7-9-4-8-7"
           inkscape:connector-curvature="0"
           inkscape:transform-center-x="9.7005818"
           inkscape:transform-center-y="-7.8307051" />
        <path
           style="display:inline;fill:#1ec75a;fill-opacity:1;stroke:none;stroke-width:0.78706986px;stroke-linecap:butt;stroke-linejoin:miter;stroke-opacity:1"
           d="m 327.1066,10234.053 c 0,0 37.05311,-0.648 32.24973,-41.709 0,0 -36.87397,0.423 -32.24973,41.709 z"
           id="path5467-2-6-0-9-9-8-2-0-7-9-2-7-55-3-1-1-4-8-2-2-7-9-4-8-7-7"
           inkscape:connector-curvature="0"
           inkscape:transform-center-x="12.022694"
           inkscape:transform-center-y="-3.1950708" />
        <path
           style="display:inline;fill:#1ec75a;fill-opacity:1;stroke:none;stroke-width:0.78706986px;stroke-linecap:butt;stroke-linejoin:miter;stroke-opacity:1"
           d="m 301.1699,10245.38 c 0,0 17.71702,-32.55 -20.36829,-48.63 0,0 -17.82452,32.283 20.36829,48.63 z"
           id="path5467-2-6-0-9-9-8-2-0-7-9-2-7-55-3-1-1-4-8-2-2-7-9-4-8-7-7-5"
           inkscape:connector-curvature="0"
           inkscape:transform-center-x="8.7370387"
           inkscape:transform-center-y="8.8944296" />
        <path
           style="display:inline;fill:#1ec75a;fill-opacity:1;stroke:none;stroke-width:0.78706986px;stroke-linecap:butt;stroke-linejoin:miter;stroke-opacity:1"
           d="m 273.64755,10281.271 c 0,0 28.5247,-23.659 -0.8819,-52.716 0,0 -28.52542,23.371 0.8819,52.716 z"
           id="path5467-2-6-0-9-9-8-2-0-7-9-2-7-55-3-1-1-4-8-2-2-7-9-4-8-7-7-5-9"
           inkscape:connector-curvature="0"
           inkscape:transform-center-x="11.394522"
           inkscape:transform-center-y="5.0264295" />
        <path
           style="display:inline;fill:#1ec75a;fill-opacity:1;stroke:none;stroke-width:0.78706986px;stroke-linecap:butt;stroke-linejoin:miter;stroke-opacity:1"
           d="m 236.45761,10309.432 c 0,0 34.60798,-13.255 16.08005,-50.212 0,0 -34.51606,12.982 -16.08005,50.212 z"
           id="path5467-2-6-0-9-9-8-2-0-7-9-2-7-55-3-1-1-4-8-2-2-7-9-4-8-7-7-5-9-9"
           inkscape:connector-curvature="0"
           inkscape:transform-center-x="12.386617"
           inkscape:transform-center-y="1.1044293" />
        <path
           style="display:inline;fill:#1ec75a;fill-opacity:1;stroke:none;stroke-width:0.78706986px;stroke-linecap:butt;stroke-linejoin:miter;stroke-opacity:1"
           d="m 198.20775,10341.019 c 0,0 34.60798,-13.255 16.08005,-50.212 0,0 -34.51606,12.982 -16.08005,50.212 z"
           id="path5467-2-6-0-9-9-8-2-0-7-9-2-7-55-3-1-1-4-8-2-2-7-9-4-8-7-7-5-9-9-4"
           inkscape:connector-curvature="0"
           inkscape:transform-center-x="12.386617"
           inkscape:transform-center-y="1.1044293" />
      </g>
      <g
         inkscape:export-ydpi="224.64999"
         inkscape:export-xdpi="224.64999"
         transform="translate(22.43877,-1.4024231)"
         id="g6704">
        <path
           style="fill:none;stroke:#358e69;stroke-width:22.9228344;stroke-linecap:round;stroke-linejoin:miter;stroke-miterlimit:4;stroke-dasharray:none;stroke-opacity:1"
           d="m 99.591425,10338.802 c 96.536615,-30.083 43.804895,-240.871 75.621815,-272.688 30.66347,-30.664 71.16753,-81.1051 88.25799,-120.9831"
           id="path6292"
           inkscape:connector-curvature="0" />
        <path
           style="display:inline;fill:#1ec75a;fill-opacity:1;stroke:none;stroke-width:0.78706986px;stroke-linecap:butt;stroke-linejoin:miter;stroke-opacity:1"
           d="m 139.89291,10323.858 c 0,0 34.35765,13.891 45.99153,-25.781 0,0 -34.10468,-14.026 -45.99153,25.781 z"
           id="path5467-2-6-0-9-9-8-2-0-7-9-2-7-55-3-1-1-4-8-2-2-7-9-4-8-7-7-5-9-9-4-0"
           inkscape:connector-curvature="0"
           inkscape:transform-center-x="-0.97237694"
           inkscape:transform-center-y="-0.87126433" />
        <path
           style="display:inline;fill:#1ec75a;fill-opacity:1;stroke:none;stroke-width:0.78706986px;stroke-linecap:butt;stroke-linejoin:miter;stroke-opacity:1"
           d="m 159.28154,10288.059 c 0,0 37.01836,1.745 34.87637,-39.542 0,0 -36.8243,-1.957 -34.87637,39.542 z"
           id="path5467-2-6-0-9-9-8-2-0-7-9-2-7-55-3-1-1-4-8-2-2-7-9-4-8-7-7-5-9-9-4-0-7"
           inkscape:connector-curvature="0"
           inkscape:transform-center-x="0.057598327"
           inkscape:transform-center-y="-0.074663559" />
        <path
           style="display:inline;fill:#1ec75a;fill-opacity:1;stroke:none;stroke-width:0.78706986px;stroke-linecap:butt;stroke-linejoin:miter;stroke-opacity:1"
           d="m 170.84568,10236.814 c 0,0 37.03058,-1.463 31.32627,-42.41 0,0 -36.85559,1.235 -31.32627,42.41 z"
           id="path5467-2-6-0-9-9-8-2-0-7-9-2-7-55-3-1-1-4-8-2-2-7-9-4-8-7-7-5-9-9-4-0-7-6"
           inkscape:connector-curvature="0"
           inkscape:transform-center-x="0.055048378"
           inkscape:transform-center-y="-0.066695475" />
        <path
           style="display:inline;fill:#1ec75a;fill-opacity:1;stroke:none;stroke-width:0.78706986px;stroke-linecap:butt;stroke-linejoin:miter;stroke-opacity:1"
           d="m 173.6378,10191.233 c 0,0 36.72098,-4.998 27.12725,-45.212 0,0 -36.5686,4.754 -27.12725,45.212 z"
           id="path5467-2-6-0-9-9-8-2-0-7-9-2-7-55-3-1-1-4-8-2-2-7-9-4-8-7-7-5-9-9-4-0-7-6-5"
           inkscape:connector-curvature="0"
           inkscape:transform-center-x="0.056535755"
           inkscape:transform-center-y="-0.059695475" />
        <path
           style="display:inline;fill:#1ec75a;fill-opacity:1;stroke:none;stroke-width:0.78706986px;stroke-linecap:butt;stroke-linejoin:miter;stroke-opacity:1"
           d="m 174.3405,10140.388 c 0,0 36.72098,-4.998 27.12725,-45.212 0,0 -36.5686,4.754 -27.12725,45.212 z"
           id="path5467-2-6-0-9-9-8-2-0-7-9-2-7-55-3-1-1-4-8-2-2-7-9-4-8-7-7-5-9-9-4-0-7-6-5-8"
           inkscape:connector-curvature="0"
           inkscape:transform-center-x="0.056535755"
           inkscape:transform-center-y="-0.059695475" />
        <path
           style="display:inline;fill:#1ec75a;fill-opacity:1;stroke:none;stroke-width:0.78706986px;stroke-linecap:butt;stroke-linejoin:miter;stroke-opacity:1"
           d="m 177.72186,10088.91 c 0,0 36.26365,7.639 40.74889,-33.46 0,0 -36.03829,-7.816 -40.74889,33.46 z"
           id="path5467-2-6-0-9-9-8-2-0-7-9-2-7-55-3-1-1-4-8-2-2-7-9-4-8-7-7-5-9-9-4-0-7-6-5-8-3"
           inkscape:connector-curvature="0"
           inkscape:transform-center-x="0.052504687"
           inkscape:transform-center-y="-0.097068063" />
        <path
           style="display:inline;fill:#1ec75a;fill-opacity:1;stroke:none;stroke-width:0.78706986px;stroke-linecap:butt;stroke-linejoin:miter;stroke-opacity:1"
           d="m 209.22804,10045.834 c 0,0 31.13437,20.102 50.01929,-16.676 0,0 -30.86067,-20.186 -50.01929,16.676 z"
           id="path5467-2-6-0-9-9-8-2-0-7-9-2-7-55-3-1-1-4-8-2-2-7-9-4-8-7-7-5-9-9-4-0-7-6-5-8-3-5"
           inkscape:connector-curvature="0"
           inkscape:transform-center-x="0.019474686"
           inkscape:transform-center-y="-0.11212055" />
        <path
           style="display:inline;fill:#1ec75a;fill-opacity:1;stroke:none;stroke-width:0.78706986px;stroke-linecap:butt;stroke-linejoin:miter;stroke-opacity:1"
           d="m 235.7653,10011.786 c 0,0 32.44194,17.916 48.75532,-20.0733 0,0 -32.17466,-18.0179 -48.75532,20.0733 z"
           id="path5467-2-6-0-9-9-8-2-0-7-9-2-7-55-3-1-1-4-8-2-2-7-9-4-8-7-7-5-9-9-4-0-7-6-5-8-3-5-7"
           inkscape:connector-curvature="0"
           inkscape:transform-center-x="0.025999686"
           inkscape:transform-center-y="-0.11279267" />
        <path
           style="display:inline;fill:#1ec75a;fill-opacity:1;stroke:none;stroke-width:0.78706986px;stroke-linecap:butt;stroke-linejoin:miter;stroke-opacity:1"
           d="m 259.07201,9978.269 c 0,0 35.19903,11.5971 44.19366,-28.7565 0,0 -34.95524,-11.7466 -44.19366,28.7565 z"
           id="path5467-2-6-0-9-9-8-2-0-7-9-2-7-55-3-1-1-4-8-2-2-7-9-4-8-7-7-5-9-9-4-0-7-6-5-8-3-5-7-6"
           inkscape:connector-curvature="0"
           inkscape:transform-center-x="0.043009686"
           inkscape:transform-center-y="-0.10689418" />
        <path
           style="display:inline;fill:#1ec75a;fill-opacity:1;stroke:none;stroke-width:0.78706986px;stroke-linecap:butt;stroke-linejoin:miter;stroke-opacity:1"
           d="m 229.04971,9984.7033 c 0,0 28.14658,-24.1088 -1.71952,-52.6978 0,0 -28.14827,23.8228 1.71952,52.6978 z"
           id="path5467-2-6-0-9-9-8-2-0-7-9-2-7-55-3-1-1-4-8-2-2-7-9-4-8-7-7-5-9-9-4-0-7-6-5-8-3-5-7-6-1"
           inkscape:connector-curvature="0"
           inkscape:transform-center-x="0.097794801"
           inkscape:transform-center-y="-0.0086955157" />
        <path
           style="display:inline;fill:#1ec75a;fill-opacity:1;stroke:none;stroke-width:0.78706986px;stroke-linecap:butt;stroke-linejoin:miter;stroke-opacity:1"
           d="m 201.7781,10019.67 c 0,0 29.37147,-22.6011 1.04479,-52.7161 0,0 -29.35816,22.3147 -1.04479,52.7161 z"
           id="path5467-2-6-0-9-9-8-2-0-7-9-2-7-55-3-1-1-4-8-2-2-7-9-4-8-7-7-5-9-9-4-0-7-6-5-8-3-5-7-6-1-1"
           inkscape:connector-curvature="0"
           inkscape:transform-center-x="0.093878199"
           inkscape:transform-center-y="-0.013645516" />
        <path
           style="display:inline;fill:#1ec75a;fill-opacity:1;stroke:none;stroke-width:0.78706986px;stroke-linecap:butt;stroke-linejoin:miter;stroke-opacity:1"
           d="m 174.31223,10051.083 c 0,0 31.17196,-20.045 5.48444,-52.4401 0,0 -31.13459,19.7611 -5.48444,52.4401 z"
           id="path5467-2-6-0-9-9-8-2-0-7-9-2-7-55-3-1-1-4-8-2-2-7-9-4-8-7-7-5-9-9-4-0-7-6-5-8-3-5-7-6-1-1-7"
           inkscape:connector-curvature="0"
           inkscape:transform-center-x="0.08713609"
           inkscape:transform-center-y="-0.021795516" />
        <path
           style="display:inline;fill:#1ec75a;fill-opacity:1;stroke:none;stroke-width:0.78706986px;stroke-linecap:butt;stroke-linejoin:miter;stroke-opacity:1"
           d="m 152.97095,10112.7 c 0,0 16.6343,-33.117 -21.96329,-47.933 0,0 -16.74664,32.854 21.96329,47.933 z"
           id="path5467-2-6-0-9-9-8-2-0-7-9-2-7-55-3-1-1-4-8-2-2-7-9-4-8-7-7-5-9-9-4-0-7-6-5-8-3-5-7-6-1-1-7-4"
           inkscape:connector-curvature="0"
           inkscape:transform-center-x="0.11258199"
           inkscape:transform-center-y="0.029704486" />
        <path
           style="display:inline;fill:#1ec75a;fill-opacity:1;stroke:none;stroke-width:0.78706986px;stroke-linecap:butt;stroke-linejoin:miter;stroke-opacity:1"
           d="m 151.24338,10168.044 c 0,0 16.6343,-33.117 -21.96329,-47.933 0,0 -16.74664,32.854 21.96329,47.933 z"
           id="path5467-2-6-0-9-9-8-2-0-7-9-2-7-55-3-1-1-4-8-2-2-7-9-4-8-7-7-5-9-9-4-0-7-6-5-8-3-5-7-6-1-1-7-4-1"
           inkscape:connector-curvature="0"
           inkscape:transform-center-x="0.11258199"
           inkscape:transform-center-y="0.029704486" />
        <path
           style="display:inline;fill:#1ec75a;fill-opacity:1;stroke:none;stroke-width:0.78706986px;stroke-linecap:butt;stroke-linejoin:miter;stroke-opacity:1"
           d="m 148.78914,10217.48 c 0,0 16.6343,-33.117 -21.96329,-47.933 0,0 -16.74664,32.854 21.96329,47.933 z"
           id="path5467-2-6-0-9-9-8-2-0-7-9-2-7-55-3-1-1-4-8-2-2-7-9-4-8-7-7-5-9-9-4-0-7-6-5-8-3-5-7-6-1-1-7-4-1-6"
           inkscape:connector-curvature="0"
           inkscape:transform-center-x="0.11258199"
           inkscape:transform-center-y="0.029704486" />
        <path
           style="display:inline;fill:#1ec75a;fill-opacity:1;stroke:none;stroke-width:0.78706986px;stroke-linecap:butt;stroke-linejoin:miter;stroke-opacity:1"
           d="m 143.2349,10262.254 c 0,0 19.79309,-31.332 -17.17065,-49.851 0,0 -19.87917,31.059 17.17065,49.851 z"
           id="path5467-2-6-0-9-9-8-2-0-7-9-2-7-55-3-1-1-4-8-2-2-7-9-4-8-7-7-5-9-9-4-0-7-6-5-8-3-5-7-6-1-1-7-4-1-6-6"
           inkscape:connector-curvature="0"
           inkscape:transform-center-x="0.11230556"
           inkscape:transform-center-y="0.020704486" />
        <path
           style="display:inline;fill:#1ec75a;fill-opacity:1;stroke:none;stroke-width:0.78706986px;stroke-linecap:butt;stroke-linejoin:miter;stroke-opacity:1"
           d="m 129.12925,10302.827 c 0,0 23.99676,-28.242 -10.00019,-51.768 0,0 -24.043641,27.959 10.00019,51.768 z"
           id="path5467-2-6-0-9-9-8-2-0-7-9-2-7-55-3-1-1-4-8-2-2-7-9-4-8-7-7-5-9-9-4-0-7-6-5-8-3-5-7-6-1-1-7-4-1-6-6-8"
           inkscape:connector-curvature="0"
           inkscape:transform-center-x="0.1075783"
           inkscape:transform-center-y="0.0072044855" />
      </g>
      <g
         id="g2372">
        <path
           style="fill:#322244;fill-opacity:1;stroke:none;stroke-width:0.90100849px;stroke-linecap:butt;stroke-linejoin:miter;stroke-opacity:1"
           d="m 92.054206,10352.798 c -21.266825,0.09 -45.473522,5.675 -74.183618,18.511 -6.321142,6.321 -12.2716708,12.599 -17.870588,18.832 v 201.058 h 522.28399 c -38.62042,-65.129 -88.30035,-120.075 -138.07954,-169.854 -33.09836,-33.098 -132.74151,37.023 -169.76443,0 -38.14122,-38.141 -72.01703,-68.759 -122.385814,-68.547 z"
           id="path6142"
           inkscape:connector-curvature="0"
           inkscape:export-xdpi="224.64999"
           inkscape:export-ydpi="224.64999" />
        <path
           style="fill:#4b2e47;fill-opacity:1;stroke:none;stroke-width:0.90100849px;stroke-linecap:butt;stroke-linejoin:miter;stroke-opacity:1"
           d="m 0,10115.35 v 475.75 c 19.543969,0.37 44.154292,0.03 50.035886,-5.852 27.659865,-27.659 192.995304,-2.593 192.995304,-46.461 0,-43.702 51.32647,-209.078 -3.57412,-209.078 -42.08489,0 -110.07595,-40.384 -135.81118,-66.119 C 38.943286,10198.888 97.609293,10134.167 0,10115.35 Z"
           id="path6187"
           inkscape:connector-curvature="0"
           inkscape:export-xdpi="224.64999"
           inkscape:export-ydpi="224.64999" />
      </g>
    </g>
  </g>
</svg>
