<?xml version="1.0" encoding="UTF-8" standalone="no"?>
<!-- Created with Inkscape (http://www.inkscape.org/) -->

<svg
   xmlns:dc="http://purl.org/dc/elements/1.1/"
   xmlns:cc="http://creativecommons.org/ns#"
   xmlns:rdf="http://www.w3.org/1999/02/22-rdf-syntax-ns#"
   xmlns:svg="http://www.w3.org/2000/svg"
   xmlns="http://www.w3.org/2000/svg"
   xmlns:sodipodi="http://sodipodi.sourceforge.net/DTD/sodipodi-0.dtd"
   xmlns:inkscape="http://www.inkscape.org/namespaces/inkscape"
   width="154mm"
   height="180mm"
   viewBox="0 0 154 180"
   version="1.1"
   id="svg8"
   inkscape:version="0.92.2 (5c3e80d, 2017-08-06)"
   sodipodi:docname="right rock and seaweed.svg">
  <defs
     id="defs2" />
  <sodipodi:namedview
     id="base"
     pagecolor="#ffffff"
     bordercolor="#666666"
     borderopacity="1.0"
     inkscape:pageopacity="0.0"
     inkscape:pageshadow="2"
     inkscape:zoom="0.7"
     inkscape:cx="431.77597"
     inkscape:cy="523.18527"
     inkscape:document-units="mm"
     inkscape:current-layer="layer1"
     showgrid="false"
     inkscape:window-width="958"
     inkscape:window-height="1048"
     inkscape:window-x="-7"
     inkscape:window-y="0"
     inkscape:window-maximized="0"
     inkscape:snap-page="true" />
  <metadata
     id="metadata5">
    <rdf:RDF>
      <cc:Work
         rdf:about="">
        <dc:format>image/svg+xml</dc:format>
        <dc:type
           rdf:resource="http://purl.org/dc/dcmitype/StillImage" />
        <dc:title></dc:title>
      </cc:Work>
    </rdf:RDF>
  </metadata>
  <g
     inkscape:label="Layer 1"
     inkscape:groupmode="layer"
     id="layer1"
     transform="translate(0,-117)">
    <g
       transform="matrix(0.26458333,0,0,0.26458333,-353.99999,-2505.2547)"
       style="display:inline"
       id="g2462">
      <g
         inkscape:export-ydpi="224.64999"
         inkscape:export-xdpi="224.64999"
         transform="translate(-32.656762,-53.255326)"
         id="g5816">
        <path
           style="fill:none;fill-opacity:1;stroke:#358e69;stroke-width:22.9228344;stroke-linecap:round;stroke-linejoin:miter;stroke-miterlimit:4;stroke-dasharray:none;stroke-opacity:1"
           d="m 1610.4606,9982.609 c -54.2326,67.86 16.9393,80.486 42.6415,131.891 30.9394,61.879 -105.3647,119.494 -67.4331,195.357 22.5528,45.106 84.4422,42.944 104.1246,82.308 23.9458,47.892 37.8543,97.186 87.2664,122.967"
           id="path5461"
           inkscape:connector-curvature="0" />
        <path
           style="fill:#1ec75a;fill-opacity:1;stroke:none;stroke-width:0.78706986px;stroke-linecap:butt;stroke-linejoin:miter;stroke-opacity:1"
           d="m 1615.9459,10009.425 c 0,0 -25.4248,26.96 7.3084,52.213 0,0 25.4651,-26.672 -7.3084,-52.213 z"
           id="path5467"
           inkscape:connector-curvature="0" />
        <path
           style="display:inline;fill:#1ec75a;fill-opacity:1;stroke:none;stroke-width:0.78706986px;stroke-linecap:butt;stroke-linejoin:miter;stroke-opacity:1"
           d="m 1646.039,10035.685 c 0,0 -28.3479,23.867 1.2737,52.707 0,0 28.3554,-23.576 -1.2737,-52.707 z"
           id="path5467-4"
           inkscape:connector-curvature="0" />
        <path
           style="display:inline;fill:#1ec75a;fill-opacity:1;stroke:none;stroke-width:0.78706986px;stroke-linecap:butt;stroke-linejoin:miter;stroke-opacity:1"
           d="m 1679.6536,10065.801 c 0,0 -33.8555,15.067 -13.3952,50.991 0,0 33.7819,-14.786 13.3952,-50.991 z"
           id="path5467-9"
           inkscape:connector-curvature="0" />
        <path
           style="display:inline;fill:#1ec75a;fill-opacity:1;stroke:none;stroke-width:0.78706986px;stroke-linecap:butt;stroke-linejoin:miter;stroke-opacity:1"
           d="m 1703.8949,10116.248 c 0,0 -36.5894,-5.868 -39.0699,35.399 0,0 36.3744,6.061 39.0699,-35.399 z"
           id="path5467-2"
           inkscape:connector-curvature="0" />
        <path
           style="display:inline;fill:#1ec75a;fill-opacity:1;stroke:none;stroke-width:0.78706986px;stroke-linecap:butt;stroke-linejoin:miter;stroke-opacity:1"
           d="m 1696.111,10166.762 c 0,0 -31.8997,-18.858 -49.3183,18.635 0,0 31.629,18.959 49.3183,-18.635 z"
           id="path5467-2-4"
           inkscape:connector-curvature="0" />
        <path
           style="display:inline;fill:#1ec75a;fill-opacity:1;stroke:none;stroke-width:0.78706986px;stroke-linecap:butt;stroke-linejoin:miter;stroke-opacity:1"
           d="m 1674.2214,10203.413 c 0,0 -29.4866,-22.444 -51.1528,12.765 0,0 29.206,22.514 51.1528,-12.765 z"
           id="path5467-2-2"
           inkscape:connector-curvature="0" />
        <path
           style="display:inline;fill:#1ec75a;fill-opacity:1;stroke:none;stroke-width:0.78706986px;stroke-linecap:butt;stroke-linejoin:miter;stroke-opacity:1"
           d="m 1648.3214,10234.056 c 0,0 -31.2327,-19.943 -49.9296,16.929 0,0 30.9587,20.035 49.9296,-16.929 z"
           id="path5467-2-3"
           inkscape:connector-curvature="0" />
        <path
           style="display:inline;fill:#1ec75a;fill-opacity:1;stroke:none;stroke-width:0.78706986px;stroke-linecap:butt;stroke-linejoin:miter;stroke-opacity:1"
           d="m 1616.1624,10258.796 c 0,0 -36.0075,8.757 -22.3165,47.766 0,0 35.8839,-8.496 22.3165,-47.766 z"
           id="path5467-2-8"
           inkscape:connector-curvature="0" />
        <path
           style="display:inline;fill:#1ec75a;fill-opacity:1;stroke:none;stroke-width:0.78706986px;stroke-linecap:butt;stroke-linejoin:miter;stroke-opacity:1"
           d="m 1616.7501,10295.449 c 0,0 -16.5329,33.165 22.1076,47.863 0,0 16.6529,-32.902 -22.1076,-47.863 z"
           id="path5467-2-6"
           inkscape:connector-curvature="0" />
        <path
           style="display:inline;fill:#1ec75a;fill-opacity:1;stroke:none;stroke-width:0.78706986px;stroke-linecap:butt;stroke-linejoin:miter;stroke-opacity:1"
           d="m 1653.2073,10316.651 c 0,0 -14.0758,34.28 25.5318,46.128 0,0 14.2146,-34.027 -25.5318,-46.128 z"
           id="path5467-2-6-5"
           inkscape:connector-curvature="0" />
        <path
           style="display:inline;fill:#1ec75a;fill-opacity:1;stroke:none;stroke-width:0.78706986px;stroke-linecap:butt;stroke-linejoin:miter;stroke-opacity:1"
           d="m 1701.0633,10389.801 c 0,0 -30.486,-21.067 -3.7377,-52.59 0,0 30.4646,20.78 3.7377,52.59 z"
           id="path5467-2-6-0"
           inkscape:connector-curvature="0" />
        <path
           style="display:inline;fill:#1ec75a;fill-opacity:1;stroke:none;stroke-width:0.78706986px;stroke-linecap:butt;stroke-linejoin:miter;stroke-opacity:1"
           d="m 1718.049,10383.877 c 0,0 -26.6069,25.793 4.9608,52.488 0,0 26.633,-25.506 -4.9608,-52.488 z"
           id="path5467-2-6-0-4"
           inkscape:connector-curvature="0" />
        <path
           style="display:inline;fill:#1ec75a;fill-opacity:1;stroke:none;stroke-width:0.78706986px;stroke-linecap:butt;stroke-linejoin:miter;stroke-opacity:1"
           d="m 1650.5594,10392.721 c 0,0 1.882,37.009 42.7609,30.84 0,0 -1.6489,-36.839 -42.7609,-30.84 z"
           id="path5467-2-6-0-9"
           inkscape:connector-curvature="0" />
        <path
           style="display:inline;fill:#1ec75a;fill-opacity:1;stroke:none;stroke-width:0.78706986px;stroke-linecap:butt;stroke-linejoin:miter;stroke-opacity:1"
           d="m 1620.6279,10368.123 c 0,0 12.9394,34.724 50.0631,16.532 0,0 -12.6659,-34.633 -50.0631,-16.532 z"
           id="path5467-2-6-0-9-9"
           inkscape:connector-curvature="0"
           inkscape:transform-center-x="0.99166295"
           inkscape:transform-center-y="-12.395787" />
        <path
           style="display:inline;fill:#1ec75a;fill-opacity:1;stroke:none;stroke-width:0.78706986px;stroke-linecap:butt;stroke-linejoin:miter;stroke-opacity:1"
           d="m 1579.9711,10342.639 c 0,0 11.3137,35.288 49.2418,18.838 0,0 -11.0448,-35.183 -49.2418,-18.838 z"
           id="path5467-2-6-0-9-9-4"
           inkscape:connector-curvature="0"
           inkscape:transform-center-x="0.41441293"
           inkscape:transform-center-y="-12.427005" />
        <path
           style="display:inline;fill:#1ec75a;fill-opacity:1;stroke:none;stroke-width:0.78706986px;stroke-linecap:butt;stroke-linejoin:miter;stroke-opacity:1"
           d="m 1550.3528,10296.411 c 0,0 -3.3863,36.902 37.9541,36.594 0,0 3.5931,-36.7 -37.9541,-36.594 z"
           id="path5467-2-6-0-9-9-8"
           inkscape:connector-curvature="0"
           inkscape:transform-center-x="-4.4912528"
           inkscape:transform-center-y="-11.616727" />
        <path
           style="display:inline;fill:#1ec75a;fill-opacity:1;stroke:none;stroke-width:0.78706986px;stroke-linecap:butt;stroke-linejoin:miter;stroke-opacity:1"
           d="m 1553.3627,10227.938 c 0,0 -21.4049,30.25 14.5365,50.678 0,0 21.4829,-29.971 -14.5365,-50.678 z"
           id="path5467-2-6-0-9-9-8-2"
           inkscape:connector-curvature="0"
           inkscape:transform-center-x="-9.7148213"
           inkscape:transform-center-y="-7.8115709" />
        <path
           style="display:inline;fill:#1ec75a;fill-opacity:1;stroke:none;stroke-width:0.78706986px;stroke-linecap:butt;stroke-linejoin:miter;stroke-opacity:1"
           d="m 1584.2612,10179.068 c 0,0 -28.0197,24.251 1.9914,52.684 0,0 28.0288,-23.962 -1.9914,-52.684 z"
           id="path5467-2-6-0-9-9-8-2-0"
           inkscape:connector-curvature="0"
           inkscape:transform-center-x="-11.288107"
           inkscape:transform-center-y="-5.2645708" />
        <path
           style="display:inline;fill:#1ec75a;fill-opacity:1;stroke:none;stroke-width:0.78706986px;stroke-linecap:butt;stroke-linejoin:miter;stroke-opacity:1"
           d="m 1621.3296,10139.664 c 0,0 -31.8628,18.921 -7.3458,52.208 0,0 31.8206,-18.635 7.3458,-52.208 z"
           id="path5467-2-6-0-9-9-8-2-0-7"
           inkscape:connector-curvature="0"
           inkscape:transform-center-x="-12.029317"
           inkscape:transform-center-y="-3.1885707" />
        <path
           style="display:inline;fill:#1ec75a;fill-opacity:1;stroke:none;stroke-width:0.78706986px;stroke-linecap:butt;stroke-linejoin:miter;stroke-opacity:1"
           d="m 1614.6191,10099.212 c 0,0 -9.7173,35.761 31.0533,42.607 0,0 9.886,-35.526 -31.0533,-42.607 z"
           id="path5467-2-6-0-9-9-8-2-0-7-6"
           inkscape:connector-curvature="0"
           inkscape:transform-center-x="-6.4451164"
           inkscape:transform-center-y="-10.667071" />
        <path
           style="display:inline;fill:#1ec75a;fill-opacity:1;stroke:none;stroke-width:0.78706986px;stroke-linecap:butt;stroke-linejoin:miter;stroke-opacity:1"
           d="m 1573.5919,10078.328 c 0,0 14.3056,34.186 50.6789,14.536 0,0 -14.0282,-34.103 -50.6789,-14.536 z"
           id="path5467-2-6-0-9-9-8-2-0-7-9"
           inkscape:connector-curvature="0"
           inkscape:transform-center-x="1.4832618"
           inkscape:transform-center-y="-12.348807" />
        <path
           style="display:inline;fill:#1ec75a;fill-opacity:1;stroke:none;stroke-width:0.78706986px;stroke-linecap:butt;stroke-linejoin:miter;stroke-opacity:1"
           d="m 1548.1488,10034.47 c 0,0 4.7304,36.756 45.0117,27.452 0,0 -4.485,-36.602 -45.0117,-27.452 z"
           id="path5467-2-6-0-9-9-8-2-0-7-9-6"
           inkscape:connector-curvature="0"
           inkscape:transform-center-x="-1.8481383"
           inkscape:transform-center-y="-12.296207" />
      </g>
      <g
         inkscape:export-ydpi="224.64999"
         inkscape:export-xdpi="224.64999"
         transform="rotate(6.8301348,2791.0504,10178.897)"
         id="g5919">
        <path
           style="fill:none;fill-opacity:1;stroke:#358e69;stroke-width:22.9228344;stroke-linecap:round;stroke-linejoin:miter;stroke-miterlimit:4;stroke-dasharray:none;stroke-opacity:1"
           d="m 1760.5512,10148.458 c 77.3207,104.379 -62.0422,187.721 48.7212,307.088"
           id="path5463"
           inkscape:connector-curvature="0" />
        <path
           style="display:inline;fill:#1ec75a;fill-opacity:1;stroke:none;stroke-width:0.78706986px;stroke-linecap:butt;stroke-linejoin:miter;stroke-opacity:1"
           d="m 1788.1347,10362.862 c 0,0 -27.077,25.302 3.9957,52.57 0,0 27.0957,-25.012 -3.9957,-52.57 z"
           id="path5467-2-6-0-9-9-8-2-0-7-9-2"
           inkscape:connector-curvature="0"
           inkscape:transform-center-x="-11.081968"
           inkscape:transform-center-y="-5.691571" />
        <path
           style="display:inline;fill:#1ec75a;fill-opacity:1;stroke:none;stroke-width:0.78706986px;stroke-linecap:butt;stroke-linejoin:miter;stroke-opacity:1"
           d="m 1800.9348,10311.204 c 0,0 -36.4738,6.559 -25.1713,46.325 0,0 36.3322,-6.306 25.1713,-46.325 z"
           id="path5467-2-6-0-9-9-8-2-0-7-9-2-7"
           inkscape:connector-curvature="0"
           inkscape:transform-center-x="-12.372132"
           inkscape:transform-center-y="1.2309293" />
        <path
           style="display:inline;fill:#1ec75a;fill-opacity:1;stroke:none;stroke-width:0.78706986px;stroke-linecap:butt;stroke-linejoin:miter;stroke-opacity:1"
           d="m 1814.3096,10264.102 c 0,0 -37.0587,0.09 -32.8731,41.219 0,0 36.8751,0.134 32.8731,-41.219 z"
           id="path5467-2-6-0-9-9-8-2-0-7-9-2-7-5"
           inkscape:connector-curvature="0"
           inkscape:transform-center-x="-11.975166"
           inkscape:transform-center-y="3.3759322" />
        <path
           style="display:inline;fill:#1ec75a;fill-opacity:1;stroke:none;stroke-width:0.78706986px;stroke-linecap:butt;stroke-linejoin:miter;stroke-opacity:1"
           d="m 1814.4685,10210.32 c 0,0 -35.9027,9.184 -21.7487,48.027 0,0 35.7798,-8.922 21.7487,-48.027 z"
           id="path5467-2-6-0-9-9-8-2-0-7-9-2-7-4"
           inkscape:connector-curvature="0"
           inkscape:transform-center-x="-12.428885"
           inkscape:transform-center-y="0.32992927" />
        <path
           style="display:inline;fill:#1ec75a;fill-opacity:1;stroke:none;stroke-width:0.78706986px;stroke-linecap:butt;stroke-linejoin:miter;stroke-opacity:1"
           d="m 1810.6166,10154.123 c 0,0 -34.0999,14.51 -14.2322,50.764 0,0 34.0182,-14.232 14.2322,-50.764 z"
           id="path5467-2-6-0-9-9-8-2-0-7-9-2-7-3"
           inkscape:connector-curvature="0"
           inkscape:transform-center-x="-12.340013"
           inkscape:transform-center-y="-1.5575708" />
        <path
           style="display:inline;fill:#1ec75a;fill-opacity:1;stroke:none;stroke-width:0.78706986px;stroke-linecap:butt;stroke-linejoin:miter;stroke-opacity:1"
           d="m 1745.7436,10187.174 c 0,0 -11.8244,35.122 28.4676,44.376 0,0 11.9779,-34.876 -28.4676,-44.376 z"
           id="path5467-2-6-0-9-9-8-2-0-7-9-2-7-8"
           inkscape:connector-curvature="0"
           inkscape:transform-center-x="-7.0694162"
           inkscape:transform-center-y="-10.267571" />
        <path
           style="display:inline;fill:#1ec75a;fill-opacity:1;stroke:none;stroke-width:0.78706986px;stroke-linecap:butt;stroke-linejoin:miter;stroke-opacity:1"
           d="m 1745.9578,10231.965 c 0,0 -19.1759,31.712 18.1414,49.504 0,0 19.2721,-31.439 -18.1414,-49.504 z"
           id="path5467-2-6-0-9-9-8-2-0-7-9-2-7-55"
           inkscape:connector-curvature="0"
           inkscape:transform-center-x="-9.1309797"
           inkscape:transform-center-y="-8.4895711" />
        <path
           style="display:inline;fill:#1ec75a;fill-opacity:1;stroke:none;stroke-width:0.78706986px;stroke-linecap:butt;stroke-linejoin:miter;stroke-opacity:1"
           d="m 1741.2244,10282.17 c 0,0 -22.18,29.688 13.2222,51.038 0,0 22.2491,-29.407 -13.2222,-51.038 z"
           id="path5467-2-6-0-9-9-8-2-0-7-9-2-7-55-5"
           inkscape:connector-curvature="0"
           inkscape:transform-center-x="-9.9121207"
           inkscape:transform-center-y="-7.5595711" />
        <path
           style="display:inline;fill:#1ec75a;fill-opacity:1;stroke:none;stroke-width:0.78706986px;stroke-linecap:butt;stroke-linejoin:miter;stroke-opacity:1"
           d="m 1725.7121,10341.117 c 0,0 -9.7503,35.753 31.0144,42.636 0,0 9.9176,-35.516 -31.0144,-42.636 z"
           id="path5467-2-6-0-9-9-8-2-0-7-9-2-7-55-6"
           inkscape:connector-curvature="0"
           inkscape:transform-center-x="-6.4548802"
           inkscape:transform-center-y="-10.662571" />
        <path
           style="display:inline;fill:#1ec75a;fill-opacity:1;stroke:none;stroke-width:0.78706986px;stroke-linecap:butt;stroke-linejoin:miter;stroke-opacity:1"
           d="m 1738.4538,10401.484 c 0,0 -0.649,37.052 40.5557,33.689 0,0 0.8693,-36.866 -40.5557,-33.689 z"
           id="path5467-2-6-0-9-9-8-2-0-7-9-2-7-55-60"
           inkscape:connector-curvature="0"
           inkscape:transform-center-x="-3.6147407"
           inkscape:transform-center-y="-11.907233" />
      </g>
      <g
         inkscape:export-ydpi="224.64999"
         inkscape:export-xdpi="224.64999"
         transform="rotate(-8.8168194,1078.007,10697.305)"
         id="g6108">
        <g
           id="g6092"
           transform="translate(-22.43877,16.127866)">
          <path
             inkscape:connector-curvature="0"
             id="path5465"
             d="m 1467.6643,10295.761 c 24.7396,3.853 44.613,13.055 60.3372,25.971 21.3473,17.538 -37.9524,74.092 -3.952,102.022 51.3489,42.184 122.3173,52.181 159.6264,113.891"
             style="fill:none;fill-opacity:1;stroke:#358e69;stroke-width:22.9228344;stroke-linecap:round;stroke-linejoin:miter;stroke-miterlimit:4;stroke-dasharray:none;stroke-opacity:1" />
          <path
             inkscape:transform-center-y="-8.9910711"
             inkscape:transform-center-x="-8.6379976"
             inkscape:connector-curvature="0"
             id="path5467-2-6-0-9-9-8-2-0-7-9-2-7-55-3"
             d="m 1637.472,10443.625 c 0,0 -17.3524,32.745 20.9111,48.399 0,0 17.4639,-32.478 -20.9111,-48.399 z"
             style="display:inline;fill:#1ec75a;fill-opacity:1;stroke:none;stroke-width:0.78706986px;stroke-linecap:butt;stroke-linejoin:miter;stroke-opacity:1" />
          <path
             inkscape:transform-center-y="-10.247571"
             inkscape:transform-center-x="-7.0979035"
             inkscape:connector-curvature="0"
             id="path5467-2-6-0-9-9-8-2-0-7-9-2-7-55-3-9"
             d="m 1588.7783,10420.106 c 0,0 -11.9219,35.089 28.3447,44.456 0,0 12.0745,-34.843 -28.3447,-44.456 z"
             style="display:inline;fill:#1ec75a;fill-opacity:1;stroke:none;stroke-width:0.78706986px;stroke-linecap:butt;stroke-linejoin:miter;stroke-opacity:1" />
          <path
             inkscape:transform-center-y="-10.438571"
             inkscape:transform-center-x="-6.8122341"
             inkscape:connector-curvature="0"
             id="path5467-2-6-0-9-9-8-2-0-7-9-2-7-55-3-1"
             d="m 1544.0054,10398.497 c 0,0 -10.951,35.403 29.5583,43.658 0,0 11.1103,-35.162 -29.5583,-43.658 z"
             style="display:inline;fill:#1ec75a;fill-opacity:1;stroke:none;stroke-width:0.78706986px;stroke-linecap:butt;stroke-linejoin:miter;stroke-opacity:1" />
          <path
             inkscape:transform-center-y="-0.37457058"
             inkscape:transform-center-x="-12.428789"
             inkscape:connector-curvature="0"
             id="path5467-2-6-0-9-9-8-2-0-7-9-2-7-55-3-1-1"
             d="m 1544.2803,10357.416 c 0,0 -35.3254,11.199 -18.9992,49.18 0,0 35.2182,-10.931 18.9992,-49.18 z"
             style="display:inline;fill:#1ec75a;fill-opacity:1;stroke:none;stroke-width:0.78706986px;stroke-linecap:butt;stroke-linejoin:miter;stroke-opacity:1" />
          <path
             inkscape:transform-center-y="3.6820567"
             inkscape:transform-center-x="-11.887449"
             inkscape:connector-curvature="0"
             id="path5467-2-6-0-9-9-8-2-0-7-9-2-7-55-3-1-1-4"
             d="m 1572.8424,10314.166 c 0,0 -37.0482,-0.859 -33.9171,40.364 0,0 36.8598,1.077 33.9171,-40.364 z"
             style="display:inline;fill:#1ec75a;fill-opacity:1;stroke:none;stroke-width:0.78706986px;stroke-linecap:butt;stroke-linejoin:miter;stroke-opacity:1" />
          <path
             inkscape:transform-center-y="-11.466904"
             inkscape:transform-center-x="4.8575116"
             inkscape:connector-curvature="0"
             id="path5467-2-6-0-9-9-8-2-0-7-9-2-7-55-3-1-1-4-8-2"
             d="m 1444.6452,10316.687 c 0,0 23.2332,28.871 52.722,-0.104 0,0 -22.9464,-28.868 -52.722,0.104 z"
             style="display:inline;fill:#1ec75a;fill-opacity:1;stroke:none;stroke-width:0.78706986px;stroke-linecap:butt;stroke-linejoin:miter;stroke-opacity:1" />
          <path
             inkscape:transform-center-y="-5.2510662"
             inkscape:transform-center-x="-11.161972"
             inkscape:connector-curvature="0"
             id="path5467-2-6-0-9-9-8-2-0-7-9-2-7-55-3-1-1-4-8-2-1"
             d="m 1509.1231,10311.877 c 0,0 -27.6711,24.11 2.1442,52.17 0,0 27.6793,-23.826 -2.1442,-52.17 z"
             style="display:inline;fill:#1ec75a;fill-opacity:1;stroke:none;stroke-width:0.77947867px;stroke-linecap:butt;stroke-linejoin:miter;stroke-opacity:1" />
          <path
             inkscape:transform-center-y="-10.668571"
             inkscape:transform-center-x="-6.4425728"
             inkscape:connector-curvature="0"
             id="path5467-2-6-0-9-9-8-2-0-7-9-2-7-55-3-1-1-4-8-2-2"
             d="m 1471.5932,10359.126 c 0,0 -9.7097,35.764 31.063,42.6 0,0 9.8758,-35.53 -31.063,-42.6 z"
             style="display:inline;fill:#1ec75a;fill-opacity:1;stroke:none;stroke-width:0.78706986px;stroke-linecap:butt;stroke-linejoin:miter;stroke-opacity:1" />
          <path
             inkscape:transform-center-y="-12.043589"
             inkscape:transform-center-x="3.1327615"
             inkscape:connector-curvature="0"
             id="path5467-2-6-0-9-9-8-2-0-7-9-2-7-55-3-1-1-4-8-2-2-7"
             d="m 1473.8967,10431.718 c 0,0 18.7737,31.952 52.1737,7.588 0,0 -18.4902,-31.906 -52.1737,-7.588 z"
             style="display:inline;fill:#1ec75a;fill-opacity:1;stroke:none;stroke-width:0.78706986px;stroke-linecap:butt;stroke-linejoin:miter;stroke-opacity:1" />
          <path
             inkscape:transform-center-y="-11.141947"
             inkscape:transform-center-x="5.5703116"
             inkscape:connector-curvature="0"
             id="path5467-2-6-0-9-9-8-2-0-7-9-2-7-55-3-1-1-4-8-2-2-7-9"
             d="m 1530.1509,10474.965 c 0,0 25.0065,27.351 52.6112,-3.425 0,0 -24.7196,-27.364 -52.6112,3.425 z"
             style="display:inline;fill:#1ec75a;fill-opacity:1;stroke:none;stroke-width:0.78706986px;stroke-linecap:butt;stroke-linejoin:miter;stroke-opacity:1" />
          <path
             inkscape:transform-center-y="-11.141947"
             inkscape:transform-center-x="5.5703116"
             inkscape:connector-curvature="0"
             id="path5467-2-6-0-9-9-8-2-0-7-9-2-7-55-3-1-1-4-8-2-2-7-9-9"
             d="m 1576.9654,10502.326 c 0,0 25.0065,27.351 52.6112,-3.425 0,0 -24.7196,-27.364 -52.6112,3.425 z"
             style="display:inline;fill:#1ec75a;fill-opacity:1;stroke:none;stroke-width:0.78706986px;stroke-linecap:butt;stroke-linejoin:miter;stroke-opacity:1" />
        </g>
        <path
           style="display:inline;fill:#1ec75a;fill-opacity:1;stroke:none;stroke-width:0.78706986px;stroke-linecap:butt;stroke-linejoin:miter;stroke-opacity:1"
           d="m 1497.669,10274.215 c 0,0 -25.149,27.218 7.8396,52.136 0,0 25.188,-26.934 -7.8396,-52.136 z"
           id="path5467-2-6-0-9-9-8-2-0-7-9-2-7-55-3-1-1-4-8"
           inkscape:connector-curvature="0"
           inkscape:transform-center-x="-10.63894"
           inkscape:transform-center-y="-6.4875708" />
      </g>
      <path
         inkscape:export-ydpi="224.64999"
         inkscape:export-xdpi="224.64999"
         inkscape:connector-curvature="0"
         id="path6120"
         d="m 1702.8261,10398.972 c -56.2996,0.635 -120.18,25.792 -185.1778,90.79 -53.4404,53.44 -180.5281,-30.879 -174.102,98.317 l -1.2141,3.12 h 552.2429 c 22.1102,-72.483 -65.867,-193.646 -191.749,-192.227 z"
         style="fill:#481a47;fill-opacity:1;stroke:none;stroke-width:1.46052587px;stroke-linecap:butt;stroke-linejoin:miter;stroke-opacity:1" />
      <path
         inkscape:export-ydpi="224.64999"
         inkscape:export-xdpi="224.64999"
         inkscape:connector-curvature="0"
         id="path6130"
         d="m 1920,10114.5 c -74.3776,47.95 -49.252,121.172 -87.1501,163.145 -27.6916,30.669 -75.4442,47.887 -102.8966,78.29 -33.6186,37.233 38.344,145.259 15.8085,170.217 -16.6153,18.401 -45.4293,42.624 -69.6245,65.047 H 1920 Z"
         style="fill:#301c33;fill-opacity:1;stroke:none;stroke-width:1.26864648px;stroke-linecap:butt;stroke-linejoin:miter;stroke-opacity:1" />
    </g>
  </g>
</svg>
