<?xml version="1.0" encoding="UTF-8" standalone="no"?>
<!-- Created with Inkscape (http://www.inkscape.org/) -->

<svg
   xmlns:dc="http://purl.org/dc/elements/1.1/"
   xmlns:cc="http://creativecommons.org/ns#"
   xmlns:rdf="http://www.w3.org/1999/02/22-rdf-syntax-ns#"
   xmlns:svg="http://www.w3.org/2000/svg"
   xmlns="http://www.w3.org/2000/svg"
   xmlns:sodipodi="http://sodipodi.sourceforge.net/DTD/sodipodi-0.dtd"
   xmlns:inkscape="http://www.inkscape.org/namespaces/inkscape"
   width="68mm"
   height="76mm"
   viewBox="0 0 68 76"
   version="1.1"
   id="svg8"
   inkscape:version="0.92.2 (5c3e80d, 2017-08-06)"
   sodipodi:docname="shadow angelfish.svg">
  <defs
     id="defs2" />
  <sodipodi:namedview
     id="base"
     pagecolor="#ffffff"
     bordercolor="#666666"
     borderopacity="1.0"
     inkscape:pageopacity="0.0"
     inkscape:pageshadow="2"
     inkscape:zoom="0.7"
     inkscape:cx="431.77597"
     inkscape:cy="637.47098"
     inkscape:document-units="mm"
     inkscape:current-layer="layer1"
     showgrid="false"
     inkscape:window-width="958"
     inkscape:window-height="1048"
     inkscape:window-x="-7"
     inkscape:window-y="0"
     inkscape:window-maximized="0" />
  <metadata
     id="metadata5">
    <rdf:RDF>
      <cc:Work
         rdf:about="">
        <dc:format>image/svg+xml</dc:format>
        <dc:type
           rdf:resource="http://purl.org/dc/dcmitype/StillImage" />
        <dc:title></dc:title>
      </cc:Work>
    </rdf:RDF>
  </metadata>
  <g
     inkscape:label="Layer 1"
     inkscape:groupmode="layer"
     id="layer1"
     transform="translate(0,-221)">
    <g
       transform="matrix(0.26458333,0,0,0.26458333,-8.4657135,-908.67)"
       style="display:inline"
       id="g2076">
      <path
         style="fill:#000000;fill-opacity:0.19158882;stroke-width:0.251257"
         d="m 78.27934,4275.8002 c -0.2358,-0.041 -0.55727,0.025 -0.62552,0.148 -0.0683,0.1236 0.0281,0.4638 0.18913,0.6192 2.32343,2.5099 7.27454,9.3608 6.061,21.1304 -4.7513,3.0016 -9.272504,6.7785 -13.048641,10.7329 -4.382587,-5.5459 -10.585111,-9.2827 -15.945506,-9.8861 -3.664156,-0.4071 -9.793552,1.6787 -10.127076,5.2059 -0.01762,0.4846 -0.03413,0.5237 0.06854,1.1255 0.369627,2.1591 1.386441,4.1422 2.13173,6.0481 1.525191,3.9018 2.954342,7.8608 2.966253,12.4457 -1.030763,4.4676 -3.304561,8.0085 -5.658966,11.4742 -1.150286,1.6925 -2.581916,3.4007 -3.422242,5.4237 -0.233872,0.5638 -0.226808,0.6064 -0.317273,1.0821 -0.458901,3.5135 5.054086,6.9088 8.717002,7.3269 5.225896,0.5884 11.891982,-1.5542 17.32517,-5.7699 2.847427,4.8736 6.531177,9.7703 10.647669,13.9065 -1.612756,11.2115 -7.748007,16.5796 -10.507817,18.4667 -0.191502,0.1155 -0.360769,0.4263 -0.321649,0.5617 0.03905,0.1361 0.33718,0.272 0.576311,0.2838 17.880705,0.069 32.211095,-5.9494 40.098215,-10.202 5.47809,-1.8346 10.62824,-5.1026 15.57922,-9.0925 0.37825,-0.3392 0.49626,-0.6515 -0.10223,-1.3477 -2.10836,-2.4497 -3.08732,-6.7553 -3.08732,-6.7553 0,0 6.02096,1.2085 12.06898,-0.9863 6.0475,-2.1948 7.58568,-3.4697 7.63667,-14.5374 0.0509,-11.0674 -6.79755,-21.4064 -14.64355,-29.6533 -1.58312,-1.6638 -3.32119,-3.335 -5.20364,-4.8885 -4.29819,-4.4561 -18.72336,-17.8617 -41.05446,-22.8623 z"
         id="path1645-6"
         inkscape:connector-curvature="0" />
      <path
         style="display:inline;fill:#000000;fill-opacity:0.19158882;stroke-width:0.251257"
         d="m 215.51708,4312.2388 c -0.23818,-0.024 -0.55402,0.065 -0.61312,0.1931 -0.0591,0.1282 0.0617,0.4605 0.23361,0.6038 2.49963,2.3345 7.93534,8.8076 7.58003,20.6343 -4.52071,3.3388 -8.75558,7.4342 -12.23447,11.6525 -4.7739,-5.2129 -11.2315,-8.4893 -16.62156,-8.7017 -3.68405,-0.1398 -9.64573,2.3858 -9.72213,5.9279 0.0176,0.4846 0.004,0.5248 0.15011,1.1175 0.52551,2.1266 1.6837,4.0306 2.56547,5.8773 1.80461,3.7807 3.51759,7.6254 3.86254,12.1973 -0.70349,4.5307 -2.71405,8.2274 -4.81046,11.855 -1.0243,1.7716 -2.32805,3.5793 -3.01919,5.658 -0.1923,0.5793 -0.18217,0.6212 -0.23783,1.1023 -0.20245,3.5375 5.54263,6.5234 9.22624,6.6743 5.25483,0.2072 11.74766,-2.414 16.86023,-7.0133 3.19395,4.6539 7.22369,9.27 11.62979,13.0963 -0.79403,11.299 -6.52311,17.0986 -9.13853,19.1812 -0.18261,0.1291 -0.32885,0.4514 -0.28,0.5836 0.0488,0.1329 0.35605,0.2468 0.59541,0.2412 17.83847,-1.2302 31.69379,-8.2737 39.25115,-13.088 5.33034,-2.2277 10.22947,-5.8612 14.87752,-10.2003 0.35261,-0.3658 0.44762,-0.6858 -0.19987,-1.3367 -2.28074,-2.29 -3.5699,-6.5132 -3.5699,-6.5132 0,0 6.09285,0.768 11.96544,-1.8604 5.87208,-2.6283 7.31358,-4.0116 6.56041,-15.0538 -0.75319,-11.0418 -8.33467,-20.856 -16.75903,-28.5111 -1.69981,-1.5444 -3.55469,-3.0849 -5.54502,-4.4976 -4.61056,-4.1321 -19.97147,-16.4543 -42.60684,-19.8195 z"
         id="path1645-6-5"
         inkscape:connector-curvature="0" />
      <path
         style="display:inline;fill:#000000;fill-opacity:0.19158882;stroke-width:0.251257"
         d="m 61.37877,4458.2695 c -0.221688,0.09 -0.458953,0.3171 -0.451126,0.458 0.0079,0.1409 0.270305,0.3778 0.489331,0.4239 3.302186,0.8908 11.137573,4.0617 16.366125,14.6759 -2.428873,5.068 -4.250659,10.6705 -5.347034,16.0272 -6.660183,-2.3678 -13.900197,-2.2358 -18.761275,0.1025 -3.319976,1.6029 -7.402876,6.6279 -5.810402,9.7928 0.242639,0.4198 0.249458,0.4616 0.656309,0.9169 1.460818,1.6322 3.376241,2.7714 5.020618,3.9896 3.365951,2.4941 6.680946,5.0877 9.128234,8.9648 1.501801,4.3321 1.4581,8.54 1.30618,12.727 -0.07462,2.0451 -0.379196,4.2529 -0.01559,6.4131 0.10161,0.6019 0.130188,0.6341 0.306483,1.0852 1.478955,3.2199 7.95341,3.1653 11.278198,1.5723 4.739164,-2.2796 9.246484,-7.6379 11.607484,-14.0968 5.00251,2.6145 10.72561,4.8038 16.411075,6.1191 4.59368,10.3534 2.25057,18.1616 0.91611,21.2271 -0.10081,0.1996 -0.079,0.5528 0.0261,0.6468 0.10536,0.095 0.43017,0.051 0.63906,-0.066 15.18181,-9.4466 24.12064,-22.1618 28.5406,-29.9564 3.66478,-4.4659 6.28984,-9.9716 8.36243,-15.9829 0.14006,-0.4885 0.074,-0.8157 -0.803,-1.0873 -3.08796,-0.9541 -6.20593,-4.0806 -6.20593,-4.0806 0,0 5.74228,-2.177 9.6983,-7.251 3.95563,-5.0736 4.58076,-6.9712 -1.25936,-16.3728 -5.83994,-9.4012 -17.13664,-14.5181 -28.16612,-17.3326 -2.22535,-0.5676 -4.58589,-1.0593 -7.00616,-1.3745 -6.00937,-1.4896 -25.353705,-5.1762 -46.926651,2.4587 z"
         id="path1645-6-5-6"
         inkscape:connector-curvature="0" />
    </g>
  </g>
</svg>
