<?xml version="1.0" encoding="UTF-8" standalone="no"?>
<!-- Created with Inkscape (http://www.inkscape.org/) -->

<svg
   xmlns:dc="http://purl.org/dc/elements/1.1/"
   xmlns:cc="http://creativecommons.org/ns#"
   xmlns:rdf="http://www.w3.org/1999/02/22-rdf-syntax-ns#"
   xmlns:svg="http://www.w3.org/2000/svg"
   xmlns="http://www.w3.org/2000/svg"
   xmlns:sodipodi="http://sodipodi.sourceforge.net/DTD/sodipodi-0.dtd"
   xmlns:inkscape="http://www.inkscape.org/namespaces/inkscape"
   width="68mm"
   height="92mm"
   viewBox="0 0 68 92"
   version="1.1"
   id="svg8"
   inkscape:version="0.92.2 (5c3e80d, 2017-08-06)"
   sodipodi:docname="shadow squid.svg">
  <defs
     id="defs2" />
  <sodipodi:namedview
     id="base"
     pagecolor="#ffffff"
     bordercolor="#666666"
     borderopacity="1.0"
     inkscape:pageopacity="0.0"
     inkscape:pageshadow="2"
     inkscape:zoom="0.7"
     inkscape:cx="431.77597"
     inkscape:cy="523.18527"
     inkscape:document-units="mm"
     inkscape:current-layer="layer1"
     showgrid="false"
     inkscape:window-width="958"
     inkscape:window-height="1048"
     inkscape:window-x="-7"
     inkscape:window-y="0"
     inkscape:window-maximized="0" />
  <metadata
     id="metadata5">
    <rdf:RDF>
      <cc:Work
         rdf:about="">
        <dc:format>image/svg+xml</dc:format>
        <dc:type
           rdf:resource="http://purl.org/dc/dcmitype/StillImage" />
        <dc:title></dc:title>
      </cc:Work>
    </rdf:RDF>
  </metadata>
  <g
     inkscape:label="Layer 1"
     inkscape:groupmode="layer"
     id="layer1"
     transform="translate(0,-205)">
    <path
       style="display:inline;fill:#000000;fill-opacity:0.19158882;stroke-width:0.20473319"
       d="m 62.123359,208.41871 a 2.6853515,2.5814122 30.309457 0 0 -0.700061,0.0371 c -8.695188,1.7994 -17.01681,7.67672 -22.264344,16.65335 a 39.374022,37.850006 30.309457 0 0 -2.697136,5.74709 c -2.105475,0.0585 -4.744217,2.23163 -5.952755,4.33303 -1.338341,2.28941 -1.53916,5.93458 -0.185525,7.63688 -0.08599,0.11163 -0.173355,0.22257 -0.263896,0.33155 -4.292785,5.23322 -11.128163,7.11988 -16.028379,11.69577 -4.2099959,3.93309 -7.5634309,8.92485 -10.1058389,14.01874 -0.596477,1.18589 -1.695292,2.77579 -1.820889,4.19049 -0.284745,3.13524 3.940783,3.76865 4.994169,1.59428 a 0.64314798,0.61825423 30.309457 0 1 0.07318,-0.16658 c 2.9925959,-5.9468 4.8434629,-8.12009 8.0375649,-11.76348 3.646673,-4.16939 8.35652,-6.39199 12.896982,-9.31807 a 0.38213011,0.36733935 30.309457 0 1 0.481224,0.58353 c -1.792499,1.74231 -4.952391,4.12716 -5.703411,4.87397 a 44.37721,42.659541 30.309457 0 0 -6.127909,7.46223 c -3.43998,5.42946 -6.24197,11.83622 -7.5751789,18.17177 a 7.7553624,7.4551823 30.309457 0 0 -0.200845,1.62661 c 0.223097,2.80432 3.4079919,4.22428 4.8530659,1.25579 l 0.04051,-0.0693 c 4.695084,-10.18315 9.843929,-18.28729 18.076069,-25.54245 a 0.38839457,0.37336132 30.309457 0 1 0.628623,0.41396 118.40814,113.82502 30.309457 0 1 -12.875074,25.95547 0.39257084,0.37737595 30.309457 0 1 0.163168,-0.11382 c -1.620282,1.44769 -0.509429,4.30596 1.719792,4.4233 1.405784,0.0778 2.136299,-1.00655 2.984129,-1.83626 2.823898,-2.72047 5.196946,-6.07661 7.378542,-9.31209 3.980524,-5.85756 5.925423,-11.99835 8.474048,-18.3442 a 0.38213011,0.36733935 30.309457 0 1 0.732367,0.19574 c -0.738267,9.49677 -0.877861,12.50754 -6.924887,24.7138 a 12.654145,12.164353 30.309457 0 1 -0.749538,1.28225 c -2.977462,4.51409 1.785964,6.83371 4.241112,3.13037 0.441246,-0.6721 1.154853,-1.97549 1.489181,-2.54736 4.466114,-8.17784 8.087307,-16.52399 8.295031,-25.98213 0.08559,-3.71306 1.136042,-6.86523 2.587043,-9.81626 2.140294,0.25107 5.126117,-1.68203 6.438609,-3.92726 1.230472,-2.07129 1.832637,-5.38091 0.898314,-7.24932 a 39.296758,37.775735 30.309457 0 0 3.487261,-4.92823 c 5.257668,-8.99398 6.268376,-19.12229 3.606429,-27.56078 a 2.6853515,2.5814122 30.309457 0 0 -2.400749,-1.84954 z"
       id="path2161-6"
       inkscape:connector-curvature="0"
       inkscape:export-xdpi="224.64999"
       inkscape:export-ydpi="224.64999" />
  </g>
</svg>
