<?xml version="1.0" encoding="UTF-8" standalone="no"?>
<!-- Created with Inkscape (http://www.inkscape.org/) -->

<svg
   xmlns:dc="http://purl.org/dc/elements/1.1/"
   xmlns:cc="http://creativecommons.org/ns#"
   xmlns:rdf="http://www.w3.org/1999/02/22-rdf-syntax-ns#"
   xmlns:svg="http://www.w3.org/2000/svg"
   xmlns="http://www.w3.org/2000/svg"
   xmlns:sodipodi="http://sodipodi.sourceforge.net/DTD/sodipodi-0.dtd"
   xmlns:inkscape="http://www.inkscape.org/namespaces/inkscape"
   width="132mm"
   height="102mm"
   viewBox="0 0 132 102"
   version="1.1"
   id="svg8"
   inkscape:version="0.92.2 (5c3e80d, 2017-08-06)"
   sodipodi:docname="shadow domefish.svg">
  <defs
     id="defs2" />
  <sodipodi:namedview
     id="base"
     pagecolor="#ffffff"
     bordercolor="#666666"
     borderopacity="1.0"
     inkscape:pageopacity="0.0"
     inkscape:pageshadow="2"
     inkscape:zoom="0.7"
     inkscape:cx="431.77597"
     inkscape:cy="637.47098"
     inkscape:document-units="mm"
     inkscape:current-layer="layer1"
     showgrid="false"
     inkscape:window-width="958"
     inkscape:window-height="1048"
     inkscape:window-x="-7"
     inkscape:window-y="0"
     inkscape:window-maximized="0" />
  <metadata
     id="metadata5">
    <rdf:RDF>
      <cc:Work
         rdf:about="">
        <dc:format>image/svg+xml</dc:format>
        <dc:type
           rdf:resource="http://purl.org/dc/dcmitype/StillImage" />
        <dc:title></dc:title>
      </cc:Work>
    </rdf:RDF>
  </metadata>
  <g
     inkscape:label="Layer 1"
     inkscape:groupmode="layer"
     id="layer1"
     transform="translate(0,-195)">
    <g
       id="g7336"
       transform="matrix(0.26264787,0,0,0.26264787,-513.52081,-1124.3043)"
       style="display:inline;fill:#000000;fill-opacity:0.11214953"
       inkscape:export-xdpi="224.64999"
       inkscape:export-ydpi="224.64999">
      <path
         id="path1792-8"
         d="m 2008.9961,5188.5605 c -10.919,0.088 -22.2068,4.715 -27.8535,13.3008 -11.4569,7.298 -17.304,19.2502 -22.9903,31.1543 -0.1357,0.2845 -0.5525,0.9272 -0.2949,1.4082 0.2577,0.4812 0.9605,1.3279 1.6621,1.875 0.7016,0.5472 2.4488,2.4768 2.2227,3.5313 -0.2261,1.0545 -3.9991,0.5155 -2.9336,1.4746 1.0655,0.9594 0.401,0.489 1.5,1.0078 1.0989,0.5185 2.8356,0.7543 5.998,1.1094 2.0526,0.2304 5.5744,0.7807 10.2246,1.3886 4.9423,5.0992 15.8514,13.7914 33.1094,14.0997 16.0594,0.2868 32.0938,-8.733 41.2422,-14.9727 0.1626,-0.026 0.2907,-0.045 0.4551,-0.072 0.2685,-0.044 2.2699,-0.3884 3.7344,0.059 1.4644,0.4469 1.8295,1.0079 2.4375,1.5528 4.3845,3.8503 10.0044,5.9639 15.3398,8.0976 12.2281,4.1909 23.4211,3.8533 25,-0.7539 1.7065,-6.3337 -10.4187,-12.1907 -14.7109,-14.1113 4.453,-1.9187 16.2038,-7.7347 14.7109,-14.1113 -1.5811,-3.7706 -6.9793,-3.5599 -10.2637,-3.6758 -1.2793,0.1038 -2.565,0.1476 -3.8379,0.3125 -3.7131,0.4816 -7.3578,1.4044 -10.8984,2.6094 -4.4097,1.6311 -8.9518,3.4349 -12.8125,6.1718 -1.3565,0.9616 -2.1078,1.1569 -3.0762,1 -0.9681,-0.1569 -1.4247,-0.6108 -1.8847,-1.9961 -0.8059,-2.4268 -1.8187,-4.742 -3.0039,-6.9433 -1.7121,-6.4253 -5.1691,-13.3858 -9.9532,-18.4746 -7.0651,-7.5151 -16.8594,-12.2465 -24.1503,-14.0293 -2.8721,-0.7023 -5.9076,-1.0364 -8.9727,-1.0118 z"
         style="fill:#000000;fill-opacity:0.11214953;stroke-width:0.20407689"
         inkscape:connector-curvature="0" />
      <path
         id="path1792-9-4"
         d="m 2097.4043,5123.6016 c -11.8342,0.084 -24.357,5.728 -29.7832,15.5683 -10.8547,8.1674 -15.7534,20.5388 -20.4961,32.8496 -0.1136,0.2941 -0.4797,0.9683 -0.1855,1.4278 0.2945,0.4597 1.0625,1.2493 1.8046,1.7402 0.7421,0.4908 2.6316,2.2788 2.4883,3.3477 -0.1434,1.0689 -3.9455,0.8239 -2.8086,1.6972 1.1369,0.8735 0.4382,0.4571 1.5742,0.8887 1.136,0.4315 2.884,0.5307 6.0645,0.6387 2.0645,0.07 5.6202,0.3456 10.3047,0.5898 5.3246,4.6993 16.8751,12.516 34.1035,11.4805 16.0348,-0.9639 31.3205,-11.208 39.9551,-18.1406 0.1589,-0.039 0.2845,-0.066 0.4453,-0.1055 0.2643,-0.065 2.2337,-0.564 3.7285,-0.2324 1.4948,0.3317 1.9023,0.8634 2.5508,1.3593 4.6709,3.4975 10.4385,5.1669 15.9238,6.8789 12.5171,3.2266 23.6497,2.0189 24.8653,-2.6972 1.2085,-6.4474 -11.3371,-11.3431 -15.7657,-12.9238 4.2902,-2.2594 15.5548,-8.9718 13.5703,-15.2129 -1.8697,-3.6356 -7.236,-3.0053 -10.5195,-2.8653 -1.2674,0.2031 -2.5446,0.3459 -3.8008,0.6094 -3.6644,0.7691 -7.2261,1.9742 -10.6621,3.4512 -4.2694,1.9694 -8.6589,4.1194 -12.2949,7.1484 -1.2776,1.0643 -2.0107,1.3173 -2.9883,1.2363 -0.9775,-0.081 -1.4687,-0.4984 -2.0351,-1.8437 -0.9914,-2.3546 -2.1799,-4.5809 -3.5313,-6.6817 -2.2063,-6.2747 -6.1957,-12.9474 -11.3633,-17.6503 -7.6285,-6.9425 -17.7622,-10.8975 -25.1699,-12.1075 -1.9453,-0.3177 -3.9493,-0.4655 -5.9746,-0.4511 z"
         style="fill:#000000;fill-opacity:0.11214953;stroke-width:0.2040769"
         inkscape:connector-curvature="0" />
      <path
         id="path1792-7-7"
         d="m 2170.9688,5232.9629 c -9.9471,0.1022 -20.0082,3.8913 -25.6934,11.2676 -11.9716,6.4228 -18.6931,17.9074 -25.252,29.3554 -0.1566,0.2736 -0.6214,0.884 -0.4004,1.3829 0.2211,0.499 0.8588,1.3961 1.5176,1.9941 0.6589,0.5979 2.2572,2.6528 1.9532,3.6875 -0.3043,1.0347 -4.0262,0.2141 -3.0352,1.25 0.991,1.0364 0.3627,0.5179 1.4199,1.1172 1.0572,0.5991 2.7714,0.9647 5.8985,1.5547 2.0293,0.3827 5.5006,1.1935 10.0918,2.1465 4.5477,5.4534 14.7786,14.9365 31.9667,16.5312 15.9952,1.484 32.6603,-6.3174 42.2481,-11.8574 0.1626,-0.014 0.2906,-0.023 0.4551,-0.037 0.2711,-0.024 2.2937,-0.217 3.7207,0.3379 1.427,0.5549 1.7469,1.1398 2.3125,1.7285 4.0852,4.1666 9.5339,6.6951 14.6953,9.2207 11.8814,5.0913 23.0681,5.5899 24.9863,1.1133 2.1741,-6.1889 -9.4821,-12.9347 -13.6191,-15.17 4.5837,-1.5813 16.7357,-6.5045 15.7226,-12.9746 -1.2956,-3.8776 -6.6924,-4.0711 -9.959,-4.4316 -1.2835,0.01 -2.5699,-0.045 -3.8515,0.025 -3.7388,0.2033 -7.442,0.8534 -11.0625,1.791 -4.5191,1.2977 -9.1822,2.756 -13.2363,5.1973 -1.4245,0.8573 -2.1886,0.9962 -3.1426,0.7675 -0.9537,-0.2287 -1.3751,-0.7151 -1.7305,-2.1308 -0.6227,-2.4807 -1.4605,-4.8644 -2.4785,-7.1485 -1.2281,-6.5349 -4.1558,-13.7327 -8.5469,-19.164 -6.4849,-8.0212 -15.8993,-13.4714 -23.0371,-15.793 -3.7489,-1.2194 -7.8352,-1.8039 -11.9433,-1.7617 z"
         style="fill:#000000;fill-opacity:0.11214953;stroke-width:0.2040769"
         inkscape:connector-curvature="0" />
      <path
         id="path1792-1-4"
         d="m 2264.6191,5157.9043 c -12.2704,0.025 -25.4345,6.1961 -30.7246,16.6523 -10.5572,8.5479 -15.0142,21.0835 -19.3164,33.5547 -0.1027,0.298 -0.445,0.9869 -0.1347,1.4356 0.3106,0.449 1.1062,1.2096 1.8652,1.6738 0.7591,0.4642 2.7127,2.1845 2.6074,3.2578 -0.1054,1.0733 -3.9152,0.9645 -2.748,1.7969 1.1672,0.8311 0.4547,0.4391 1.6054,0.8301 1.1505,0.3906 2.9018,0.4338 6.084,0.4238 2.0651,0 5.6264,0.145 10.3145,0.2227 5.487,4.5068 17.3104,11.909 34.4941,10.2617 15.9914,-1.5331 30.9046,-12.3137 39.2871,-19.5489 0.1569,-0.044 0.2809,-0.076 0.4395,-0.121 0.2619,-0.074 2.2111,-0.6416 3.7168,-0.3633 1.5056,0.2783 1.9319,0.7949 2.5976,1.2675 4.7922,3.3292 10.6156,4.7927 16.1582,6.3086 12.6239,2.7799 23.7066,1.1783 24.7539,-3.5781 0.9786,-6.4862 -11.7328,-10.9331 -16.2148,-12.3555 4.2072,-2.4104 15.2245,-9.5189 13.0195,-15.6855 -1.9977,-3.5669 -7.3369,-2.7468 -10.6133,-2.4902 -1.2594,0.248 -2.5313,0.4362 -3.7773,0.7441 -3.6348,0.8988 -7.1518,2.2281 -10.5332,3.8262 -4.1967,2.1198 -8.5051,4.4257 -12.0312,7.582 -1.2391,1.109 -1.9635,1.3878 -2.9434,1.3418 -0.9796,-0.046 -1.4839,-0.4452 -2.0977,-1.7695 -1.0745,-2.3183 -2.344,-4.501 -3.7695,-6.5528 -2.4279,-6.1922 -6.6512,-12.7181 -11.9824,-17.2343 -7.8704,-6.6671 -18.138,-10.261 -25.584,-11.2071 -1.4665,-0.1863 -2.9624,-0.2765 -4.4727,-0.2734 z"
         style="fill:#000000;fill-opacity:0.11214953;stroke-width:0.20407689"
         inkscape:connector-curvature="0" />
      <path
         id="path1792-0-4"
         d="m 2269.3262,5043.4609 c -12.6909,-0.1123 -26.5362,6.5544 -31.7071,17.6036 -10.2896,8.8673 -14.3593,21.5359 -18.2773,34.1328 -0.091,0.301 -0.4137,0.9984 -0.09,1.4375 0.3242,0.4392 1.1411,1.1744 1.914,1.6152 0.7729,0.4407 2.7771,2.0998 2.7051,3.1758 -0.072,1.076 -3.8817,1.0845 -2.6895,1.8808 1.1921,0.7965 0.4669,0.4257 1.6289,0.7813 1.162,0.3554 2.9132,0.3389 6.0938,0.2363 2.064,-0.067 5.6282,-0.028 10.3164,-0.094 5.6223,4.3366 17.6673,11.3743 34.793,9.2011 15.9356,-2.0221 30.5106,-13.2536 38.6679,-20.7421 0.1561,-0.049 0.2797,-0.085 0.4375,-0.1348 0.2595,-0.082 2.1916,-0.7105 3.7051,-0.4785 1.5134,0.232 1.9529,0.7355 2.6328,1.1875 4.892,3.1808 10.7593,4.465 16.3457,5.8105 12.7031,2.3918 23.7317,0.4503 24.6328,-4.3359 0.7794,-6.5131 -12.0625,-10.5672 -16.5859,-11.8516 4.1313,-2.5382 14.9261,-9.9819 12.5332,-16.0781 -2.1061,-3.504 -7.4185,-2.521 -10.6855,-2.1641 -1.2512,0.2865 -2.516,0.5135 -3.752,0.8594 -3.6055,1.0098 -7.0813,2.4475 -10.4121,4.1484 -4.1298,2.2474 -8.3653,4.6845 -11.793,7.9473 -1.2044,1.1464 -1.9195,1.4476 -2.9004,1.4316 -0.9806,-0.016 -1.4981,-0.4001 -2.1523,-1.705 -1.1459,-2.2859 -2.4798,-4.4312 -3.9687,-6.4395 -2.6168,-6.1134 -7.0384,-12.5059 -12.504,-16.8555 -8.071,-6.4227 -18.4425,-9.6985 -25.914,-10.416 -0.9811,-0.094 -1.9743,-0.1454 -2.9746,-0.1543 z"
         style="fill:#000000;fill-opacity:0.11214953;stroke-width:0.20407689"
         inkscape:connector-curvature="0" />
      <path
         id="path1792-5-9"
         d="m 2299.6152,5317.375 c -10.4374,-0.1457 -21.201,3.795 -27.0703,11.6348 -11.8804,6.5903 -18.4404,18.1679 -24.8379,29.707 -0.1527,0.2758 -0.6087,0.893 -0.3808,1.3887 0.2281,0.4959 0.8796,1.384 1.5468,1.9726 0.6672,0.5886 2.2936,2.6214 2.004,3.6602 -0.2895,1.0389 -4.023,0.2711 -3.0176,1.2929 1.0055,1.0225 0.37,0.5133 1.4355,1.0977 1.0655,0.5841 2.7848,0.9248 5.9199,1.4707 2.0348,0.3543 5.5167,1.1155 10.1211,2.0039 4.6237,5.3889 14.986,14.727 32.1953,16.0801 16.014,1.2592 32.5671,-6.775 42.0762,-12.4492 0.1626,-0.016 0.2906,-0.026 0.4551,-0.043 0.2708,-0.028 2.2899,-0.2496 3.7246,0.2852 1.4347,0.5348 1.7641,1.1165 2.3379,1.6972 4.1433,4.1089 9.626,6.5589 14.8223,9.0117 11.9518,4.9239 23.1449,5.2649 25,0.7618 2.087,-6.2188 -9.6622,-12.7996 -13.8301,-14.9766 4.561,-1.6455 16.643,-6.7381 15.539,-13.1934 -1.3499,-3.859 -6.75,-3.9764 -10.0214,-4.291 -1.2833,0.027 -2.5692,-0.01 -3.8496,0.08 -3.7356,0.2558 -7.4301,0.9569 -11.0372,1.9453 -4.5004,1.3611 -9.1427,2.8848 -13.1621,5.3828 -1.4123,0.8774 -2.1738,1.0278 -3.1308,0.8125 -0.9569,-0.2153 -1.3846,-0.6968 -1.7598,-2.1074 -0.6569,-2.4693 -1.5295,-4.8379 -2.5781,-7.1055 -1.319,-6.5189 -4.3479,-13.6778 -8.8164,-19.0488 -6.597,-7.9293 -16.0862,-13.2475 -23.2559,-15.4687 -3.2949,-1.0208 -6.8429,-1.5515 -10.4297,-1.6016 z"
         style="fill:#000000;fill-opacity:0.11214953;stroke-width:0.20407689"
         inkscape:connector-curvature="0" />
      <path
         id="path1792-77-5"
         d="m 2363.2988,5238.9199 c -12.2688,-0.1976 -25.5422,5.7316 -31.0215,16.0899 -10.7107,8.3545 -15.3956,20.8083 -19.9238,33.1992 -0.1078,0.2961 -0.4622,0.9773 -0.1601,1.4316 0.3024,0.4545 1.0835,1.2311 1.8339,1.709 0.7505,0.478 2.6717,2.2316 2.5469,3.3027 -0.1248,1.0712 -3.9311,0.8927 -2.7793,1.7461 1.1519,0.8501 0.4466,0.4496 1.5899,0.8614 1.1433,0.4117 2.8923,0.4802 6.0742,0.5332 2.065,0.034 5.6241,0.2473 10.3105,0.4101 5.4043,4.6059 17.0904,12.2233 34.3008,10.8887 16.0149,-1.242 31.1196,-11.7506 39.6328,-18.832 0.1589,-0.042 0.2846,-0.071 0.4453,-0.1133 0.2632,-0.069 2.2224,-0.6005 3.7227,-0.2949 1.5003,0.3057 1.9172,0.8279 2.5742,1.3125 4.7309,3.4158 10.5269,4.987 16.041,6.6035 12.5713,3.0089 23.6809,1.6076 24.8145,-3.1289 1.0964,-6.4674 -11.5309,-11.1449 -15.9863,-12.6485 4.2503,-2.3336 15.3953,-9.2396 13.3027,-15.4453 -1.9326,-3.6027 -7.2858,-2.8805 -10.5664,-2.6836 -1.2636,0.2251 -2.5396,0.3906 -3.791,0.6758 -3.6505,0.8326 -7.1917,2.0985 -10.6016,3.6348 -4.2345,2.0432 -8.5831,4.2696 -12.166,7.3613 -1.2589,1.0862 -1.9899,1.3531 -2.9688,1.2891 -0.9787,-0.064 -1.4747,-0.4733 -2.0644,-1.8086 -1.0321,-2.337 -2.2608,-4.5422 -3.6485,-6.6192 -2.3148,-6.2355 -6.4195,-12.8386 -11.6679,-17.4511 -7.7479,-6.8091 -17.9474,-10.5887 -25.375,-11.67 -1.4629,-0.2129 -2.9587,-0.3292 -4.4688,-0.3535 z"
         style="fill:#000000;fill-opacity:0.11214953;stroke-width:0.20407689"
         inkscape:connector-curvature="0" />
    </g>
  </g>
</svg>
