<?xml version="1.0" encoding="UTF-8" standalone="no"?>
<!-- Created with Inkscape (http://www.inkscape.org/) -->

<svg
   xmlns:dc="http://purl.org/dc/elements/1.1/"
   xmlns:cc="http://creativecommons.org/ns#"
   xmlns:rdf="http://www.w3.org/1999/02/22-rdf-syntax-ns#"
   xmlns:svg="http://www.w3.org/2000/svg"
   xmlns="http://www.w3.org/2000/svg"
   xmlns:sodipodi="http://sodipodi.sourceforge.net/DTD/sodipodi-0.dtd"
   xmlns:inkscape="http://www.inkscape.org/namespaces/inkscape"
   width="127mm"
   height="248mm"
   viewBox="0 0 127 248"
   version="1.1"
   id="svg8"
   inkscape:version="0.92.2 (5c3e80d, 2017-08-06)"
   sodipodi:docname="squid and bubbles.svg">
  <defs
     id="defs2" />
  <sodipodi:namedview
     id="base"
     pagecolor="#ffffff"
     bordercolor="#666666"
     borderopacity="1.0"
     inkscape:pageopacity="0.0"
     inkscape:pageshadow="2"
     inkscape:zoom="0.7"
     inkscape:cx="431.77597"
     inkscape:cy="637.47098"
     inkscape:document-units="mm"
     inkscape:current-layer="layer1"
     showgrid="false"
     inkscape:window-width="958"
     inkscape:window-height="1048"
     inkscape:window-x="-7"
     inkscape:window-y="0"
     inkscape:window-maximized="0" />
  <metadata
     id="metadata5">
    <rdf:RDF>
      <cc:Work
         rdf:about="">
        <dc:format>image/svg+xml</dc:format>
        <dc:type
           rdf:resource="http://purl.org/dc/dcmitype/StillImage" />
        <dc:title></dc:title>
      </cc:Work>
    </rdf:RDF>
  </metadata>
  <g
     inkscape:label="Layer 1"
     inkscape:groupmode="layer"
     id="layer1"
     transform="translate(0,-49)">
    <g
       transform="matrix(0.26458333,0,0,0.26458333,23.123013,-1612.0959)"
       style="display:inline"
       id="g2743"
       inkscape:export-xdpi="224.64999"
       inkscape:export-ydpi="224.64999">
      <g
         transform="matrix(1.4778237,0.70570359,-0.67838856,1.4206229,205.8205,6454.4058)"
         id="g2185">
        <path
           style="fill:#7900c6"
           inkscape:connector-curvature="0"
           class="cls-1"
           d="m 192.7,141.5 a 188.56,188.56 0 0 0 14.7,73.7 c 16.3,38.4 74.9,38.4 91.3,0 a 188.19,188.19 0 0 0 14.7,-73.7 c 0,-51.9 -20.3,-98 -51.7,-127.6 a 12.86,12.86 0 0 0 -17.2,0 c -31.6,29.6 -51.8,75.8 -51.8,127.6 z"
           transform="translate(-152.16,-10.6)"
           id="path2161" />
        <path
           style="fill:#f73081"
           inkscape:connector-curvature="0"
           class="cls-2"
           d="m 179.8,434.3 c -2,-33.1 0.4,-47.1 4.8,-70.8 5,-27.1 19.1,-48.5 30.8,-72.5 a 1.83,1.83 0 0 1 3.4,1.3 c -3.2,12 -10.5,30.2 -11.8,35.3 a 212.52,212.52 0 0 0 -7.3,47.5 c -1.1,32 2.8,66.6 12.6,97.2 a 37.14,37.14 0 0 0 3.1,7.5 c 7.7,11.5 24.3,9.6 23.1,-6.8 v -0.4 C 233.3,417 235,369.2 251.5,317.3 a 1.86,1.86 0 0 1 3.6,0.2 567.05,567.05 0 0 1 9.5,144 1.88,1.88 0 0 1 0.4,-0.9 c -3.2,10.3 8.3,19.8 17.8,14.7 6,-3.2 6.4,-9.7 7.9,-15.4 5.1,-18.8 6.8,-39.2 8,-58.6 2.3,-35.2 -4.5,-66.5 -9.3,-100.2 a 1.83,1.83 0 0 1 3.5,-1 c 19.9,42.7 26.6,56 31.1,123.7 a 60.6,60.6 0 0 1 0,7.4 c -1.4,26.9 23.9,24.9 25.1,2.8 0.2,-4 0,-11.4 0,-14.7 -1.3,-46.4 -6.5,-91.4 -28.5,-132.6 -24.5,-46 -5.9,-92.1 -17.3,-141.3 a 184,184 0 0 0 -18.4,-48 c -5.5,-9.9 -17.2,-33.2 -29.4,-35.7 -24.6,-4.9 -47,59.5 -51.6,76.3 a 206.47,206.47 0 0 0 -7.2,54.7 c 0,16.7 4.6,33 2,49.3 -5.1,33.3 -28.8,58.6 -38,90.6 -7.9,27.5 -9.7,57.4 -7.9,85.7 0.4,6.6 -0.3,16.2 2.6,22.6 6.4,14.2 25.4,6.3 24.5,-5.7 a 3.08,3.08 0 0 1 -0.1,-0.9 z"
           transform="translate(-152.16,-10.6)"
           id="path2163" />
        <path
           style="fill:#ffebf4"
           inkscape:connector-curvature="0"
           class="cls-3"
           d="m 304.6,169.3 h -0.8 c -9.9,7.1 -16.7,19.7 -17.1,34.3 -0.4,14.6 5.5,27.6 14.8,35.4 a 2.2,2.2 0 0 1 0.8,0.1 c 11.7,0.4 22.4,-18.9 22.4,-34.2 0.1,-14.8 -8.3,-35.3 -20.1,-35.6 z"
           transform="translate(-152.16,-10.6)"
           id="path2165" />
        <ellipse
           cx="304.53"
           cy="205.86"
           rx="19.299999"
           ry="11.8"
           transform="rotate(-88.12,222.98703,279.18193)"
           id="ellipse2167" />
        <path
           style="fill:#ffebf4"
           inkscape:connector-curvature="0"
           class="cls-3"
           d="m 201.4,171 h 0.8 c 9.9,7.1 16.7,19.7 17.1,34.3 0.4,14.6 -5.5,27.6 -14.8,35.4 a 2.2,2.2 0 0 0 -0.8,0.1 c -11.7,0.4 -22.4,-18.9 -22.4,-34.2 -0.1,-14.7 8.3,-35.2 20.1,-35.6 z"
           transform="translate(-152.16,-10.6)"
           id="path2169" />
        <ellipse
           cx="201.50999"
           cy="207.61"
           rx="11.8"
           ry="19.299999"
           transform="matrix(1,-0.03,0.03,1,-158.85,-3.89)"
           id="ellipse2171" />
      </g>
      <g
         id="g2730">
        <path
           style="opacity:1;fill:#ffffff;fill-opacity:0.33177568;fill-rule:nonzero;stroke:none;stroke-width:18.31451035;stroke-linecap:round;stroke-linejoin:round;stroke-miterlimit:4;stroke-dasharray:none;stroke-dashoffset:0;stroke-opacity:0.62616817;paint-order:markers stroke fill"
           id="path2187-4"
           sodipodi:type="arc"
           sodipodi:cx="164.81438"
           sodipodi:cy="6523.1001"
           sodipodi:rx="19.039927"
           sodipodi:ry="19.039927"
           sodipodi:start="0"
           sodipodi:end="6.2743539"
           sodipodi:open="true"
           d="m 183.8543,6523.1001 a 19.039927,19.039927 0 0 1 -18.99789,19.0399 19.039927,19.039927 0 0 1 -19.08177,-18.9558 19.039927,19.039927 0 0 1 18.91363,-19.1236 19.039927,19.039927 0 0 1 19.16529,18.8714" />
        <path
           style="opacity:1;fill:#ffffff;fill-opacity:0.33177568;fill-rule:nonzero;stroke:none;stroke-width:18.31451035;stroke-linecap:round;stroke-linejoin:round;stroke-miterlimit:4;stroke-dasharray:none;stroke-dashoffset:0;stroke-opacity:0.62616817;paint-order:markers stroke fill"
           id="path2187-814"
           sodipodi:type="arc"
           sodipodi:cx="221.0275"
           sodipodi:cy="6388.9136"
           sodipodi:rx="19.039927"
           sodipodi:ry="19.039927"
           sodipodi:start="0"
           sodipodi:end="6.2743539"
           sodipodi:open="true"
           d="m 240.06742,6388.9136 a 19.039927,19.039927 0 0 1 -18.99789,19.0399 19.039927,19.039927 0 0 1 -19.08177,-18.9559 19.039927,19.039927 0 0 1 18.91363,-19.1235 19.039927,19.039927 0 0 1 19.16529,18.8713" />
        <path
           style="opacity:1;fill:#ffffff;fill-opacity:0.33177568;fill-rule:nonzero;stroke:none;stroke-width:18.31451035;stroke-linecap:round;stroke-linejoin:round;stroke-miterlimit:4;stroke-dasharray:none;stroke-dashoffset:0;stroke-opacity:0.62616817;paint-order:markers stroke fill"
           id="path2187-2"
           sodipodi:type="arc"
           sodipodi:cx="188.38762"
           sodipodi:cy="6307.3145"
           sodipodi:rx="19.039927"
           sodipodi:ry="19.039927"
           sodipodi:start="0"
           sodipodi:end="6.2743539"
           sodipodi:open="true"
           d="m 207.42755,6307.3145 a 19.039927,19.039927 0 0 1 -18.99789,19.0398 19.039927,19.039927 0 0 1 -19.08178,-18.9558 19.039927,19.039927 0 0 1 18.91363,-19.1236 19.039927,19.039927 0 0 1 19.16529,18.8714" />
      </g>
    </g>
  </g>
</svg>
