<?xml version="1.0" encoding="UTF-8" standalone="no"?>
<!-- Created with Inkscape (http://www.inkscape.org/) -->

<svg
   xmlns:dc="http://purl.org/dc/elements/1.1/"
   xmlns:cc="http://creativecommons.org/ns#"
   xmlns:rdf="http://www.w3.org/1999/02/22-rdf-syntax-ns#"
   xmlns:svg="http://www.w3.org/2000/svg"
   xmlns="http://www.w3.org/2000/svg"
   xmlns:sodipodi="http://sodipodi.sourceforge.net/DTD/sodipodi-0.dtd"
   xmlns:inkscape="http://www.inkscape.org/namespaces/inkscape"
   width="209mm"
   height="120mm"
   viewBox="0 0 209 120"
   version="1.1"
   id="svg8"
   inkscape:version="0.92.2 (5c3e80d, 2017-08-06)"
   sodipodi:docname="tuna and bubbles.svg">
  <defs
     id="defs2" />
  <sodipodi:namedview
     id="base"
     pagecolor="#ffffff"
     bordercolor="#666666"
     borderopacity="1.0"
     inkscape:pageopacity="0.0"
     inkscape:pageshadow="2"
     inkscape:zoom="0.7"
     inkscape:cx="431.77597"
     inkscape:cy="523.18527"
     inkscape:document-units="mm"
     inkscape:current-layer="layer1"
     showgrid="false"
     inkscape:window-width="958"
     inkscape:window-height="1048"
     inkscape:window-x="-7"
     inkscape:window-y="0"
     inkscape:window-maximized="0" />
  <metadata
     id="metadata5">
    <rdf:RDF>
      <cc:Work
         rdf:about="">
        <dc:format>image/svg+xml</dc:format>
        <dc:type
           rdf:resource="http://purl.org/dc/dcmitype/StillImage" />
        <dc:title></dc:title>
      </cc:Work>
    </rdf:RDF>
  </metadata>
  <g
     inkscape:label="Layer 1"
     inkscape:groupmode="layer"
     id="layer1"
     transform="translate(0,-177)">
    <g
       transform="matrix(0.26458333,0,0,0.26458333,-294.64172,-1991.2282)"
       style="display:inline"
       id="g3070"
       inkscape:export-xdpi="224.64999"
       inkscape:export-ydpi="224.64999">
      <g
         transform="rotate(-6.6529695,69549.512,-5333.7471)"
         id="Layer_1-50">
        <path
           style="fill:#ffef4c"
           inkscape:connector-curvature="0"
           d="m 473.079,549.177 c 44.17,23.302 94.002,54.568 106.279,49.7 12.277,-4.867 -13.784,-36.184 -40.922,-69.352 -27.138,-33.169 -65.357,19.652 -65.357,19.652 z"
           id="path2321" />
        <path
           style="fill:#ffef4c"
           inkscape:connector-curvature="0"
           d="m 379.825,366.417 c 0,0 134.286,-15.16 145.233,-4.323 18.984,18.792 -20.506,36.038 -38.681,41.717 -18.175,5.68 -106.552,-37.394 -106.552,-37.394 z"
           id="path2323" />
        <path
           style="fill:#ffef4c"
           inkscape:connector-curvature="0"
           d="m 165.105,568.935 c 55.828,44.267 73.08,84.546 95.681,85.201 22.6,0.654 11.183,-70.702 -5.592,-86.632"
           id="path2325" />
        <path
           style="fill:#ffef4c"
           inkscape:connector-curvature="0"
           d="m 134.239,389.523 c 0,0 30.007,-47.634 40.899,-69.937 10.892,-22.303 13.701,-17.691 32.333,-7.437 18.632,10.253 109.794,45.875 170.59,52.01 z"
           id="path2327" />
        <path
           style="fill:#4650ca"
           inkscape:connector-curvature="0"
           d="m 321.901,359.219 c 165.581,0 328.07,117.396 328.07,117.396 0,0 -162.489,117.395 -328.069,117.395 -76.504,-1.338 -156.103,-8.654 -226.701,-40.569 -28.633,-12.943 -58.71,-31.138 -70.628,-61.687 10.159,6.477 23.951,1.905 33.653,-5.336 L 26.968,455.462 c 22.001,-40.64 73.426,-60.894 115.552,-72.921 58.448,-16.686 118.765,-22.722 179.381,-23.322 z"
           id="path2329" />
        <g
           id="g2335">
          <path
             style="fill:#4650ca"
             inkscape:connector-curvature="0"
             d="m 736.419,335.354 c 0,0.001 2.799,0.966 2.799,0.966 0,0 5.238,0.085 1.35,11.02 -9.071,25.894 -22.869,51.099 -40.337,75.357 h 0.117 c -7.038,9.511 -3.28,4.729 -11.312,14.334 -6.823,8.342 -3.052,3.929 -11.425,13.203 l -0.57,0.661 c -2.806,3.297 -5.201,6.732 -6.885,10.299 -2.654,5.006 -3.77,10.22 -4.735,15.421 0.584,5.251 2.559,10.346 4.735,15.42 1.504,3.603 4.196,6.975 6.887,10.301 l 0.568,0.659 c 8.373,9.274 4.602,4.861 11.426,13.204 8.031,9.604 4.273,4.823 11.311,14.334 h -0.117 c 17.896,24.144 31.02,49.528 40.337,75.356 3.888,10.936 -1.35,11.02 -1.35,11.02 0,0 -2.799,0.966 -2.799,0.966 L 720.48,610.85 C 677.468,587.748 640.601,560.464 611.356,530.533 h -0.063 l -2.638,-2.764 c -2.785,-2.85 -1.514,-1.509 -3.835,-4.018 -0.875,-0.916 -0.435,-0.442 -1.316,-1.423 -4.597,-4.971 -2.219,-2.338 -7.104,-7.906 -4.349,-4.631 -7.971,-9.491 -11.545,-14.352 l 0.022,-0.012 -0.022,-0.031 0.179,-0.057 41.496,-23.355 -41.496,-23.355 -0.179,-0.058 0.022,-0.031 -0.022,-0.012 c 3.452,-4.898 7.345,-9.677 11.547,-14.354 4.884,-5.567 2.506,-2.934 7.105,-7.907 0.877,-0.976 0.44,-0.504 1.31,-1.417 2.325,-2.513 1.052,-1.169 3.841,-4.024 l 2.635,-2.76 h 0.063 c 29.184,-30.034 66.319,-57.03 109.124,-80.318 z"
             id="path2331" />
          <path
             style="fill:#ffef4c"
             inkscape:connector-curvature="0"
             d="m 739.621,334.857 1.741,0.253 c 4.545,1.199 0.169,10.976 0.169,10.976 -12.227,37.654 -32.892,70.725 -63.494,104.332 -7.619,8.017 -10.474,17.128 -12.156,26.197 1.178,9.184 5.113,18.031 12.155,26.196 30.603,33.608 51.268,66.679 63.495,104.332 0,0 4.376,9.778 -0.169,10.977 l -1.741,0.252 c -1.219,-0.162 -2.506,-0.195 -3.657,-0.487 -3.584,-0.911 -6.281,-2.731 -9.324,-4.117 -6.066,-2.968 -6.709,-3.428 -12.307,-6.716 -9.366,-26.205 -22.291,-52.072 -40.661,-76.519 h -0.417 c -6.598,-9.349 -14.371,-18.366 -22.33,-27.311 -7.013,-8.169 -11.391,-17.04 -12.22,-26.262 l 0.064,-0.345 -0.064,-0.345 c 0.829,-9.223 5.207,-18.094 12.22,-26.263 7.959,-8.945 15.732,-17.962 22.33,-27.31 h 0.417 c 18.436,-24.459 31.122,-50.322 40.661,-76.519 5.598,-3.289 6.241,-3.749 12.307,-6.717 3.043,-1.385 5.74,-3.206 9.324,-4.116 1.151,-0.293 2.438,-0.326 3.657,-0.488 z"
             id="path2333" />
        </g>
        <path
           style="fill:#ffef4c"
           inkscape:connector-curvature="0"
           d="m 155.883,414.679 c 2.367,0.622 1.425,0.164 2.941,1.102 1.383,1.063 3.693,3.025 6.622,5.83 4.837,4.632 9.668,9.988 14.181,16.018 11.564,15.451 19.089,32.6 20.58,51.118 1.895,23.534 -6.207,47.432 -25.981,71.058 -1.904,2.275 -5.292,2.576 -7.567,0.672 -2.274,-1.904 -2.575,-5.292 -0.671,-7.567 18.008,-21.517 25.173,-42.651 23.511,-63.301 -1.311,-16.275 -8.033,-31.593 -18.473,-45.543 -4.139,-5.529 -8.578,-10.452 -13.01,-14.696 -1.543,-1.477 -2.97,-2.761 -4.243,-3.842 -0.742,-0.63 -1.253,-1.042 -1.494,-1.227 -2.352,-1.808 -2.795,-5.18 -0.987,-7.532 1.399,-1.74 2.53,-1.82 4.591,-2.09 z"
           id="path2337" />
        <g
           id="g2343">
          <path
             style="fill:#e6e6e6"
             inkscape:connector-curvature="0"
             d="m 105.707,472.552 c -12.323,0 -22.313,-9.99 -22.313,-22.314 0,-12.323 9.99,-22.313 22.313,-22.313 12.323,0 22.314,9.99 22.314,22.313 0,12.324 -9.991,22.314 -22.314,22.314 z"
             id="path2339" />
          <path
             style="fill:#212121"
             inkscape:connector-curvature="0"
             d="m 105.707,463.834 c -7.509,0 -13.596,-6.087 -13.596,-13.596 0,-7.508 6.087,-13.595 13.596,-13.595 7.509,0 13.596,6.087 13.596,13.595 0,7.509 -6.087,13.596 -13.596,13.596 z"
             id="path2341" />
        </g>
        <path
           style="fill:#ffef4c"
           inkscape:connector-curvature="0"
           d="m 228.097,543.363 c 0,0 0,0 0,0 -5.289,-1.15 2.433,-2.207 7.587,-22.726 5.155,-20.52 -1.616,-24.414 4.216,-23.89 34.512,3.098 80.618,10.822 126.231,39.351 0,0 -59.394,24.363 -138.034,7.265 z"
           id="path2345" />
        <path
           style="fill:#1b2277"
           inkscape:connector-curvature="0"
           d="m 321.521,359.219 c 96.251,0.803 188.687,36.435 271.942,82.493 -3.239,4.811 -8.999,7.782 -14.754,7.642 -92.093,-30.117 -332.915,-39.662 -371.733,-35.805 -26.169,2.653 -47.024,-8.24 -57.454,-33.028 55.98,-15.644 114.145,-20.054 171.999,-21.302 z"
           id="path2347" />
        <path
           style="fill:#ffef4c"
           inkscape:connector-curvature="0"
           d="m 262.536,406.355 c 107.32,-0.223 213.99,16.381 318.47,39.897 2.891,0.663 4.698,3.544 4.036,6.436 -0.663,2.891 -3.544,4.698 -6.436,4.036 C 429.398,422.53 288.107,409.717 195.76,421.138 c -2.944,0.364 -5.626,-1.727 -5.99,-4.672 -0.364,-2.944 1.728,-5.625 4.672,-5.99 22.581,-2.989 45.355,-3.605 68.094,-4.121 z"
           id="path2349" />
      </g>
      <path
         d="m 1145.3706,8421.3408 a 9.9166288,9.9166288 0 0 1 -9.8947,9.9166 9.9166288,9.9166288 0 0 1 -9.9385,-9.8728 9.9166288,9.9166288 0 0 1 9.8509,-9.9602 9.9166288,9.9166288 0 0 1 9.9819,9.8288"
         sodipodi:open="true"
         sodipodi:end="6.2743539"
         sodipodi:start="0"
         sodipodi:ry="9.9166288"
         sodipodi:rx="9.9166288"
         sodipodi:cy="8421.3408"
         sodipodi:cx="1135.454"
         sodipodi:type="arc"
         id="path2187-81-5-84"
         style="opacity:1;fill:#ffffff;fill-opacity:0.33177568;fill-rule:nonzero;stroke:none;stroke-width:9.53880692;stroke-linecap:round;stroke-linejoin:round;stroke-miterlimit:4;stroke-dasharray:none;stroke-dashoffset:0;stroke-opacity:0.62616817;paint-order:markers stroke fill" />
      <path
         d="m 1194.9537,8358.8662 a 9.9166288,9.9166288 0 0 1 -9.8947,9.9166 9.9166288,9.9166288 0 0 1 -9.9384,-9.8728 9.9166288,9.9166288 0 0 1 9.8508,-9.9602 9.9166288,9.9166288 0 0 1 9.982,9.8288"
         sodipodi:open="true"
         sodipodi:end="6.2743539"
         sodipodi:start="0"
         sodipodi:ry="9.9166288"
         sodipodi:rx="9.9166288"
         sodipodi:cy="8358.8662"
         sodipodi:cx="1185.0371"
         sodipodi:type="arc"
         id="path2187-81-5-84-4"
         style="opacity:1;fill:#ffffff;fill-opacity:0.33177568;fill-rule:nonzero;stroke:none;stroke-width:9.53880692;stroke-linecap:round;stroke-linejoin:round;stroke-miterlimit:4;stroke-dasharray:none;stroke-dashoffset:0;stroke-opacity:0.62616817;paint-order:markers stroke fill" />
      <path
         d="m 1180.0789,8276.5576 a 9.9166288,9.9166288 0 0 1 -9.8948,9.9166 9.9166288,9.9166288 0 0 1 -9.9384,-9.8728 9.9166288,9.9166288 0 0 1 9.8508,-9.9602 9.9166288,9.9166288 0 0 1 9.982,9.8288"
         sodipodi:open="true"
         sodipodi:end="6.2743539"
         sodipodi:start="0"
         sodipodi:ry="9.9166288"
         sodipodi:rx="9.9166288"
         sodipodi:cy="8276.5576"
         sodipodi:cx="1170.1622"
         sodipodi:type="arc"
         id="path2187-81-5-84-3"
         style="opacity:1;fill:#ffffff;fill-opacity:0.33177568;fill-rule:nonzero;stroke:none;stroke-width:9.53880692;stroke-linecap:round;stroke-linejoin:round;stroke-miterlimit:4;stroke-dasharray:none;stroke-dashoffset:0;stroke-opacity:0.62616817;paint-order:markers stroke fill" />
      <path
         d="m 1261.3953,8211.1094 a 9.9166288,9.9166288 0 0 1 -9.8948,9.9166 9.9166288,9.9166288 0 0 1 -9.9384,-9.8728 9.9166288,9.9166288 0 0 1 9.8509,-9.9602 9.9166288,9.9166288 0 0 1 9.9819,9.8288"
         sodipodi:open="true"
         sodipodi:end="6.2743539"
         sodipodi:start="0"
         sodipodi:ry="9.9166288"
         sodipodi:rx="9.9166288"
         sodipodi:cy="8211.1094"
         sodipodi:cx="1251.4786"
         sodipodi:type="arc"
         id="path2187-81-5-84-0"
         style="opacity:1;fill:#ffffff;fill-opacity:0.33177568;fill-rule:nonzero;stroke:none;stroke-width:9.53880692;stroke-linecap:round;stroke-linejoin:round;stroke-miterlimit:4;stroke-dasharray:none;stroke-dashoffset:0;stroke-opacity:0.62616817;paint-order:markers stroke fill" />
    </g>
  </g>
</svg>
