<?xml version="1.0" encoding="UTF-8" standalone="no"?>
<svg
   xmlns:dc="http://purl.org/dc/elements/1.1/"
   xmlns:cc="http://creativecommons.org/ns#"
   xmlns:rdf="http://www.w3.org/1999/02/22-rdf-syntax-ns#"
   xmlns:svg="http://www.w3.org/2000/svg"
   xmlns="http://www.w3.org/2000/svg"
   xmlns:xlink="http://www.w3.org/1999/xlink"
   xmlns:sodipodi="http://sodipodi.sourceforge.net/DTD/sodipodi-0.dtd"
   xmlns:inkscape="http://www.inkscape.org/namespaces/inkscape"
   width="190.136pt"
   height="29.62pt"
   viewBox="0 0 190.136 29.62"
   version="1.2"
   id="svg131"
   sodipodi:docname="AssurantLabs_horz_logo_color.svg"
   inkscape:version="0.92.2 (5c3e80d, 2017-08-06)">
  <metadata
     id="metadata135">
    <rdf:RDF>
      <cc:Work
         rdf:about="">
        <dc:format>image/svg+xml</dc:format>
        <dc:type
           rdf:resource="http://purl.org/dc/dcmitype/StillImage" />
        <dc:title></dc:title>
      </cc:Work>
    </rdf:RDF>
  </metadata>
  <sodipodi:namedview
     pagecolor="#ffffff"
     bordercolor="#666666"
     borderopacity="1"
     objecttolerance="10"
     gridtolerance="10"
     guidetolerance="10"
     inkscape:pageopacity="0"
     inkscape:pageshadow="2"
     inkscape:window-width="1920"
     inkscape:window-height="1057"
     id="namedview133"
     showgrid="false"
     inkscape:zoom="0.88418099"
     inkscape:cx="-147.62753"
     inkscape:cy="-45.530224"
     inkscape:window-x="1592"
     inkscape:window-y="-8"
     inkscape:window-maximized="1"
     inkscape:current-layer="svg131" />
  <defs
     id="defs78">
    <clipPath
       id="clip1">
      <path
         d="M 183 9 L 190.136719 9 L 190.136719 21 L 183 21 Z M 183 9 "
         id="path2" />
    </clipPath>
    <filter
       id="alpha"
       filterUnits="objectBoundingBox"
       x="0%"
       y="0%"
       width="100%"
       height="100%">
      <feColorMatrix
         type="matrix"
         in="SourceGraphic"
         values="0 0 0 0 1 0 0 0 0 1 0 0 0 0 1 0 0 0 1 0"
         id="feColorMatrix5" />
    </filter>
    <mask
       id="mask0">
      <g
         filter="url(#alpha)"
         id="g10">
        <rect
           x="0"
           y="0"
           width="190.136"
           height="29.62"
           style="fill:rgb(0%,0%,0%);fill-opacity:0.5;stroke:none;"
           id="rect8" />
      </g>
    </mask>
    <clipPath
       id="clip3">
      <path
         d="M 0.371094 0.0429688 L 7.136719 0.0429688 L 7.136719 11.507813 L 0.371094 11.507813 Z M 0.371094 0.0429688 "
         id="path13" />
    </clipPath>
    <clipPath
       id="clip2">
      <rect
         width="8"
         height="12"
         id="rect16" />
    </clipPath>
    <g
       id="surface138"
       clip-path="url(#clip2)">
      <g
         clip-path="url(#clip3)"
         clip-rule="nonzero"
         id="g21">
        <path
           style=" stroke:none;fill-rule:nonzero;fill:rgb(59.608459%,60.00061%,60.00061%);fill-opacity:1;"
           d="M 3.34375 9.859375 C 4.511719 9.859375 5.238281 9.203125 5.238281 8.355469 C 5.238281 7.089844 3.964844 6.628906 2.859375 5.910156 C 1.371094 5.035156 0.597656 4.199219 0.597656 2.878906 C 0.597656 1.226563 1.890625 0.0429688 3.859375 0.0429688 C 4.800781 0.0429688 5.664063 0.253906 6.558594 0.695313 L 6.496094 2.410156 C 5.496094 1.863281 4.679688 1.558594 3.996094 1.558594 C 2.980469 1.558594 2.402344 2.058594 2.402344 2.789063 C 2.402344 3.773438 3.640625 4.253906 4.648438 4.910156 C 6.289063 5.882813 7.136719 6.820313 7.136719 8.308594 C 7.136719 10.175781 5.738281 11.507813 3.433594 11.507813 C 2.417969 11.507813 1.433594 11.296875 0.539063 10.875 L 0.371094 8.765625 C 1.476563 9.476563 2.433594 9.859375 3.34375 9.859375 "
           id="path19" />
      </g>
    </g>
    <mask
       id="mask1">
      <g
         filter="url(#alpha)"
         id="g26">
        <rect
           x="0"
           y="0"
           width="190.136"
           height="29.62"
           style="fill:rgb(0%,0%,0%);fill-opacity:0.5;stroke:none;"
           id="rect24" />
      </g>
    </mask>
    <clipPath
       id="clip5">
      <path
         d="M 0.210938 0.40625 L 7.308594 0.40625 L 7.308594 11.140625 L 0.210938 11.140625 Z M 0.210938 0.40625 "
         id="path29" />
    </clipPath>
    <clipPath
       id="clip4">
      <rect
         width="8"
         height="12"
         id="rect32" />
    </clipPath>
    <g
       id="surface141"
       clip-path="url(#clip4)">
      <g
         clip-path="url(#clip5)"
         clip-rule="nonzero"
         id="g37">
        <path
           style=" stroke:none;fill-rule:nonzero;fill:rgb(59.608459%,60.00061%,60.00061%);fill-opacity:1;"
           d="M 3.585938 9.519531 C 4.199219 9.519531 4.660156 9.390625 4.972656 9.125 C 5.285156 8.859375 5.445313 8.472656 5.445313 7.960938 C 5.445313 7.503906 5.289063 7.144531 4.980469 6.878906 C 4.667969 6.617188 4.25 6.484375 3.726563 6.484375 L 2.023438 6.484375 L 2.023438 9.519531 Z M 3.164063 4.863281 C 3.644531 4.863281 4.019531 4.734375 4.300781 4.472656 C 4.574219 4.210938 4.714844 3.847656 4.714844 3.378906 C 4.714844 2.964844 4.589844 2.636719 4.332031 2.394531 C 4.078125 2.152344 3.742188 2.027344 3.328125 2.027344 L 2.023438 2.027344 L 2.023438 4.863281 Z M 3.648438 0.40625 C 4.507813 0.40625 5.210938 0.664063 5.75 1.175781 C 6.289063 1.6875 6.5625 2.328125 6.5625 3.097656 C 6.5625 3.589844 6.445313 4.023438 6.222656 4.394531 C 5.996094 4.769531 5.667969 5.066406 5.238281 5.285156 L 5.238281 5.378906 C 5.890625 5.546875 6.398438 5.882813 6.765625 6.382813 C 7.128906 6.882813 7.308594 7.46875 7.308594 8.140625 C 7.308594 8.734375 7.175781 9.265625 6.910156 9.734375 C 6.644531 10.203125 6.273438 10.554688 5.800781 10.789063 C 5.328125 11.023438 4.773438 11.140625 4.136719 11.140625 L 0.210938 11.140625 L 0.214844 0.40625 Z M 3.648438 0.40625 "
           id="path35" />
      </g>
    </g>
    <mask
       id="mask2">
      <g
         filter="url(#alpha)"
         id="g42">
        <rect
           x="0"
           y="0"
           width="190.136"
           height="29.62"
           style="fill:rgb(0%,0%,0%);fill-opacity:0.5;stroke:none;"
           id="rect40" />
      </g>
    </mask>
    <clipPath
       id="clip7">
      <path
         d="M 0.234375 0.015625 L 10.96875 0.015625 L 10.96875 11.140625 L 0.234375 11.140625 Z M 0.234375 0.015625 "
         id="path45" />
    </clipPath>
    <clipPath
       id="clip6">
      <rect
         width="11"
         height="12"
         id="rect48" />
    </clipPath>
    <g
       id="surface144"
       clip-path="url(#clip6)">
      <g
         clip-path="url(#clip7)"
         clip-rule="nonzero"
         id="g53">
        <path
           style=" stroke:none;fill-rule:nonzero;fill:rgb(59.608459%,60.00061%,60.00061%);fill-opacity:1;"
           d="M 3.820313 6.859375 C 4.3125 5.496094 4.859375 4.277344 5.617188 3.066406 C 6.367188 4.277344 6.976563 5.558594 7.429688 6.859375 Z M 5.683594 0.0585938 C 5.683594 0.0585938 5.648438 0.015625 5.601563 0.015625 C 5.558594 0.015625 5.523438 0.0585938 5.523438 0.0585938 C 2.855469 4.019531 1.847656 6.160156 0.234375 11.140625 L 2.152344 11.140625 C 2.328125 10.488281 2.78125 9.132813 3.011719 8.492188 L 8.195313 8.492188 C 8.421875 9.132813 8.878906 10.488281 9.054688 11.140625 L 10.96875 11.140625 C 9.34375 6.117188 8.304688 3.953125 5.683594 0.0585938 "
           id="path51" />
      </g>
    </g>
    <mask
       id="mask3">
      <g
         filter="url(#alpha)"
         id="g58">
        <rect
           x="0"
           y="0"
           width="190.136"
           height="29.62"
           style="fill:rgb(0%,0%,0%);fill-opacity:0.5;stroke:none;"
           id="rect56" />
      </g>
    </mask>
    <clipPath
       id="clip9">
      <path
         d="M 0.332031 0.40625 L 7.492188 0.40625 L 7.492188 11.140625 L 0.332031 11.140625 Z M 0.332031 0.40625 "
         id="path61" />
    </clipPath>
    <clipPath
       id="clip8">
      <rect
         width="8"
         height="12"
         id="rect64" />
    </clipPath>
    <g
       id="surface143"
       clip-path="url(#clip8)">
      <g
         clip-path="url(#clip9)"
         clip-rule="nonzero"
         id="g69">
        <path
           style=" stroke:none;fill-rule:nonzero;fill:rgb(59.608459%,60.00061%,60.00061%);fill-opacity:1;"
           d="M 0.332031 0.40625 L 2.226563 0.40625 L 2.226563 9.503906 L 7.492188 9.503906 L 7.492188 11.140625 L 0.332031 11.140625 Z M 0.332031 0.40625 "
           id="path67" />
      </g>
    </g>
    <clipPath
       id="clip10">
      <path
         d="M 5 12 L 21 12 L 21 29.621094 L 5 29.621094 Z M 5 12 "
         id="path72" />
    </clipPath>
    <clipPath
       id="clip11">
      <path
         d="M 2 22 L 13 22 L 13 29.621094 L 2 29.621094 Z M 2 22 "
         id="path75" />
    </clipPath>
  </defs>
  <g
     id="surface132"
     transform="matrix(0.93601133,0,0,0.93601133,6.4900985,0.96243824)">
    <g
       clip-path="url(#clip1)"
       id="g82"
       style="clip-rule:nonzero">
      <use
         xlink:href="#surface138"
         transform="translate(183,9)"
         mask="url(#mask0)"
         id="use80"
         x="0"
         y="0"
         width="100%"
         height="100%" />
    </g>
    <use
       xlink:href="#surface141"
       transform="translate(173,9)"
       mask="url(#mask1)"
       id="use84"
       x="0"
       y="0"
       width="100%"
       height="100%" />
    <use
       xlink:href="#surface144"
       transform="translate(159,9)"
       mask="url(#mask2)"
       id="use86"
       x="0"
       y="0"
       width="100%"
       height="100%" />
    <use
       xlink:href="#surface143"
       transform="translate(149,9)"
       mask="url(#mask3)"
       id="use88"
       x="0"
       y="0"
       width="100%"
       height="100%" />
    <path
       style="fill:#979999;fill-opacity:1;fill-rule:nonzero;stroke:none"
       d="m 138.77734,10.546875 v 0.882813 c 0.0312,0.0039 0.11328,0.0039 0.2461,0.0039 0.24218,0 0.40625,-0.03125 0.49218,-0.09375 0.0859,-0.0625 0.125,-0.183594 0.125,-0.359375 0,-0.289063 -0.1875,-0.4375 -0.5664,-0.4375 h -0.14844 z m 1.05078,2.316406 -0.67187,-1.132812 h -0.37891 v 1.132812 h -0.3789 v -2.640625 h 0.67578 c 0.63672,0 0.95312,0.246094 0.95312,0.730469 0,0.339844 -0.17187,0.578125 -0.51172,0.71875 l 0.72266,1.191406 z m 1.125,-1.292968 c 0,-0.496094 -0.17578,-0.917969 -0.52734,-1.265625 -0.34766,-0.351563 -0.76953,-0.527344 -1.26562,-0.527344 -0.4961,0 -0.91797,0.175781 -1.26954,0.527344 -0.34765,0.347656 -0.52343,0.769531 -0.52343,1.265625 0,0.496093 0.17578,0.917968 0.52343,1.269531 0.35157,0.351562 0.77344,0.523437 1.26954,0.523437 0.49609,0 0.91796,-0.171875 1.26562,-0.523437 0.35156,-0.351563 0.52734,-0.773438 0.52734,-1.269531 m -3.9375,0 c 0,-0.589844 0.21094,-1.09375 0.63282,-1.511719 0.41797,-0.417969 0.92187,-0.628906 1.51172,-0.628906 0.58984,0 1.09375,0.210937 1.51171,0.628906 0.41797,0.417969 0.625,0.921875 0.625,1.511719 0,0.589843 -0.20703,1.09375 -0.625,1.515625 -0.41796,0.417968 -0.92187,0.625 -1.51171,0.625 -0.58985,0 -1.09375,-0.207032 -1.51172,-0.625 -0.42188,-0.421875 -0.63282,-0.925782 -0.63282,-1.515625"
       id="path90"
       inkscape:connector-curvature="0" />
    <path
       style="fill:#979999;fill-opacity:1;fill-rule:nonzero;stroke:none"
       d="m 130.01172,20.140625 h -1.89844 v -9.09375 h -3.625 V 9.40625 h 9.12891 v 1.640625 h -3.60547 z m 0,0"
       id="path92"
       inkscape:connector-curvature="0" />
    <path
       style="fill:#979999;fill-opacity:1;fill-rule:nonzero;stroke:none"
       d="m 113.51563,13.46875 7.04296,7.039063 c 0,0 0.0547,0.0039 0.0898,-0.02734 0.0156,-0.01563 0.0273,-0.05469 0.0273,-0.08984 V 9.40625 h -1.82031 v 6.640625 l -7.03906,-7.039062 c 0,0 -0.0625,-0.00391 -0.0937,0.027343 -0.0156,0.015625 -0.0273,0.050782 -0.0273,0.085938 v 11.019531 h 1.82032 z m 0,0"
       id="path94"
       inkscape:connector-curvature="0" />
    <path
       style="fill:#979999;fill-opacity:1;fill-rule:nonzero;stroke:none"
       d="m 100.89453,15.859375 c 0.49219,-1.363281 1.04297,-2.582031 1.80078,-3.792969 0.7461,1.210938 1.35547,2.492188 1.8086,3.792969 z m 1.86328,-6.800781 c 0,0 -0.0352,-0.042969 -0.0781,-0.042969 -0.0469,0 -0.082,0.042969 -0.082,0.042969 -2.664066,3.960937 -3.675785,6.101562 -5.28516,11.082031 h 1.917969 c 0.171875,-0.652344 0.628906,-2.007812 0.855471,-2.648437 h 5.18359 c 0.23047,0.640625 0.6875,1.996093 0.85938,2.648437 h 1.91797 c -1.62891,-5.023437 -2.66797,-7.1875 -5.28907,-11.082031"
       id="path96"
       inkscape:connector-curvature="0" />
    <path
       style="fill:#979999;fill-opacity:1;fill-rule:nonzero;stroke:none"
       d="m 91.820313,12.59375 c 0,-1.679687 -1.824219,-1.65625 -3.367188,-1.65625 v 3.332031 c 1.207031,0 3.367188,0.121094 3.367188,-1.675781 m -5.21875,-3.1875 h 2.488281 c 1.367187,0 2.425781,0.089844 3.351562,0.742188 0.804688,0.5625 1.257813,1.410156 1.257813,2.292968 0,1.410157 -0.832031,2.46875 -2.347656,2.988282 l 3.472656,4.710937 H 92.625 L 89.363281,15.6875 h -0.910156 v 4.453125 h -1.851562 z m 0,0"
       id="path98"
       inkscape:connector-curvature="0" />
    <path
       style="fill:#979999;fill-opacity:1;fill-rule:nonzero;stroke:none"
       d="m 74.773438,15.671875 c 0,2.078125 0.875,3.136719 2.589843,3.136719 1.679688,0 2.59375,-1.074219 2.59375,-3.183594 V 9.40625 H 81.875 v 6.25 c 0,3.140625 -1.707031,4.839844 -4.503906,4.839844 -2.886719,0 -4.511719,-1.898438 -4.511719,-4.808594 V 9.40625 h 1.914063 z m 0,0"
       id="path100"
       inkscape:connector-curvature="0" />
    <path
       style="fill:#979999;fill-opacity:1;fill-rule:nonzero;stroke:none"
       d="m 64.921875,18.859375 c 1.167969,0 1.898438,-0.65625 1.898438,-1.503906 0,-1.265625 -1.277344,-1.726563 -2.382813,-2.445313 -1.484375,-0.875 -2.261719,-1.710937 -2.261719,-3.03125 0,-1.652343 1.292969,-2.835937 3.261719,-2.835937 0.941406,0 1.804688,0.210937 2.699219,0.652344 l -0.05859,1.714843 c -1.003906,-0.546875 -1.820312,-0.851562 -2.503906,-0.851562 -1.015625,0 -1.59375,0.5 -1.59375,1.230469 0,0.984375 1.238281,1.464843 2.246094,2.121093 1.640625,0.972657 2.488281,1.910157 2.488281,3.398438 0,1.867187 -1.398438,3.199219 -3.703125,3.199219 -1.015625,0 -2,-0.210938 -2.894531,-0.632813 l -0.167969,-2.109375 c 1.105469,0.710938 2.0625,1.09375 2.972656,1.09375"
       id="path102"
       inkscape:connector-curvature="0" />
    <path
       style="fill:#979999;fill-opacity:1;fill-rule:nonzero;stroke:none"
       d="m 54.285156,18.859375 c 1.171875,0 1.898438,-0.65625 1.898438,-1.503906 0,-1.265625 -1.277344,-1.726563 -2.382813,-2.445313 -1.484375,-0.875 -2.257812,-1.710937 -2.257812,-3.03125 0,-1.652343 1.289062,-2.835937 3.257812,-2.835937 0.941407,0 1.804688,0.210937 2.699219,0.652344 l -0.05859,1.714843 c -1,-0.546875 -1.820312,-0.851562 -2.5,-0.851562 -1.015625,0 -1.59375,0.5 -1.59375,1.230469 0,0.984375 1.234375,1.464843 2.246094,2.121093 1.636719,0.972657 2.484375,1.910157 2.484375,3.398438 0,1.867187 -1.394531,3.199219 -3.699219,3.199219 -1.019531,0 -2.003906,-0.210938 -2.898437,-0.632813 L 51.31641,17.765625 c 1.105469,0.710938 2.0625,1.09375 2.96875,1.09375"
       id="path104"
       inkscape:connector-curvature="0" />
    <path
       style="fill:#979999;fill-opacity:1;fill-rule:nonzero;stroke:none"
       d="M 41.199219,15.859375 C 41.691406,14.496094 42.242188,13.277344 43,12.066406 c 0.75,1.210938 1.355469,2.492188 1.808594,3.792969 z M 43.0625,9.058594 c 0,0 -0.03125,-0.042969 -0.07813,-0.042969 -0.04687,0 -0.08203,0.042969 -0.08203,0.042969 -2.664063,3.960937 -3.675781,6.101562 -5.285156,11.082031 h 1.917968 c 0.171875,-0.652344 0.628907,-2.007812 0.855469,-2.648437 h 5.1875 c 0.226563,0.640625 0.683594,1.996093 0.855469,2.648437 h 1.917969 C 46.722656,15.117188 45.683594,12.953125 43.0625,9.058594"
       id="path106"
       inkscape:connector-curvature="0" />
    <path
       style="fill:#f89919;fill-opacity:1;fill-rule:nonzero;stroke:none"
       d="m 2.015625,22.15625 c 0.027344,0.05078 0.058594,0.105469 0.089844,0.160156 0.878906,-2.929687 2.128906,-6.003906 3.710937,-9.101562 -2.03125,0.316406 -3.96875,0.738281 -5.7734372,1.253906 -0.0546876,2.609375 0.5703122,5.261719 1.9726562,7.6875"
       id="path108"
       inkscape:connector-curvature="0" />
    <path
       style="fill:#f89919;fill-opacity:1;fill-rule:nonzero;stroke:none"
       d="M 14.8125,0.207031 C 14.75,0.140625 14.6875,0.0742188 14.628906,0.0078125 9.90625,0.0664063 5.722656,2.339844 3.058594,5.835938 5.542969,5.328125 8.214844,4.976563 11.015625,4.808594 c 1.226563,-1.667969 2.5,-3.210938 3.796875,-4.601563"
       id="path110"
       inkscape:connector-curvature="0" />
    <path
       style="fill:#f89919;fill-opacity:1;fill-rule:nonzero;stroke:none"
       d="m 20.960938,22.113281 c 0.589843,-0.90625 1.171875,-1.832031 1.722656,-2.789062 2.257812,-3.910156 3.976562,-7.839844 5.140625,-11.523438 -1.050781,-1.964843 -2.5625,-3.710937 -4.476563,-5.066406 -1.117187,4.335938 -3.050781,9.03125 -5.726562,13.664063 -0.703125,1.21875 -1.445313,2.386718 -2.210938,3.523437 0.585938,0.847656 1.1875,1.660156 1.796875,2.453125 1.269532,-0.05078 2.527344,-0.136719 3.753907,-0.261719"
       id="path112"
       inkscape:connector-curvature="0" />
    <path
       style="fill:#42b547;fill-opacity:1;fill-rule:nonzero;stroke:none"
       d="m 14.8125,0.0078125 h -0.183594 c 2.09375,2.2265625 4.132813,4.8476565 6.023438,7.7656255 0.738281,-1.917969 1.34375,-3.808594 1.800781,-5.625 C 20.21875,0.792969 17.613281,0.0078125 14.8125,0.0078125"
       id="path114"
       inkscape:connector-curvature="0" />
    <path
       style="fill:#42b547;fill-opacity:1;fill-rule:nonzero;stroke:none"
       d="m 27.433594,22.066406 c 0.08594,-0.01953 0.171875,-0.04297 0.261719,-0.0625 2.308593,-4.117187 2.433593,-8.878906 0.738281,-12.933593 -0.804688,2.40625 -1.835938,4.898437 -3.089844,7.40625 C 26.171875,18.375 26.875,20.25 27.433594,22.066406"
       id="path116"
       inkscape:connector-curvature="0" />
    <g
       clip-path="url(#clip10)"
       id="g120"
       style="clip-rule:nonzero">
      <path
         style="fill:#42b547;fill-opacity:1;fill-rule:nonzero;stroke:none"
         d="m 5.378906,16.429688 c 0.488282,0.964843 1,1.929687 1.550782,2.886718 2.257812,3.910157 4.800781,7.367188 7.414062,10.214844 2.226563,0.07031 4.492188,-0.363281 6.625,-1.347656 -3.195312,-3.132813 -6.296875,-7.15625 -8.972656,-11.789063 -0.703125,-1.21875 -1.34375,-2.445312 -1.945313,-3.675781 -1.027343,0.08203 -2.03125,0.195313 -3.023437,0.328125 -0.589844,1.128906 -1.144531,2.257813 -1.648438,3.382813"
         id="path118"
         inkscape:connector-curvature="0" />
    </g>
    <path
       style="fill:#2e66b0;fill-opacity:1;fill-rule:nonzero;stroke:none"
       d="m 27.601563,22.164063 c 0.03125,-0.05469 0.0625,-0.105469 0.09375,-0.160157 -2.976563,0.703125 -6.265625,1.160157 -9.738282,1.335938 1.289063,1.601562 2.625,3.066406 3.972657,4.371094 2.289062,-1.253907 4.273437,-3.121094 5.671875,-5.546875"
       id="path122"
       inkscape:connector-curvature="0" />
    <g
       clip-path="url(#clip11)"
       id="g126"
       style="clip-rule:nonzero">
      <path
         style="fill:#2e66b0;fill-opacity:1;fill-rule:nonzero;stroke:none"
         d="M 2.183594,22.058594 C 2.160156,22.144531 2.132813,22.230469 2.105469,22.316406 4.515625,26.375 8.578125,28.863281 12.9375,29.417969 11.253906,27.523438 9.613281,25.382813 8.066406,23.042969 6.007813,22.8125 4.035156,22.484375 2.183594,22.058594"
         id="path124"
         inkscape:connector-curvature="0" />
    </g>
    <path
       style="fill:#2e66b0;fill-opacity:1;fill-rule:nonzero;stroke:none"
       d="M 18.089844,5.777344 C 17.011719,5.71875 15.921875,5.679688 14.816406,5.679688 c -4.515625,0 -8.78125,0.472656 -12.550781,1.308593 -1.175781,1.894532 -1.933594,4.074219 -2.148437,6.410157 4.3125,-1.199219 9.347656,-1.871094 14.699218,-1.871094 1.402344,0 2.785157,0.05859 4.152344,0.152344 C 19.410156,10.75 19.8125,9.820313 20.195313,8.898438 19.515625,7.820313 18.816406,6.777344 18.089844,5.777344"
       id="path128"
       inkscape:connector-curvature="0" />
  </g>
</svg>
