<?xml version="1.0" encoding="UTF-8"?>
<svg width="638px" height="464px" viewBox="0 0 638 464" version="1.1" xmlns="http://www.w3.org/2000/svg" xmlns:xlink="http://www.w3.org/1999/xlink">
    <!-- Generator: Sketch 49.2 (51160) - http://www.bohemiancoding.com/sketch -->
    <title>g4858</title>
    <desc>Created with Sketch.</desc>
    <defs></defs>
    <g id="Page-1" stroke="none" stroke-width="1" fill="none" fill-rule="evenodd">
        <g id="g4858" transform="translate(-22.000000, 0.000000)" fill-rule="nonzero">
            <g id="g4875">
                <g id="g2715" transform="translate(604.193034, 0.094248)" fill="#FFFFFF" fill-opacity="0.33177568">
                    <path d="M31.7266576,202.144571 C31.72667,210.834674 24.6921274,217.884772 16.0020461,217.903956 C7.3119814,217.92314 0.246387491,210.904194 0.208008982,202.214193 C0.169644845,193.524193 7.17297704,186.443125 15.862871,186.385565 C24.5527584,186.328003 31.6492778,193.315664 31.7260446,202.005403" id="path2187-3"></path>
                    <path d="M55.7409873,112.090513 C55.7409997,120.780613 48.7064617,127.83071 40.0163834,127.849898 C31.326316,127.869085 24.260718,120.850138 24.2223394,112.160135 C24.1839753,103.470132 31.1873116,96.3890633 39.8772082,96.3315069 C48.5670927,96.2739492 55.6636075,103.261609 55.7403743,111.951345" id="path2187-9"></path>
                    <path d="M36.2293454,16.0334061 C36.2293578,24.7235056 29.1948198,31.773603 20.5047414,31.7927906 C11.8146744,31.8119782 4.74907677,24.7930312 4.71069826,16.1030277 C4.67229226,7.41299897 11.6756357,0.33188529 20.3655587,0.274324336 C29.0554754,0.216762563 36.1520071,7.20446992 36.2287324,15.8942385" id="path2187-7"></path>
                </g>
                <g id="g4841" transform="translate(311.251472, 318.316582) rotate(-9.000124) translate(-311.251472, -318.316582) translate(21.176870, 162.646048)">
                    <path d="M467.164722,50.1888608 C447.769704,22.797652 384.4807,-7.14553272 320.511169,1.53118558 C256.541638,10.2079039 300.435625,44.2342502 311.153924,43.5537233 C321.872223,42.8731963 335.823025,50.1888608 337.184079,54.2720224 C338.545133,58.3551839 467.164722,50.1888608 467.164722,50.1888608 Z" id="path4805" fill="#FF4400"></path>
                    <path d="M290.057589,73.8371715 C274.065206,57.8447887 242.760968,61.2474233 229.320561,73.8371715 C215.880154,86.4269196 179.982359,110.585625 149.358647,116.540236 C118.734935,122.494847 104.103607,137.126176 132.00521,159.923828 C159.906814,182.72148 290.057589,73.8371715 290.057589,73.8371715 Z" id="path4807" fill="#FF4400"></path>
                    <path d="M110.568612,218.959538 C91.1735949,239.035083 75.1812122,264.214579 40.6444707,258.940495 C6.10772916,253.666412 33.3288062,216.917958 33.3288062,199.564521 C33.3288062,182.211084 -2.05859395,146.823684 2.02456761,125.557218 C6.10772916,104.290751 39.2834168,100.888117 69.3967333,119.602607 C99.5100498,138.317098 136.088372,175.575947 136.088372,175.575947 L110.568612,218.959538 Z" id="path4809" fill="#FF4400"></path>
                    <path d="M286.654954,250.604041 C293.800487,268.638004 242.080441,274.252351 223.36595,267.617214 C204.65146,260.982076 197.335795,250.263777 185.426574,247.031274 C173.517353,243.798771 131.494815,253.666412 124.689546,247.031274 C117.884277,240.396137 120.095989,217.768616 124.689546,213.685455 C129.283103,209.602293 279.169158,232.229814 286.654954,250.604041 Z" id="path4811" fill="#FF4400"></path>
                    <path d="M405.236771,259.621022 C387.202808,284.97065 340.586713,323.25029 320.511169,305.046195 C300.435625,286.842099 345.18027,264.214579 345.860797,255.537861 C346.541324,246.861142 405.236771,259.621022 405.236771,259.621022 Z" id="path4813" fill="#FF4400"></path>
                    <path d="M569.24376,155.840666 C556.654012,100.377722 507.31581,45.595304 434.499429,33.6860828 C361.683048,21.7768616 291.758906,61.0772916 267.259937,79.6216504 C242.760968,98.1660091 167.222479,158.22251 119.925858,158.903037 C72.6292362,159.583564 69.2266016,226.275203 119.925858,226.275203 C170.625114,226.275203 205.331987,232.91034 222.004896,240.906532 C238.677806,248.902723 349.263432,266.25616 388.733993,264.214579 C428.204555,262.172998 507.996337,268.808136 524.669247,246.861142 C541.342157,224.914149 512.589894,212.154269 512.589894,212.154269 L557.844934,176.086342 C557.844934,176.256474 576.559425,174.214893 569.24376,155.840666 Z" id="path4815" fill="#2550FF"></path>
                    <path d="M400.132819,183.572138 C394.858736,200.925575 363.724629,232.91034 325.274857,221.681646 C286.825086,210.452952 316.768271,175.065552 344.840007,176.937001 C301.456415,164.347253 314.896822,116.540236 346.881587,114.838919 C378.866353,113.137601 399.622424,142.059996 400.132819,183.572138 Z" id="path4817" fill="#FF4400"></path>
                    <path d="M546.446108,220.320592 C546.446108,208.241239 584.89588,212.154269 579.281533,177.277264 C573.667186,142.400259 505.614493,190.037144 505.614493,210.112688 C505.614493,230.188233 536.408336,261.32234 550.52927,248.902723 C564.650204,236.483107 546.446108,232.399945 546.446108,220.320592 Z" id="path4819" fill="#FF4400"></path>
                    <circle id="circle4821" stroke="#FF8900" stroke-width="10.2079039" fill="#FFF1F2" stroke-linecap="round" cx="463.08156" cy="145.973031" r="24.1587059"></circle>
                    <circle id="circle4823" stroke="#F7DEB8" stroke-width="13.6105385" fill="#231617" stroke-linecap="round" cx="463.08156" cy="145.973031" r="15.9923821"></circle>
                </g>
            </g>
        </g>
    </g>
</svg>