<?xml version="1.0" encoding="UTF-8"?>
<svg width="966px" height="136px" viewBox="0 0 966 136" version="1.1" xmlns="http://www.w3.org/2000/svg" xmlns:xlink="http://www.w3.org/1999/xlink">
    <!-- Generator: Sketch 52.5 (67469) - http://www.bohemiancoding.com/sketch -->
    <title>Logo (1)</title>
    <desc>Created with Sketch.</desc>
    <defs>
        <path d="M112.518785,122.177473 C112.518785,125.667944 111.334536,128.628567 108.966001,131.059431 C106.597467,133.490295 103.668009,134.705709 100.177537,134.705709 C96.6870659,134.705709 93.7264427,133.490295 91.2955787,131.059431 C88.8647147,128.628567 87.649301,125.667944 87.649301,122.177473 L87.649301,80.6660034 L31.1787438,80.6660034 L31.1787438,122.177473 C31.1787438,125.667944 29.9944945,128.628567 27.6259604,131.059431 C25.2574263,133.490295 22.3279675,134.705709 18.8374962,134.705709 C15.3470249,134.705709 12.3864017,133.490295 9.9555377,131.059431 C7.52467375,128.628567 6.30926,125.667944 6.30926,122.177473 L6.30926,19.5207312 C6.30926,16.0302599 7.52467375,13.0696367 9.9555377,10.6387727 C12.3864017,8.20790875 15.3470249,6.992495 18.8374962,6.992495 C22.3279675,6.992495 25.2574263,8.20790875 27.6259604,10.6387727 C29.9944945,13.0696367 31.1787438,16.0302599 31.1787438,19.5207312 L31.1787438,57.2924284 L87.649301,57.2924284 L87.649301,19.5207312 C87.649301,16.0302599 88.8647147,13.0696367 91.2955787,10.6387727 C93.7264427,8.20790875 96.6870659,6.992495 100.177537,6.992495 C103.668009,6.992495 106.597467,8.20790875 108.966001,10.6387727 C111.334536,13.0696367 112.518785,16.0302599 112.518785,19.5207312 L112.518785,122.177473 Z M216.110469,123.299404 C216.110469,126.415896 214.988549,129.09604 212.744674,131.339914 C210.5008,133.583788 207.820657,134.705709 204.704165,134.705709 C201.587672,134.705709 199.063351,133.552624 197.131126,131.24642 C195.198901,128.940215 194.232803,126.291237 194.232803,123.299404 C193.110866,125.418619 191.646136,127.257322 189.838571,128.815568 C188.031005,130.373814 186.005316,131.651557 183.761441,132.648834 C181.517567,133.646112 179.180233,134.362894 176.749369,134.799203 C174.318505,135.235512 171.981171,135.453663 169.737296,135.453663 C165.872846,135.453663 162.19544,134.736881 158.704969,133.303294 C155.214498,131.869708 152.129217,129.937512 149.449033,127.506648 C146.76885,125.075784 144.618503,122.177489 142.997927,118.811678 C141.377351,115.445866 140.567075,111.76846 140.567075,107.77935 C140.567075,103.416261 141.346186,99.5518688 142.904432,96.1860572 C144.462678,92.8202456 146.613026,89.9531157 149.355539,87.5845816 C152.098052,85.2160475 155.276827,83.4396736 158.891958,82.2554065 C162.507089,81.0711394 166.371481,80.4790148 170.485251,80.4790148 C174.474361,80.4790148 178.494576,80.9776461 182.546016,81.9749236 C186.597455,82.9722011 190.243697,84.8420684 193.484849,87.5845816 C193.484849,83.8447909 193.204369,80.7906743 192.6434,78.4221402 C192.082431,76.0536061 191.116333,74.1837388 189.745077,72.8124822 C188.37382,71.4412256 186.441624,70.506292 183.94843,70.0076532 C181.455236,69.5090144 178.276462,69.2596988 174.412011,69.2596988 C172.168137,69.2596988 169.955461,69.47785 167.773916,69.9141589 C165.592372,70.3504678 163.566682,70.8179346 161.696787,71.3165734 C159.826891,71.8152122 158.081682,72.282679 156.461106,72.7189879 C154.84053,73.1552968 153.406965,73.373448 152.160368,73.373448 C149.417855,73.373448 147.14285,72.4385143 145.335284,70.568619 C143.527719,68.6987237 142.623949,66.4548829 142.623949,63.8370294 C142.623949,60.8451968 143.964021,58.4143693 146.644204,56.544474 C149.324388,54.6745787 152.503162,53.2410137 156.180623,52.2437362 C159.858084,51.2464587 163.597818,50.5920051 167.399939,50.2803559 C171.202059,49.9687067 174.225012,49.8128844 176.468886,49.8128844 C182.203232,49.8128844 187.501189,50.3738446 192.362917,51.4957818 C197.224645,52.617719 201.400682,54.4875863 204.891153,57.1054398 C208.381625,59.7232933 211.124097,63.1513833 213.118652,67.3898128 C215.113207,71.6282423 216.110469,76.9261996 216.110469,83.2838438 L216.110469,123.299404 Z M193.484849,107.77935 C193.484849,105.660136 192.955053,103.946091 191.895446,102.637164 C190.835838,101.328237 189.495767,100.29981 187.875191,99.551852 C186.254615,98.8038939 184.478241,98.3052626 182.546016,98.0559432 C180.61379,97.8066238 178.837416,97.681966 177.21684,97.681966 C175.596264,97.681966 173.944548,97.8377883 172.261643,98.1494375 C170.578737,98.4610867 169.020514,98.9908825 167.586928,99.7388406 C166.153341,100.486799 165.000256,101.515226 164.127638,102.824152 C163.255021,104.133079 162.818718,105.784795 162.818718,107.77935 C162.818718,109.773905 163.255021,111.425622 164.127638,112.734548 C165.000256,114.043475 166.153341,115.103067 167.586928,115.913354 C169.020514,116.723642 170.578737,117.315767 172.261643,117.689746 C173.944548,118.063725 175.596264,118.250712 177.21684,118.250712 C178.837416,118.250712 180.582626,118.09489 182.452521,117.783241 C184.322417,117.471591 186.067626,116.910631 187.688202,116.100343 C189.308778,115.290055 190.680014,114.199299 191.801951,112.828043 C192.923888,111.456786 193.484849,109.773905 193.484849,107.77935 Z M307.921872,117.12878 C307.921872,119.871294 306.86228,122.426779 304.743066,124.795313 C303.371809,126.291229 301.6266,127.69363 299.507385,129.002556 C297.38817,130.311483 295.019671,131.433404 292.401818,132.368351 C289.783965,133.303299 287.041492,134.051246 284.17432,134.612214 C281.307147,135.173183 278.502346,135.453663 275.759833,135.453663 C269.900827,135.453663 264.353554,134.331743 259.117847,132.087868 C253.88214,129.843994 249.33213,126.789877 245.467679,122.925427 C241.603229,119.060977 238.549112,114.510966 236.305238,109.275259 C234.061364,104.039552 232.939443,98.4922792 232.939443,92.6332738 C232.939443,86.7742684 234.061364,81.2269954 236.305238,75.9912884 C238.549112,70.7555814 241.603229,66.205571 245.467679,62.3411206 C249.33213,58.4766702 253.88214,55.4225536 259.117847,53.1786792 C264.353554,50.9348048 269.900827,49.8128844 275.759833,49.8128844 C280.87088,49.8128844 285.732535,50.467338 290.344943,51.7762647 C294.957352,53.0851914 298.946402,55.1732099 302.312214,58.0403828 C305.054727,60.4089169 306.425963,63.08906 306.425963,66.0808926 C306.425963,67.9507879 305.802674,69.6959974 304.556077,71.3165734 C302.436862,73.9344269 299.69439,75.243334 296.328579,75.243334 C294.084704,75.243334 291.965521,74.6823738 289.970966,73.5604366 C287.851751,72.3138397 285.67024,71.3477416 283.426365,70.6621133 C281.182491,69.976485 278.627005,69.633676 275.759833,69.633676 C272.518681,69.633676 269.651551,70.2569651 267.158357,71.503562 C264.665163,72.7501589 262.54598,74.401875 260.800745,76.4587599 C259.055509,78.5156448 257.715437,80.9464723 256.78049,83.7513153 C255.845542,86.5561583 255.378075,89.5167816 255.378075,92.6332738 C255.378075,95.749766 255.845542,98.7103893 256.78049,101.515232 C257.715437,104.320075 259.055509,106.750903 260.800745,108.807788 C262.54598,110.864673 264.665163,112.516389 267.158357,113.762986 C269.651551,115.009582 272.518681,115.632872 275.759833,115.632872 C279.748943,115.632872 283.02121,114.978418 285.576734,113.669491 C288.132258,112.360565 290.220276,111.145151 291.840852,110.023214 C293.835407,108.527297 296.141577,107.77935 298.75943,107.77935 C301.501944,107.77935 303.808113,108.838942 305.678009,110.958157 C307.173925,112.828052 307.921872,114.884906 307.921872,117.12878 Z M406.651853,124.234347 C406.651853,127.10152 405.623426,129.563512 403.566541,131.620397 C401.509656,133.677282 399.047664,134.705709 396.180491,134.705709 C393.063999,134.705709 390.446185,133.52146 388.32697,131.152925 L360.465668,99.551852 L352.799136,105.535487 L352.799136,123.486393 C352.799136,126.602885 351.70838,129.251864 349.526835,131.433408 C347.345291,133.614953 344.696312,134.705709 341.57982,134.705709 C338.463328,134.705709 335.814349,133.614953 333.632804,131.433408 C331.45126,129.251864 330.360504,126.602885 330.360504,123.486393 L330.360504,18.3987996 C330.360504,15.2823074 331.45126,12.6021642 333.632804,10.3582898 C335.814349,8.11441538 338.463328,6.992495 341.57982,6.992495 C344.696312,6.992495 347.345291,8.11441538 349.526835,10.3582898 C351.70838,12.6021642 352.799136,15.2823074 352.799136,18.3987996 L352.799136,79.1700946 L387.01805,52.804702 C388.887945,51.3087857 391.007128,50.5608388 393.375662,50.5608388 C396.242835,50.5608388 398.735991,51.5892658 400.855206,53.6461507 C402.974421,55.7030356 404.034012,58.1650275 404.034012,61.0322004 C404.034012,64.5226717 402.662776,67.2651438 399.920263,69.2596988 L377.107654,86.8366272 L404.034012,117.315769 C405.779248,119.310324 406.651853,121.616494 406.651853,124.234347 Z M539.413759,106.47043 C539.413759,107.841687 539.195607,109.057101 538.759299,110.116708 C538.32299,111.176315 537.668536,112.204742 536.795918,113.20202 C530.936913,120.432282 523.675595,125.979555 515.011746,129.844005 C506.347898,133.708456 497.466028,135.640652 488.365871,135.640652 C479.390373,135.640652 471.007135,133.957771 463.215904,130.59196 C455.424673,127.226148 448.661987,122.613809 442.927641,116.754803 C437.193295,110.895798 432.674449,104.039618 429.370968,96.1860572 C426.067486,88.3324967 424.41577,79.9180939 424.41577,70.9425962 C424.41577,61.9670985 426.067486,53.5838601 429.370968,45.7926295 C432.674449,38.0013989 437.193295,31.1763832 442.927641,25.3173778 C448.661987,19.4583724 455.424673,14.846033 463.215904,11.4802214 C471.007135,8.11440977 479.390373,6.4315292 488.365871,6.4315292 C492.105661,6.4315292 495.876561,6.7120093 499.678681,7.2729779 C503.480802,7.8339465 507.189372,8.7377157 510.804503,9.9843126 C514.419634,11.2309095 517.847724,12.8514612 521.088876,14.8460162 C524.330028,16.8405712 527.259487,19.2090698 529.87734,21.951583 C532.495193,24.5694365 533.804101,27.5612242 533.804101,30.9270358 C533.804101,34.1681877 532.651016,36.8483309 530.344812,38.9675456 C528.038607,41.0867603 525.3273,42.1463518 522.210807,42.1463518 C520.091593,42.1463518 518.003574,41.4918982 515.946689,40.1829715 C513.889804,38.8740448 511.614799,37.4093154 509.121605,35.7887394 C506.628412,34.1681634 503.698953,32.703434 500.333141,31.3945073 C496.96733,30.0855806 492.978279,29.431127 488.365871,29.431127 C482.506865,29.431127 477.177744,30.5218829 472.378346,32.7034275 C467.578947,34.8849721 463.496404,37.8767598 460.130592,41.6788803 C456.764781,45.4810008 454.146966,49.9063535 452.277071,54.9550709 C450.407176,60.0037883 449.472242,65.3329102 449.472242,70.9425962 C449.472242,76.5522822 450.407176,81.8814041 452.277071,86.9301215 C454.146966,91.9788389 456.764781,96.4041916 460.130592,100.206312 C463.496404,104.008433 467.578947,107.031385 472.378346,109.275259 C477.177744,111.519134 482.506865,112.641054 488.365871,112.641054 C494.224876,112.641054 499.086531,111.674956 502.950982,109.742731 C506.815432,107.810506 510.0877,105.691323 512.767883,103.385118 C515.448066,101.078914 517.878894,98.9597311 520.060439,97.0275059 C522.241983,95.0952807 524.579317,94.1291826 527.072511,94.1291826 C530.313663,94.1291826 533.180793,95.4069253 535.673987,97.9624489 C538.16718,100.517973 539.413759,103.353938 539.413759,106.47043 Z M701.345886,18.5857882 C701.345886,19.458406 700.597939,22.4813582 699.102023,27.6547353 C697.606107,32.8281124 695.673911,39.0921679 693.305376,46.4470896 C690.936842,53.8020113 688.381357,61.7489473 685.638844,70.2881361 C682.896331,78.8273249 680.247352,86.9612476 677.691828,94.6901484 C675.136305,102.419049 672.892464,109.2129 670.960239,115.071906 C669.028014,120.930911 667.750271,124.795304 667.126972,126.665199 C666.379014,129.033733 664.976614,130.965929 662.919729,132.461846 C660.862844,133.957762 658.587839,134.705709 656.094645,134.705709 C653.601451,134.705709 651.326446,133.988926 649.269561,132.55534 C647.212676,131.121753 645.872605,129.158393 645.249306,126.665199 L625.615503,58.2273714 L605.9817,126.665199 C605.358402,129.158393 603.987166,131.121753 601.867951,132.55534 C599.748736,133.988926 597.442567,134.705709 594.949373,134.705709 C592.456179,134.705709 590.181174,133.957762 588.124289,132.461846 C586.067404,130.965929 584.665004,129.033733 583.917045,126.665199 C583.293747,124.795304 582.016004,120.930911 580.083779,115.071906 C578.151554,109.2129 575.907713,102.419049 573.35219,94.6901484 C570.796666,86.9612476 568.147687,78.8273249 565.405174,70.2881361 C562.662661,61.7489473 560.107176,53.8020113 557.738641,46.4470896 C555.370107,39.0921679 553.437911,32.8281124 551.941995,27.6547353 C550.446079,22.4813582 549.698132,19.458406 549.698132,18.5857882 C549.698132,15.3446363 550.820052,12.6021642 553.063926,10.3582898 C555.307801,8.11441538 558.050273,6.992495 561.291425,6.992495 C563.784619,6.992495 566.059624,7.74044192 568.116509,9.2363582 C570.173394,10.7322745 571.575794,12.6644707 572.323752,15.0330048 L594.949373,84.9667412 L614.957153,15.0330048 C615.580451,12.6644707 616.858194,10.7322745 618.790419,9.2363582 C620.722644,7.74044192 622.935321,6.992495 625.428515,6.992495 C627.921708,6.992495 630.165549,7.74044192 632.160104,9.2363582 C634.154659,10.7322745 635.463566,12.6644707 636.086865,15.0330048 L656.281634,85.1537298 L678.720266,15.0330048 C679.468224,12.6644707 680.870624,10.7322745 682.927509,9.2363582 C684.984394,7.74044192 687.259399,6.992495 689.752593,6.992495 C692.993745,6.992495 695.736217,8.11441538 697.980091,10.3582898 C700.223966,12.6021642 701.345886,15.3446363 701.345886,18.5857882 Z M827.002225,46.0731124 C827.002225,53.4280341 825.319345,59.9725697 821.953533,65.7069154 C818.587722,71.4412611 813.476751,75.7419559 806.620468,78.6091288 C807.243766,79.8557257 808.1787,81.6320996 809.425297,83.9383039 C810.671894,86.2445082 812.04313,88.8934868 813.539046,91.8853194 C815.034962,94.877152 816.562021,97.962433 818.120267,101.141255 C819.678513,104.320077 821.112078,107.343029 822.421005,110.210202 C823.729931,113.077375 824.820687,115.63286 825.693305,117.876735 C826.565923,120.120609 827.002225,121.741161 827.002225,122.738438 C827.002225,125.97959 825.817976,128.784391 823.449442,131.152925 C821.080908,133.52146 818.213778,134.705709 814.847966,134.705709 C812.604092,134.705709 810.516073,134.113584 808.583848,132.929317 C806.651623,131.74505 805.186894,130.093334 804.189616,127.974119 C803.815637,127.350821 803.036526,125.823762 801.852259,123.392899 C800.667992,120.962035 799.265591,118.094905 797.645015,114.791423 C796.024439,111.487941 794.27923,107.997522 792.409334,104.320061 C790.539439,100.6426 788.856558,97.2456748 787.360642,94.1291826 C785.864726,91.0126904 784.586983,88.3948761 783.527376,86.2756614 C782.467769,84.1564467 781.937973,83.0345263 781.937973,82.9098666 L747.719059,82.9098666 L747.719059,122.364461 C747.719059,125.854933 746.472481,128.784391 743.979287,131.152925 C741.486093,133.52146 738.556634,134.705709 735.190823,134.705709 C731.700351,134.705709 728.770893,133.52146 726.402359,131.152925 C724.033824,128.784391 722.849575,125.854933 722.849575,122.364461 L722.849575,21.01664 C722.849575,17.5261687 724.033824,14.5967099 726.402359,12.2281758 C728.770893,9.85964169 731.700351,8.6753924 735.190823,8.6753924 L781.563996,8.6753924 C787.67232,8.6753924 793.500073,9.32984596 799.04743,10.6387727 C804.594786,11.9476994 809.425276,14.0980468 813.539046,17.0898794 C817.652816,20.081712 820.925084,23.9461044 823.355948,28.6831726 C825.786812,33.4202408 827.002225,39.2168295 827.002225,46.0731124 Z M802.132742,46.8210668 C802.132742,41.8346792 800.481025,38.0637801 797.177544,35.5082565 C793.874062,32.9527329 789.853847,31.6749902 785.116779,31.6749902 L747.719059,31.6749902 L747.719059,61.5931662 L785.116779,61.5931662 C789.729188,61.5931662 793.718238,60.3777525 797.084049,57.9468885 C800.449861,55.5160245 802.132742,51.8074544 802.132742,46.8210668 Z M965.186801,82.3489008 C965.186801,90.4517806 963.877894,97.7754276 961.26004,104.320061 C958.642187,110.864695 954.964781,116.474297 950.227713,121.149035 C945.490645,125.823774 939.787549,129.407686 933.118256,131.90088 C926.448962,134.394074 919.062987,135.640652 910.960107,135.640652 C902.857227,135.640652 895.502416,134.394074 888.895452,131.90088 C882.288488,129.407686 876.616558,125.823774 871.879489,121.149035 C867.142421,116.474297 863.465015,110.864695 860.847162,104.320061 C858.229309,97.7754276 856.920401,90.4517806 856.920401,82.3489008 L856.920401,19.5207312 C856.920401,16.0302599 858.104651,13.0696367 860.473185,10.6387727 C862.841719,8.20790875 865.771178,6.992495 869.261649,6.992495 C872.75212,6.992495 875.712744,8.20790875 878.143608,10.6387727 C880.574471,13.0696367 881.789885,16.0302599 881.789885,19.5207312 L881.789885,85.527707 C881.789885,93.7552465 884.314206,100.393275 889.362924,105.441993 C894.411641,110.49071 901.61063,113.015031 910.960107,113.015031 C920.309584,113.015031 927.508573,110.49071 932.55729,105.441993 C937.606008,100.393275 940.130328,93.7552465 940.130328,85.527707 L940.130328,19.5207312 C940.130328,16.0302599 941.345742,13.0696367 943.776606,10.6387727 C946.20747,8.20790875 949.168093,6.992495 952.658565,6.992495 C956.149036,6.992495 959.109659,8.20790875 961.540523,10.6387727 C963.971387,13.0696367 965.186801,16.0302599 965.186801,19.5207312 L965.186801,82.3489008 Z" id="path-1"></path>
        <path d="M106.908385,116.569073 C106.908385,120.059544 105.724136,123.020167 103.355601,125.451031 C100.987067,127.881895 98.0576085,129.097309 94.5671372,129.097309 C91.0766659,129.097309 88.1160427,127.881895 85.6851787,125.451031 C83.2543147,123.020167 82.038901,120.059544 82.038901,116.569073 L82.038901,75.0576034 L25.5683438,75.0576034 L25.5683438,116.569073 C25.5683438,120.059544 24.3840945,123.020167 22.0155604,125.451031 C19.6470263,127.881895 16.7175675,129.097309 13.2270962,129.097309 C9.73662488,129.097309 6.77600165,127.881895 4.3451377,125.451031 C1.91427375,123.020167 0.69886,120.059544 0.69886,116.569073 L0.69886,13.9123312 C0.69886,10.4218599 1.91427375,7.46123665 4.3451377,5.0303727 C6.77600165,2.59950875 9.73662488,1.384095 13.2270962,1.384095 C16.7175675,1.384095 19.6470263,2.59950875 22.0155604,5.0303727 C24.3840945,7.46123665 25.5683438,10.4218599 25.5683438,13.9123312 L25.5683438,51.6840284 L82.038901,51.6840284 L82.038901,13.9123312 C82.038901,10.4218599 83.2543147,7.46123665 85.6851787,5.0303727 C88.1160427,2.59950875 91.0766659,1.384095 94.5671372,1.384095 C98.0576085,1.384095 100.987067,2.59950875 103.355601,5.0303727 C105.724136,7.46123665 106.908385,10.4218599 106.908385,13.9123312 L106.908385,116.569073 Z M210.500069,117.691004 C210.500069,120.807496 209.378149,123.48764 207.134274,125.731514 C204.8904,127.975388 202.210257,129.097309 199.093765,129.097309 C195.977272,129.097309 193.452951,127.944224 191.520726,125.63802 C189.588501,123.331815 188.622403,120.682837 188.622403,117.691004 C187.500466,119.810219 186.035736,121.648922 184.228171,123.207168 C182.420605,124.765414 180.394916,126.043157 178.151041,127.040434 C175.907167,128.037712 173.569833,128.754494 171.138969,129.190803 C168.708105,129.627112 166.370771,129.845263 164.126896,129.845263 C160.262446,129.845263 156.58504,129.128481 153.094569,127.694894 C149.604098,126.261308 146.518817,124.329112 143.838633,121.898248 C141.15845,119.467384 139.008103,116.569089 137.387527,113.203278 C135.766951,109.837466 134.956675,106.16006 134.956675,102.17095 C134.956675,97.8078613 135.735786,93.9434688 137.294032,90.5776572 C138.852278,87.2118456 141.002626,84.3447157 143.745139,81.9761816 C146.487652,79.6076475 149.666427,77.8312736 153.281558,76.6470065 C156.896689,75.4627394 160.761081,74.8706148 164.874851,74.8706148 C168.863961,74.8706148 172.884176,75.3692461 176.935615,76.3665236 C180.987055,77.3638011 184.633297,79.2336684 187.874449,81.9761816 C187.874449,78.2363909 187.593969,75.1822743 187.033,72.8137402 C186.472031,70.4452061 185.505933,68.5753388 184.134677,67.2040822 C182.76342,65.8328256 180.831224,64.897892 178.33803,64.3992532 C175.844836,63.9006144 172.666062,63.6512988 168.801611,63.6512988 C166.557737,63.6512988 164.345061,63.86945 162.163516,64.3057589 C159.981972,64.7420678 157.956282,65.2095346 156.086387,65.7081734 C154.216491,66.2068122 152.471282,66.674279 150.850706,67.1105879 C149.23013,67.5468968 147.796565,67.765048 146.549968,67.765048 C143.807455,67.765048 141.53245,66.8301143 139.724884,64.960219 C137.917319,63.0903237 137.013549,60.8464829 137.013549,58.2286294 C137.013549,55.2367968 138.353621,52.8059693 141.033804,50.936074 C143.713988,49.0661787 146.892762,47.6326137 150.570223,46.6353362 C154.247684,45.6380587 157.987418,44.9836051 161.789539,44.6719559 C165.591659,44.3603067 168.614612,44.2044844 170.858486,44.2044844 C176.592832,44.2044844 181.890789,44.7654446 186.752517,45.8873818 C191.614245,47.009319 195.790282,48.8791863 199.280753,51.4970398 C202.771225,54.1148933 205.513697,57.5429833 207.508252,61.7814128 C209.502807,66.0198423 210.500069,71.3177996 210.500069,77.6754438 L210.500069,117.691004 Z M187.874449,102.17095 C187.874449,100.051736 187.344653,98.3376906 186.285045,97.0287639 C185.225438,95.7198372 183.885367,94.6914101 182.264791,93.943452 C180.644215,93.1954939 178.867841,92.6968626 176.935615,92.4475432 C175.00339,92.1982238 173.227016,92.073566 171.60644,92.073566 C169.985864,92.073566 168.334148,92.2293883 166.651242,92.5410375 C164.968337,92.8526867 163.410114,93.3824825 161.976527,94.1304406 C160.542941,94.8783987 159.389856,95.9068258 158.517238,97.2157525 C157.644621,98.5246792 157.208318,100.176395 157.208318,102.17095 C157.208318,104.165505 157.644621,105.817222 158.517238,107.126148 C159.389856,108.435075 160.542941,109.494667 161.976527,110.304955 C163.410114,111.115242 164.968337,111.707367 166.651242,112.081346 C168.334148,112.455325 169.985864,112.642312 171.60644,112.642312 C173.227016,112.642312 174.972226,112.48649 176.842121,112.174841 C178.712017,111.863191 180.457226,111.302231 182.077802,110.491943 C183.698378,109.681655 185.069614,108.590899 186.191551,107.219643 C187.313488,105.848386 187.874449,104.165505 187.874449,102.17095 Z M302.311472,111.52038 C302.311472,114.262894 301.25188,116.818379 299.132666,119.186913 C297.761409,120.682829 296.0162,122.08523 293.896985,123.394157 C291.77777,124.703083 289.409271,125.825004 286.791418,126.759951 C284.173565,127.694899 281.431092,128.442846 278.56392,129.003815 C275.696747,129.564783 272.891946,129.845263 270.149433,129.845263 C264.290427,129.845263 258.743154,128.723343 253.507447,126.479468 C248.27174,124.235594 243.72173,121.181477 239.857279,117.317027 C235.992829,113.452577 232.938712,108.902566 230.694838,103.666859 C228.450964,98.4311522 227.329043,92.8838792 227.329043,87.0248738 C227.329043,81.1658684 228.450964,75.6185954 230.694838,70.3828884 C232.938712,65.1471814 235.992829,60.597171 239.857279,56.7327206 C243.72173,52.8682702 248.27174,49.8141536 253.507447,47.5702792 C258.743154,45.3264048 264.290427,44.2044844 270.149433,44.2044844 C275.26048,44.2044844 280.122135,44.858938 284.734543,46.1678647 C289.346952,47.4767914 293.336002,49.5648099 296.701814,52.4319828 C299.444327,54.8005169 300.815563,57.48066 300.815563,60.4724926 C300.815563,62.3423879 300.192274,64.0875974 298.945677,65.7081734 C296.826462,68.3260269 294.08399,69.634934 290.718179,69.634934 C288.474304,69.634934 286.355121,69.0739738 284.360566,67.9520366 C282.241351,66.7054397 280.05984,65.7393416 277.815965,65.0537133 C275.572091,64.368085 273.016605,64.025276 270.149433,64.025276 C266.908281,64.025276 264.041151,64.6485651 261.547957,65.895162 C259.054763,67.1417589 256.93558,68.793475 255.190345,70.8503599 C253.445109,72.9072448 252.105037,75.3380723 251.17009,78.1429153 C250.235142,80.9477583 249.767675,83.9083816 249.767675,87.0248738 C249.767675,90.141366 250.235142,93.1019893 251.17009,95.9068323 C252.105037,98.7116753 253.445109,101.142503 255.190345,103.199388 C256.93558,105.256273 259.054763,106.907989 261.547957,108.154586 C264.041151,109.401182 266.908281,110.024472 270.149433,110.024472 C274.138543,110.024472 277.41081,109.370018 279.966334,108.061091 C282.521858,106.752165 284.609876,105.536751 286.230452,104.414814 C288.225007,102.918897 290.531177,102.17095 293.14903,102.17095 C295.891544,102.17095 298.197713,103.230542 300.067609,105.349757 C301.563525,107.219652 302.311472,109.276506 302.311472,111.52038 Z M401.041453,118.625947 C401.041453,121.49312 400.013026,123.955112 397.956141,126.011997 C395.899256,128.068882 393.437264,129.097309 390.570091,129.097309 C387.453599,129.097309 384.835785,127.91306 382.71657,125.544525 L354.855268,93.943452 L347.188736,99.9270872 L347.188736,117.877993 C347.188736,120.994485 346.09798,123.643464 343.916435,125.825008 C341.734891,128.006553 339.085912,129.097309 335.96942,129.097309 C332.852928,129.097309 330.203949,128.006553 328.022404,125.825008 C325.84086,123.643464 324.750104,120.994485 324.750104,117.877993 L324.750104,12.7903996 C324.750104,9.67390735 325.84086,6.99376422 328.022404,4.7498898 C330.203949,2.50601538 332.852928,1.384095 335.96942,1.384095 C339.085912,1.384095 341.734891,2.50601538 343.916435,4.7498898 C346.09798,6.99376422 347.188736,9.67390735 347.188736,12.7903996 L347.188736,73.5616946 L381.40765,47.196302 C383.277545,45.7003857 385.396728,44.9524388 387.765262,44.9524388 C390.632435,44.9524388 393.125591,45.9808658 395.244806,48.0377507 C397.364021,50.0946356 398.423612,52.5566275 398.423612,55.4238004 C398.423612,58.9142717 397.052376,61.6567438 394.309863,63.6512988 L371.497254,81.2282272 L398.423612,111.707369 C400.168848,113.701924 401.041453,116.008094 401.041453,118.625947 Z M533.803359,100.86203 C533.803359,102.233287 533.585207,103.448701 533.148899,104.508308 C532.71259,105.567915 532.058136,106.596342 531.185518,107.59362 C525.326513,114.823882 518.065195,120.371155 509.401346,124.235605 C500.737498,128.100056 491.855628,130.032252 482.755471,130.032252 C473.779973,130.032252 465.396735,128.349371 457.605504,124.98356 C449.814273,121.617748 443.051587,117.005409 437.317241,111.146403 C431.582895,105.287398 427.064049,98.4312177 423.760568,90.5776572 C420.457086,82.7240967 418.80537,74.3096939 418.80537,65.3341962 C418.80537,56.3586985 420.457086,47.9754601 423.760568,40.1842295 C427.064049,32.3929989 431.582895,25.5679832 437.317241,19.7089778 C443.051587,13.8499724 449.814273,9.23763303 457.605504,5.8718214 C465.396735,2.50600977 473.779973,0.8231292 482.755471,0.8231292 C486.495261,0.8231292 490.266161,1.1036093 494.068281,1.6645779 C497.870402,2.2255465 501.578972,3.1293157 505.194103,4.3759126 C508.809234,5.6225095 512.237324,7.24306116 515.478476,9.2376162 C518.719628,11.2321712 521.649087,13.6006698 524.26694,16.343183 C526.884793,18.9610365 528.193701,21.9528242 528.193701,25.3186358 C528.193701,28.5597877 527.040616,31.2399309 524.734412,33.3591456 C522.428207,35.4783603 519.7169,36.5379518 516.600407,36.5379518 C514.481193,36.5379518 512.393174,35.8834982 510.336289,34.5745715 C508.279404,33.2656448 506.004399,31.8009154 503.511205,30.1803394 C501.018012,28.5597634 498.088553,27.095034 494.722741,25.7861073 C491.35693,24.4771806 487.367879,23.822727 482.755471,23.822727 C476.896465,23.822727 471.567344,24.9134829 466.767946,27.0950275 C461.968547,29.2765721 457.886004,32.2683598 454.520192,36.0704803 C451.154381,39.8726008 448.536566,44.2979535 446.666671,49.3466709 C444.796776,54.3953883 443.861842,59.7245102 443.861842,65.3341962 C443.861842,70.9438822 444.796776,76.2730041 446.666671,81.3217215 C448.536566,86.3704389 451.154381,90.7957916 454.520192,94.5979121 C457.886004,98.4000326 461.968547,101.422985 466.767946,103.666859 C471.567344,105.910734 476.896465,107.032654 482.755471,107.032654 C488.614476,107.032654 493.476131,106.066556 497.340582,104.134331 C501.205032,102.202106 504.4773,100.082923 507.157483,97.7767183 C509.837666,95.470514 512.268494,93.3513311 514.450039,91.4191059 C516.631583,89.4868807 518.968917,88.5207826 521.462111,88.5207826 C524.703263,88.5207826 527.570393,89.7985253 530.063587,92.3540489 C532.55678,94.9095725 533.803359,97.745538 533.803359,100.86203 Z M695.735486,12.9773882 C695.735486,13.850006 694.987539,16.8729582 693.491623,22.0463353 C691.995707,27.2197124 690.063511,33.4837679 687.694976,40.8386896 C685.326442,48.1936113 682.770957,56.1405473 680.028444,64.6797361 C677.285931,73.2189249 674.636952,81.3528476 672.081428,89.0817484 C669.525905,96.8106492 667.282064,103.6045 665.349839,109.463506 C663.417614,115.322511 662.139871,119.186904 661.516572,121.056799 C660.768614,123.425333 659.366214,125.357529 657.309329,126.853446 C655.252444,128.349362 652.977439,129.097309 650.484245,129.097309 C647.991051,129.097309 645.716046,128.380526 643.659161,126.94694 C641.602276,125.513353 640.262205,123.549993 639.638906,121.056799 L620.005103,52.6189714 L600.3713,121.056799 C599.748002,123.549993 598.376766,125.513353 596.257551,126.94694 C594.138336,128.380526 591.832167,129.097309 589.338973,129.097309 C586.845779,129.097309 584.570774,128.349362 582.513889,126.853446 C580.457004,125.357529 579.054604,123.425333 578.306645,121.056799 C577.683347,119.186904 576.405604,115.322511 574.473379,109.463506 C572.541154,103.6045 570.297313,96.8106492 567.74179,89.0817484 C565.186266,81.3528476 562.537287,73.2189249 559.794774,64.6797361 C557.052261,56.1405473 554.496776,48.1936113 552.128241,40.8386896 C549.759707,33.4837679 547.827511,27.2197124 546.331595,22.0463353 C544.835679,16.8729582 544.087732,13.850006 544.087732,12.9773882 C544.087732,9.73623626 545.209652,6.99376422 547.453526,4.7498898 C549.697401,2.50601538 552.439873,1.384095 555.681025,1.384095 C558.174219,1.384095 560.449224,2.13204192 562.506109,3.6279582 C564.562994,5.12387448 565.965394,7.05607069 566.713352,9.4246048 L589.338973,79.3583412 L609.346753,9.4246048 C609.970051,7.05607069 611.247794,5.12387448 613.180019,3.6279582 C615.112244,2.13204192 617.324921,1.384095 619.818115,1.384095 C622.311308,1.384095 624.555149,2.13204192 626.549704,3.6279582 C628.544259,5.12387448 629.853166,7.05607069 630.476465,9.4246048 L650.671234,79.5453298 L673.109866,9.4246048 C673.857824,7.05607069 675.260224,5.12387448 677.317109,3.6279582 C679.373994,2.13204192 681.648999,1.384095 684.142193,1.384095 C687.383345,1.384095 690.125817,2.50601538 692.369691,4.7498898 C694.613566,6.99376422 695.735486,9.73623626 695.735486,12.9773882 Z M821.391825,40.4647124 C821.391825,47.8196341 819.708945,54.3641697 816.343133,60.0985154 C812.977322,65.8328611 807.866351,70.1335559 801.010068,73.0007288 C801.633366,74.2473257 802.5683,76.0236996 803.814897,78.3299039 C805.061494,80.6361082 806.43273,83.2850868 807.928646,86.2769194 C809.424562,89.268752 810.951621,92.354033 812.509867,95.5328551 C814.068113,98.7116772 815.501678,101.734629 816.810605,104.601802 C818.119531,107.468975 819.210287,110.02446 820.082905,112.268335 C820.955523,114.512209 821.391825,116.132761 821.391825,117.130038 C821.391825,120.37119 820.207576,123.175991 817.839042,125.544525 C815.470508,127.91306 812.603378,129.097309 809.237566,129.097309 C806.993692,129.097309 804.905673,128.505184 802.973448,127.320917 C801.041223,126.13665 799.576494,124.484934 798.579216,122.365719 C798.205237,121.742421 797.426126,120.215362 796.241859,117.784499 C795.057592,115.353635 793.655191,112.486505 792.034615,109.183023 C790.414039,105.879541 788.66883,102.389122 786.798934,98.7116613 C784.929039,95.0342004 783.246158,91.6372748 781.750242,88.5207826 C780.254326,85.4042904 778.976583,82.7864761 777.916976,80.6672614 C776.857369,78.5480467 776.327573,77.4261263 776.327573,77.3014666 L742.108659,77.3014666 L742.108659,116.756061 C742.108659,120.246533 740.862081,123.175991 738.368887,125.544525 C735.875693,127.91306 732.946234,129.097309 729.580423,129.097309 C726.089951,129.097309 723.160493,127.91306 720.791959,125.544525 C718.423424,123.175991 717.239175,120.246533 717.239175,116.756061 L717.239175,15.40824 C717.239175,11.9177687 718.423424,8.98830991 720.791959,6.6197758 C723.160493,4.25124169 726.089951,3.0669924 729.580423,3.0669924 L775.953596,3.0669924 C782.06192,3.0669924 787.889673,3.72144596 793.43703,5.0303727 C798.984386,6.33929944 803.814876,8.48964684 807.928646,11.4814794 C812.042416,14.473312 815.314684,18.3377044 817.745548,23.0747726 C820.176412,27.8118408 821.391825,33.6084295 821.391825,40.4647124 Z M796.522342,41.2126668 C796.522342,36.2262792 794.870625,32.4553801 791.567144,29.8998565 C788.263662,27.3443329 784.243447,26.0665902 779.506379,26.0665902 L742.108659,26.0665902 L742.108659,55.9847662 L779.506379,55.9847662 C784.118788,55.9847662 788.107838,54.7693525 791.473649,52.3384885 C794.839461,49.9076245 796.522342,46.1990544 796.522342,41.2126668 Z M959.576401,76.7405008 C959.576401,84.8433806 958.267494,92.1670276 955.64964,98.7116613 C953.031787,105.256295 949.354381,110.865897 944.617313,115.540635 C939.880245,120.215374 934.177149,123.799286 927.507856,126.29248 C920.838562,128.785674 913.452587,130.032252 905.349707,130.032252 C897.246827,130.032252 889.892016,128.785674 883.285052,126.29248 C876.678088,123.799286 871.006158,120.215374 866.269089,115.540635 C861.532021,110.865897 857.854615,105.256295 855.236762,98.7116613 C852.618909,92.1670276 851.310001,84.8433806 851.310001,76.7405008 L851.310001,13.9123312 C851.310001,10.4218599 852.494251,7.46123665 854.862785,5.0303727 C857.231319,2.59950875 860.160778,1.384095 863.651249,1.384095 C867.14172,1.384095 870.102344,2.59950875 872.533208,5.0303727 C874.964071,7.46123665 876.179485,10.4218599 876.179485,13.9123312 L876.179485,79.919307 C876.179485,88.1468465 878.703806,94.7848755 883.752524,99.8335929 C888.801241,104.88231 896.00023,107.406631 905.349707,107.406631 C914.699184,107.406631 921.898173,104.88231 926.94689,99.8335929 C931.995608,94.7848755 934.519928,88.1468465 934.519928,79.919307 L934.519928,13.9123312 C934.519928,10.4218599 935.735342,7.46123665 938.166206,5.0303727 C940.59707,2.59950875 943.557693,1.384095 947.048165,1.384095 C950.538636,1.384095 953.499259,2.59950875 955.930123,5.0303727 C958.360987,7.46123665 959.576401,10.4218599 959.576401,13.9123312 L959.576401,76.7405008 Z" id="path-2"></path>
    </defs>
    <g id="Page-1" stroke="none" stroke-width="1" fill="none" fill-rule="evenodd">
        <g id="Logo-(1)">
            <g id="HackCWRU">
                <use fill="#000000" xlink:href="#path-1"></use>
                <use fill="#AE00BF" xlink:href="#path-1"></use>
            </g>
            <g id="HackCWRU">
                <use fill="#000000" xlink:href="#path-2"></use>
                <use fill="#228FFF" xlink:href="#path-2"></use>
            </g>
            <path d="M61.5,65.6 L12.9,65.6 C10.1,65.6 7.9,63.4 7.9,60.6 L7.9,17.6 C7.9,14.8 10.1,12.6 12.9,12.6 C15.7,12.6 17.9,14.8 17.9,17.6 L17.9,55.6 L61.5,55.6 C64.3,55.6 66.5,57.8 66.5,60.6 C66.5,63.4 64.2,65.6 61.5,65.6 Z" id="Path" fill="#22ECFF"></path>
            <path d="M93.3,93.6 C90.5,93.6 88.3,91.4 88.3,88.6 L88.3,17.6 C88.3,14.8 90.5,12.6 93.3,12.6 C96.1,12.6 98.3,14.8 98.3,17.6 L98.3,88.7 C98.3,91.4 96,93.6 93.3,93.6 Z" id="Path" fill="#22ECFF"></path>
            <path d="M947.8,74.9 C945,74.9 942.8,72.7 942.8,69.9 L942.8,15.7 C942.8,12.9 945,10.7 947.8,10.7 C950.6,10.7 952.8,12.9 952.8,15.7 L952.8,69.9 C952.8,72.7 950.6,74.9 947.8,74.9 Z" id="Path" fill="#22ECFF"></path>
            <path d="M809.4,119.8 C807.6,119.8 805.9,118.8 805,117.1 L782.6,74.1 C781.3,71.7 782.3,68.6 784.7,67.4 C787.1,66.1 790.2,67.1 791.4,69.5 L813.8,112.5 C815.1,114.9 814.1,118 811.7,119.2 C811,119.6 810.2,119.8 809.4,119.8 Z" id="Path" fill="#22ECFF"></path>
            <path d="M672.3,54 C671.8,54 671.3,53.9 670.8,53.8 C668.2,53 666.7,50.2 667.5,47.5 L678.8,12 C679.6,9.4 682.4,7.9 685.1,8.7 C687.7,9.5 689.2,12.3 688.4,15 L677.2,50.5 C676.4,52.7 674.5,54 672.3,54 Z" id="Path" fill="#22ECFF"></path>
            <path d="M809.4,45 C806.6,45 804.4,42.8 804.4,40 C804.4,26.9 795.4,22.2 787.8,20.6 C774.8,17.8 733.3,18.8 732.9,18.8 C730.2,18.9 727.8,16.7 727.8,13.9 C727.7,11.1 729.9,8.8 732.7,8.8 C734.5,8.8 775.9,7.7 790,10.8 C797.4,12.4 814.5,18.4 814.5,40 C814.4,42.8 812.2,45 809.4,45 Z" id="Path" fill="#22ECFF"></path>
            <path d="M145.6,112.3 C143.3,112.3 141.3,110.8 140.7,108.5 C140.6,107.9 139.3,102.5 140.7,96.8 C142.1,90.8 146.7,86 147.6,85.1 C150.6,82.1 157,78.6 163.8,78 C170.8,77.5 178.7,80 183.2,82.3 C185.7,83.5 186.7,86.5 185.4,89 C184.2,91.5 181.2,92.5 178.7,91.2 C175.1,89.4 169.1,87.6 164.5,88 C159.8,88.4 155.7,91 154.6,92.2 C153.2,93.6 150.9,96.6 150.3,99.2 C149.5,102.6 150.3,106.2 150.3,106.2 C150.9,108.9 149.3,111.6 146.6,112.2 C146.4,112.3 146,112.3 145.6,112.3 Z" id="Path" fill="#22ECFF"></path>
            <path d="M199.8,88 C197,88 194.8,85.8 194.8,83 C194.8,76.7 194.2,69.9 193.5,68.4 C192.7,66.8 190.8,64.1 188.9,62.3 C187.5,61 186.1,60.2 184.5,59.4 C183.7,59 181.2,58.3 178.8,58 C175.4,57.7 172.4,58 172.3,58 C169.6,58.3 167.1,56.3 166.8,53.6 C166.5,50.9 168.5,48.4 171.2,48.1 C171.4,48.1 175.3,47.7 179.7,48.1 C183,48.4 186.8,49.4 188.9,50.5 C191,51.5 193.4,52.8 195.7,55.1 C198.6,57.9 201.1,61.6 202.3,64 C204.5,68.3 204.7,78.8 204.7,83.1 C204.8,85.8 202.6,88 199.8,88 C199.8,88 199.8,88 199.8,88 Z" id="Path" fill="#22ECFF"></path>
            <path d="M517.3,29.4 C515.9,29.4 514.5,28.8 513.5,27.7 C513.4,27.6 511,24.9 507.5,22.6 C506,21.6 503.7,20.7 501.9,19.9 C500.5,19.3 499.4,18.9 498.6,18.4 C497.6,17.9 492.6,16.5 488.1,16.4 C483.9,16.3 480.3,17.5 480.3,17.5 C477.7,18.3 474.9,16.9 474,14.3 C473.2,11.7 474.6,8.9 477.2,8 C477.4,7.9 482.4,6.4 488.2,6.5 C493.6,6.6 500.6,8.1 503.6,9.8 C503.9,10 505,10.4 505.7,10.7 C507.9,11.6 510.6,12.7 512.9,14.2 C517.8,17.3 521,21.1 521.1,21.2 C522.9,23.3 522.6,26.5 520.5,28.2 C519.7,29 518.5,29.4 517.3,29.4 Z" id="Path" fill="#22ECFF"></path>
            <path d="M481.6,123.2 C474.2,123.2 465.9,121.8 457.4,117.4 C441.6,109.1 434.5,94.8 432.7,90.6 L432,89.1 C429.1,82.4 426.6,76.4 426.6,71.8 C426.6,69 428.8,66.8 431.6,66.8 C434.4,66.8 436.6,69 436.6,71.8 C436.6,74.8 439.4,81.2 441.1,85.1 L441.8,86.6 C442.9,89 448.8,101.6 462,108.5 C473.9,114.7 485.5,113.5 494.2,111.8 C496.9,111.3 499.5,113 500.1,115.7 C500.6,118.4 498.9,121 496.2,121.6 C492.2,122.4 487.2,123.2 481.6,123.2 Z" id="Path" fill="#22ECFF"></path>
            <path d="M289.2,65 C287.9,65 286.6,64.5 285.6,63.5 C285.6,63.5 284.2,62.1 282.3,61 C281.5,60.5 280.2,60.1 279.2,59.7 C278.3,59.4 277.6,59.1 277,58.8 C276.3,58.5 273.7,58 271.5,58.1 C269.3,58.2 267.4,58.9 267.4,58.9 C264.8,59.9 261.9,58.5 261,56 C260,53.4 261.3,50.6 263.9,49.6 C264.2,49.5 267.3,48.3 271.1,48.2 C274.7,48.1 279.3,48.8 281.4,49.9 C281.6,50 282,50.1 282.5,50.3 C283.8,50.8 285.7,51.4 287.2,52.3 C290.4,54.1 292.6,56.4 292.8,56.6 C294.7,58.6 294.6,61.8 292.6,63.7 C291.7,64.6 290.4,65 289.2,65 Z" id="Shape" fill="#22ECFF" fill-rule="nonzero"></path>
            <path d="M269,122.6 C264.8,122.6 260.2,121.9 255.4,119.7 C245.9,115.4 240.4,107.3 238.6,103.3 C236.3,98 236.1,93 236,90.1 C236,89.7 236,89.3 236,89 C235.8,86.2 238,83.9 240.7,83.7 C243.4,83.6 245.8,85.7 246,88.4 C246,88.8 246,89.2 246.1,89.7 C246.2,92.2 246.3,95.7 247.9,99.3 C248.7,101.2 252.7,107.4 259.7,110.6 C266.4,113.7 272.7,112.7 277.8,111.4 C280.5,110.7 283.2,112.3 283.9,115 C284.6,117.7 283,120.4 280.3,121.1 C277.2,121.8 273.3,122.6 269,122.6 Z" id="Path" fill="#22ECFF"></path>
            <path d="M336.3,69.3 C333.5,69.3 331.3,67.1 331.3,64.3 L331.3,13.8 C331.3,11 333.5,8.8 336.3,8.8 C339.1,8.8 341.3,11 341.3,13.8 L341.3,64.3 C341.3,67.1 339.1,69.3 336.3,69.3 Z" id="Path" fill="#22ECFF"></path>
            <path d="M356.9,84.3 C355.4,84.3 353.9,83.6 352.9,82.3 C351.2,80.1 351.7,77 353.9,75.3 L383.8,52.9 C386,51.2 389.1,51.7 390.8,53.9 C392.5,56.1 392,59.2 389.8,60.9 L359.9,83.3 C359,84 358,84.3 356.9,84.3 Z" id="Path" fill="#22ECFF"></path>
            <path d="M577.7,82.9 C575.6,82.9 573.7,81.6 573,79.5 L550.6,14.1 C549.7,11.5 551.1,8.6 553.7,7.7 C556.3,6.8 559.2,8.2 560.1,10.8 L582.5,76.2 C583.4,78.8 582,81.7 579.4,82.6 C578.8,82.8 578.3,82.9 577.7,82.9 Z" id="Path" fill="#22ECFF"></path>
            <path d="M641.1,84.3 C639,84.3 637,82.9 636.3,80.8 L615.7,15.4 C614.9,12.8 616.3,10 619,9.1 C621.6,8.3 624.4,9.7 625.3,12.4 L645.9,77.8 C646.7,80.4 645.3,83.2 642.6,84.1 C642.1,84.2 641.6,84.3 641.1,84.3 Z" id="Path" fill="#22ECFF"></path>
            <path d="M899.2,121.7 C898.7,121.7 886,121.6 873.6,111.2 C861,100.7 858.8,80.7 858.7,79.8 C858.7,79.6 858.7,79.5 858.7,79.3 L858.7,15.7 C858.7,12.9 860.9,10.7 863.7,10.7 C866.5,10.7 868.7,12.9 868.7,15.7 L868.7,79 C868.9,81 871.1,96.1 880,103.5 C889.6,111.5 899.1,111.7 899.2,111.7 C902,111.7 904.2,113.9 904.2,116.7 C904.2,119.5 901.9,121.7 899.2,121.7 Z" id="Path" fill="#22ECFF"></path>
        </g>
    </g>
</svg>