<?xml version="1.0" encoding="UTF-8"?>
<svg width="460px" height="924px" viewBox="0 0 460 924" version="1.1" xmlns="http://www.w3.org/2000/svg" xmlns:xlink="http://www.w3.org/1999/xlink">
    <!-- Generator: Sketch 49.2 (51160) - http://www.bohemiancoding.com/sketch -->
    <title>g2743</title>
    <desc>Created with Sketch.</desc>
    <defs></defs>
    <g id="Page-1" stroke="none" stroke-width="1" fill="none" fill-rule="evenodd">
        <g id="g2743" transform="translate(-35.000000, 0.000000)" fill-rule="nonzero">
            <g id="g2185" transform="translate(304.329375, 575.089017) rotate(24.657284) translate(-304.329375, -575.089017) translate(142.199518, 199.621499)">
                <path d="M66.3913574,206.074206 C66.2360631,245.91022 74.4232521,285.368773 90.4651845,322.099179 C117.159292,382.551811 213.127066,382.551811 239.984941,322.099179 C256.042796,285.373463 264.230639,245.911762 264.058768,206.074206 C264.058768,124.368696 230.813959,51.7940517 179.390954,5.19514805 C171.382979,-1.72886186 159.230914,-1.72886186 151.222939,5.19514805 C99.4723988,51.7940517 66.3913574,124.526124 66.3913574,206.074206 Z" id="path2161" fill="#7900C6"></path>
                <path d="M45.2653458,667.025524 C41.9899951,614.916614 45.9204159,592.876592 53.1261873,555.565984 C61.3145639,512.902798 84.4057859,479.21305 103.566587,441.430155 C104.260926,440.115013 105.87634,439.516321 107.30937,440.043036 C108.742399,440.569751 109.530219,442.051761 109.134683,443.476729 C103.894122,462.368176 91.9390923,491.020205 89.8101144,499.04907 C82.8967006,523.460585 78.8860544,548.547155 77.8550846,573.827716 C76.0536417,624.204909 82.4405755,678.675249 98.4897936,726.84844 C99.7283268,730.950608 101.430752,734.909957 103.566587,738.655595 C116.176687,756.759899 143.362097,753.768753 141.396887,727.950442 L141.396887,727.320727 C132.880975,639.790353 135.665023,564.539421 162.686666,482.833911 C163.104061,481.555826 164.370478,480.712999 165.761858,480.787306 C167.153238,480.861613 168.314743,481.834103 168.582297,483.148768 C183.790765,557.769205 189.019067,633.95179 184.140213,709.846138 C184.223712,709.326284 184.449829,708.837215 184.795283,708.429279 C179.554722,724.644438 198.387988,739.600167 213.945903,731.571302 C223.771955,726.533583 224.427025,716.300716 226.883538,707.327278 C235.235683,677.730677 238.019731,645.615216 239.984941,615.074043 C243.751594,559.659131 232.615402,510.383938 224.754561,457.330457 C224.489174,455.877865 225.407827,454.467179 226.883004,454.062013 C228.358181,453.656848 229.913446,454.388059 230.486424,455.75617 C263.076163,522.978237 274.048588,543.916258 281.418127,650.495507 C281.664999,654.375123 281.664999,658.265617 281.418127,662.145233 C279.125381,704.493561 320.558567,701.344986 322.523777,666.553237 C322.851312,660.256088 322.523777,648.606362 322.523777,643.411214 C320.394799,570.364284 311.878887,499.521356 275.85003,434.66072 C235.726985,362.243505 266.187746,289.668861 247.518247,212.213926 C241.201619,185.793984 231.058243,160.357204 217.385022,136.648137 C208.377807,121.062692 189.217006,84.3817986 169.237367,80.4460804 C128.950554,72.7320727 92.2666274,174.116174 84.7333209,200.5642 C76.8130808,228.632368 72.8472625,257.595386 72.9420586,286.677715 C72.9420586,312.968313 80.4753651,338.629195 76.2174093,364.290078 C67.8652652,416.713845 29.0523601,456.543313 13.9857472,506.920506 C1.0481122,550.213407 -1.89970337,597.284597 1.0481122,641.836927 C1.70318233,652.227223 0.556809608,667.340381 5.30606803,677.41582 C15.7871901,699.770699 46.9030211,687.33383 45.4291133,668.442382 C45.3022049,667.980432 45.2470194,667.502987 45.2653458,667.025524 Z" id="path2163" fill="#F73081"></path>
                <path d="M249.647225,249.839392 L248.337085,249.839392 C232.124099,261.016832 220.987907,280.852852 220.332837,303.837446 C219.677767,326.822041 229.340051,347.287776 244.570432,359.567216 C245.013505,359.541665 245.457675,359.595037 245.880572,359.724645 C265.041373,360.35436 282.564499,329.970615 282.564499,305.88402 C282.728267,282.584568 268.971794,250.311679 249.647225,249.839392 Z" id="path2165" stroke="#FF8900" stroke-width="9.63776407" fill="#FFEBF4" stroke-linecap="round"></path>
                <ellipse id="ellipse2167" fill="#000000" transform="translate(249.548458, 307.422777) rotate(-88.120000) translate(-249.548458, -307.422777) " cx="249.548458" cy="307.422777" rx="31.607132" ry="18.57659"></ellipse>
                <path d="M80.6391326,252.515681 L81.9492729,252.515681 C98.1622585,263.693121 109.298451,283.52914 109.953521,306.513735 C110.608591,329.498329 100.946307,349.964064 85.7159261,362.243505 C85.2728532,362.217953 84.8286829,362.271325 84.4057859,362.400933 C65.2449846,363.030648 47.7218587,332.646904 47.7218587,308.560308 C47.5580912,285.418285 61.3145639,253.145396 80.6391326,252.515681 Z" id="path2169" stroke="#FF8900" stroke-width="9.63776407" fill="#FFEBF4" stroke-linecap="round"></path>
                <ellipse id="ellipse2171" fill="#000000" transform="translate(80.063146, 311.196768) rotate(-1.718358) translate(-80.063146, -311.196768) " cx="80.0631458" cy="311.196768" rx="19.3332628" ry="30.3974127"></ellipse>
            </g>
            <g id="g2730" transform="translate(259.000000, 0.000000)" fill="#FFFFFF" fill-opacity="0.33177568">
                <path d="M38.8543,235.1001 C38.8543107,245.599156 30.3554406,254.11682 19.85641,254.14 C9.35739291,254.163176 0.821003935,245.68314 0.77464,235.1842 C0.728270474,224.685248 9.18944557,216.130141 19.68827,216.0606 C30.1871006,215.991063 38.7608606,224.433348 38.85356,234.932" id="path2187-4"></path>
                <path d="M95.06742,100.9136 C95.0674307,111.412656 86.5685606,119.93032 76.06953,119.9535 C65.570474,119.976675 57.034069,111.496579 56.98776,100.9976 C56.9414458,90.4986866 65.4026048,81.9436407 75.90139,81.8741 C86.4001819,81.8045624 94.9739258,90.2467875 95.06668,100.7454" id="path2187-814"></path>
                <path d="M62.42755,19.3145 C62.4275056,29.8135171 53.9286515,38.3311199 43.42966,38.3543 C32.930639,38.3774811 24.3942439,29.8974442 24.34788,19.3985 C24.3015105,8.89954767 32.7626856,0.344440681 43.26151,0.2749 C53.7603406,0.205362667 62.3341006,8.64764834 62.4268,19.1463" id="path2187-2"></path>
            </g>
        </g>
    </g>
</svg>