<?xml version="1.0" encoding="UTF-8" standalone="no"?>
<!-- Created with Inkscape (http://www.inkscape.org/) -->

<svg
   xmlns:dc="http://purl.org/dc/elements/1.1/"
   xmlns:cc="http://creativecommons.org/ns#"
   xmlns:rdf="http://www.w3.org/1999/02/22-rdf-syntax-ns#"
   xmlns:svg="http://www.w3.org/2000/svg"
   xmlns="http://www.w3.org/2000/svg"
   xmlns:sodipodi="http://sodipodi.sourceforge.net/DTD/sodipodi-0.dtd"
   xmlns:inkscape="http://www.inkscape.org/namespaces/inkscape"
   width="517mm"
   height="140mm"
   viewBox="0 0 517 140"
   version="1.1"
   id="svg6642"
   inkscape:version="0.92.2 (5c3e80d, 2017-08-06)"
   sodipodi:docname="top front waves.svg">
  <defs
     id="defs6636" />
  <sodipodi:namedview
     id="base"
     pagecolor="#ffffff"
     bordercolor="#666666"
     borderopacity="1.0"
     inkscape:pageopacity="0.0"
     inkscape:pageshadow="2"
     inkscape:zoom="0.35"
     inkscape:cx="627.00782"
     inkscape:cy="383.28045"
     inkscape:document-units="mm"
     inkscape:current-layer="layer1"
     showgrid="false"
     inkscape:window-width="1920"
     inkscape:window-height="1057"
     inkscape:window-x="1592"
     inkscape:window-y="-8"
     inkscape:window-maximized="1" />
  <metadata
     id="metadata6639">
    <rdf:RDF>
      <cc:Work
         rdf:about="">
        <dc:format>image/svg+xml</dc:format>
        <dc:type
           rdf:resource="http://purl.org/dc/dcmitype/StillImage" />
        <dc:title></dc:title>
      </cc:Work>
    </rdf:RDF>
  </metadata>
  <g
     inkscape:label="Layer 1"
     inkscape:groupmode="layer"
     id="layer1"
     transform="translate(0,-157)">
    <path
       style="display:inline;fill:#84cdfe;stroke:none;stroke-width:0.33926225;stroke-linecap:round;stroke-miterlimit:10"
       inkscape:connector-curvature="0"
       id="path5944"
       d="m 511.97069,171.16271 c -5.55625,-3.56717 -31.115,4.8287 -36.67125,3.82817 -20.10833,-3.48017 -140.09687,-13.83363 -182.4302,-14.70366 -30.05667,-0.60902 -202.908961,11.35401 -285.7500005,21.75097 -1.00542,0.1305 -1.95792,0.26102 -2.91042,0.39151 v 12.65907 H 511.99715 v -23.92606 z"
       class="st22" />
    <path
       inkscape:connector-curvature="0"
       style="display:inline;fill:#5bbdfe;stroke-width:0.2889761"
       d="m 36.935919,167.51371 c -5.83262,-0.006 -11.56981,0.0992 -17.18396,0.33485 -5.77245,0.24368 -10.9412495,0.62479 -15.5695995,1.11879 v 26.14777 H 512.18236 v -16.45534 c -25.2213,-7.16756 -47.56248,-7.91458 -87.63135,-7.43675 -84.44383,1.01542 -132.42588,11.94605 -186.67128,11.94605 -50.00746,0 -132.11886,-15.58359 -200.943811,-15.65537 z"
       id="path5946" />
    <path
       inkscape:connector-curvature="0"
       style="display:inline;fill:#98d5fe;stroke-width:0.26450753"
       d="m 502.23606,168.66454 c -65.24775,-0.0361 -145.562,25.51649 -194.7302,26.42423 H 301.7493 C 252.82851,194.33976 234.47292,176.12521 156.25708,175.19231 76.960419,174.22023 5.3075695,194.79889 4.3022995,195.08877 h -0.0935 v 0.0265 97.24213 H 511.73289 v -97.24223 h 0.18489 v -26.24646 c -3.18559,-0.13641 -6.4148,-0.20232 -9.68172,-0.20412 z"
       id="path5948" />
  </g>
</svg>
