<?xml version="1.0" encoding="UTF-8"?>
<svg width="523px" height="662px" viewBox="0 0 523 662" version="1.1" xmlns="http://www.w3.org/2000/svg" xmlns:xlink="http://www.w3.org/1999/xlink">
    <!-- Generator: Sketch 49.2 (51160) - http://www.bohemiancoding.com/sketch -->
    <title>g2407</title>
    <desc>Created with Sketch.</desc>
    <defs></defs>
    <g id="Page-1" stroke="none" stroke-width="1" fill="none" fill-rule="evenodd">
        <g id="g2407" transform="translate(0.100000, -0.131647)">
            <g id="g6438" transform="translate(214.267848, 217.341845)">
                <path d="M138.36548,0.543 C164.69849,114.818 53.00783,119.127 0.23665,204.194" id="path6294" stroke="#358E69" stroke-width="22.9228344" stroke-linecap="round"></path>
                <path d="M22.12535,190.615 C22.12535,190.615 49.30608,215.806 74.27371,182.855 C74.27371,182.855 47.37782,157.627 22.12535,190.615 Z" id="path5467-2-6-0-9-9-8-2-0-7-9-2-7-55-3-1-1-4-8-2-2-7-9-4" fill="#1EC75A" fill-rule="nonzero"></path>
                <path d="M54.77485,160.617 C54.77485,160.617 81.95558,185.808 106.92321,152.857 C106.92321,152.857 80.02732,127.629 54.77485,160.617 Z" id="path5467-2-6-0-9-9-8-2-0-7-9-2-7-55-3-1-1-4-8-2-2-7-9-4-8" fill="#1EC75A" fill-rule="nonzero"></path>
                <path d="M94.44222,132.006 C94.44222,132.006 123.89268,154.501 145.6178,119.328 C145.6178,119.328 116.44737,96.768 94.44222,132.006 Z" id="path5467-2-6-0-9-9-8-2-0-7-9-2-7-55-3-1-1-4-8-2-2-7-9-4-8-5" fill="#1EC75A" fill-rule="nonzero"></path>
                <path d="M131.76298,95.219 C131.76298,95.219 165.88335,109.681 178.17648,70.21 C178.17648,70.21 144.31125,55.615 131.76298,95.219 Z" id="path5467-2-6-0-9-9-8-2-0-7-9-2-7-55-3-1-1-4-8-2-2-7-9-4-8-7" fill="#1EC75A" fill-rule="nonzero"></path>
                <path d="M152.1066,53.053 C152.1066,53.053 189.15971,52.405 184.35633,11.344 C184.35633,11.344 147.48236,11.767 152.1066,53.053 Z" id="path5467-2-6-0-9-9-8-2-0-7-9-2-7-55-3-1-1-4-8-2-2-7-9-4-8-7-7" fill="#1EC75A" fill-rule="nonzero"></path>
                <path d="M126.1699,64.38 C126.1699,64.38 143.88692,31.83 105.80161,15.75 C105.80161,15.75 87.97709,48.033 126.1699,64.38 Z" id="path5467-2-6-0-9-9-8-2-0-7-9-2-7-55-3-1-1-4-8-2-2-7-9-4-8-7-7-5" fill="#1EC75A" fill-rule="nonzero"></path>
                <path d="M98.64755,100.271 C98.64755,100.271 127.17225,76.612 97.76565,47.555 C97.76565,47.555 69.24023,70.926 98.64755,100.271 Z" id="path5467-2-6-0-9-9-8-2-0-7-9-2-7-55-3-1-1-4-8-2-2-7-9-4-8-7-7-5-9" fill="#1EC75A" fill-rule="nonzero"></path>
                <path d="M61.45761,128.432 C61.45761,128.432 96.06559,115.177 77.53766,78.22 C77.53766,78.22 43.0216,91.202 61.45761,128.432 Z" id="path5467-2-6-0-9-9-8-2-0-7-9-2-7-55-3-1-1-4-8-2-2-7-9-4-8-7-7-5-9-9" fill="#1EC75A" fill-rule="nonzero"></path>
                <path d="M23.20775,160.019 C23.20775,160.019 57.81573,146.764 39.2878,109.807 C39.2878,109.807 4.77174,122.789 23.20775,160.019 Z" id="path5467-2-6-0-9-9-8-2-0-7-9-2-7-55-3-1-1-4-8-2-2-7-9-4-8-7-7-5-9-9-4" fill="#1EC75A" fill-rule="nonzero"></path>
            </g>
            <g id="g6704" transform="translate(121.438770, 0.597577)">
                <path d="M0.591425,406.802 C97.12804,376.719 44.39632,165.931 76.21324,134.114 C106.87671,103.45 147.38077,53.0089 164.47123,13.1309" id="path6292" stroke="#358E69" stroke-width="22.9228344" stroke-linecap="round"></path>
                <path d="M40.89291,391.858 C40.89291,391.858 75.25056,405.749 86.88444,366.077 C86.88444,366.077 52.77976,352.051 40.89291,391.858 Z" id="path5467-2-6-0-9-9-8-2-0-7-9-2-7-55-3-1-1-4-8-2-2-7-9-4-8-7-7-5-9-9-4-0" fill="#1EC75A" fill-rule="nonzero"></path>
                <path d="M60.28154,356.059 C60.28154,356.059 97.2999,357.804 95.15791,316.517 C95.15791,316.517 58.33361,314.56 60.28154,356.059 Z" id="path5467-2-6-0-9-9-8-2-0-7-9-2-7-55-3-1-1-4-8-2-2-7-9-4-8-7-7-5-9-9-4-0-7" fill="#1EC75A" fill-rule="nonzero"></path>
                <path d="M71.84568,304.814 C71.84568,304.814 108.87626,303.351 103.17195,262.404 C103.17195,262.404 66.31636,263.639 71.84568,304.814 Z" id="path5467-2-6-0-9-9-8-2-0-7-9-2-7-55-3-1-1-4-8-2-2-7-9-4-8-7-7-5-9-9-4-0-7-6" fill="#1EC75A" fill-rule="nonzero"></path>
                <path d="M74.6378,259.233 C74.6378,259.233 111.35878,254.235 101.76505,214.021 C101.76505,214.021 65.19645,218.775 74.6378,259.233 Z" id="path5467-2-6-0-9-9-8-2-0-7-9-2-7-55-3-1-1-4-8-2-2-7-9-4-8-7-7-5-9-9-4-0-7-6-5" fill="#1EC75A" fill-rule="nonzero"></path>
                <path d="M75.3405,208.388 C75.3405,208.388 112.06148,203.39 102.46775,163.176 C102.46775,163.176 65.89915,167.93 75.3405,208.388 Z" id="path5467-2-6-0-9-9-8-2-0-7-9-2-7-55-3-1-1-4-8-2-2-7-9-4-8-7-7-5-9-9-4-0-7-6-5-8" fill="#1EC75A" fill-rule="nonzero"></path>
                <path d="M78.72186,156.91 C78.72186,156.91 114.98551,164.549 119.47075,123.45 C119.47075,123.45 83.43246,115.634 78.72186,156.91 Z" id="path5467-2-6-0-9-9-8-2-0-7-9-2-7-55-3-1-1-4-8-2-2-7-9-4-8-7-7-5-9-9-4-0-7-6-5-8-3" fill="#1EC75A" fill-rule="nonzero"></path>
                <path d="M110.22804,113.834 C110.22804,113.834 141.36241,133.936 160.24733,97.158 C160.24733,97.158 129.38666,76.972 110.22804,113.834 Z" id="path5467-2-6-0-9-9-8-2-0-7-9-2-7-55-3-1-1-4-8-2-2-7-9-4-8-7-7-5-9-9-4-0-7-6-5-8-3-5" fill="#1EC75A" fill-rule="nonzero"></path>
                <path d="M136.7653,79.786 C136.7653,79.786 169.20724,97.702 185.52062,59.7127 C185.52062,59.7127 153.34596,41.6948 136.7653,79.786 Z" id="path5467-2-6-0-9-9-8-2-0-7-9-2-7-55-3-1-1-4-8-2-2-7-9-4-8-7-7-5-9-9-4-0-7-6-5-8-3-5-7" fill="#1EC75A" fill-rule="nonzero"></path>
                <path d="M160.07201,46.269 C160.07201,46.269 195.27104,57.8661 204.26567,17.5125 C204.26567,17.5125 169.31043,5.7659 160.07201,46.269 Z" id="path5467-2-6-0-9-9-8-2-0-7-9-2-7-55-3-1-1-4-8-2-2-7-9-4-8-7-7-5-9-9-4-0-7-6-5-8-3-5-7-6" fill="#1EC75A" fill-rule="nonzero"></path>
                <path d="M130.04971,52.7033 C130.04971,52.7033 158.19629,28.5945 128.33019,0.0055 C128.33019,0.0055 100.18192,23.8283 130.04971,52.7033 Z" id="path5467-2-6-0-9-9-8-2-0-7-9-2-7-55-3-1-1-4-8-2-2-7-9-4-8-7-7-5-9-9-4-0-7-6-5-8-3-5-7-6-1" fill="#1EC75A" fill-rule="nonzero"></path>
                <path d="M102.7781,87.67 C102.7781,87.67 132.14957,65.0689 103.82289,34.9539 C103.82289,34.9539 74.46473,57.2686 102.7781,87.67 Z" id="path5467-2-6-0-9-9-8-2-0-7-9-2-7-55-3-1-1-4-8-2-2-7-9-4-8-7-7-5-9-9-4-0-7-6-5-8-3-5-7-6-1-1" fill="#1EC75A" fill-rule="nonzero"></path>
                <path d="M75.31223,119.083 C75.31223,119.083 106.48419,99.038 80.79667,66.6429 C80.79667,66.6429 49.66208,86.404 75.31223,119.083 Z" id="path5467-2-6-0-9-9-8-2-0-7-9-2-7-55-3-1-1-4-8-2-2-7-9-4-8-7-7-5-9-9-4-0-7-6-5-8-3-5-7-6-1-1-7" fill="#1EC75A" fill-rule="nonzero"></path>
                <path d="M53.97095,180.7 C53.97095,180.7 70.60525,147.583 32.00766,132.767 C32.00766,132.767 15.26102,165.621 53.97095,180.7 Z" id="path5467-2-6-0-9-9-8-2-0-7-9-2-7-55-3-1-1-4-8-2-2-7-9-4-8-7-7-5-9-9-4-0-7-6-5-8-3-5-7-6-1-1-7-4" fill="#1EC75A" fill-rule="nonzero"></path>
                <path d="M52.24338,236.044 C52.24338,236.044 68.87768,202.927 30.28009,188.111 C30.28009,188.111 13.53345,220.965 52.24338,236.044 Z" id="path5467-2-6-0-9-9-8-2-0-7-9-2-7-55-3-1-1-4-8-2-2-7-9-4-8-7-7-5-9-9-4-0-7-6-5-8-3-5-7-6-1-1-7-4-1" fill="#1EC75A" fill-rule="nonzero"></path>
                <path d="M49.78914,285.48 C49.78914,285.48 66.42344,252.363 27.82585,237.547 C27.82585,237.547 11.07921,270.401 49.78914,285.48 Z" id="path5467-2-6-0-9-9-8-2-0-7-9-2-7-55-3-1-1-4-8-2-2-7-9-4-8-7-7-5-9-9-4-0-7-6-5-8-3-5-7-6-1-1-7-4-1-6" fill="#1EC75A" fill-rule="nonzero"></path>
                <path d="M44.2349,330.254 C44.2349,330.254 64.02799,298.922 27.06425,280.403 C27.06425,280.403 7.18508,311.462 44.2349,330.254 Z" id="path5467-2-6-0-9-9-8-2-0-7-9-2-7-55-3-1-1-4-8-2-2-7-9-4-8-7-7-5-9-9-4-0-7-6-5-8-3-5-7-6-1-1-7-4-1-6-6" fill="#1EC75A" fill-rule="nonzero"></path>
                <path d="M30.12925,370.827 C30.12925,370.827 54.12601,342.585 20.12906,319.059 C20.12906,319.059 -3.914581,347.018 30.12925,370.827 Z" id="path5467-2-6-0-9-9-8-2-0-7-9-2-7-55-3-1-1-4-8-2-2-7-9-4-8-7-7-5-9-9-4-0-7-6-5-8-3-5-7-6-1-1-7-4-1-6-6-8" fill="#1EC75A" fill-rule="nonzero"></path>
            </g>
            <g id="g2372" transform="translate(0.000000, 185.000000)" fill-rule="nonzero">
                <path d="M92.054206,237.798 C70.787381,237.888 46.580684,243.473 17.870588,256.309 C11.549446,262.63 5.5989172,268.908 -3.55271368e-15,275.141 L-3.55271368e-15,476.199 L522.28399,476.199 C483.66357,411.07 433.98364,356.124 384.20445,306.345 C351.10609,273.247 251.46294,343.368 214.44002,306.345 C176.2988,268.204 142.42299,237.586 92.054206,237.798 Z" id="path6142" fill="#322244"></path>
                <path d="M0,0.35 L0,476.1 C19.543969,476.47 44.154292,476.13 50.035886,470.248 C77.695751,442.589 243.03119,467.655 243.03119,423.787 C243.03119,380.085 294.35766,214.709 239.45707,214.709 C197.37218,214.709 129.38112,174.325 103.64589,148.59 C38.943286,83.888 97.609293,19.167 0,0.35 Z" id="path6187" fill="#4B2E47"></path>
            </g>
        </g>
    </g>
</svg>