<?xml version="1.0" encoding="UTF-8"?>
<svg width="579px" height="675px" viewBox="0 0 579 675" version="1.1" xmlns="http://www.w3.org/2000/svg" xmlns:xlink="http://www.w3.org/1999/xlink">
    <!-- Generator: Sketch 49.2 (51160) - http://www.bohemiancoding.com/sketch -->
    <title>g2462</title>
    <desc>Created with Sketch.</desc>
    <defs></defs>
    <g id="Page-1" stroke="none" stroke-width="1" fill="none" fill-rule="evenodd">
        <g id="g2462" transform="translate(0.100000, 10.868353)">
            <g id="g5816" transform="translate(172.343238, 0.744674)">
                <path d="M63.4606,0.609 C9.228,68.469 80.3999,81.095 106.1021,132.5 C137.0415,194.379 0.7374,251.994 38.669,327.857 C61.2218,372.963 123.1112,370.801 142.7936,410.165 C166.7394,458.057 180.6479,507.351 230.06,533.132" id="path5461" stroke="#358E69" stroke-width="22.9228344" stroke-linecap="round"></path>
                <path d="M68.9459,27.425 C68.9459,27.425 43.5211,54.385 76.2543,79.638 C76.2543,79.638 101.7194,52.966 68.9459,27.425 Z" id="path5467" fill="#1EC75A" fill-rule="nonzero"></path>
                <path d="M99.039,53.685 C99.039,53.685 70.6911,77.552 100.3127,106.392 C100.3127,106.392 128.6681,82.816 99.039,53.685 Z" id="path5467-4" fill="#1EC75A" fill-rule="nonzero"></path>
                <path d="M132.6536,83.801 C132.6536,83.801 98.7981,98.868 119.2584,134.792 C119.2584,134.792 153.0403,120.006 132.6536,83.801 Z" id="path5467-9" fill="#1EC75A" fill-rule="nonzero"></path>
                <path d="M156.8949,134.248 C156.8949,134.248 120.3055,128.38 117.825,169.647 C117.825,169.647 154.1994,175.708 156.8949,134.248 Z" id="path5467-2" fill="#1EC75A" fill-rule="nonzero"></path>
                <path d="M149.111,184.762 C149.111,184.762 117.2113,165.904 99.7927,203.397 C99.7927,203.397 131.4217,222.356 149.111,184.762 Z" id="path5467-2-4" fill="#1EC75A" fill-rule="nonzero"></path>
                <path d="M127.2214,221.413 C127.2214,221.413 97.7348,198.969 76.0686,234.178 C76.0686,234.178 105.2746,256.692 127.2214,221.413 Z" id="path5467-2-2" fill="#1EC75A" fill-rule="nonzero"></path>
                <path d="M101.3214,252.056 C101.3214,252.056 70.0887,232.113 51.3918,268.985 C51.3918,268.985 82.3505,289.02 101.3214,252.056 Z" id="path5467-2-3" fill="#1EC75A" fill-rule="nonzero"></path>
                <path d="M69.1624,276.796 C69.1624,276.796 33.1549,285.553 46.8459,324.562 C46.8459,324.562 82.7298,316.066 69.1624,276.796 Z" id="path5467-2-8" fill="#1EC75A" fill-rule="nonzero"></path>
                <path d="M69.7501,313.449 C69.7501,313.449 53.2172,346.614 91.8577,361.312 C91.8577,361.312 108.5106,328.41 69.7501,313.449 Z" id="path5467-2-6" fill="#1EC75A" fill-rule="nonzero"></path>
                <path d="M106.2073,334.651 C106.2073,334.651 92.1315,368.931 131.7391,380.779 C131.7391,380.779 145.9537,346.752 106.2073,334.651 Z" id="path5467-2-6-5" fill="#1EC75A" fill-rule="nonzero"></path>
                <path d="M154.0633,407.801 C154.0633,407.801 123.5773,386.734 150.3256,355.211 C150.3256,355.211 180.7902,375.991 154.0633,407.801 Z" id="path5467-2-6-0" fill="#1EC75A" fill-rule="nonzero"></path>
                <path d="M171.049,401.877 C171.049,401.877 144.4421,427.67 176.0098,454.365 C176.0098,454.365 202.6428,428.859 171.049,401.877 Z" id="path5467-2-6-0-4" fill="#1EC75A" fill-rule="nonzero"></path>
                <path d="M103.5594,410.721 C103.5594,410.721 105.4414,447.73 146.3203,441.561 C146.3203,441.561 144.6714,404.722 103.5594,410.721 Z" id="path5467-2-6-0-9" fill="#1EC75A" fill-rule="nonzero"></path>
                <path d="M73.6279,386.123 C73.6279,386.123 86.5673,420.847 123.691,402.655 C123.691,402.655 111.0251,368.022 73.6279,386.123 Z" id="path5467-2-6-0-9-9" fill="#1EC75A" fill-rule="nonzero"></path>
                <path d="M32.9711,360.639 C32.9711,360.639 44.2848,395.927 82.2129,379.477 C82.2129,379.477 71.1681,344.294 32.9711,360.639 Z" id="path5467-2-6-0-9-9-4" fill="#1EC75A" fill-rule="nonzero"></path>
                <path d="M3.3528,314.411 C3.3528,314.411 -0.0335,351.313 41.3069,351.005 C41.3069,351.005 44.9,314.305 3.3528,314.411 Z" id="path5467-2-6-0-9-9-8" fill="#1EC75A" fill-rule="nonzero"></path>
                <path d="M6.3627,245.938 C6.3627,245.938 -15.0422,276.188 20.8992,296.616 C20.8992,296.616 42.3821,266.645 6.3627,245.938 Z" id="path5467-2-6-0-9-9-8-2" fill="#1EC75A" fill-rule="nonzero"></path>
                <path d="M37.2612,197.068 C37.2612,197.068 9.2415,221.319 39.2526,249.752 C39.2526,249.752 67.2814,225.79 37.2612,197.068 Z" id="path5467-2-6-0-9-9-8-2-0" fill="#1EC75A" fill-rule="nonzero"></path>
                <path d="M74.3296,157.664 C74.3296,157.664 42.4668,176.585 66.9838,209.872 C66.9838,209.872 98.8044,191.237 74.3296,157.664 Z" id="path5467-2-6-0-9-9-8-2-0-7" fill="#1EC75A" fill-rule="nonzero"></path>
                <path d="M67.6191,117.212 C67.6191,117.212 57.9018,152.973 98.6724,159.819 C98.6724,159.819 108.5584,124.293 67.6191,117.212 Z" id="path5467-2-6-0-9-9-8-2-0-7-6" fill="#1EC75A" fill-rule="nonzero"></path>
                <path d="M26.5919,96.328 C26.5919,96.328 40.8975,130.514 77.2708,110.864 C77.2708,110.864 63.2426,76.761 26.5919,96.328 Z" id="path5467-2-6-0-9-9-8-2-0-7-9" fill="#1EC75A" fill-rule="nonzero"></path>
                <path d="M1.1488,52.47 C1.1488,52.47 5.8792,89.226 46.1605,79.922 C46.1605,79.922 41.6755,43.32 1.1488,52.47 Z" id="path5467-2-6-0-9-9-8-2-0-7-9-6" fill="#1EC75A" fill-rule="nonzero"></path>
            </g>
            <g id="g5919" transform="translate(421.599027, 251.815628) rotate(6.830135) translate(-421.599027, -251.815628) translate(374.599027, 97.815628)">
                <path d="M36.5512,0.458 C113.8719,104.837 -25.491,188.179 85.2724,307.546" id="path5463" stroke="#358E69" stroke-width="22.9228344" stroke-linecap="round"></path>
                <path d="M64.1347,214.862 C64.1347,214.862 37.0577,240.164 68.1304,267.432 C68.1304,267.432 95.2261,242.42 64.1347,214.862 Z" id="path5467-2-6-0-9-9-8-2-0-7-9-2" fill="#1EC75A" fill-rule="nonzero"></path>
                <path d="M76.9348,163.204 C76.9348,163.204 40.461,169.763 51.7635,209.529 C51.7635,209.529 88.0957,203.223 76.9348,163.204 Z" id="path5467-2-6-0-9-9-8-2-0-7-9-2-7" fill="#1EC75A" fill-rule="nonzero"></path>
                <path d="M90.3096,116.102 C90.3096,116.102 53.2509,116.192 57.4365,157.321 C57.4365,157.321 94.3116,157.455 90.3096,116.102 Z" id="path5467-2-6-0-9-9-8-2-0-7-9-2-7-5" fill="#1EC75A" fill-rule="nonzero"></path>
                <path d="M90.4685,62.32 C90.4685,62.32 54.5658,71.504 68.7198,110.347 C68.7198,110.347 104.4996,101.425 90.4685,62.32 Z" id="path5467-2-6-0-9-9-8-2-0-7-9-2-7-4" fill="#1EC75A" fill-rule="nonzero"></path>
                <path d="M86.6166,6.123 C86.6166,6.123 52.5167,20.633 72.3844,56.887 C72.3844,56.887 106.4026,42.655 86.6166,6.123 Z" id="path5467-2-6-0-9-9-8-2-0-7-9-2-7-3" fill="#1EC75A" fill-rule="nonzero"></path>
                <path d="M21.7436,39.174 C21.7436,39.174 9.9192,74.296 50.2112,83.55 C50.2112,83.55 62.1891,48.674 21.7436,39.174 Z" id="path5467-2-6-0-9-9-8-2-0-7-9-2-7-8" fill="#1EC75A" fill-rule="nonzero"></path>
                <path d="M21.9578,83.965 C21.9578,83.965 2.7819,115.677 40.0992,133.469 C40.0992,133.469 59.3713,102.03 21.9578,83.965 Z" id="path5467-2-6-0-9-9-8-2-0-7-9-2-7-55" fill="#1EC75A" fill-rule="nonzero"></path>
                <path d="M17.2244,134.17 C17.2244,134.17 -4.9556,163.858 30.4466,185.208 C30.4466,185.208 52.6957,155.801 17.2244,134.17 Z" id="path5467-2-6-0-9-9-8-2-0-7-9-2-7-55-5" fill="#1EC75A" fill-rule="nonzero"></path>
                <path d="M1.7121,193.117 C1.7121,193.117 -8.0382,228.87 32.7265,235.753 C32.7265,235.753 42.6441,200.237 1.7121,193.117 Z" id="path5467-2-6-0-9-9-8-2-0-7-9-2-7-55-6" fill="#1EC75A" fill-rule="nonzero"></path>
                <path d="M14.4538,253.484 C14.4538,253.484 13.8048,290.536 55.0095,287.173 C55.0095,287.173 55.8788,250.307 14.4538,253.484 Z" id="path5467-2-6-0-9-9-8-2-0-7-9-2-7-55-60" fill="#1EC75A" fill-rule="nonzero"></path>
            </g>
            <g id="g6108" transform="translate(150.675903, 418.799466) rotate(-8.816819) translate(-150.675903, -418.799466) translate(30.175903, 278.299466)">
                <g id="g6092" transform="translate(0.561230, 37.127866)">
                    <path d="M23.6643,0.761 C48.4039,4.614 68.2773,13.816 84.0015,26.732 C105.3488,44.27 46.0491,100.824 80.0495,128.754 C131.3984,170.938 202.3668,180.935 239.6759,242.645" id="path5465" stroke="#358E69" stroke-width="22.9228344" stroke-linecap="round"></path>
                    <path d="M193.472,148.625 C193.472,148.625 176.1196,181.37 214.3831,197.024 C214.3831,197.024 231.847,164.546 193.472,148.625 Z" id="path5467-2-6-0-9-9-8-2-0-7-9-2-7-55-3" fill="#1EC75A" fill-rule="nonzero"></path>
                    <path d="M144.7783,125.106 C144.7783,125.106 132.8564,160.195 173.123,169.562 C173.123,169.562 185.1975,134.719 144.7783,125.106 Z" id="path5467-2-6-0-9-9-8-2-0-7-9-2-7-55-3-9" fill="#1EC75A" fill-rule="nonzero"></path>
                    <path d="M100.0054,103.497 C100.0054,103.497 89.0544,138.9 129.5637,147.155 C129.5637,147.155 140.674,111.993 100.0054,103.497 Z" id="path5467-2-6-0-9-9-8-2-0-7-9-2-7-55-3-1" fill="#1EC75A" fill-rule="nonzero"></path>
                    <path d="M100.2803,62.416 C100.2803,62.416 64.9549,73.615 81.2811,111.596 C81.2811,111.596 116.4993,100.665 100.2803,62.416 Z" id="path5467-2-6-0-9-9-8-2-0-7-9-2-7-55-3-1-1" fill="#1EC75A" fill-rule="nonzero"></path>
                    <path d="M128.8424,19.166 C128.8424,19.166 91.7942,18.307 94.9253,59.53 C94.9253,59.53 131.7851,60.607 128.8424,19.166 Z" id="path5467-2-6-0-9-9-8-2-0-7-9-2-7-55-3-1-1-4" fill="#1EC75A" fill-rule="nonzero"></path>
                    <path d="M0.6452,21.687 C0.6452,21.687 23.8784,50.558 53.3672,21.583 C53.3672,21.583 30.4208,-7.285 0.6452,21.687 Z" id="path5467-2-6-0-9-9-8-2-0-7-9-2-7-55-3-1-1-4-8-2" fill="#1EC75A" fill-rule="nonzero"></path>
                    <path d="M65.1231,16.877 C65.1231,16.877 37.452,40.987 67.2673,69.047 C67.2673,69.047 94.9466,45.221 65.1231,16.877 Z" id="path5467-2-6-0-9-9-8-2-0-7-9-2-7-55-3-1-1-4-8-2-1" fill="#1EC75A" fill-rule="nonzero"></path>
                    <path d="M27.5932,64.126 C27.5932,64.126 17.8835,99.89 58.6562,106.726 C58.6562,106.726 68.532,71.196 27.5932,64.126 Z" id="path5467-2-6-0-9-9-8-2-0-7-9-2-7-55-3-1-1-4-8-2-2" fill="#1EC75A" fill-rule="nonzero"></path>
                    <path d="M29.8967,136.718 C29.8967,136.718 48.6704,168.67 82.0704,144.306 C82.0704,144.306 63.5802,112.4 29.8967,136.718 Z" id="path5467-2-6-0-9-9-8-2-0-7-9-2-7-55-3-1-1-4-8-2-2-7" fill="#1EC75A" fill-rule="nonzero"></path>
                    <path d="M86.1509,179.965 C86.1509,179.965 111.1574,207.316 138.7621,176.54 C138.7621,176.54 114.0425,149.176 86.1509,179.965 Z" id="path5467-2-6-0-9-9-8-2-0-7-9-2-7-55-3-1-1-4-8-2-2-7-9" fill="#1EC75A" fill-rule="nonzero"></path>
                    <path d="M132.9654,207.326 C132.9654,207.326 157.9719,234.677 185.5766,203.901 C185.5766,203.901 160.857,176.537 132.9654,207.326 Z" id="path5467-2-6-0-9-9-8-2-0-7-9-2-7-55-3-1-1-4-8-2-2-7-9-9" fill="#1EC75A" fill-rule="nonzero"></path>
                </g>
                <path d="M76.669,0.215 C76.669,0.215 51.52,27.433 84.5086,52.351 C84.5086,52.351 109.6966,25.417 76.669,0.215 Z" id="path5467-2-6-0-9-9-8-2-0-7-9-2-7-55-3-1-1-4-8" fill="#1EC75A" fill-rule="nonzero"></path>
            </g>
            <path d="M360.8261,470.972 C304.5265,471.607 240.6461,496.764 175.6483,561.762 C122.2079,615.202 -4.8798,530.883 1.5463,660.079 L0.3322,663.199 L552.5751,663.199 C574.6853,590.716 486.7081,469.553 360.8261,470.972 Z" id="path6120" fill="#481A47" fill-rule="nonzero"></path>
            <path d="M578,186.5 C503.6224,234.45 528.748,307.672 490.8499,349.645 C463.1583,380.314 415.4057,397.532 387.9533,427.935 C354.3347,465.168 426.2973,573.194 403.7618,598.152 C387.1465,616.553 358.3325,640.776 334.1373,663.199 L578,663.199 L578,186.5 Z" id="path6130" fill="#301C33" fill-rule="nonzero"></path>
        </g>
    </g>
</svg>