<?xml version="1.0" encoding="UTF-8"?>
<svg width="197px" height="134px" viewBox="0 0 197 134" version="1.1" xmlns="http://www.w3.org/2000/svg" xmlns:xlink="http://www.w3.org/1999/xlink">
    <!-- Generator: Sketch 49.2 (51160) - http://www.bohemiancoding.com/sketch -->
    <title>g3666</title>
    <desc>Created with Sketch.</desc>
    <defs></defs>
    <g id="Page-1" stroke="none" stroke-width="1" fill="none" fill-rule="evenodd">
        <g id="g3666" transform="translate(99.269932, 67.286525) rotate(-0.643320) translate(-99.269932, -67.286525) translate(0.962819, 1.359500)" fill-rule="nonzero">
            <path d="M157.908686,97.6036779 C163.689255,95.9470251 165.34998,93.7750097 170.81966,98.4097846 C173.606751,100.741682 176.020491,103.977293 176.840629,105.49491 C178.307243,108.119844 182.104079,107.418584 182.540388,104.19683 C182.785181,102.335488 182.82542,91.9219352 177.653445,88.9012697 C173.467277,86.4345604 168.027889,84.886623 160.564798,90.1918 C153.102186,95.4973036 157.908686,97.6036779 157.908686,97.6036779" id="path3544-0" fill="#690000"></path>
            <path d="M149.843897,108.419654 C149.843897,108.419654 154.766131,111.682639 155.61708,114.961546 C156.467959,118.240056 159.881794,114.664554 160.49865,111.360309 C161.115429,108.055661 160.388353,102.7907 156.19652,101.355573 C152.004839,99.9212404 149.06251,106.845731 149.843897,108.419654" id="path3546-3" fill="#690000"></path>
            <path d="M120.212855,35.0845019 L128.469626,35.1521792 L124.775046,59.7003931 C124.775046,59.7003931 116.620235,70.6461638 119.507786,59.0285209 C122.395262,47.4104695 120.212855,35.0845019 120.212855,35.0845019" id="path3548-8" fill="#850000"></path>
            <path d="M155.310899,74.7678223 C156.288806,69.4332991 160.582173,60.7867888 160.582173,60.7867888 C160.582173,60.7867888 156.042554,47.6356015 158.122593,42.6865122 C158.122593,42.6865122 167.8097,40.6519867 173.546413,46.4641658 C173.546413,46.4641658 174.076338,55.4473765 171.867952,60.7638193 C171.867952,60.7638193 172.712349,74.1063992 167.637024,77.9891859 C162.56195,81.8710976 158.665785,79.646148 158.665785,79.646148 L155.310899,74.7678223 Z" id="path3550-4" fill="#690000"></path>
            <path d="M117.975176,35.6869699 C117.431581,30.8205694 119.812708,26.5601667 123.293514,26.1717106 C126.773913,25.7833188 130.036093,29.4128057 130.579764,34.2796029 C131.122891,39.1456709 128.741619,43.4052743 125.261285,43.7940629 C121.780483,44.1825306 118.5187,40.5529678 117.975176,35.6869699" id="path3552-1" fill="#000000"></path>
            <path d="M160.36158,43.6475707 C160.36158,43.6475707 147.003755,35.9048033 146.368306,26.3525082 C145.73319,16.7997347 149.465091,12.821838 151.77392,10.9720715 C153.230154,9.81962043 156.037794,8.80995095 158.445945,13.0775357 C160.337653,16.4095634 164.05144,21.3682384 164.190231,24.7786784 C164.32943,28.1890368 166.008673,26.6517469 166.809062,25.6695801 C167.608979,24.6870865 177.872515,15.6743545 180.125924,4.75373528 C182.379328,-6.16687932 191.80499,5.00177258 194.372294,10.6632997 C196.874586,16.2389408 198.134551,25.185209 192.030601,33.3317823 C186.507275,40.6346648 178.463531,44.9182529 172.607811,45.9019016 C166.751618,46.8852178 160.36158,43.6475707 160.36158,43.6475707" id="path3554-2" fill="#A70000"></path>
            <path d="M65.2066533,114.725498 C59.2156894,115.24302 56.8890663,113.80745 53.4354354,120.090342 C51.6652014,123.263964 50.5664954,127.148309 50.342571,128.858765 C49.9103698,131.834407 46.1131441,132.535748 44.5551776,129.682333 C43.6616389,128.031235 39.9042476,118.319099 43.6559855,113.650246 C46.6848364,109.850941 51.2128195,106.462053 60.0781841,108.751407 C68.9440214,111.041093 65.2066533,114.725498 65.2066533,114.725498" id="path3556-8" fill="#690000"></path>
            <path d="M76.6029273,121.947063 C76.6029273,121.947063 73.1710114,126.753044 73.5474547,130.119587 C73.923828,133.485733 69.4580246,131.365585 67.7015595,128.499684 C65.9450185,125.633381 64.7434372,120.456062 68.1460651,117.618259 C71.5492415,114.781174 76.7705453,120.197861 76.6029273,121.947063" id="path3558-6" fill="#690000"></path>
            <path d="M59.5233936,92.4595146 C56.7044707,87.8262566 49.6057461,81.2838453 49.6057461,81.2838453 C49.6057461,81.2838453 49.1481367,67.3787154 45.4374737,63.499155 C45.4374737,63.499155 35.6627245,65.0591809 32.3810639,72.5370326 C32.3810639,72.5370326 35.0945852,81.1169332 39.0563503,85.2937662 C39.0563503,85.2937662 43.0337569,98.0576934 49.160797,99.8714276 C55.2880956,101.684292 58.1320358,98.2144655 58.1320358,98.2144655 L59.5233936,92.4595146 Z" id="path3560-4" fill="#690000"></path>
            <path d="M43.6895091,65.196595 C43.6895091,65.196595 53.400249,53.1931214 50.5816061,44.0440547 C47.7624866,34.8946613 42.8558589,32.5122802 40.0386046,31.6092842 C38.2667779,31.0530468 35.2837083,31.1129062 34.5588552,35.9591552 C33.9821863,39.7470829 32.2847054,45.7051999 33.3733065,48.9402099 C34.4615108,52.1753015 32.343923,51.339271 31.2454971,50.7078068 C30.1470012,50.0759458 17.3415749,45.32399 11.3358913,35.9288054 C5.28268181,26.5424014 0.515959488,40.3323457 0.140379641,46.5374148 C-0.205550548,52.6391186 1.8137009,61.4451431 10.4245697,66.8739302 C18.1921502,71.7220229 27.2357396,72.8496259 33.056495,71.6766557 C38.8775713,70.503213 43.6895091,65.196595 43.6895091,65.196595" id="path3564-8" fill="#A70000"></path>
            <path d="M78.067079,42.8687159 L70.3792294,45.8813242 L82.5989027,67.4902138 C82.5989027,67.4902138 94.125228,74.8009375 87.2782513,64.9812295 C80.4316072,55.1610432 78.067079,42.8687159 78.067079,42.8687159" id="path3566-7" fill="#850000"></path>
            <path d="M80.3883054,42.6291674 C79.1573195,37.889726 75.4118301,34.7608936 72.021915,35.6414336 C68.6323907,36.5219036 66.881929,41.0772102 68.1129849,45.8170483 C69.3435041,50.5561629 73.0892443,53.6841203 76.4788328,52.8040528 C79.8687538,51.9235128 81.6188246,47.3682762 80.3883054,42.6291674" id="path3570-7" fill="#000000"></path>
            <path d="M142.746287,114.639128 L114.076339,119.934387 L85.4067873,125.229575 C71.2619339,127.842094 57.5409913,118.399413 54.9284783,104.25456 C50.6502111,81.09093 66.0824734,58.6063895 89.2936288,54.3193534 L113.833634,49.7868821 C136.997258,45.5086207 159.481798,60.9408772 163.768834,84.1520326 C166.381353,98.296886 156.938672,112.017829 142.746287,114.639128" id="path3562-7" fill="#A70000"></path>
        </g>
    </g>
</svg>