<?xml version="1.0" encoding="UTF-8"?>
<svg width="355px" height="253px" viewBox="0 0 355 253" version="1.1" xmlns="http://www.w3.org/2000/svg" xmlns:xlink="http://www.w3.org/1999/xlink">
    <!-- Generator: Sketch 49.2 (51160) - http://www.bohemiancoding.com/sketch -->
    <title>g6185</title>
    <desc>Created with Sketch.</desc>
    <defs></defs>
    <g id="Page-1" stroke="none" stroke-width="1" fill="none" fill-rule="evenodd">
        <g id="g6185" transform="translate(-0.233627, -5.023060)" fill-rule="nonzero">
            <g id="g3408" transform="translate(292.939469, 73.020667) rotate(6.647662) translate(-292.939469, -73.020667) translate(229.236490, 31.526066)">
                <path d="M63.5814167,0.822878839 C98.5081817,0.822878839 126.821526,37.535665 126.821526,82.8232227 L0.342476562,82.8232227 C0.342476562,37.535665 28.6558205,0.822878839 63.5814167,0.822878839 Z" id="path3404" fill="#734C29"></path>
                <path d="M63.5814167,0.822878839 C98.5081817,0.822878839 126.821526,37.535665 126.821526,82.8232227 L0.342476562,82.8232227 C0.342476562,37.535665 28.6558205,0.822878839 63.5814167,0.822878839 Z M63.5814167,24.2001186 C44.531304,24.8359795 32.1705885,42.8107391 27.1444819,59.445983 L100.018351,59.445983 C95.0915981,42.7289188 82.5602288,24.9224753 63.5814167,24.2001186 Z" id="path3406" fill="#FFD500"></path>
            </g>
            <path d="M297.865431,29.7047522 C334.348634,33.9579853 359.164918,75.2701974 353.751798,121.716363 C353.564999,123.319703 352.114346,124.467646 350.511006,124.280332 L224.882356,109.638899 C223.279016,109.452444 222.131245,108.002049 222.318129,106.398709 C227.731249,59.9525434 261.381971,25.4540967 297.865345,29.7056114 L297.865431,29.7047522 Z M297.188866,35.509771 L297.18878,35.509771 C258.881585,32.1553018 233.157515,70.1078894 228.517109,104.177576 L348.229383,118.129899 C351.8497,83.8058778 335.013685,41.1953556 297.188866,35.5089117 L297.188866,35.509771 Z" id="path3410" fill="#000000"></path>
            <g id="g3416" transform="translate(280.423154, 180.413491) rotate(6.647662) translate(-280.423154, -180.413491) translate(216.720176, 112.619496)">
                <polygon id="path3412" fill="#734C29" points="126.821526 1.00288359 126.821526 135.00356 0.342476562 135.00356 0.342476562 1.00288359"></polygon>
                <path d="M126.821526,1.00288359 L126.821526,135.00356 L0.342476562,135.00356 L0.342476562,1.00288359 L126.821526,1.00288359 Z M103.444286,24.3801233 L23.7197163,24.3801233 L23.7197163,111.62632 L103.444286,111.62632 L103.444286,24.3801233 Z" id="path3414" fill="#FFD500"></path>
            </g>
            <path d="M351.187571,118.475313 C352.790911,118.662627 353.93851,120.114741 353.751798,121.716363 L338.23944,254.815924 C338.052556,256.419264 336.601988,257.567207 334.998648,257.380752 L209.369913,242.73846 C207.766573,242.552005 206.618887,241.10161 206.805686,239.49827 L222.318129,106.398709 C222.504842,104.796228 223.955581,103.647425 225.558921,103.83388 L351.187571,118.475313 Z M347.608497,123.942651 L227.784866,109.977439 L212.948987,237.271981 L332.772704,251.237193 L347.608497,123.942651 Z" id="path3418" fill="#000000"></path>
            <g id="g3424" transform="translate(114.399653, 161.063945) rotate(6.647662) translate(-114.399653, -161.063945) translate(9.786505, 93.269950)">
                <polygon id="path3420" fill="#734C29" points="0.771448912 1.00288359 208.39991 1.00288359 208.39991 135.00356 0.771448912 135.00356"></polygon>
                <path d="M208.39991,1.00288359 L208.39991,135.00356 L0.771448912,135.00356 L0.771448912,1.00288359 L208.39991,1.00288359 Z M185.022671,24.3801233 L24.1486887,24.3801233 L24.1486887,111.62632 L185.022671,111.62632 L185.022671,24.3801233 Z" id="path3422" fill="#FFD500"></path>
            </g>
            <path d="M225.558921,103.83388 C227.161058,104.021194 228.309861,105.472449 228.123148,107.07493 L212.610705,240.174491 C212.423906,241.777831 210.972136,242.925774 209.369913,242.73846 L3.13740817,218.702967 C1.53522813,218.516512 0.386313863,217.065257 0.573181165,215.461917 L16.0855645,82.3623563 C16.2722943,80.7607347 17.7241677,79.6119322 19.3263477,79.798387 L225.558921,103.83388 Z M221.979847,109.301218 L21.5523009,85.941946 L6.71647379,213.236488 L207.143968,236.59576 L221.979847,109.301218 Z" id="path3426" fill="#000000"></path>
            <g id="g3432" transform="translate(159.424066, 57.459843) rotate(6.647662) translate(-159.424066, -57.459843) translate(22.082782, 15.965243)">
                <path d="M274.492043,0.822878839 L274.492043,0.916387798 L271.638849,0.822878839 C229.335381,2.09927613 209.124581,45.6452295 208.399887,82.8232227 L127.251614,82.8232227 L0.771251569,82.8232227 C0.717582751,45.8217276 22.598687,2.17992761 64.0114821,0.822878839 L64.2744762,0.839242907 L64.2744762,0.822878839 L274.492043,0.822878839 Z" id="path3428" fill="#734C29"></path>
                <path d="M274.492043,0.822878839 L274.492043,0.915218936 L271.638849,0.822878839 C229.335381,2.09927613 209.124581,45.6452295 208.399887,82.8232227 L127.251614,82.8232227 L0.771251569,82.8232227 C0.717582751,45.8217276 22.598687,2.17992761 64.0114821,0.822878839 L64.2744762,0.839242907 L64.2744762,0.822878839 L274.492043,0.822878839 Z M199.806437,24.2001186 L64.5878068,24.2001186 C52.3837188,24.5215556 42.9848996,32.0034412 36.1949803,41.5682389 C32.6182626,47.0817609 29.5476622,53.0780228 27.813071,59.445983 L127.249329,59.445983 L127.251667,59.445983 L187.46793,59.445983 C189.895656,47.2021536 193.748225,35.1535243 199.806437,24.2001186 Z" id="path3430" fill="#FFD500"></path>
            </g>
            <path d="M300.699287,30.0364184 C302.302627,30.2228733 303.450399,31.6732688 303.263514,33.2766088 L303.252344,33.3694066 C303.061336,35.0088346 301.54959,36.1662296 299.916693,35.9204872 L297.214815,35.5166449 C277.878672,33.8754984 262.252895,42.2410495 249.674839,56.3824053 C238.399389,69.6971731 230.686774,88.2756392 228.114985,107.131639 C227.900605,108.708343 226.462153,109.823635 224.882013,109.638899 L144.280478,100.244839 L144.279618,100.244839 L18.6497486,85.6034058 C17.0487285,85.416951 15.9007078,83.968274 16.0849802,82.3675117 C18.3380596,62.7931876 26.6223525,43.0444379 39.030838,28.6513251 C53.0015059,12.4460772 71.1678294,3.96023264 91.5385478,5.65980742 L91.5368293,5.6855846 L91.8122326,5.69417699 L91.8271834,5.69417699 L91.8952351,5.69417699 L300.699287,30.0364184 Z M273.224432,32.7181034 L91.29406,11.5146621 L91.0385824,11.4974773 L90.949866,11.4802925 C72.1043226,9.79016939 55.7707989,18.8568595 43.4568641,32.4689241 C32.2410883,45.9478066 24.6191312,62.7089822 22.2799475,80.1446604 L144.955058,94.4415384 L144.955917,94.4415384 L222.759434,103.509947 C225.626285,84.9091407 233.374989,67.2122539 245.214959,52.6086275 C252.768271,44.0695101 262.075119,36.0545285 273.224175,32.7198219 L273.224432,32.7181034 Z" id="path3434" fill="#000000"></path>
            <g id="g3440" transform="translate(122.315376, 93.145240) rotate(6.647662) translate(-122.315376, -93.145240) translate(86.665085, 57.494950)">
                <path d="M35.6222379,67.8734779 C17.9957992,67.8734779 3.70646136,53.5841401 3.70646136,35.9577013 C3.70646136,18.3300937 17.9957992,4.04075589 35.6222379,4.04075589 C53.2498456,4.04075589 67.5391834,18.3300937 67.5391834,35.9577013 C67.5391834,53.5841401 53.2498456,67.8734779 35.6222379,67.8734779 Z" id="path3436" fill="#FFD500"></path>
                <path d="M35.6222379,1.11860092 C54.8628751,1.11860092 70.4613383,16.7170641 70.4613383,35.9565325 C70.4613383,55.1983385 54.8628751,70.7956328 35.6222379,70.7956328 C16.3816008,70.7956328 0.784306394,55.1983385 0.784306394,35.9565325 C0.784306394,16.7170641 16.3816008,1.11860092 35.6222379,1.11860092 Z M35.6222379,6.96291086 C19.6099976,6.96291086 6.62861633,19.9442921 6.62861633,35.9565325 C6.62861633,51.9699417 19.6099976,64.9513229 35.6222379,64.9513229 C51.6356472,64.9513229 64.6170284,51.9699417 64.6170284,35.9565325 C64.6170284,19.9442921 51.6356472,6.96291086 35.6222379,6.96291086 Z" id="path3438" fill="#000000"></path>
            </g>
            <path d="M123.704212,75.9378261 C129.441884,76.6063141 133.543908,81.8588422 132.86681,87.6681572 C132.413502,91.4170171 130.153626,94.2885939 126.910746,95.9916056 L129.273413,110.766221 L110.275913,108.551962 L115.972934,94.7173541 C113.034758,92.4128751 111.846971,88.9235054 112.090652,85.2468217 C112.87933,79.3077615 117.948548,75.5649164 123.704212,75.9378261 Z" id="path3442" fill="#000000"></path>
        </g>
    </g>
</svg>