<?xml version="1.0" encoding="UTF-8"?>
<svg width="236px" height="117px" viewBox="0 0 236 117" version="1.1" xmlns="http://www.w3.org/2000/svg" xmlns:xlink="http://www.w3.org/1999/xlink">
    <!-- Generator: Sketch 49.2 (51160) - http://www.bohemiancoding.com/sketch -->
    <title>g7761</title>
    <desc>Created with Sketch.</desc>
    <defs></defs>
    <g id="Page-1" stroke="none" stroke-width="1" fill="none" fill-rule="evenodd">
        <g id="g7761" transform="translate(-74.443347, -144.217388)">
            <g id="g7809">
                <g id="g7824" transform="translate(177.318999, 173.628172) rotate(-10.469697) translate(-177.318999, -173.628172) translate(24.669217, 25.310109)">
                    <g id="g7788" transform="translate(152.601501, 148.265518) rotate(53.511739) translate(-152.601501, -148.265518) translate(55.397724, 30.616027)">
                        <g id="path7714"></g>
                        <g id="path7716"></g>
                        <path d="M167.000181,29.2998106 L146.320481,63.7158102 L146.062681,63.5598102 C137.860482,58.6308103 114.007482,57.7568103 106.677882,69.9558102 L89.1758821,99.0848098 L37.5606827,184.987809 C32.6325828,193.188809 35.2858827,203.833809 43.4883826,208.762809 L83.3126822,232.690808 C91.5148821,237.618808 102.159882,234.966808 107.087982,226.762808 L158.703281,140.860809 L176.205181,111.73381 C183.460781,99.6578098 171.808681,79.30881 163.615381,74.1178101 L184.298981,39.6948105 L167.000181,29.2998106 Z" id="polyline7718" fill="#4B7B4E" fill-rule="nonzero"></path>
                        <path d="M190.941486,36.6148089 C189.216769,39.4841396 186.332883,40.9170723 184.500046,39.8161226 L166.283261,28.8700416 C164.449731,27.7683988 164.361711,24.5497582 166.085389,21.680774 L168.074861,18.3689149 C169.799231,15.4995841 172.68277,14.066998 174.515954,15.1689873 L192.732738,26.1140286 C194.566269,27.2149784 194.654636,30.4339655 192.930958,33.3039893 L190.941486,36.6148089 Z" id="path7722" stroke="#52300F" stroke-width="0.5" fill="#52300F" fill-rule="nonzero"></path>
                        <g id="path7725"></g>
                        <g id="path7729"></g>
                        <path d="M165.981226,93.8843625 C165.981226,99.7829667 154.945001,104.568377 141.311468,104.5814 C127.677936,104.594424 116.592979,99.8301443 116.532777,93.9315976 C116.472576,88.033051 127.459852,83.226603 141.093119,83.1875335 C154.726385,83.1484637 165.85986,87.8915193 165.980262,93.7898936" id="path7772" fill="#AA8F49" fill-rule="nonzero" transform="translate(141.256878, 93.884360) rotate(31.864056) translate(-141.256878, -93.884360) "></path>
                        <path d="M162.255341,106.936485 C162.255341,106.936485 123.098181,152.68681 90.3732833,214.665809 L119.810399,82.5682636 C119.810399,82.5682636 121.738731,95.0147689 135.58766,102.202189 C149.436585,109.389607 158.06126,112.017182 162.255341,106.936485 Z" id="path7776" fill="#BCA464" fill-rule="nonzero"></path>
                        <path d="M119.881342,81.5821114 C119.881342,81.5821114 104.008683,147.480811 48.4755826,194.584808 C48.4755826,194.584808 55.4172041,214.170538 91.1170707,218.633019 C91.1170707,218.633019 126.816934,158.141581 156.814737,130.127105 C156.814737,130.127105 116.501565,97.4164923 119.881342,81.5821114 Z" id="path7774" fill="#C7B27D" fill-rule="nonzero"></path>
                    </g>
                    <path d="M108.872798,143.789698 C109.749299,143.789698 183.727098,136.777698 183.727098,136.777698" id="path7790" stroke="#629F66" stroke-width="4.60000004" stroke-linecap="round" stroke-linejoin="round"></path>
                    <path d="M195.508237,135.752394 C195.508237,135.752394 200.528537,134.822394 202.697838,136.124395 C204.867034,137.425394 212.552436,142.198394 217.820635,151.619394" id="path7792" stroke="#629F66" stroke-width="4.60000004" stroke-linecap="round" stroke-linejoin="round"></path>
                    <path d="M231.584832,162.196184 L261.561624,159.391697" id="path7794" stroke="#629F66" stroke-width="4.60000004" stroke-linecap="round" stroke-linejoin="round"></path>
                </g>
            </g>
        </g>
    </g>
</svg>