<?xml version="1.0" encoding="UTF-8"?>
<svg width="361px" height="221px" viewBox="0 0 361 221" version="1.1" xmlns="http://www.w3.org/2000/svg" xmlns:xlink="http://www.w3.org/1999/xlink">
    <!-- Generator: Sketch 49.2 (51160) - http://www.bohemiancoding.com/sketch -->
    <title>Layer_1-6</title>
    <desc>Created with Sketch.</desc>
    <defs></defs>
    <g id="Page-1" stroke="none" stroke-width="1" fill="none" fill-rule="evenodd">
        <g id="Layer_1-6" transform="translate(174.239980, 114.640926) rotate(5.489156) translate(-174.239980, -114.640926) translate(-6.393352, 14.739634)" fill-rule="nonzero">
            <path d="M266.222565,166.219529 C277.087107,165.168169 280.767603,161.838618 289.003009,171.915009 C293.209185,176.996335 296.451,183.567702 297.414624,186.547046 C299.167136,191.716108 306.175709,191.716108 308.016694,186.109102 C309.067317,182.867287 312.572341,164.292282 304.336198,157.195235 C297.677095,151.412019 288.478066,146.855636 273.407348,153.864946 C258.337367,160.874994 266.222565,166.219529 266.222565,166.219529" id="path3544" fill="#820000"></path>
            <path d="M248.260976,182.867287 C248.260976,182.867287 255.971439,190.314541 256.409383,196.447964 C256.847326,202.58065 264.119846,197.323851 266.310301,191.629109 C268.500757,185.93363 268.938701,176.29592 261.92939,172.352215 C254.920079,168.409985 247.385089,179.800206 248.260976,182.867287" id="path3546" fill="#820000"></path>
            <path d="M219.546912,42.1944717 L234.262999,45.0374192 L219.574929,87.6381315 C219.574929,87.6381315 201.409851,104.487904 210.394332,84.7022869 C219.378813,64.915933 219.546912,42.1944717 219.546912,42.1944717" id="path3548" fill="#FF0000"></path>
            <path d="M269.114173,124.600872 C272.61846,115.401106 283.132794,101.382485 283.132794,101.382485 C283.132794,101.382485 279.365299,76.4108484 284.709834,68.2624419 C284.709834,68.2624419 302.67216,67.8244983 310.996038,80.0906074 C310.996038,80.0906074 308.980318,96.3004214 303.285576,105.062244 C303.285576,105.062244 300.393968,129.157256 290.054368,134.414792 C279.715506,139.670853 273.494347,134.414792 273.494347,134.414792 L269.114173,124.600872 Z" id="path3550" fill="#820000"></path>
            <path d="M215.354007,42.5321454 C215.988067,33.6663666 221.642996,26.8465367 227.984332,27.3007006 C234.324931,27.7548644 238.951356,35.309024 238.317296,44.1755401 C237.682499,53.0405817 232.027569,59.858937 225.686971,59.4055104 C219.345635,58.9513466 214.719947,51.397187 215.354007,42.5321454" id="path3552" fill="#000000"></path>
            <path d="M288.389593,70.7161061 C288.389593,70.7161061 267.098452,52.4913089 269.113436,35.2308724 C271.129156,17.9696987 279.10209,12.0994841 283.833209,9.558821 C286.812553,7.98178142 292.157088,7.1051568 295.048696,15.5167718 C297.326887,22.0881387 302.321215,32.1637922 301.44459,38.2972154 C300.568703,44.4306386 304.072989,42.240183 305.825501,40.7508796 C307.577276,39.2608389 328.869154,26.5567861 336.49188,7.80630904 C344.114607,-10.9441681 357.25734,12.0994841 359.973476,23.0517622 C362.601875,33.8293052 361.90146,50.2138543 348.320046,62.743172 C336.053199,73.9579215 320.282803,78.9522488 309.505998,78.7775137 C298.728455,78.6020413 288.389593,70.7161061 288.389593,70.7161061" id="path3554" fill="#FF0000"></path>
            <path d="M95.1038177,166.219529 C84.2392758,165.168169 80.5595168,161.838618 72.3233741,171.915009 C68.117198,176.996335 64.8753826,183.567702 63.9117591,186.547046 C62.1592472,191.716108 55.1499366,191.716108 53.3096885,186.109102 C52.259066,182.867287 48.7540421,164.292282 56.9901848,157.195235 C63.6492878,151.412019 72.849054,146.855636 87.9190348,153.864946 C102.989753,160.874994 95.1038177,166.219529 95.1038177,166.219529" id="path3556" fill="#820000"></path>
            <path d="M113.065406,182.867287 C113.065406,182.867287 105.354944,190.314541 104.917,196.447964 C104.479056,202.58065 97.2065372,197.323851 95.0160815,191.629109 C92.8256259,185.93363 92.3876822,176.29592 99.3969928,172.352215 C106.407041,168.409985 113.941294,179.800206 113.065406,182.867287" id="path3558" fill="#820000"></path>
            <path d="M92.299946,124.600872 C88.7956594,115.401106 78.281325,101.382485 78.281325,101.382485 C78.281325,101.382485 82.0488202,76.4108484 76.7042854,68.2624419 C76.7042854,68.2624419 58.7419594,67.8244983 50.4188179,80.0906074 C50.4188179,80.0906074 52.4338011,96.3004214 58.1285434,105.062244 C58.1285434,105.062244 61.0201512,129.157256 71.3590133,134.414792 C81.6986127,139.670853 87.9190348,134.414792 87.9190348,134.414792 L92.299946,124.600872 Z" id="path3560" fill="#820000"></path>
            <path d="M233.541203,191.629109 L180.619323,191.629109 L127.698181,191.629109 C101.588186,191.629109 80.2093093,170.250233 80.2093093,144.140238 C80.2093093,101.382485 115.168863,66.3351949 158.014352,66.3351949 L203.312768,66.3351949 C246.070521,66.3351949 281.117811,101.294749 281.117811,144.140238 C281.117811,170.250233 259.738934,191.629109 233.541203,191.629109" id="path3562" fill="#FF0000"></path>
            <path d="M73.0245264,70.7161061 C73.0245264,70.7161061 94.3156666,52.4913089 92.3006833,35.2308724 C90.2849628,17.9696987 82.3120287,12.0994841 77.58091,9.558821 C74.6015659,7.98178142 69.2570312,7.1051568 66.3654233,15.5167718 C64.0872315,22.0881387 59.0929042,32.1637922 59.9695288,38.2972154 C60.8454161,44.4306386 57.3411295,42.240183 55.5886176,40.7508796 C53.8361056,39.2608389 32.5449654,26.5567861 24.9222388,7.80630904 C17.211776,-10.9441681 4.15677846,12.0994841 1.44064298,23.0517622 C-1.18849359,33.8293052 -0.487341356,50.2138543 13.0933361,62.743172 C25.3601825,73.9579215 41.1313155,78.9522488 51.9081213,78.7775137 C62.6856643,78.6020413 73.0245264,70.7161061 73.0245264,70.7161061" id="path3564" fill="#FF0000"></path>
            <path d="M141.749979,42.1944717 L127.033893,45.0374192 L141.721963,87.6381315 C141.721963,87.6381315 159.886303,104.487904 150.901822,84.7022869 C141.918079,64.915933 141.749979,42.1944717 141.749979,42.1944717" id="path3566" fill="#FF0000"></path>
            <path d="M127.755689,191.629109 L180.677568,191.629109 L233.598711,191.629109 C259.708706,191.629109 281.087582,170.250233 281.087582,144.140238 C281.087582,101.382485 246.128028,66.3351949 203.28254,66.3351949 L157.984124,66.3351949 C115.226371,66.3351949 80.1790809,101.294749 80.1790809,144.140238 C80.1790809,170.250233 101.557957,191.629109 127.755689,191.629109" id="path3568" fill="#FF0000"></path>
            <path d="M145.972376,42.5321454 C145.337579,33.6663666 139.683387,26.8465367 133.342051,27.3007006 C127.001452,27.7548644 122.375027,35.309024 123.009824,44.1755401 C123.643884,53.0405817 129.298813,59.858937 135.639412,59.4055104 C141.980748,58.9513466 146.606436,51.397187 145.972376,42.5321454" id="path3570" fill="#000000"></path>
        </g>
    </g>
</svg>