<?xml version="1.0" encoding="UTF-8"?>
<svg width="286px" height="308px" viewBox="0 0 286 308" version="1.1" xmlns="http://www.w3.org/2000/svg" xmlns:xlink="http://www.w3.org/1999/xlink">
    <!-- Generator: Sketch 49.2 (51160) - http://www.bohemiancoding.com/sketch -->
    <title>Layer_1-7</title>
    <desc>Created with Sketch.</desc>
    <defs></defs>
    <g id="Page-1" stroke="none" stroke-width="1" fill="none" fill-rule="evenodd">
        <g id="Layer_1-7" transform="translate(135.893562, 158.373780) rotate(-29.070574) translate(-135.893562, -158.373780) translate(-115.894626, -95.662517)" fill-rule="nonzero">
            <g id="g3879" transform="translate(251.783340, 254.257430) scale(-1, 1) rotate(-37.588148) translate(-251.783340, -254.257430) translate(76.925135, 68.787777)">
                <g id="g4174">
                    <path d="M141.244368,304.114867 C89.6750386,304.114867 47.8700865,287.07888 47.8700865,266.064522 C47.8700865,245.049703 89.6750386,228.014177 141.244368,228.014177 C192.813236,228.014177 234.618188,245.049703 234.618188,266.064522 C234.618188,287.07888 192.813236,304.114867 141.244368,304.114867 Z" id="path3476" fill="#E700FF"></path>
                    <path d="M146.972243,253.040585 C126.335284,253.040585 109.605183,236.310945 109.605183,215.673524 C109.605183,195.036565 126.335284,178.306926 146.972243,178.306926 C167.609664,178.306926 184.339303,195.036565 184.339303,215.673524 C184.339303,236.310945 167.609664,253.040585 146.972243,253.040585 Z" id="path3478" fill="#FFEA93"></path>
                    <path d="M138.826636,30.9829646 C115.980127,31.4155941 94.3586863,38.6737345 77.9832614,56.4613551 C76.1282782,58.4767845 74.9391896,60.5416572 74.5221029,62.260304 C74.1067296,63.9708734 73.696986,66.225687 75.4543063,70.2679275 C76.8529174,73.3034324 78.6321445,76.1376147 81.2317155,78.285097 C87.403815,83.3824151 95.342536,83.0435322 102.572528,85.4704185 C104.784017,86.2124363 106.930765,87.1479441 109.033577,88.1571274 C110.224257,88.7281739 111.296591,89.519635 112.427914,90.2008276 C123.968658,97.998072 122.649107,113.08699 141.353144,123.983257 C154.744221,131.78503 165.833366,125.951201 180.360906,134.230641 C190.897851,140.236297 191.403545,155.926491 206.257729,165.962149 C216.494833,172.878959 228.857145,168.186367 240.824154,173.960105 C258.116117,182.302695 249.717353,193.50835 262.936969,203.506926 C268.52407,207.426904 272.298533,209.037118 276.576241,210.324115 C281.172762,212.339911 283.558894,218.593274 279.16492,222.129944 C274.906059,224.899507 270.44049,227.331166 264.548162,228.289805 C261.604078,228.750583 259.890327,229.185293 256.640893,228.667484 C247.072132,227.143428 241.174297,220.776125 230.880407,224.441421 L227.739528,225.624636 C215.535705,230.880075 210.977124,243.294767 199.043647,246.494512 C181.728921,251.137539 169.54835,241.237972 158.106982,245.26112 C142.332465,250.808324 139.471236,263.00762 124.802587,268.009478 C104.31455,274.996414 93.7807863,264.111529 80.3282725,267.718202 C75.7892729,269.192937 75.1865288,269.18437 70.2984884,272.064079 C65.3701835,274.967042 61.388401,279.522196 56.1262309,281.878099 C51.1263309,284.117737 46.044311,283.882759 41.0958126,282.57202 C39.8740473,282.247701 38.0222461,282.073914 36.783714,283.147227 C35.5446925,284.221764 35.2945384,285.680588 36.1287117,287.997329 C52.1941365,332.615077 104.114329,353.31643 185.720004,330.08906 C244.598862,313.329714 287.683254,287.693815 293.014449,243.370401 C301.474774,240.329266 329.744879,226.443633 303.699236,182.703994 C308.70036,142.642746 282.310816,93.6891555 234.315252,61.2611562 C208.228488,44.2979182 172.21768,30.3506035 138.826636,30.9829646 Z" id="path3474" fill="#009BFF" transform="translate(175.059336, 185.335177) rotate(15.009733) translate(-175.059336, -185.335177) "></path>
                    <g id="g3488" transform="translate(261.133890, 200.233407)">
                        <path d="M2.70176689,2.76866514 C2.70176689,2.76866514 17.1038084,8.5292972 22.958098,23.0374532" id="path3484" fill="#009BFF"></path>
                        <path d="M2.65147785,0.15178984 L3.67340641,0.338643595 C4.49233336,0.666675743 5.84413954,1.30982175 7.55350537,2.2953023 C10.374305,3.92254475 13.1918751,5.94517898 15.8272051,8.39642342 C19.959672,12.2400744 23.2542958,16.7790058 25.38489,22.0584318 C25.9256125,23.3987038 25.2773914,24.9235227 23.9375808,25.4637838 C22.5973088,26.0049676 21.0724899,25.3567466 20.5317674,24.0164746 C18.7070598,19.4950751 15.862269,15.5762213 12.2626814,12.2285402 C9.93554472,10.0638048 7.43585671,8.26862468 4.93893691,6.82869735 C4.07018229,6.32765247 3.26694182,5.90826959 2.55228388,5.5682419 C2.13843742,5.37123806 1.85700337,5.24897573 1.72966599,5.19776396 C0.388009896,4.66119379 -0.264363461,3.13822035 0.272206705,1.79656425 C1.2004777,0.377859816 0.522729147,1.06345162 2.65147785,0.15178984 Z" id="path3486" fill="#66C3FF"></path>
                    </g>
                    <g id="g3494" transform="translate(211.767589, 135.641985)">
                        <path d="M3.0542515,2.6394823 C3.0542515,2.6394823 46.5408874,5.44782503 72.3243987,63.7752627" id="path3490" fill="#009BFF"></path>
                        <path d="M3.22265056,0.0281434051 C4.01897052,0.0798165422 5.41829753,0.256520217 7.33435591,0.633457298 C10.473499,1.25168947 13.9563607,2.2205608 17.6966654,3.61665823 C28.3288747,7.58533972 38.9417066,14.1672056 48.8232714,23.9560355 C58.9096832,33.9474056 67.6668959,46.7669573 74.7175109,62.7173475 C75.3020632,64.0391648 74.7041312,65.5842839 73.3823139,66.1683749 C72.060958,66.7529272 70.5158389,66.1549952 69.9312865,64.8331779 C63.1422668,49.474722 54.7573775,37.2000451 45.1406376,27.6737332 C35.8039476,18.4251643 25.8254958,12.2368448 15.8664213,8.51960849 C12.4001688,7.22593459 9.19089791,6.33272751 6.32350016,5.76801394 C5.33248321,5.57331694 4.45865355,5.43306128 3.71262263,5.33894235 C3.28401241,5.28450101 3.00442383,5.25820307 2.88539107,5.25035983 C1.4431569,5.15716364 0.34971641,3.91285604 0.442912604,2.47062187 C0.536108798,1.0283877 1.7804164,-0.0650527888 3.22265056,0.0281434051 Z" id="path3492" fill="#66C3FF"></path>
                    </g>
                    <path d="M161.236336,73.1627031 C161.236336,73.1627031 255.147649,77.0764819 286.837123,170.292053" id="path3496" fill="#009BFF"></path>
                    <path d="M161.345219,70.548596 C161.644646,70.5610529 162.19275,70.5942713 162.973384,70.6574787 C164.255985,70.7612863 165.737897,70.9130762 167.40251,71.1225369 C172.138445,71.7181621 177.40726,72.6533536 183.076541,74.0019302 C199.265919,77.8525017 215.45622,84.2447455 230.582147,93.7775166 C257.313307,110.624805 277.744035,135.415454 289.314204,169.450058 C289.779724,170.818473 289.047534,172.304537 287.679118,172.769595 C286.311164,173.234654 284.824639,172.502925 284.359581,171.13451 C273.188494,138.274547 253.539323,114.432008 227.791798,98.2047972 C213.189062,89.0019037 197.527487,82.8181979 181.865452,79.0926569 C176.386715,77.7897557 171.303832,76.8877826 166.749214,76.3147645 C165.163033,76.1154538 163.758169,75.9710458 162.551694,75.8736973 C161.839804,75.8160264 161.359521,75.7869603 161.127453,75.7772716 C159.683835,75.7172938 158.56179,74.4979 158.622229,73.0538204 C158.682206,71.6102021 159.9016,70.4881569 161.345219,70.548596 Z" id="path3498" fill="#66C3FF"></path>
                    <path d="M103.662772,260.74265 L104.571666,261.246463 C104.831416,261.467458 105.371215,261.905757 106.182299,262.530448 C107.553021,263.586057 109.175189,264.766234 111.039113,266.040069 C116.384514,269.693176 122.5816,273.350896 129.551937,276.766398 C163.484579,293.394075 201.75961,298.290566 242.242744,284.371576 C243.609314,283.901904 245.098147,284.629019 245.56828,285.995589 C246.037952,287.362159 245.310837,288.850991 243.944267,289.320663 C202.014284,303.737007 162.34131,298.661505 127.249253,281.465885 C120.043618,277.935041 113.631535,274.150445 108.086362,270.360774 C106.138931,269.030191 104.436485,267.79142 102.989176,266.676295 C102.108887,265.998546 101.502651,265.506729 101.179232,265.231293 C100.078871,264.294717 99.9464587,262.643022 100.883034,261.542661 C102.215924,260.494896 101.355013,260.92812 103.663234,260.74265 L103.662772,260.74265 Z" id="path3500" fill="#66C3FF"></path>
                    <path d="M37.6794057,260.681288 C39.960867,261.077141 39.1428628,260.566408 40.3742521,261.732283 C40.4277707,261.808409 40.5523399,261.979115 40.7488823,262.237942 C41.0875259,262.684545 41.4986042,263.206813 41.9835012,263.798747 C43.383751,265.50719 45.0852735,267.417712 47.0926827,269.480947 C52.8542374,275.401673 59.9007002,281.331627 68.2699029,286.871264 C103.122511,309.938706 148.846778,319.24633 206.42311,306.799563 C207.835355,306.494138 209.228223,307.391497 209.533187,308.804204 C209.838612,310.216449 208.941253,311.609317 207.528546,311.914281 C148.545967,324.66555 101.387309,315.065881 65.3817436,291.235337 C56.6881997,285.481165 49.3561506,279.310838 43.3422279,273.130823 C41.2287043,270.958706 39.4284491,268.936995 37.9359259,267.115978 C37.0274937,266.006851 36.4157207,265.19992 36.0955318,264.745473 C35.2636865,263.563911 35.5469661,261.931594 36.7280663,261.099748 L37.6794057,260.681288 Z" id="path3502" fill="#66C3FF"></path>
                    <g id="g3508" transform="translate(178.549144, 257.904319)">
                        <path d="M2.92829823,2.762206 C2.92829823,2.762206 36.2726968,21.3825287 78.8236798,8.61511152" id="path3504" fill="#009BFF"></path>
                        <path d="M3.21434595,0.160555819 L4.20351744,0.477515152 C4.31747516,0.541183838 4.56984307,0.675441722 4.95646886,0.871061455 C5.6189923,1.20601411 6.40562354,1.58202846 7.31174891,1.98895441 C9.92124234,3.16082735 12.9487345,4.33639122 16.3545479,5.43536812 C35.0514576,11.4686682 56.1110292,12.6982121 78.0716511,6.10896437 C79.455753,5.6937338 80.9145964,6.47898094 81.329827,7.86308283 C81.7450575,9.24718472 80.9598104,10.7060281 79.5757085,11.1212587 C56.5031914,18.044075 34.3861659,16.7527079 14.7471443,10.4153667 C11.1535544,9.2559507 7.94751304,8.01118173 5.16777508,6.76272183 C3.47963215,6.00469536 2.29484093,5.40584061 1.65261765,5.04689685 C0.3907781,4.34238899 -0.0609004831,2.74836498 0.643607378,1.48652543 C1.74673658,0.199310672 0.986403279,0.79170628 3.21434595,0.160555819 Z" id="path3506" fill="#66C3FF"></path>
                    </g>
                    <path d="M152.741641,182.774345 C154.28676,183.13698 153.531502,182.97827 155.006493,183.256013 L156.143302,184.322233 C157.400067,186.088347 156.986682,188.53913 155.220106,189.795433 C153.453992,191.052197 151.003209,190.638812 149.746906,188.872237 C148.490142,187.106123 148.903527,184.65534 150.670102,183.399037 C151.454426,183.033172 151.863659,182.732361 152.741641,182.774345 Z M163.300954,186.310726 C161.558832,186.57555 160.361583,186.598157 159.389021,188.187568 C158.27851,190.049185 158.887054,192.458445 160.748209,193.569417 C166.679086,197.109027 170.865994,203.046824 172.206727,209.822464 C172.627494,211.948906 174.692113,213.331624 176.818555,212.910857 C178.944997,212.490551 180.328176,210.425471 179.906948,208.29903 C178.134836,199.341122 172.611347,191.507567 164.770871,186.82838 L163.300954,186.310726 Z" id="path3510" fill="#FFFDF2"></path>
                </g>
            </g>
        </g>
    </g>
</svg>