<?xml version="1.0" encoding="UTF-8"?>
<svg width="1920px" height="785px" viewBox="0 0 1920 785" version="1.1" xmlns="http://www.w3.org/2000/svg" xmlns:xlink="http://www.w3.org/1999/xlink">
    <!-- Generator: Sketch 49.2 (51160) - http://www.bohemiancoding.com/sketch -->
    <title>path5984</title>
    <desc>Created with Sketch.</desc>
    <defs></defs>
    <g id="Page-1" stroke="none" stroke-width="1" fill="none" fill-rule="evenodd">
        <path d="M1920.1,0.16835255 C1888.8,2.26835255 1857.6,5.76835255 1834.3,15.5683525 C1792.7,32.9683525 1757.2,89.8683525 1710.5,95.8683525 C1645.1,104.368353 1555.1,73.3683525 1495.2,102.468353 C1449.8,124.468353 1443.7,161.768353 1412.1,189.368353 C1394.5,204.768353 1097,332.968353 1069.6,336.868353 C1047.7,339.968353 1002.1,341.568353 981.39998,336.868353 C941.59998,327.768353 922.39998,292.868353 886.49998,278.968353 C826.09998,255.468353 749.99998,265.468353 693.19998,243.368353 C653.39998,227.868353 669.09998,181.768353 581.3,159.068353 C464.8,128.868353 284.2,182.068353 181.2,135.368353 C161.6,126.468353 72.4,106.168353 0,95.4683525 L0,716.268353 L1920,784.168353 L1920,0.16835255 L1920.1,0.16835255 Z" id="path5984" fill="#4C1889" fill-rule="nonzero"></path>
    </g>
</svg>