<?xml version="1.0" encoding="UTF-8"?>
<svg width="387px" height="140px" viewBox="0 0 387 140" version="1.1" xmlns="http://www.w3.org/2000/svg" xmlns:xlink="http://www.w3.org/1999/xlink">
    <!-- Generator: Sketch 49.2 (51160) - http://www.bohemiancoding.com/sketch -->
    <title>path6917</title>
    <desc>Created with Sketch.</desc>
    <defs></defs>
    <g id="Page-1" stroke="none" stroke-width="1" fill="none" fill-rule="evenodd">
        <path d="M168.8207,0.42135255 C165.621223,0.575420391 162.834181,2.65287301 161.772559,5.67501652 C160.710937,8.69716003 161.586481,12.0612099 163.98672,14.1823525 C182.20391,30.7453525 208.93565,34.1813525 235.71133,38.3583525 C237.46336,51.5773525 234.74825,61.5503525 229.10586,70.1713525 C222.81796,79.7783525 212.3775,87.7453525 199.41445,94.3133525 C199.30701,94.3733525 199.19604,94.4193525 199.08828,94.4733525 C194.0107,85.7653525 186.8437,79.6753525 179.37344,75.2313525 C183.39497,63.9253525 183.72108,52.6413525 182.04141,40.0443525 C181.553923,35.9414015 177.977125,32.9136546 173.85,33.1103526 C171.629279,33.2162373 169.556892,34.2562688 168.14483,35.9735028 C166.732768,37.6907368 166.112727,39.9250161 166.43789,42.1243526 C167.83535,52.6043525 167.73431,60.2063526 165.1957,68.1143526 C157.074,64.4373526 149.34919,61.1703526 143.26211,56.6043525 C141.793446,55.4703773 139.971409,54.8916641 138.11758,54.9703525 C134.774253,55.1129425 131.886524,57.3537464 130.918142,60.5569331 C129.94976,63.7601199 131.112426,67.2254318 133.8168,69.1963525 C145.62885,78.0553525 158.85521,81.9923525 169.00234,87.4363525 C175.69387,91.0273525 181.00816,94.7393525 184.78555,100.778353 C162.69445,109.395353 137.07709,115.077353 115.93594,120.634353 C108.00011,116.556353 102.01161,111.685353 97.20156,106.169353 C100.80947,103.326353 104.11726,100.426353 107.08828,96.9483525 C112.01296,91.1833525 115.59406,83.8823525 117.49844,74.3603525 C118.002689,72.0119739 117.407154,69.5618736 115.88123,67.7069598 C114.355306,65.8520461 112.065988,64.7953182 109.66445,64.8373526 C105.922583,64.9031897 102.744393,67.5944809 102.06289,71.2743525 C100.56015,78.7883525 98.4064,82.8733525 95.11758,86.7233525 C93.32607,88.8213525 91.02176,90.8833525 88.25625,93.1163525 C85.05476,87.2953525 82.34655,81.0373525 79.5668,74.4283525 C79.07165,73.2513525 78.55844,72.0373525 78.05703,70.8413525 C78.99067,68.3613525 80.4866,66.6223525 82.56094,64.9093525 C85.89536,62.1553525 91.18481,59.8963525 97.48086,57.9663525 C110.07295,54.1053525 126.59621,52.3373525 137.42227,40.4283525 C139.541842,38.1616638 140.131852,34.8611919 138.928869,32.0005459 C137.725886,29.1399 134.954444,27.2530138 131.85195,27.1823526 C129.533432,27.1294184 127.309551,28.1015696 125.77383,29.8393526 C123.0559,32.8283526 117.96371,35.0903526 111.72305,37.1963526 C109.26969,31.6543526 108.10099,26.6933525 106.08828,21.2983526 C103.59323,14.6093526 98.82621,7.32835255 89.71328,2.42135255 C88.561148,1.77983297 87.2663113,1.43803861 85.94766,1.42735255 C82.3095149,1.39811212 79.1253453,3.8659703 78.246076,7.39638677 C77.3668067,10.9268032 79.0215579,14.5998208 82.24844,16.2803525 C88.36143,19.5723525 89.48723,21.8403525 91.33828,26.8023526 C92.70162,30.4563526 93.96042,35.6303525 96.54727,41.8153526 C95.32451,42.1773526 94.10296,42.5363526 92.86758,42.9153526 C85.81433,45.0773526 78.61908,47.7473526 72.53555,52.7723526 C71.90535,53.2933526 71.29738,53.8513526 70.70352,54.4303526 C63.91869,40.8373526 54.71897,27.4793526 38.53945,17.5223526 C37.2006204,16.6721772 35.6362047,16.2462421 34.05117,16.3003526 C30.5610565,16.4199959 27.5669886,18.8247828 26.6972457,22.2069055 C25.8275029,25.5890282 27.2900286,29.1398677 30.28945,30.9283526 C44.12952,39.4463526 51.56993,50.7293526 57.67812,63.5793526 C48.39862,62.4053526 40.82991,61.0733526 34.84219,58.9283526 C26.39754,55.9063526 20.8008,51.7923526 15.33438,42.9093526 C13.9624244,40.6068384 11.5131598,39.1606419 8.83438,39.0713526 C5.91716809,38.9742696 3.18572673,40.499358 1.73776776,43.0337149 C0.289808783,45.5680719 0.363074162,48.6955786 1.92812,51.1593526 C8.98827,62.6313526 18.45677,69.7823526 29.53555,73.7493526 C39.11817,77.1793526 49.8559,78.6123526 62.38906,79.9913526 C63.2745392,81.4539255 64.6121356,82.5884367 66.19961,83.2233526 C69.2615,90.3923526 72.66917,97.7633526 77.05312,104.846353 C76.6744556,108.684757 79.1328021,112.232153 82.85977,113.225353 C88.92946,120.981353 96.66025,128.074353 107.05117,133.735353 C108.955347,136.60168 112.500676,137.898894 115.80508,136.938353 C136.97245,131.203353 165.29864,125.434353 190.81484,115.354353 C192.260964,117.246998 194.486301,118.38306 196.867401,118.444259 C199.248501,118.505458 201.52926,117.485212 203.0707,115.669353 C220.36081,117.774353 233.35897,114.447353 244.20938,109.563353 C252.48765,105.838353 259.53871,101.587353 267.33242,98.0593526 C265.20584,103.484353 263.0845,107.970353 260.42227,111.593353 C256.67998,116.684353 251.93029,120.570353 242.8832,123.952353 C240.219796,124.915657 238.279228,127.235532 237.80159,130.027223 C237.323952,132.818914 238.382888,135.651982 240.574542,137.445952 C242.766196,139.239922 245.752647,139.71819 248.39492,138.698353 C259.6752,134.482353 267.63946,128.352353 273.10586,120.915353 C278.57226,113.477353 281.60213,105.198353 284.78359,96.2903526 C284.947685,95.8454053 285.071234,95.3865392 285.15273,94.9193526 C300.81386,96.1023526 311.19919,89.9123526 317.86953,85.0403526 C321.84768,82.1343526 324.69226,80.1333526 327.27969,79.3843526 C329.86712,78.6343526 332.7531,78.4833526 338.72891,81.0443526 C341.32174,82.1973049 344.334432,81.8655108 346.614208,80.1759281 C348.893984,78.4863454 350.087944,75.7005133 349.739232,72.8844049 C349.39052,70.0682965 347.553114,67.6578316 344.93008,66.5753526 C336.63378,63.0193526 329.10269,62.4673526 322.89883,64.2643526 C316.69497,66.0623526 312.37621,69.5583526 308.58438,72.3273526 C301.42667,77.5543526 296.68179,81.6473526 281.86367,78.5913526 C281.765705,78.5422917 281.666727,78.4952814 281.5668,78.4503526 C274.25547,70.1183526 273.98954,65.7443526 272.28164,52.9343526 C271.792708,48.8326003 268.216328,45.8065168 264.09023,46.0033526 C261.870116,46.1093329 259.798277,47.1489498 258.386316,48.865489 C256.974356,50.5820282 256.353886,52.8154866 256.67812,55.0143526 C258.03459,65.1883526 259.43969,73.5393526 264.63125,82.0343526 C254.03418,86.3223526 245.79755,91.5863526 237.75039,95.2083526 C232.20772,97.7023526 226.7521,99.6313526 220.20352,100.386353 C228.98275,94.4673526 236.6285,87.4233526 242.27773,78.7923526 C249.89518,67.1533526 253.43581,52.6553526 251.2543,35.9973526 C257.81808,34.6963526 263.07509,36.0273526 268.93203,38.4623526 C276.83767,41.7453526 285.10695,47.7393526 295.54922,51.4683526 C298.2071,52.4533648 301.18932,51.9333179 303.356922,50.1068257 C305.524525,48.2803335 306.542738,45.4294873 306.022689,42.6430692 C305.502641,39.8566512 303.524649,37.5650076 300.84414,36.6433526 C293.28906,33.9453526 285.14839,28.1523526 274.96914,23.9253526 C265.36383,19.9353526 253.27376,18.0753526 239.9418,23.0613526 C212.45868,18.6683526 187.84066,14.5943526 174.57461,2.53435255 C173.02124,1.08079221 170.94567,0.317862058 168.8207,0.41935255 L168.8207,0.42135255 Z M357.74453,47.0563525 C353.959212,46.9847341 350.659116,49.6179691 349.88868,53.3247455 C349.118244,57.0315219 351.095739,60.7616792 354.59609,62.2043525 C364.30376,66.3643525 368.28497,70.5333525 369.71328,73.7553525 C371.1416,76.9763525 370.8862,80.5463525 368.57266,85.9193525 C366.11828,91.6183525 361.22633,98.4073525 355.65273,105.667353 C355.15609,104.341353 354.58476,103.050353 353.85781,101.833353 C349.10805,93.8793525 341.01034,90.2363525 332.57656,87.2233525 C329.916177,86.2283634 326.926086,86.7437687 324.752348,88.5720206 C322.57861,90.4002726 321.558388,93.2577953 322.082721,96.0493393 C322.607053,98.8408833 324.59461,101.133459 327.28359,102.048353 C334.69133,104.693353 338.75768,107.247353 340.34414,109.903353 C341.9306,112.560353 342.69646,117.317353 339.29336,127.932353 C338.110916,131.62988 339.800622,135.637382 343.27348,137.372068 C346.746338,139.106755 350.965317,138.050629 353.21133,134.884353 C362.6608,121.540353 376.4343,107.466353 383.03164,92.1453525 C386.33031,84.4853525 387.76225,75.6253525 384.10391,67.3743525 C380.44556,59.1233525 372.56639,52.7793525 360.79727,47.7353525 C359.835344,47.3071248 358.797281,47.0762355 357.74453,47.0563525 Z" id="path6917" fill="#741993" fill-rule="nonzero"></path>
    </g>
</svg>