<?xml version="1.0" encoding="UTF-8"?>
<svg width="1921px" height="617px" viewBox="0 0 1921 617" version="1.1" xmlns="http://www.w3.org/2000/svg" xmlns:xlink="http://www.w3.org/1999/xlink">
    <!-- Generator: Sketch 49.2 (51160) - http://www.bohemiancoding.com/sketch -->
    <title>path5986</title>
    <desc>Created with Sketch.</desc>
    <defs></defs>
    <g id="Page-1" stroke="none" stroke-width="1" fill="none" fill-rule="evenodd">
        <path d="M1920.1,616.968353 L1920.1,22.9683526 C1861.4,22.5683526 1795.2,9.56835255 1743.3,24.0683526 C1683.3,40.8683525 1711.1,66.9683526 1561.3,79.9683526 C1477,87.3683525 1404.6,91.2683525 1321.1,101.868353 C1239.6,112.168353 1155.3,142.568353 1075.2,153.668353 C960.39998,169.668353 801.19998,148.368353 700.19998,109.168353 C652.79998,90.7683525 635.19998,77.8683525 581.1,69.8683525 C508.3,58.9683526 432.8,68.5683526 374.3,48.1683525 C318.3,28.6683525 263.5,-6.03164745 182.6,0.96835255 C100.1,8.26835255 55.6,31.8683525 0.1,52.8683525 L0.1,616.968353 L1920.1,616.968353 Z" id="path5986" fill="#881DAC" fill-rule="nonzero"></path>
    </g>
</svg>