<?xml version="1.0" encoding="UTF-8"?>
<svg width="354px" height="237px" viewBox="0 0 354 237" version="1.1" xmlns="http://www.w3.org/2000/svg" xmlns:xlink="http://www.w3.org/1999/xlink">
    <!-- Generator: Sketch 49.2 (51160) - http://www.bohemiancoding.com/sketch -->
    <title>path6743</title>
    <desc>Created with Sketch.</desc>
    <defs></defs>
    <g id="Page-1" stroke="none" stroke-width="1" fill="none" fill-rule="evenodd">
        <path d="M323.3891,0.06365255 C319.823643,0.0461627548 316.593402,2.16272055 315.1859,5.43865255 C310.427,16.0983525 305.4573,21.2779525 298.8695,24.9933525 C293.5058,28.0183525 286.5784,29.9687525 277.7816,31.6691526 C273.9985,28.9753526 270.0321,26.5271526 265.85,24.3878525 C252.8538,17.7398526 237.9678,14.1494525 221.3402,14.4210525 C211.3637,14.5840526 200.7587,16.1366525 189.5609,19.2531525 C186.504198,20.1040516 184.133652,22.5210671 183.342245,25.5937096 C182.550839,28.6663522 183.45881,31.9278002 185.724125,34.1494668 C187.98944,36.3711333 191.267935,37.2154842 194.3246,36.3644525 C220.7678,29.0048525 240.9779,31.6126525 257.7621,40.1984525 C258.6787,40.6672525 259.5812,41.1639525 260.4789,41.6710525 C257.6741,44.8705525 255.1595,48.2209525 252.973,51.7531525 C246.971,47.4307525 240.8313,43.7606525 234.1664,41.2785525 C229.5742,39.5682525 224.7048,38.4899525 219.6586,38.2081525 C214.6123,37.9264525 209.3881,38.4407525 204.0902,39.9152525 C200.994053,40.7315789 198.577056,43.1513754 197.764313,46.2484647 C196.951571,49.3455541 197.868935,52.6403583 200.165285,54.8717909 C202.461634,57.1032235 205.781384,57.9257516 208.8539,57.0245525 C215.9437,55.0514525 221.6424,55.5655525 227.9672,57.9210525 C233.3788,59.9365525 239.167,63.5245525 245.4477,68.2843525 C243.6725,73.9989525 242.5391,80.0930525 242.0648,86.6046525 C240.790621,88.8043639 240.520174,91.4446469 241.321933,93.8569992 C242.123692,96.2693516 243.920785,98.2224754 246.2582,99.2218526 C247.915211,100.180222 249.837524,100.577557 251.7387,100.354653 C258.7004,101.626653 262.1671,103.716053 264.9457,106.352753 C268.1011,109.346853 270.5816,113.886153 274.0727,120.049953 C275.619751,122.842842 278.546919,124.59036 281.73945,124.626999 C284.931981,124.663638 287.898483,122.983759 289.509224,120.22711 C291.119964,117.470461 291.127018,114.061344 289.5277,111.298053 C286.2513,105.513153 283.1135,99.1093526 277.1703,93.4699526 C272.8926,89.4107526 267.2566,86.1912526 260.0941,84.1320526 C261.5778,70.8066526 266.2521,61.2733526 274.9574,52.1242526 C284.1705,60.3466526 292.206,70.7652526 299.2152,82.6945526 C308.9752,99.3051526 316.5483,118.564553 322.6508,138.046053 C317.475,143.934653 313.9155,145.971453 309.4262,147.048053 C304.2955,148.278353 296.6099,147.815753 284.5453,146.727753 C281.355551,146.386565 278.229729,147.792113 276.36815,150.404666 C274.506572,153.01722 274.198625,156.430649 275.562562,159.334196 C276.926498,162.237743 279.75029,164.180043 282.9496,164.415253 C295.02,165.503753 304.2426,166.553853 313.5668,164.317253 C318.7664,163.070453 323.5803,160.660153 328.1781,157.096553 C332.0956,171.677353 335.3084,185.942753 338.0844,198.852453 C325.7222,198.877453 314.2445,194.993253 302.6977,188.448153 C290.9594,181.794453 279.4177,172.401953 267.8969,162.360253 C267.180223,161.429436 266.285993,160.650057 265.266,160.067253 C263.4992,158.513353 261.7324,156.947953 259.9652,155.377853 C245.8005,142.792253 231.633,129.924653 216.1254,120.883653 C209.4054,116.965953 202.3013,113.783653 194.891,111.803553 C196.8349,105.996853 199.5643,103.096253 203.0219,100.684453 C207.7951,97.3548526 215.1808,95.3223526 224.2016,92.2410526 C228.309032,90.9006339 230.855775,86.7986537 230.235224,82.522834 C229.614673,78.2470144 226.006918,75.0382382 221.6879,74.9207526 C220.589853,74.890968 219.495809,75.0651484 218.4613,75.4344526 C210.3515,78.2045526 201.2982,80.2331526 192.8617,86.1180526 C185.9563,90.9350526 180.4414,98.7810526 177.3422,109.604353 C173.1005,109.685353 168.7884,110.207853 164.4125,111.284053 C153.8087,113.891953 142.2118,118.074053 130.4789,122.184453 C136.2348,112.577653 141.5599,102.778153 146.6547,93.0653526 C148.172839,90.2687666 148.07872,86.8736709 146.407978,84.165487 C144.737237,81.457303 141.745243,79.8499739 138.5648,79.9520526 C135.321289,80.0557833 132.39261,81.9203975 130.9262,84.8153526 C122.6017,100.685553 113.8722,116.394753 103.9047,130.672753 C98.0343,132.230753 92.2854,133.459253 86.7855,134.098553 C80.1117,134.874253 73.9756,134.846553 68.3949,133.811453 C77.8278,122.011053 84.2719,108.358253 82.1,90.4266526 C81.6047606,85.7923274 77.6112622,82.3292724 72.9535,82.4950526 C70.4467721,82.5843003 68.0946823,83.7294271 66.4783363,85.6475187 C64.8619903,87.5656104 64.1321394,90.0777726 64.4691,92.5633526 C66.2514,107.277753 61.4147,115.731253 51.7582,126.196153 C44.91,120.531053 38.9133,111.285453 34.6039,95.8016526 C33.7865561,92.7066507 31.3668353,90.2910104 28.2704583,89.4788912 C25.1740814,88.6667721 21.8802512,89.5838597 19.6490995,91.8793008 C17.4179477,94.1747419 16.594773,97.4932882 17.4945,100.565353 C22.4202,118.263253 30.1727,131.125053 40.0883,139.557553 C37.1787,142.377653 34.5176,143.568353 31.3188,144.416853 C26.3292,145.740353 19.122,145.561653 9.2406,145.938353 C6.04981708,146.031082 3.15426427,147.829116 1.65628573,150.647937 C0.158307198,153.466759 0.288378961,156.87267 1.99698238,159.569032 C3.70558579,162.265394 6.72983852,163.83735 9.9184,163.686453 C18.9736,163.341253 27.1342,163.901053 35.8734,161.582853 C42.8558,159.730853 49.6075,155.528453 55.6215,148.645353 C66.1948,152.566953 77.6249,153.044353 88.8363,151.741053 C90.8946,151.501853 92.9564,151.199553 95.0199,150.854353 C93.3623,156.371953 91.7456,160.630053 89.9164,163.911053 C86.8774,169.361753 83.4552,172.752653 76.1957,176.864153 C73.3791288,178.398874 71.6089959,181.333121 71.5648903,184.540378 C71.5207847,187.747635 73.2095611,190.729448 75.9828647,192.341041 C78.7561684,193.952633 82.1829881,193.94354 84.9477,192.317253 C94.111,187.127453 100.8643,180.745053 105.4281,172.559453 C109.5098,165.238653 112.0055,156.911553 114.7074,146.272353 C131.6836,141.390953 147.8982,134.748753 161.2504,130.618053 C160.8084,131.698153 160.4531,132.783853 160.1645,133.866053 C144.8813,141.973353 137.4742,148.006053 122.0336,148.594653 C118.841449,148.685425 115.943813,150.483073 114.444621,153.302735 C112.94543,156.122397 113.075543,159.529874 114.785391,162.227 C116.495238,164.924126 119.521522,166.495571 122.7113,166.342653 C139.186,165.714653 149.7367,160.004153 161.0785,153.657153 C163.2334,162.015553 165.8991,168.768253 164.5004,177.664953 C163.963085,180.819453 165.16435,184.019101 167.644916,186.040579 C170.125481,188.062058 173.501743,188.592756 176.482859,187.429774 C179.463975,186.266792 181.588933,183.589977 182.0453,180.422753 C184.617,164.064653 178.6262,152.009753 177.2855,144.926653 C177.1197,144.050453 176.9997,143.276153 176.9281,142.565353 C177.447237,141.155969 177.600446,139.637946 177.3734,138.153253 C177.5142,137.748453 177.6743,137.338553 177.8793,136.907153 C178.911,134.736153 181.2668,131.718053 186.2309,127.938353 C193.1394,129.161053 199.9908,132.034153 207.1801,136.225453 C219.5334,143.427553 232.2932,154.575053 245.5648,166.356353 C241.1685,170.192053 237.8712,174.879053 235.432,179.516453 C232.859,184.408453 230.978,189.232353 229.2582,193.803553 C223.6166,191.335753 218.0714,190.086453 212.7621,190.268453 C204.4294,190.554053 197.3266,193.529353 190.3461,196.655153 C187.403422,197.921657 185.370952,200.67488 185.027338,203.860051 C184.683723,207.045222 186.082231,210.168578 188.687087,212.033548 C191.291942,213.898517 194.699343,214.215994 197.6039,212.864353 C204.1505,209.933353 209.0967,208.164953 213.3695,208.018453 C217.6423,207.871953 221.9225,208.897553 228.6859,213.700353 C230.855205,215.240589 233.600769,215.727142 236.167251,215.026153 C238.733733,214.325165 240.850756,212.510483 241.9359,210.081353 C245.5138,202.066553 247.9363,193.895653 251.1508,187.784053 C252.398,185.412853 253.6831,183.520453 255.0766,181.860253 C258.9888,197.043053 262.582,207.426353 259.7055,225.723353 C259.168632,228.877634 260.370032,232.07686 262.850442,234.098069 C265.330852,236.119278 268.706765,236.64996 271.687676,235.487253 C274.668587,234.324546 276.793604,231.648221 277.2504,228.481353 C279.599,213.542353 278.2719,202.427753 275.9203,191.955953 C281.7125,196.305453 287.6982,200.359353 293.9398,203.897353 C310.6303,213.358353 329.5806,219.058353 350.3793,215.665353 C351.330813,215.504566 352.249759,215.189772 353.1,214.733353 L353.1,183.977453 C350.4081,171.836453 347.278,158.722853 343.473,145.305553 C346.8599,143.037453 350.0498,140.745153 353.1,137.637553 L353.1,104.330953 C350.638561,105.386416 348.784878,107.496312 348.0551,110.073153 C345.5255,118.578753 343.3379,122.154853 340.6742,124.950053 C339.9093,125.752753 339.0139,126.532453 337.9965,127.334853 C334.8939,117.923853 331.4051,108.534253 327.4516,99.3973526 C329.073452,98.896617 330.517834,97.9415845 331.6137,96.6453526 C338.1317,89.1599526 341.7873,86.4998526 345.6312,85.8524526 C346.1119,85.7714526 346.6371,85.7222526 347.2133,85.7078526 C348.7628,85.6698526 350.7144,85.9168526 353.1,86.4891526 L353.1,68.3270526 C349.529,67.8018526 346.0952,67.7658526 342.682,68.3410526 C333.4492,69.8959526 326.5716,75.7009526 319.7875,83.2355526 C318.1042,79.9995526 316.3573,76.8121526 314.5277,73.6984526 C308.6225,63.6482526 301.8802,54.2624526 294.1391,46.0363526 C298.8475,44.6261526 303.3337,42.8649526 307.5941,40.4621526 C317.4477,34.9047526 325.5164,25.8682526 331.4047,12.6788526 C332.676147,9.93551122 332.464457,6.73375895 330.842895,4.18169416 C329.221333,1.62962937 326.412723,0.0779401513 323.3891,0.06365255 Z" id="path6743" fill="#3D146F" fill-rule="nonzero"></path>
    </g>
</svg>