<?xml version="1.0" encoding="UTF-8"?>
<svg width="144px" height="146px" viewBox="0 0 144 146" version="1.1" xmlns="http://www.w3.org/2000/svg" xmlns:xlink="http://www.w3.org/1999/xlink">
    <!-- Generator: Sketch 49.2 (51160) - http://www.bohemiancoding.com/sketch -->
    <title>path6862</title>
    <desc>Created with Sketch.</desc>
    <defs></defs>
    <g id="Page-1" stroke="none" stroke-width="1" fill="none" fill-rule="evenodd">
        <path d="M76.498438,0.47965255 C74.7813367,0.553407632 73.2012199,1.43796893 72.2406744,2.8631808 C71.2801288,4.28839267 71.0532379,6.08498338 71.629297,7.70425255 C72.838118,11.2590525 73.538205,14.1669525 75.812891,17.1007525 C76.924501,18.5344525 78.290721,19.6957525 79.918359,20.7042525 C77.3124,24.6172525 75.659705,28.6259525 74.371484,32.3800525 C72.429274,38.0399526 71.120277,43.1203525 68.580469,47.7628525 C68.2459481,48.1840715 67.9760578,48.6527846 67.779688,49.1535525 C61.931187,58.9709525 53.516933,67.3756526 44.504297,75.5675526 C44.23762,75.7663455 43.9898275,75.9892879 43.764062,76.2335525 C41.567617,78.2207525 39.349015,80.2047525 37.117578,82.1886525 C34.161002,76.1382525 30.38518,71.8432525 26.250391,68.8097525 C29.543811,63.6262525 35.224061,59.9057525 41.432031,55.6359525 C45.056539,53.1429525 48.794012,50.4770525 51.920312,46.8703525 C54.238014,44.1963525 56.161092,40.9047525 57.191797,37.0831525 C60.411822,36.2166525 63.002095,34.9875525 65.086328,33.1964525 C68.126262,30.5842525 69.498855,27.5283525 71.004297,24.6124525 C71.9187637,22.9013792 71.8478917,20.8318162 70.8185133,19.1873097 C69.7891349,17.5428033 67.9585864,16.5747092 66.019922,16.6495525 C64.0423602,16.7255176 62.2637693,17.8743025 61.38125,19.6456525 C59.815031,22.6792525 58.981112,24.1660525 58.029688,24.9835525 C57.237076,25.6647525 55.903596,26.3856525 52.830469,26.9972525 C50.154031,26.4640525 47.538842,26.1623525 44.998438,26.0324525 C36.567371,25.6008525 28.912415,26.9266525 22.215234,26.9308525 C20.2607631,26.9016704 18.4422825,27.9281505 17.4573365,29.616549 C16.4723905,31.3049475 16.4738948,33.3931358 17.4612722,35.0801136 C18.4486496,36.7670913 20.2686071,37.7909504 22.223034,37.7589525 C30.543666,37.7489525 38.21203,36.5881525 45.558971,37.0421525 C45.045108,37.9728525 44.513464,38.8823525 43.736706,39.7785525 C41.733184,42.0899525 38.754288,44.3349525 35.295299,46.7140525 C29.183102,50.9181525 21.381565,55.5983525 16.572643,63.8566525 C11.202855,61.9441525 5.9801199,60.8880525 1.03553388,59.1691525 C2.2740521,56.0439525 2.7769835,52.8282525 2.8636589,49.7902525 C2.9974867,45.0994525 2.3539698,40.6645525 2.0726432,36.2628525 C1.9945181,34.7405284 1.27834504,33.3216466 0.1,32.3546525 L0.1,70.3449525 C5.8627224,72.1948525 11.095603,73.2095525 15.248438,74.9445525 C20.96456,77.3325525 25.219467,80.3698525 28.674219,89.8019525 C21.172208,96.7430525 14.008546,104.209753 8.7074219,112.864453 C5.9687801,110.762153 3.0635414,108.805253 0.1,106.907453 L0.1,119.942353 C1.3899666,120.849353 2.6381553,121.758353 3.7816406,122.675353 C1.7750225,127.813353 0.47272221,133.367353 0.1,139.436353 L0.1,141.386353 C0.527702535,144.143847 2.98096107,146.124733 5.76667336,145.961914 C8.55238564,145.799095 10.7581708,143.545897 10.861719,140.757353 C11.101519,135.673353 12.124054,131.036353 13.781641,126.708353 C20.088509,127.633353 26.16564,129.406353 32.775781,130.405353 C40.847523,131.626353 49.960501,131.287353 59.435938,125.839353 C61.1383998,124.887857 62.1976249,123.094324 62.2088947,121.144044 C62.2201646,119.193763 61.1817378,117.388109 59.4903859,116.417002 C57.7990341,115.445895 55.716119,115.459398 54.0375,116.452353 C47.689773,120.102353 42.585888,120.638353 36.816797,120.014353 C39.770255,115.509353 43.159953,112.538953 49.070703,108.458153 C51.0927895,107.104843 51.9638566,104.568936 51.2001631,102.25873 C50.4364696,99.9485236 48.2255861,98.4314283 45.795312,98.5499525 C44.7607974,98.6000012 43.76234,98.9457015 42.918359,99.5460525 C35.08398,104.954953 29.80131,110.174253 25.496484,117.925353 C23.437165,117.477353 21.317036,117.033353 19.066797,116.628353 C23.509035,109.944353 29.441404,103.831353 36.164453,97.6203525 C36.585822,97.2310525 37.032605,96.8414525 37.459375,96.4523525 C38.3044405,96.0202855 39.0210924,95.3736822 39.5375,94.5773525 C42.796445,91.6553525 46.150287,88.7020525 49.539453,85.6828525 C55.516204,86.7627525 62.675319,88.9117525 70.322656,90.6574525 C69.54267,94.0498525 68.308724,97.3518525 67.258203,101.174953 C65.677396,106.928053 65.050868,114.195653 68.935938,122.063353 C69.7770425,123.824179 71.5005441,124.996219 73.4472701,125.131212 C75.3939961,125.266206 77.2627719,124.343269 78.338863,122.715389 C79.4149541,121.087509 79.5318804,119.006533 78.644922,117.268353 C75.962709,111.837053 76.422412,108.692253 77.699609,104.044153 C78.569846,100.877053 80.046319,97.1449525 81.004297,92.6417525 C81.298044,92.6807525 81.590936,92.7257525 81.885156,92.7609525 C94.912038,94.3356525 109.43122,92.0670525 119.67031,79.0382525 C121.011916,77.3799908 121.254983,75.088595 120.291129,73.1857747 C119.327276,71.2829545 117.336109,70.1232856 115.20547,70.2238525 C107.94743,62.6605525 99.03514,59.9798525 92.527734,56.6203525 C91.7277295,56.1929157 90.8331668,55.9732948 89.926172,55.9816525 C87.4238631,56.0056666 85.2639687,57.7412698 84.701814,60.1797342 C84.1396593,62.6181987 85.3217003,65.1242396 87.560938,66.2413525 C94.90898,70.0351525 101.55594,72.1972525 106.65469,77.0128525 C99.952056,82.5300525 92.266948,83.1088525 83.183984,82.0109525 C82.197194,81.8916525 81.199553,81.7392525 80.197656,81.5734525 C79.2276299,80.6571859 77.9534367,80.1313593 76.619531,80.0968525 C75.9064316,80.0792445 75.1968804,80.2027088 74.531641,80.4601525 C69.485262,79.3297525 64.338885,77.9023525 59.252344,76.6749525 C65.469562,70.5681525 71.331358,63.9218525 76.113672,56.2785525 C85.684546,55.2632526 95.45626,52.2615525 104.64102,49.8527525 C104.900045,49.8950361 105.161802,49.9184311 105.42422,49.9227525 C108.574,54.4714525 112.56759,57.0862525 115.60977,59.1512525 C119.72784,61.9465525 122.53877,63.7781525 124.975,70.9422525 C125.579178,72.7976024 127.13487,74.1843888 129.047168,74.5722939 C130.959466,74.960199 132.932571,74.2892207 134.211952,72.8159463 C135.491334,71.342672 135.879094,69.294991 135.22695,67.4559525 C131.98704,57.9284525 126.13028,53.2050525 121.6918,50.1922525 C119.95894,49.0160525 118.51485,48.1022525 117.26797,47.1043525 C124.54703,45.9924525 130.75128,46.1241525 135.13906,48.3895525 C136.862394,49.3208586 138.954353,49.2487687 140.609489,48.2010391 C142.264624,47.1533095 143.22482,45.293332 143.120379,43.3372383 C143.015938,41.3811446 141.863149,39.6339845 140.10586,38.7684525 C134.87016,36.0653525 129.22505,35.2546525 123.41836,35.4774525 C120.48105,35.5900525 117.50319,35.9702525 114.51602,36.5008525 C116.29453,31.0687525 117.34973,26.3732525 119.28359,21.5633525 C119.995073,19.8629784 119.792702,17.9174567 118.746497,16.3999147 C117.700291,14.8823728 115.953963,14.0012682 114.11172,14.0614525 C111.938921,14.1324257 110.019237,15.496012 109.23672,17.5242525 C105.99769,25.5806525 105.11238,31.7419525 101.8793,39.3700525 C94.976847,41.1535525 88.145344,43.0967525 81.842188,44.3797525 C82.891849,41.3834525 83.711181,38.5254525 84.613672,35.8953525 C86.431584,30.5977525 88.402694,26.2291525 92.930078,21.9676525 C94.576745,20.4598705 95.1291134,18.095964 94.3211122,16.0146055 C93.5131109,13.933247 91.5104265,12.5612339 89.277734,12.5594525 C88.8726959,12.5611725 88.4691297,12.6083342 88.074609,12.7000525 C85.663641,11.7053525 84.826203,11.0521525 84.371484,10.4657525 C83.824926,9.76075255 83.155371,7.96445255 81.88125,4.21765255 C81.1303753,1.90391732 78.9287203,0.374893619 76.498438,0.47935255 L76.498438,0.47965255 Z" id="path6862" fill="#3D146F" fill-rule="nonzero"></path>
    </g>
</svg>